<?xml version="1.0" encoding="UTF-8" standalone="no"?>
<svg width="155.222mm" height="211.667mm"
 viewBox="0 0 440 600"
 xmlns="http://www.w3.org/2000/svg" xmlns:xlink="http://www.w3.org/1999/xlink"  version="1.2" baseProfile="tiny">
<title>Qt Svg Document</title>
<desc>Generated with Qt</desc>
<defs>
</defs>
<g fill="none" stroke="black" vector-effect="non-scaling-stroke" stroke-width="1" fill-rule="evenodd" stroke-linecap="square" stroke-linejoin="bevel" >

<g fill="#000000" fill-opacity="1" stroke="none" transform="matrix(1,0,0,1,0,0)"
font-family="Helvetica" font-size="12pt" font-weight="400" font-style="normal" 
>
<path fill-rule="evenodd" d="M75.3307,457.728 L150.035,320.462 L142.714,384.886 L75.3307,457.728"/>
<path fill-rule="evenodd" d="M104.15,329.469 L152.653,297.388 L151.889,304.111 L104.15,329.469"/>
<path fill-rule="evenodd" d="M73.6348,287.424 L156.66,262.158 L153.243,292.199 L73.6348,287.424"/>
<path fill-rule="evenodd" d="M19.4355,196.729 L159.561,236.642 L157.674,253.236 L19.4355,196.729"/>
<path fill-rule="evenodd" d="M91.0966,155.949 L163.489,202.085 L161.288,221.448 L91.0966,155.949"/>
<path fill-rule="evenodd" d="M160.711,90.2427 L173.284,115.902 L171.002,135.982 L160.711,90.2427"/>
<path fill-rule="evenodd" d="M173.284,115.902 L183.421,26.7377 L200.164,170.771 L173.284,115.902"/>
<path fill-rule="evenodd" d="M163.489,202.085 L171.002,135.982 L189.629,218.745 L163.489,202.085"/>
<path fill-rule="evenodd" d="M159.561,236.642 L161.288,221.448 L185.438,244 L159.561,236.642"/>
<path fill-rule="evenodd" d="M156.66,262.158 L157.674,253.236 L169.75,258.173 L156.66,262.158"/>
<path fill-rule="evenodd" d="M152.653,297.388 L153.243,292.199 L159.878,292.602 L152.653,297.388"/>
<path fill-rule="evenodd" d="M150.035,320.462 L151.889,304.111 L161.796,298.848 L150.035,320.462"/>
<path fill-rule="evenodd" d="M159.878,292.602 L168.213,287.082 L165.035,292.909 L159.878,292.602"/>
<path fill-rule="evenodd" d="M169.75,258.173 L186.74,253.008 L181.354,262.918 L169.75,258.173"/>
<path fill-rule="evenodd" d="M185.438,244 L190.819,245.534 L189.561,247.843 L185.438,244"/>
<path fill-rule="evenodd" d="M189.629,218.745 L201.331,226.205 L194.242,239.227 L189.629,218.745"/>
<path fill-rule="evenodd" d="M200.164,170.771 L215.011,201.075 L205.681,218.211 L200.164,170.771"/>
<path fill-rule="evenodd" d="M201.331,226.205 L205.681,218.211 L207.033,229.843 L201.331,226.205"/>
<path fill-rule="evenodd" d="M190.819,245.534 L194.242,239.227 L195.984,247.01 L190.819,245.534"/>
<path fill-rule="evenodd" d="M186.74,253.008 L189.561,247.843 L193.049,251.083 L186.74,253.008"/>
<path fill-rule="evenodd" d="M195.984,247.01 L201.382,248.555 L196.662,249.992 L195.984,247.01"/>
<path fill-rule="evenodd" d="M207.033,229.843 L225.028,241.327 L208.937,246.238 L207.033,229.843"/>
<path fill-rule="evenodd" d="M201.382,248.555 L208.937,246.238 L209.475,250.877 L201.382,248.555"/>
<path fill-rule="evenodd" d="M193.049,251.083 L196.662,249.992 L197.939,255.643 L193.049,251.083"/>
<path fill-rule="evenodd" d="M168.213,287.082 L181.354,262.918 L195.81,268.833 L168.213,287.082"/>
<path fill-rule="evenodd" d="M197.939,255.643 L205.345,262.537 L200.244,265.905 L197.939,255.643"/>
<path fill-rule="evenodd" d="M209.475,250.877 L218.908,253.566 L210.436,259.171 L209.475,250.877"/>
<path fill-rule="evenodd" d="M205.345,262.537 L210.436,259.171 L211.468,268.223 L205.345,262.537"/>
<path fill-rule="evenodd" d="M195.81,268.833 L200.244,265.905 L201.416,271.12 L195.81,268.833"/>
<path fill-rule="evenodd" d="M161.796,298.848 L165.035,292.909 L172.174,293.333 L161.796,298.848"/>
<path fill-rule="evenodd" d="M201.416,271.12 L208.478,274.016 L202.75,277.075 L201.416,271.12"/>
<path fill-rule="evenodd" d="M211.468,268.223 L214.352,270.914 L211.939,272.189 L211.468,268.223"/>
<path fill-rule="evenodd" d="M208.478,274.016 L211.939,272.189 L212.351,275.6 L208.478,274.016"/>
<path fill-rule="evenodd" d="M172.174,293.333 L202.75,277.075 L206.871,295.418 L172.174,293.333"/>
<path fill-rule="evenodd" d="M122.649,561.493 L142.714,384.886 L202.832,319.899 L122.649,561.493"/>
<path fill-rule="evenodd" d="M206.871,295.418 L210.877,295.662 L208.527,302.76 L206.871,295.418"/>
<path fill-rule="evenodd" d="M212.351,275.6 L216.921,277.465 L213.694,287.168 L212.351,275.6"/>
<path fill-rule="evenodd" d="M214.352,270.914 L220.121,267.833 L217.969,274.3 L214.352,270.914"/>
<path fill-rule="evenodd" d="M218.908,253.566 L226.507,248.553 L224.338,255.114 L218.908,253.566"/>
<path fill-rule="evenodd" d="M225.028,241.327 L229.347,240.021 L228.236,243.36 L225.028,241.327"/>
<path fill-rule="evenodd" d="M215.011,201.075 L284.844,72.7802 L231.259,234.219 L215.011,201.075"/>
<path fill-rule="evenodd" d="M229.347,240.021 L231.259,234.219 L233.485,238.77 L229.347,240.021"/>
<path fill-rule="evenodd" d="M226.507,248.553 L228.236,243.36 L231.364,245.343 L226.507,248.553"/>
<path fill-rule="evenodd" d="M233.485,238.77 L247.936,234.375 L235.394,242.675 L233.485,238.77"/>
<path fill-rule="evenodd" d="M231.364,245.343 L235.394,242.675 L239.105,250.27 L231.364,245.343"/>
<path fill-rule="evenodd" d="M220.121,267.833 L224.338,255.114 L237.159,258.775 L220.121,267.833"/>
<path fill-rule="evenodd" d="M239.105,250.27 L245.518,254.349 L242.011,256.203 L239.105,250.27"/>
<path fill-rule="evenodd" d="M237.159,258.775 L242.011,256.203 L244.271,260.801 L237.159,258.775"/>
<path fill-rule="evenodd" d="M216.921,277.465 L217.969,274.3 L224.782,280.667 L216.921,277.465"/>
<path fill-rule="evenodd" d="M210.877,295.662 L213.694,287.168 L214.712,295.895 L210.877,295.662"/>
<path fill-rule="evenodd" d="M202.832,319.899 L208.527,302.76 L210.518,311.591 L202.832,319.899"/>
<path fill-rule="evenodd" d="M214.712,295.895 L224.494,296.48 L215.859,305.814 L214.712,295.895"/>
<path fill-rule="evenodd" d="M224.782,280.667 L235.199,284.91 L232.472,287.855 L224.782,280.667"/>
<path fill-rule="evenodd" d="M244.271,260.801 L254.724,263.787 L248.845,270.153 L244.271,260.801"/>
<path fill-rule="evenodd" d="M245.518,254.349 L280.826,235.576 L256.809,261.54 L245.518,254.349"/>
<path fill-rule="evenodd" d="M247.936,234.375 L335.503,176.463 L295.26,219.972 L247.936,234.375"/>
<path fill-rule="evenodd" d="M280.826,235.576 L295.26,219.972 L330.147,209.359 L280.826,235.576"/>
<path fill-rule="evenodd" d="M254.724,263.787 L256.809,261.54 L264.847,266.668 L254.724,263.787"/>
<path fill-rule="evenodd" d="M235.199,284.91 L248.845,270.153 L261.277,295.555 L235.199,284.91"/>
<path fill-rule="evenodd" d="M224.494,296.48 L232.472,287.855 L242.913,297.588 L224.494,296.48"/>
<path fill-rule="evenodd" d="M261.277,295.555 L270.29,299.244 L262.879,298.798 L261.277,295.555"/>
<path fill-rule="evenodd" d="M264.847,266.668 L408.145,307.496 L320.662,302.255 L264.847,266.668"/>
<path fill-rule="evenodd" d="M270.29,299.244 L320.662,302.255 L397.522,351.253 L270.29,299.244"/>
<path fill-rule="evenodd" d="M242.913,297.588 L262.879,298.798 L278.589,330.867 L242.913,297.588"/>
<path fill-rule="evenodd" d="M210.518,311.591 L215.859,305.814 L222.916,366.623 L210.518,311.591"/>
<path fill-rule="evenodd" d="M116.502,0 L140.4,0 L160.711,90.2427 L116.502,0"/>
<path fill-rule="evenodd" d="M0,97.8868 L0,70.9612 L91.0966,155.949 L0,97.8868"/>
<path fill-rule="evenodd" d="M0,191.191 L0,188.786 L19.4355,196.729 L0,191.191"/>
<path fill-rule="evenodd" d="M0,309.833 L0,283.005 L73.6348,287.424 L0,309.833"/>
<path fill-rule="evenodd" d="M0,398.349 L0,384.821 L104.15,329.469 L0,398.349"/>
<path fill-rule="evenodd" d="M0,596.136 L0,539.166 L75.3307,457.728 L0,596.136"/>
<path fill-rule="evenodd" d="M118.273,600 L109.869,600 L122.649,561.493 L118.273,600"/>
<path fill-rule="evenodd" d="M308.998,0 L324.455,0 L284.844,72.7802 L308.998,0"/>
<path fill-rule="evenodd" d="M440,63.4951 L440,107.354 L335.503,176.463 L440,63.4951"/>
<path fill-rule="evenodd" d="M440,150.976 L440,175.927 L330.147,209.359 L440,150.976"/>
<path fill-rule="evenodd" d="M440,309.407 L440,316.573 L408.145,307.496 L440,309.407"/>
<path fill-rule="evenodd" d="M440,368.614 L440,378.327 L397.522,351.253 L440,368.614"/>
<path fill-rule="evenodd" d="M440,481.453 L440,600 L410.433,600 L278.589,330.867 L440,481.453"/>
<path fill-rule="evenodd" d="M275.442,600 L250.035,600 L222.916,366.623 L275.442,600"/>
<path fill-rule="evenodd" d="M180.314,0 L186.46,0 L183.421,26.7377 L180.314,0"/>
</g>
</g>
</svg>
