<?xml version="1.0" encoding="UTF-8" standalone="no"?>
<svg width="175.331mm" height="211.667mm"
 viewBox="0 0 497 600"
 xmlns="http://www.w3.org/2000/svg" xmlns:xlink="http://www.w3.org/1999/xlink"  version="1.2" baseProfile="tiny">
<title>Qt Svg Document</title>
<desc>Generated with Qt</desc>
<defs>
</defs>
<g fill="none" stroke="black" vector-effect="non-scaling-stroke" stroke-width="1" fill-rule="evenodd" stroke-linecap="square" stroke-linejoin="bevel" >

<g fill="#000000" fill-opacity="1" stroke="none" transform="matrix(1,0,0,1,0,0)"
font-family="Helvetica" font-size="12pt" font-weight="400" font-style="normal" 
>
<path fill-rule="evenodd" d="M126.44,469.747 L172.345,380.197 L167.297,419.529 L126.44,469.747"/>
<path fill-rule="evenodd" d="M149.347,365.623 L176.829,345.165 L175.591,354.854 L149.347,365.623"/>
<path fill-rule="evenodd" d="M22.2535,334.859 L182.561,300.661 L177.629,338.971 L22.2535,334.859"/>
<path fill-rule="evenodd" d="M67.7408,247.808 L185.614,276.921 L183.773,291.231 L67.7408,247.808"/>
<path fill-rule="evenodd" d="M79.4246,136.704 L193.683,214.129 L188.433,254.984 L79.4246,136.704"/>
<path fill-rule="evenodd" d="M172.584,84.8177 L202.734,143.696 L197.921,181.153 L172.584,84.8177"/>
<path fill-rule="evenodd" d="M202.734,143.696 L217.786,26.5999 L243.35,223.01 L202.734,143.696"/>
<path fill-rule="evenodd" d="M193.683,214.129 L197.921,181.153 L209.405,224.785 L193.683,214.129"/>
<path fill-rule="evenodd" d="M185.614,276.921 L188.433,254.984 L215.353,284.238 L185.614,276.921"/>
<path fill-rule="evenodd" d="M182.561,300.661 L183.773,291.231 L199.375,297.074 L182.561,300.661"/>
<path fill-rule="evenodd" d="M176.829,345.165 L177.629,338.971 L184.875,339.164 L176.829,345.165"/>
<path fill-rule="evenodd" d="M172.345,380.197 L175.591,354.854 L187.947,349.774 L172.345,380.197"/>
<path fill-rule="evenodd" d="M184.875,339.164 L198.681,328.851 L193.275,339.396 L184.875,339.164"/>
<path fill-rule="evenodd" d="M199.375,297.074 L216.833,293.372 L212.441,301.975 L199.375,297.074"/>
<path fill-rule="evenodd" d="M215.353,284.238 L220.84,285.61 L219.341,288.534 L215.353,284.238"/>
<path fill-rule="evenodd" d="M209.405,224.785 L241.027,246.223 L223.865,279.66 L209.405,224.785"/>
<path fill-rule="evenodd" d="M243.35,223.01 L248.138,232.371 L245.3,237.919 L243.35,223.01"/>
<path fill-rule="evenodd" d="M241.027,246.223 L245.3,237.919 L246.92,250.22 L241.027,246.223"/>
<path fill-rule="evenodd" d="M220.84,285.61 L223.865,279.66 L225.745,286.853 L220.84,285.61"/>
<path fill-rule="evenodd" d="M216.833,293.372 L219.341,288.534 L222.68,292.113 L216.833,293.372"/>
<path fill-rule="evenodd" d="M225.745,286.853 L235.574,289.323 L226.894,291.213 L225.745,286.853"/>
<path fill-rule="evenodd" d="M222.68,292.113 L226.894,291.213 L228.831,298.722 L222.68,292.113"/>
<path fill-rule="evenodd" d="M198.681,328.851 L212.441,301.975 L227.221,307.544 L198.681,328.851"/>
<path fill-rule="evenodd" d="M228.831,298.722 L233.047,303.256 L230.515,305.123 L228.831,298.722"/>
<path fill-rule="evenodd" d="M227.221,307.544 L230.515,305.123 L231.594,309.162 L227.221,307.544"/>
<path fill-rule="evenodd" d="M187.947,349.774 L193.275,339.396 L211.924,339.909 L187.947,349.774"/>
<path fill-rule="evenodd" d="M149.451,558.599 L167.297,419.529 L220.548,354.069 L149.451,558.599"/>
<path fill-rule="evenodd" d="M211.924,339.909 L227.747,333.4 L225.344,340.267 L211.924,339.909"/>
<path fill-rule="evenodd" d="M231.594,309.162 L235.659,310.68 L233.561,316.75 L231.594,309.162"/>
<path fill-rule="evenodd" d="M233.047,303.256 L240.018,298.071 L236.8,307.335 L233.047,303.256"/>
<path fill-rule="evenodd" d="M235.574,289.323 L243.696,287.556 L242.46,291.048 L235.574,289.323"/>
<path fill-rule="evenodd" d="M246.92,250.22 L254.798,255.562 L249.572,270.609 L246.92,250.22"/>
<path fill-rule="evenodd" d="M248.138,232.371 L293.765,143.419 L256.897,249.483 L248.138,232.371"/>
<path fill-rule="evenodd" d="M254.798,255.562 L256.897,249.483 L262.752,260.948 L254.798,255.562"/>
<path fill-rule="evenodd" d="M243.696,287.556 L249.572,270.609 L251.562,285.873 L243.696,287.556"/>
<path fill-rule="evenodd" d="M240.018,298.071 L242.46,291.048 L247.698,292.341 L240.018,298.071"/>
<path fill-rule="evenodd" d="M251.562,285.873 L258.373,284.434 L251.995,289.17 L251.562,285.873"/>
<path fill-rule="evenodd" d="M262.752,260.948 L276.956,270.547 L270.213,275.569 L262.752,260.948"/>
<path fill-rule="evenodd" d="M258.373,284.434 L270.213,275.569 L273.152,281.324 L258.373,284.434"/>
<path fill-rule="evenodd" d="M247.698,292.341 L251.995,289.17 L252.589,293.56 L247.698,292.341"/>
<path fill-rule="evenodd" d="M235.659,310.68 L236.8,307.335 L242.026,313.042 L235.659,310.68"/>
<path fill-rule="evenodd" d="M227.747,333.4 L233.561,316.75 L236.95,329.595 L227.747,333.4"/>
<path fill-rule="evenodd" d="M220.548,354.069 L225.344,340.267 L231.649,340.429 L220.548,354.069"/>
<path fill-rule="evenodd" d="M236.95,329.595 L242.239,327.434 L237.807,332.909 L236.95,329.595"/>
<path fill-rule="evenodd" d="M242.026,313.042 L251.131,316.407 L248.299,319.904 L242.026,313.042"/>
<path fill-rule="evenodd" d="M252.589,293.56 L266.879,297.064 L254.949,311.692 L252.589,293.56"/>
<path fill-rule="evenodd" d="M273.152,281.324 L280.997,279.682 L275.677,286.267 L273.152,281.324"/>
<path fill-rule="evenodd" d="M276.956,270.547 L306.078,248.862 L284.358,275.544 L276.956,270.547"/>
<path fill-rule="evenodd" d="M280.997,279.682 L284.358,275.544 L288.239,278.158 L280.997,279.682"/>
<path fill-rule="evenodd" d="M266.879,297.064 L275.677,286.267 L283.276,301.104 L266.879,297.064"/>
<path fill-rule="evenodd" d="M251.131,316.407 L254.949,311.692 L255.751,318.108 L251.131,316.407"/>
<path fill-rule="evenodd" d="M242.239,327.434 L248.299,319.904 L251.705,323.602 L242.239,327.434"/>
<path fill-rule="evenodd" d="M255.751,318.108 L260.726,319.946 L256.227,321.775 L255.751,318.108"/>
<path fill-rule="evenodd" d="M283.276,301.104 L297.763,304.684 L287.309,308.983 L283.276,301.104"/>
<path fill-rule="evenodd" d="M288.239,278.158 L442.388,245.247 L316.16,297.119 L288.239,278.158"/>
<path fill-rule="evenodd" d="M297.763,304.684 L316.16,297.119 L344.313,316.209 L297.763,304.684"/>
<path fill-rule="evenodd" d="M260.726,319.946 L287.309,308.983 L300.562,334.884 L260.726,319.946"/>
<path fill-rule="evenodd" d="M251.705,323.602 L256.227,321.775 L257.269,329.634 L251.705,323.602"/>
<path fill-rule="evenodd" d="M231.649,340.429 L237.807,332.909 L239.873,340.652 L231.649,340.429"/>
<path fill-rule="evenodd" d="M257.269,329.634 L268.144,341.4 L258.756,341.148 L257.269,329.634"/>
<path fill-rule="evenodd" d="M300.562,334.884 L321.725,342.813 L304.396,342.36 L300.562,334.884"/>
<path fill-rule="evenodd" d="M344.313,316.209 L467.322,346.658 L386.07,344.514 L344.313,316.209"/>
<path fill-rule="evenodd" d="M321.725,342.813 L386.07,344.514 L459.633,394.388 L321.725,342.813"/>
<path fill-rule="evenodd" d="M268.144,341.4 L304.396,342.36 L348.482,428.519 L268.144,341.4"/>
<path fill-rule="evenodd" d="M239.873,340.652 L258.756,341.148 L277.053,481.832 L239.873,340.652"/>
<path fill-rule="evenodd" d="M129.176,0 L150.265,0 L172.584,84.8177 L129.176,0"/>
<path fill-rule="evenodd" d="M0,82.8745 L0,50.5614 L79.4246,136.704 L0,82.8745"/>
<path fill-rule="evenodd" d="M0,231.05 L0,222.471 L67.7408,247.808 L0,231.05"/>
<path fill-rule="evenodd" d="M0,339.605 L0,334.269 L22.2535,334.859 L0,339.605"/>
<path fill-rule="evenodd" d="M0,476.882 L0,426.971 L149.347,365.623 L0,476.882"/>
<path fill-rule="evenodd" d="M59.6523,600 L20.5096,600 L126.44,469.747 L59.6523,600"/>
<path fill-rule="evenodd" d="M144.133,600 L135.06,600 L149.451,558.599 L144.133,600"/>
<path fill-rule="evenodd" d="M343.617,0 L367.304,0 L293.765,143.419 L343.617,0"/>
<path fill-rule="evenodd" d="M497.143,13.9264 L497.143,106.524 L306.078,248.862 L497.143,13.9264"/>
<path fill-rule="evenodd" d="M497.143,222.755 L497.143,233.569 L442.388,245.247 L497.143,222.755"/>
<path fill-rule="evenodd" d="M497.143,347.448 L497.143,354.035 L467.322,346.658 L497.143,347.448"/>
<path fill-rule="evenodd" d="M497.143,408.417 L497.143,419.81 L459.633,394.388 L497.143,408.417"/>
<path fill-rule="evenodd" d="M497.143,589.754 L497.143,600 L436.242,600 L348.482,428.519 L497.143,589.754"/>
<path fill-rule="evenodd" d="M308.148,600 L292.438,600 L277.053,481.832 L308.148,600"/>
<path fill-rule="evenodd" d="M214.322,0 L221.202,0 L217.786,26.5999 L214.322,0"/>
</g>
</g>
</svg>
