<?xml version="1.0" encoding="UTF-8" standalone="no"?>
<svg width="144.639mm" height="211.667mm"
 viewBox="0 0 410 600"
 xmlns="http://www.w3.org/2000/svg" xmlns:xlink="http://www.w3.org/1999/xlink"  version="1.2" baseProfile="tiny">
<title>Qt Svg Document</title>
<desc>Generated with Qt</desc>
<defs>
</defs>
<g fill="none" stroke="black" vector-effect="non-scaling-stroke" stroke-width="1" fill-rule="evenodd" stroke-linecap="square" stroke-linejoin="bevel" >

<g fill="#000000" fill-opacity="1" stroke="none" transform="matrix(1,0,0,1,0,0)"
font-family="Helvetica" font-size="12pt" font-weight="400" font-style="normal" 
>
<path fill-rule="evenodd" d="M86.1817,492.304 L109.637,449.805 L107.322,467.406 L86.1817,492.304"/>
<path fill-rule="evenodd" d="M18.068,428.002 L122.641,350.92 L118.804,380.119 L18.068,428.002"/>
<path fill-rule="evenodd" d="M85.9568,343.831 L124.484,336.915 L123.674,343.083 L85.9568,343.831"/>
<path fill-rule="evenodd" d="M42.0043,288.094 L128.824,303.954 L125.17,331.686 L42.0043,288.094"/>
<path fill-rule="evenodd" d="M32.2235,188.943 L133.376,269.354 L130.716,289.568 L32.2235,188.943"/>
<path fill-rule="evenodd" d="M99.3579,71.217 L148.449,154.794 L142.454,200.364 L99.3579,71.217"/>
<path fill-rule="evenodd" d="M148.449,154.794 L165.304,26.6995 L192.976,230.607 L148.449,154.794"/>
<path fill-rule="evenodd" d="M133.376,269.354 L142.454,200.364 L177.037,304.041 L133.376,269.354"/>
<path fill-rule="evenodd" d="M128.824,303.954 L130.716,289.568 L148.277,307.508 L128.824,303.954"/>
<path fill-rule="evenodd" d="M124.484,336.915 L125.17,331.686 L132.415,335.49 L124.484,336.915"/>
<path fill-rule="evenodd" d="M122.641,350.92 L123.674,343.083 L133.523,342.889 L122.641,350.92"/>
<path fill-rule="evenodd" d="M132.415,335.49 L147.183,332.831 L138.933,338.907 L132.415,335.49"/>
<path fill-rule="evenodd" d="M148.277,307.508 L174.884,312.385 L162.21,321.743 L148.277,307.508"/>
<path fill-rule="evenodd" d="M177.037,304.041 L181.462,307.562 L178.86,309.47 L177.037,304.041"/>
<path fill-rule="evenodd" d="M174.884,312.385 L178.86,309.47 L180.16,313.338 L174.884,312.385"/>
<path fill-rule="evenodd" d="M147.183,332.831 L162.21,321.743 L169.191,328.881 L147.183,332.831"/>
<path fill-rule="evenodd" d="M133.523,342.889 L138.933,338.907 L146.069,342.643 L133.523,342.889"/>
<path fill-rule="evenodd" d="M109.637,449.805 L118.804,380.119 L158.521,361.243 L109.637,449.805"/>
<path fill-rule="evenodd" d="M146.069,342.643 L169.05,342.176 L163.686,351.888 L146.069,342.643"/>
<path fill-rule="evenodd" d="M169.191,328.881 L177.182,327.449 L173.798,333.585 L169.191,328.881"/>
<path fill-rule="evenodd" d="M180.16,313.338 L184.53,314.14 L181.971,318.788 L180.16,313.338"/>
<path fill-rule="evenodd" d="M181.462,307.562 L192.759,299.228 L186.113,311.263 L181.462,307.562"/>
<path fill-rule="evenodd" d="M192.976,230.607 L212.389,263.657 L200.408,285.36 L192.976,230.607"/>
<path fill-rule="evenodd" d="M192.759,299.228 L200.408,285.36 L201.418,292.847 L192.759,299.228"/>
<path fill-rule="evenodd" d="M184.53,314.14 L186.113,311.263 L191.2,315.34 L184.53,314.14"/>
<path fill-rule="evenodd" d="M177.182,327.449 L181.971,318.788 L184.44,326.151 L177.182,327.449"/>
<path fill-rule="evenodd" d="M169.05,342.176 L173.798,333.585 L181.904,341.895 L169.05,342.176"/>
<path fill-rule="evenodd" d="M158.521,361.243 L163.686,351.888 L170.585,355.505 L158.521,361.243"/>
<path fill-rule="evenodd" d="M95.0558,560.69 L107.322,467.406 L159.209,406.287 L95.0558,560.69"/>
<path fill-rule="evenodd" d="M170.585,355.505 L182.675,349.772 L178.568,359.693 L170.585,355.505"/>
<path fill-rule="evenodd" d="M181.904,341.895 L185.993,341.825 L184.76,344.796 L181.904,341.895"/>
<path fill-rule="evenodd" d="M184.44,326.151 L193.149,324.59 L188.033,336.872 L184.44,326.151"/>
<path fill-rule="evenodd" d="M191.2,315.34 L196.604,316.308 L195.558,318.824 L191.2,315.34"/>
<path fill-rule="evenodd" d="M201.418,292.847 L208.527,287.601 L202.629,301.796 L201.418,292.847"/>
<path fill-rule="evenodd" d="M212.389,263.657 L236.918,219.241 L215.951,269.728 L212.389,263.657"/>
<path fill-rule="evenodd" d="M208.527,287.601 L215.951,269.728 L221.037,278.385 L208.527,287.601"/>
<path fill-rule="evenodd" d="M196.604,316.308 L202.629,301.796 L204.808,317.823 L196.604,316.308"/>
<path fill-rule="evenodd" d="M193.149,324.59 L195.558,318.824 L201.034,323.163 L193.149,324.59"/>
<path fill-rule="evenodd" d="M204.808,317.823 L217.685,320.184 L205.435,322.38 L204.808,317.823"/>
<path fill-rule="evenodd" d="M201.034,323.163 L205.435,322.38 L206.091,327.186 L201.034,323.163"/>
<path fill-rule="evenodd" d="M185.993,341.825 L188.033,336.872 L189.663,341.764 L185.993,341.825"/>
<path fill-rule="evenodd" d="M182.675,349.772 L184.76,344.796 L187.429,347.507 L182.675,349.772"/>
<path fill-rule="evenodd" d="M189.663,341.764 L199.891,341.566 L191.008,345.802 L189.663,341.764"/>
<path fill-rule="evenodd" d="M206.091,327.186 L215.092,334.331 L207.54,337.918 L206.091,327.186"/>
<path fill-rule="evenodd" d="M199.891,341.566 L207.54,337.918 L208.008,341.41 L199.891,341.566"/>
<path fill-rule="evenodd" d="M187.429,347.507 L191.008,345.802 L193.7,353.906 L187.429,347.507"/>
<path fill-rule="evenodd" d="M159.209,406.287 L178.568,359.693 L192.539,367.023 L159.209,406.287"/>
<path fill-rule="evenodd" d="M193.7,353.906 L199.052,359.36 L196.513,362.353 L193.7,353.906"/>
<path fill-rule="evenodd" d="M208.008,341.41 L214.404,341.274 L208.869,347.803 L208.008,341.41"/>
<path fill-rule="evenodd" d="M215.092,334.331 L223.816,330.192 L218.211,336.801 L215.092,334.331"/>
<path fill-rule="evenodd" d="M217.685,320.184 L234.929,317.088 L230.333,322.501 L217.685,320.184"/>
<path fill-rule="evenodd" d="M221.037,278.385 L345.959,186.306 L240.155,310.926 L221.037,278.385"/>
<path fill-rule="evenodd" d="M234.929,317.088 L240.155,310.926 L242.926,315.649 L234.929,317.088"/>
<path fill-rule="evenodd" d="M223.816,330.192 L230.333,322.501 L237.328,323.776 L223.816,330.192"/>
<path fill-rule="evenodd" d="M242.926,315.649 L261.383,312.337 L245.436,319.924 L242.926,315.649"/>
<path fill-rule="evenodd" d="M237.328,323.776 L245.436,319.924 L248.952,325.905 L237.328,323.776"/>
<path fill-rule="evenodd" d="M214.404,341.274 L218.211,336.801 L223.622,341.096 L214.404,341.274"/>
<path fill-rule="evenodd" d="M248.952,325.905 L321.38,339.135 L257.467,340.413 L248.952,325.905"/>
<path fill-rule="evenodd" d="M223.622,341.096 L257.467,340.413 L287.875,392.191 L223.622,341.096"/>
<path fill-rule="evenodd" d="M199.052,359.36 L208.869,347.803 L212.262,372.847 L199.052,359.36"/>
<path fill-rule="evenodd" d="M192.539,367.023 L196.513,362.353 L199.262,370.548 L192.539,367.023"/>
<path fill-rule="evenodd" d="M212.262,372.847 L221.338,382.126 L212.938,377.721 L212.262,372.847"/>
<path fill-rule="evenodd" d="M287.875,392.191 L379.428,464.988 L308.926,428.034 L287.875,392.191"/>
<path fill-rule="evenodd" d="M221.338,382.126 L308.926,428.034 L372.895,536.962 L221.338,382.126"/>
<path fill-rule="evenodd" d="M199.262,370.548 L212.938,377.721 L220.661,434.675 L199.262,370.548"/>
<path fill-rule="evenodd" d="M57.5314,0 L75.5895,0 L99.3579,71.217 L57.5314,0"/>
<path fill-rule="evenodd" d="M0,163.324 L0,156.025 L32.2235,188.943 L0,163.324"/>
<path fill-rule="evenodd" d="M0,280.42 L0,266.073 L42.0043,288.094 L0,280.42"/>
<path fill-rule="evenodd" d="M0,359.262 L0,345.545 L85.9568,343.831 L0,359.262"/>
<path fill-rule="evenodd" d="M0,441.32 L0,436.591 L18.068,428.002 L0,441.32"/>
<path fill-rule="evenodd" d="M26.7315,600 L0,600 L0,593.82 L86.1817,492.304 L26.7315,600"/>
<path fill-rule="evenodd" d="M89.8845,600 L78.7237,600 L95.0558,560.69 L89.8845,600"/>
<path fill-rule="evenodd" d="M328.006,0 L357.943,0 L236.918,219.241 L328.006,0"/>
<path fill-rule="evenodd" d="M410.526,110.251 L410.526,138.712 L345.959,186.306 L410.526,110.251"/>
<path fill-rule="evenodd" d="M410.526,241.439 L410.526,285.562 L261.383,312.337 L410.526,241.439"/>
<path fill-rule="evenodd" d="M410.526,337.357 L410.526,355.422 L321.38,339.135 L410.526,337.357"/>
<path fill-rule="evenodd" d="M410.526,481.291 L410.526,489.713 L379.428,464.988 L410.526,481.291"/>
<path fill-rule="evenodd" d="M410.526,575.405 L410.526,600 L409.918,600 L372.895,536.962 L410.526,575.405"/>
<path fill-rule="evenodd" d="M275.837,600 L243.093,600 L220.661,434.675 L275.837,600"/>
<path fill-rule="evenodd" d="M161.682,0 L168.817,0 L165.304,26.6995 L161.682,0"/>
</g>
</g>
</svg>
