<?xml version="1.0" encoding="UTF-8" standalone="no"?>
<svg width="220.133mm" height="211.667mm"
 viewBox="0 0 624 600"
 xmlns="http://www.w3.org/2000/svg" xmlns:xlink="http://www.w3.org/1999/xlink"  version="1.2" baseProfile="tiny">
<title>Qt Svg Document</title>
<desc>Generated with Qt</desc>
<defs>
</defs>
<g fill="none" stroke="black" vector-effect="non-scaling-stroke" stroke-width="1" fill-rule="evenodd" stroke-linecap="square" stroke-linejoin="bevel" >

<g fill="#000000" fill-opacity="1" stroke="none" transform="matrix(1,0,0,1,0,0)"
font-family="Helvetica" font-size="12pt" font-weight="400" font-style="normal" 
>
<path fill-rule="evenodd" d="M27.6131,245.669 L193.004,270.984 L108.688,285.464 L27.6131,245.669"/>
<path fill-rule="evenodd" d="M143.632,184.842 L240.447,262.834 L225.418,265.414 L143.632,184.842"/>
<path fill-rule="evenodd" d="M193.004,270.984 L225.418,265.414 L238.08,277.884 L193.004,270.984"/>
<path fill-rule="evenodd" d="M41.4176,297.02 L108.688,285.464 L142.547,302.082 L41.4176,297.02"/>
<path fill-rule="evenodd" d="M158.756,562.694 L233.259,414.197 L221.004,498.593 L158.756,562.694"/>
<path fill-rule="evenodd" d="M138.114,432.884 L240.209,366.306 L238.037,381.256 L138.114,432.884"/>
<path fill-rule="evenodd" d="M142.547,302.082 L248.767,307.396 L242.416,351.099 L142.547,302.082"/>
<path fill-rule="evenodd" d="M238.08,277.884 L252.724,280.137 L251.183,290.79 L238.08,277.884"/>
<path fill-rule="evenodd" d="M240.447,262.834 L255.62,260.227 L253.685,273.484 L240.447,262.834"/>
<path fill-rule="evenodd" d="M243.795,49.9095 L276.98,113.13 L271.427,151.37 L243.795,49.9095"/>
<path fill-rule="evenodd" d="M276.98,113.13 L289.485,27.0357 L316.204,187.862 L276.98,113.13"/>
<path fill-rule="evenodd" d="M255.62,260.227 L271.427,151.37 L299.047,252.774 L255.62,260.227"/>
<path fill-rule="evenodd" d="M252.724,280.137 L253.685,273.484 L264.121,281.888 L252.724,280.137"/>
<path fill-rule="evenodd" d="M248.767,307.396 L251.183,290.79 L269.074,308.407 L248.767,307.396"/>
<path fill-rule="evenodd" d="M240.209,366.306 L242.416,351.099 L254.441,357.011 L240.209,366.306"/>
<path fill-rule="evenodd" d="M233.259,414.197 L238.037,381.256 L253.898,373.058 L233.259,414.197"/>
<path fill-rule="evenodd" d="M254.441,357.011 L265.632,349.712 L260.479,359.969 L254.441,357.011"/>
<path fill-rule="evenodd" d="M269.074,308.407 L285.905,309.257 L280.629,319.788 L269.074,308.407"/>
<path fill-rule="evenodd" d="M264.121,281.888 L297.11,286.923 L289.406,302.274 L264.121,281.888"/>
<path fill-rule="evenodd" d="M299.047,252.774 L315.671,249.925 L304.398,272.4 L299.047,252.774"/>
<path fill-rule="evenodd" d="M316.204,187.862 L331.854,217.674 L323.817,233.691 L316.204,187.862"/>
<path fill-rule="evenodd" d="M315.671,249.925 L323.817,233.691 L326.201,248.111 L315.671,249.925"/>
<path fill-rule="evenodd" d="M297.11,286.923 L304.398,272.4 L308.831,288.71 L297.11,286.923"/>
<path fill-rule="evenodd" d="M285.905,309.257 L289.406,302.274 L298.835,309.891 L285.905,309.257"/>
<path fill-rule="evenodd" d="M265.632,349.712 L280.629,319.788 L292.943,331.917 L265.632,349.712"/>
<path fill-rule="evenodd" d="M253.898,373.058 L260.479,359.969 L270.101,364.684 L253.898,373.058"/>
<path fill-rule="evenodd" d="M210.966,567.75 L221.004,498.593 L247.668,471.134 L210.966,567.75"/>
<path fill-rule="evenodd" d="M270.101,364.684 L292.494,353.108 L285.271,372.136 L270.101,364.684"/>
<path fill-rule="evenodd" d="M292.943,331.917 L303.028,325.361 L298.481,337.368 L292.943,331.917"/>
<path fill-rule="evenodd" d="M298.835,309.891 L308.715,310.384 L306.543,316.104 L298.835,309.891"/>
<path fill-rule="evenodd" d="M308.831,288.71 L316.52,289.885 L312.229,301.137 L308.831,288.71"/>
<path fill-rule="evenodd" d="M326.201,248.111 L332.828,246.967 L328.082,259.472 L326.201,248.111"/>
<path fill-rule="evenodd" d="M331.854,217.674 L381.477,118.81 L338.865,231.035 L331.854,217.674"/>
<path fill-rule="evenodd" d="M332.828,246.967 L338.865,231.035 L346.043,244.708 L332.828,246.967"/>
<path fill-rule="evenodd" d="M316.52,289.885 L328.082,259.472 L333.583,292.498 L316.52,289.885"/>
<path fill-rule="evenodd" d="M308.715,310.384 L312.229,301.137 L314.833,310.69 L308.715,310.384"/>
<path fill-rule="evenodd" d="M303.028,325.361 L306.543,316.104 L311.323,319.956 L303.028,325.361"/>
<path fill-rule="evenodd" d="M314.833,310.69 L324.766,311.189 L316.447,316.615 L314.833,310.69"/>
<path fill-rule="evenodd" d="M333.583,292.498 L349.653,294.959 L335.527,304.158 L333.583,292.498"/>
<path fill-rule="evenodd" d="M346.043,244.708 L455.572,225.9 L366.608,283.9 L346.043,244.708"/>
<path fill-rule="evenodd" d="M349.653,294.959 L366.608,283.9 L374.393,298.744 L349.653,294.959"/>
<path fill-rule="evenodd" d="M324.766,311.189 L335.527,304.158 L336.8,311.807 L324.766,311.189"/>
<path fill-rule="evenodd" d="M311.323,319.956 L316.447,316.615 L319.05,326.18 L311.323,319.956"/>
<path fill-rule="evenodd" d="M292.494,353.108 L298.481,337.368 L306.908,345.658 L292.494,353.108"/>
<path fill-rule="evenodd" d="M319.05,326.18 L329.044,334.216 L322.188,337.762 L319.05,326.18"/>
<path fill-rule="evenodd" d="M336.8,311.807 L369.197,313.437 L339.612,328.745 L336.8,311.807"/>
<path fill-rule="evenodd" d="M374.393,298.744 L392.343,301.493 L379.358,308.192 L374.393,298.744"/>
<path fill-rule="evenodd" d="M369.197,313.437 L379.358,308.192 L382.463,314.097 L369.197,313.437"/>
<path fill-rule="evenodd" d="M329.044,334.216 L339.612,328.745 L342.296,344.905 L329.044,334.216"/>
<path fill-rule="evenodd" d="M306.908,345.658 L322.188,337.762 L330.709,369.077 L306.908,345.658"/>
<path fill-rule="evenodd" d="M247.668,471.134 L285.271,372.136 L324.905,391.593 L247.668,471.134"/>
<path fill-rule="evenodd" d="M330.709,369.077 L338.917,377.17 L334.233,382.002 L330.709,369.077"/>
<path fill-rule="evenodd" d="M342.296,344.905 L357.981,357.537 L346.379,369.476 L342.296,344.905"/>
<path fill-rule="evenodd" d="M382.463,314.097 L399.359,314.928 L388.668,325.94 L382.463,314.097"/>
<path fill-rule="evenodd" d="M392.343,301.493 L432.613,280.678 L409.81,304.167 L392.343,301.493"/>
<path fill-rule="evenodd" d="M455.572,225.9 L537.931,172.21 L491.852,219.67 L455.572,225.9"/>
<path fill-rule="evenodd" d="M432.613,280.678 L491.852,219.67 L579.876,204.558 L432.613,280.678"/>
<path fill-rule="evenodd" d="M399.359,314.928 L409.81,304.167 L518.986,320.898 L399.359,314.928"/>
<path fill-rule="evenodd" d="M357.981,357.537 L388.668,325.94 L439.889,423.537 L357.981,357.537"/>
<path fill-rule="evenodd" d="M338.917,377.17 L346.379,369.476 L349.369,387.48 L338.917,377.17"/>
<path fill-rule="evenodd" d="M324.905,391.593 L334.233,382.002 L338.703,398.364 L324.905,391.593"/>
<path fill-rule="evenodd" d="M349.369,387.48 L381.99,419.606 L352.285,405.031 L349.369,387.48"/>
<path fill-rule="evenodd" d="M439.889,423.537 L517.6,486.158 L457.199,456.517 L439.889,423.537"/>
<path fill-rule="evenodd" d="M381.99,419.606 L457.199,456.517 L497.554,533.415 L381.99,419.606"/>
<path fill-rule="evenodd" d="M338.703,398.364 L352.285,405.031 L370.609,515.451 L338.703,398.364"/>
<path fill-rule="evenodd" d="M217.601,0 L230.2,0 L243.795,49.9095 L217.601,0"/>
<path fill-rule="evenodd" d="M0,69.1145 L0,43.3813 L143.632,184.842 L0,69.1145"/>
<path fill-rule="evenodd" d="M0,241.441 L0,232.116 L27.6131,245.669 L0,241.441"/>
<path fill-rule="evenodd" d="M0,304.132 L0,294.949 L41.4176,297.02 L0,304.132"/>
<path fill-rule="evenodd" d="M0,522.932 L0,504.269 L138.114,432.884 L0,522.932"/>
<path fill-rule="evenodd" d="M140.037,600 L122.53,600 L158.756,562.694 L140.037,600"/>
<path fill-rule="evenodd" d="M206.283,600 L198.718,600 L210.966,567.75 L206.283,600"/>
<path fill-rule="evenodd" d="M426.602,0 L441.09,0 L381.477,118.81 L426.602,0"/>
<path fill-rule="evenodd" d="M624,83.5748 L624,116.095 L537.931,172.21 L624,83.5748"/>
<path fill-rule="evenodd" d="M624,181.752 L624,196.981 L579.876,204.558 L624,181.752"/>
<path fill-rule="evenodd" d="M624,326.148 L624,336.975 L518.986,320.898 L624,326.148"/>
<path fill-rule="evenodd" d="M624,538.379 L624,571.887 L517.6,486.158 L624,538.379"/>
<path fill-rule="evenodd" d="M565.161,600 L532.5,600 L497.554,533.415 L565.161,600"/>
<path fill-rule="evenodd" d="M393.641,600 L384.653,600 L370.609,515.451 L393.641,600"/>
<path fill-rule="evenodd" d="M284.994,0 L293.411,0 L289.485,27.0357 L284.994,0"/>
</g>
</g>
</svg>
