<?xml version="1.0" encoding="UTF-8" standalone="no"?>
<svg width="280.106mm" height="211.667mm"
 viewBox="0 0 794 600"
 xmlns="http://www.w3.org/2000/svg" xmlns:xlink="http://www.w3.org/1999/xlink"  version="1.2" baseProfile="tiny">
<title>Qt Svg Document</title>
<desc>Generated with Qt</desc>
<defs>
</defs>
<g fill="none" stroke="black" vector-effect="non-scaling-stroke" stroke-width="1" fill-rule="evenodd" stroke-linecap="square" stroke-linejoin="bevel" >

<g fill="#000000" fill-opacity="1" stroke="none" transform="matrix(1,0,0,1,0,0)"
font-family="Helvetica" font-size="12pt" font-weight="400" font-style="normal" 
>
<path fill-rule="evenodd" d="M201.097,226.706 L259.957,248.993 L239.206,253.107 L201.097,226.706"/>
<path fill-rule="evenodd" d="M193.416,262.183 L239.206,253.107 L259.151,266.923 L193.416,262.183"/>
<path fill-rule="evenodd" d="M101.958,429.563 L179.494,390.261 L156.739,418.706 L101.958,429.563"/>
<path fill-rule="evenodd" d="M259.151,266.923 L277.131,268.22 L271.389,275.399 L259.151,266.923"/>
<path fill-rule="evenodd" d="M259.957,248.993 L298.636,241.326 L284.941,258.454 L259.957,248.993"/>
<path fill-rule="evenodd" d="M224.228,130.862 L328.785,203.615 L308.704,228.734 L224.228,130.862"/>
<path fill-rule="evenodd" d="M304.485,44.4408 L352.358,174.283 L331.031,200.812 L304.485,44.4408"/>
<path fill-rule="evenodd" d="M328.785,203.615 L331.031,200.812 L331.862,205.752 L328.785,203.615"/>
<path fill-rule="evenodd" d="M298.636,241.326 L308.704,228.734 L316.514,237.782 L298.636,241.326"/>
<path fill-rule="evenodd" d="M331.862,205.752 L364.436,228.28 L336.539,233.812 L331.862,205.752"/>
<path fill-rule="evenodd" d="M316.514,237.782 L336.539,233.812 L342.152,267.487 L316.514,237.782"/>
<path fill-rule="evenodd" d="M277.131,268.22 L284.941,258.454 L318.636,271.215 L277.131,268.22"/>
<path fill-rule="evenodd" d="M342.152,267.487 L347.137,273.272 L343.072,272.979 L342.152,267.487"/>
<path fill-rule="evenodd" d="M318.636,271.215 L343.072,272.979 L344.42,280.981 L318.636,271.215"/>
<path fill-rule="evenodd" d="M179.494,390.261 L271.389,275.399 L328.324,314.82 L179.494,390.261"/>
<path fill-rule="evenodd" d="M35.5577,570.208 L156.739,418.706 L233.944,403.405 L35.5577,570.208"/>
<path fill-rule="evenodd" d="M233.944,403.405 L331.643,321.264 L301.355,390.045 L233.944,403.405"/>
<path fill-rule="evenodd" d="M328.324,314.82 L336.43,310.713 L333.059,318.094 L328.324,314.82"/>
<path fill-rule="evenodd" d="M344.42,280.981 L349.161,282.779 L345.924,289.889 L344.42,280.981"/>
<path fill-rule="evenodd" d="M347.137,273.272 L353.28,273.712 L351.289,278.098 L347.137,273.272"/>
<path fill-rule="evenodd" d="M349.161,282.779 L351.289,278.098 L358.296,286.239 L349.161,282.779"/>
<path fill-rule="evenodd" d="M336.43,310.713 L345.924,289.889 L348.418,304.643 L336.43,310.713"/>
<path fill-rule="evenodd" d="M331.643,321.264 L333.059,318.094 L334.329,318.983 L331.643,321.264"/>
<path fill-rule="evenodd" d="M348.418,304.643 L354.397,301.642 L348.736,306.556 L348.418,304.643"/>
<path fill-rule="evenodd" d="M358.296,286.239 L367.915,289.884 L364.205,293.105 L358.296,286.239"/>
<path fill-rule="evenodd" d="M354.397,301.642 L364.205,293.105 L366.392,295.642 L354.397,301.642"/>
<path fill-rule="evenodd" d="M334.329,318.983 L348.736,306.556 L353.159,332.331 L334.329,318.983"/>
<path fill-rule="evenodd" d="M265.974,470.39 L301.355,390.045 L335.614,383.255 L265.974,470.39"/>
<path fill-rule="evenodd" d="M353.159,332.331 L367.934,342.805 L357.251,356.179 L353.159,332.331"/>
<path fill-rule="evenodd" d="M335.614,383.255 L357.251,356.179 L361.031,378.217 L335.614,383.255"/>
<path fill-rule="evenodd" d="M361.031,378.217 L369.06,376.625 L368.277,420.445 L361.031,378.217"/>
<path fill-rule="evenodd" d="M367.934,342.805 L369.686,340.633 L369.644,344.007 L367.934,342.805"/>
<path fill-rule="evenodd" d="M366.392,295.642 L370.046,293.81 L370.003,299.824 L366.392,295.642"/>
<path fill-rule="evenodd" d="M367.915,289.884 L370.089,288.024 L370.076,290.689 L367.915,289.884"/>
<path fill-rule="evenodd" d="M353.28,273.712 L370.013,236.797 L370.069,274.926 L353.28,273.712"/>
<path fill-rule="evenodd" d="M364.436,228.28 L370.054,227.17 L370.02,232.138 L364.436,228.28"/>
<path fill-rule="evenodd" d="M352.358,174.283 L371.206,150.836 L370.115,222.441 L352.358,174.283"/>
<path fill-rule="evenodd" d="M371.206,150.836 L373.083,27.1527 L390.143,127.274 L371.206,150.836"/>
<path fill-rule="evenodd" d="M370.054,227.17 L370.115,222.441 L371.722,226.835 L370.054,227.17"/>
<path fill-rule="evenodd" d="M370.013,236.797 L370.02,232.138 L371.606,233.25 L370.013,236.797"/>
<path fill-rule="evenodd" d="M371.722,226.835 L374.714,226.233 L372.942,230.232 L371.722,226.835"/>
<path fill-rule="evenodd" d="M390.143,127.274 L452.697,49.4437 L398.006,173.428 L390.143,127.274"/>
<path fill-rule="evenodd" d="M374.714,226.233 L398.006,173.428 L405.947,220.045 L374.714,226.233"/>
<path fill-rule="evenodd" d="M371.606,233.25 L372.942,230.232 L374.84,235.504 L371.606,233.25"/>
<path fill-rule="evenodd" d="M370.089,288.024 L370.069,274.926 L384.361,275.961 L370.089,288.024"/>
<path fill-rule="evenodd" d="M374.84,235.504 L406.399,257.394 L388.183,272.736 L374.84,235.504"/>
<path fill-rule="evenodd" d="M405.947,220.045 L464.529,208.437 L411.566,253.042 L405.947,220.045"/>
<path fill-rule="evenodd" d="M406.399,257.394 L411.566,253.042 L413.095,262.037 L406.399,257.394"/>
<path fill-rule="evenodd" d="M384.361,275.961 L388.183,272.736 L389.465,276.324 L384.361,275.961"/>
<path fill-rule="evenodd" d="M370.046,293.81 L370.076,290.689 L373.635,292.001 L370.046,293.81"/>
<path fill-rule="evenodd" d="M389.465,276.324 L402.71,277.253 L391.77,282.803 L389.465,276.324"/>
<path fill-rule="evenodd" d="M413.095,262.037 L421.381,267.781 L414.65,271.195 L413.095,262.037"/>
<path fill-rule="evenodd" d="M402.71,277.253 L414.65,271.195 L415.835,278.174 L402.71,277.253"/>
<path fill-rule="evenodd" d="M373.635,292.001 L391.77,282.803 L398.304,301.168 L373.635,292.001"/>
<path fill-rule="evenodd" d="M369.686,340.633 L370.003,299.824 L386.982,319.454 L369.686,340.633"/>
<path fill-rule="evenodd" d="M398.304,301.168 L401.054,302.203 L399.41,304.235 L398.304,301.168"/>
<path fill-rule="evenodd" d="M415.835,278.174 L420.104,278.476 L416.627,282.812 L415.835,278.174"/>
<path fill-rule="evenodd" d="M421.381,267.781 L433.63,261.571 L426.064,271.028 L421.381,267.781"/>
<path fill-rule="evenodd" d="M464.529,208.437 L500.11,178.469 L478.324,205.703 L464.529,208.437"/>
<path fill-rule="evenodd" d="M433.63,261.571 L478.324,205.703 L585.97,184.372 L433.63,261.571"/>
<path fill-rule="evenodd" d="M420.104,278.476 L426.064,271.028 L438.738,279.815 L420.104,278.476"/>
<path fill-rule="evenodd" d="M401.054,302.203 L416.627,282.812 L421.285,309.907 L401.054,302.203"/>
<path fill-rule="evenodd" d="M386.982,319.454 L399.41,304.235 L418.085,355.412 L386.982,319.454"/>
<path fill-rule="evenodd" d="M369.06,376.625 L369.644,344.007 L406.099,369.281 L369.06,376.625"/>
<path fill-rule="evenodd" d="M418.085,355.412 L426.567,365.222 L421.996,366.129 L418.085,355.412"/>
<path fill-rule="evenodd" d="M421.285,309.907 L518.72,346.999 L430.655,364.413 L421.285,309.907"/>
<path fill-rule="evenodd" d="M438.738,279.815 L746.712,301.92 L531.877,344.398 L438.738,279.815"/>
<path fill-rule="evenodd" d="M518.72,346.999 L531.877,344.398 L556.217,361.274 L518.72,346.999"/>
<path fill-rule="evenodd" d="M426.567,365.222 L430.655,364.413 L431.838,371.316 L426.567,365.222"/>
<path fill-rule="evenodd" d="M406.099,369.281 L421.996,366.129 L428.928,385.11 L406.099,369.281"/>
<path fill-rule="evenodd" d="M431.838,371.316 L466.145,410.934 L434.905,389.258 L431.838,371.316"/>
<path fill-rule="evenodd" d="M428.928,385.11 L434.905,389.258 L438.827,412.213 L428.928,385.11"/>
<path fill-rule="evenodd" d="M288.251,0 L296.945,0 L304.485,44.4408 L288.251,0"/>
<path fill-rule="evenodd" d="M35.6751,0 L111.193,0 L224.228,130.862 L35.6751,0"/>
<path fill-rule="evenodd" d="M0,150.503 L0,86.9286 L201.097,226.706 L0,150.503"/>
<path fill-rule="evenodd" d="M0,300.522 L0,248.293 L193.416,262.183 L0,300.522"/>
<path fill-rule="evenodd" d="M0,481.213 L0,449.748 L101.958,429.563 L0,481.213"/>
<path fill-rule="evenodd" d="M11.6936,600 L0.227745,600 L35.5577,570.208 L11.6936,600"/>
<path fill-rule="evenodd" d="M208.481,600 L162.019,600 L265.974,470.39 L208.481,600"/>
<path fill-rule="evenodd" d="M474.629,0 L492.302,0 L452.697,49.4437 L474.629,0"/>
<path fill-rule="evenodd" d="M643.252,0 L711.752,0 L500.11,178.469 L643.252,0"/>
<path fill-rule="evenodd" d="M794.118,78.9284 L794.118,143.113 L585.97,184.372 L794.118,78.9284"/>
<path fill-rule="evenodd" d="M794.118,292.535 L794.118,305.324 L746.712,301.92 L794.118,292.535"/>
<path fill-rule="evenodd" d="M794.118,451.424 L794.118,526.386 L556.217,361.274 L794.118,451.424"/>
<path fill-rule="evenodd" d="M738.154,600 L629.454,600 L466.145,410.934 L738.154,600"/>
<path fill-rule="evenodd" d="M507.423,600 L470.889,600 L438.827,412.213 L507.423,600"/>
<path fill-rule="evenodd" d="M368.447,0 L373.415,0 L373.083,27.1527 L368.447,0"/>
<path fill-rule="evenodd" d="M398.74,600 L366.083,600 L368.277,420.445 L398.74,600"/>
</g>
</g>
</svg>
