<?xml version="1.0" encoding="UTF-8" standalone="no"?>
<svg width="127mm" height="211.667mm"
 viewBox="0 0 360 600"
 xmlns="http://www.w3.org/2000/svg" xmlns:xlink="http://www.w3.org/1999/xlink"  version="1.2" baseProfile="tiny">
<title>Qt Svg Document</title>
<desc>Generated with Qt</desc>
<defs>
</defs>
<g fill="none" stroke="black" vector-effect="non-scaling-stroke" stroke-width="1" fill-rule="evenodd" stroke-linecap="square" stroke-linejoin="bevel" >

<g fill="#000000" fill-opacity="1" stroke="none" transform="matrix(1,0,0,1,0,0)"
font-family="Helvetica" font-size="12pt" font-weight="400" font-style="normal" 
>
<path fill-rule="evenodd" d="M45.3909,454.176 L69.3943,419.006 L65.4086,438.33 L45.3909,454.176"/>
<path fill-rule="evenodd" d="M60.5082,335.602 L91.6884,310.918 L87.5834,330.82 L60.5082,335.602"/>
<path fill-rule="evenodd" d="M79.7383,297.207 L95.0751,294.499 L93.8127,300.619 L79.7383,297.207"/>
<path fill-rule="evenodd" d="M15.9663,236.388 L102.723,257.419 L96.482,287.677 L15.9663,236.388"/>
<path fill-rule="evenodd" d="M73.0312,192.093 L111.184,216.397 L105.695,243.011 L73.0312,192.093"/>
<path fill-rule="evenodd" d="M104.546,132.707 L122.631,160.899 L120.706,170.233 L104.546,132.707"/>
<path fill-rule="evenodd" d="M122.631,160.899 L150.234,27.0713 L169.667,234.22 L122.631,160.899"/>
<path fill-rule="evenodd" d="M111.184,216.397 L120.706,170.233 L151.701,242.207 L111.184,216.397"/>
<path fill-rule="evenodd" d="M102.723,257.419 L105.695,243.011 L117.187,260.925 L102.723,257.419"/>
<path fill-rule="evenodd" d="M95.0751,294.499 L96.482,287.677 L104.561,292.824 L95.0751,294.499"/>
<path fill-rule="evenodd" d="M91.6884,310.918 L93.8127,300.619 L102.146,302.639 L91.6884,310.918"/>
<path fill-rule="evenodd" d="M104.561,292.824 L117.412,290.554 L110.093,296.348 L104.561,292.824"/>
<path fill-rule="evenodd" d="M117.187,260.925 L146.012,267.913 L129.868,280.693 L117.187,260.925"/>
<path fill-rule="evenodd" d="M151.701,242.207 L166.542,251.661 L158.51,258.019 L151.701,242.207"/>
<path fill-rule="evenodd" d="M169.667,234.22 L176.034,244.146 L170.974,248.152 L169.667,234.22"/>
<path fill-rule="evenodd" d="M166.542,251.661 L170.974,248.152 L171.606,254.887 L166.542,251.661"/>
<path fill-rule="evenodd" d="M146.012,267.913 L158.51,258.019 L164.724,272.449 L146.012,267.913"/>
<path fill-rule="evenodd" d="M117.412,290.554 L129.868,280.693 L134.282,287.575 L117.412,290.554"/>
<path fill-rule="evenodd" d="M102.146,302.639 L110.093,296.348 L130.919,309.614 L102.146,302.639"/>
<path fill-rule="evenodd" d="M69.3943,419.006 L87.5834,330.82 L135.335,322.387 L69.3943,419.006"/>
<path fill-rule="evenodd" d="M130.919,309.614 L142.188,312.346 L140.073,315.445 L130.919,309.614"/>
<path fill-rule="evenodd" d="M134.282,287.575 L162.494,282.593 L146.304,306.315 L134.282,287.575"/>
<path fill-rule="evenodd" d="M164.724,272.449 L168.751,273.425 L166.54,276.666 L164.724,272.449"/>
<path fill-rule="evenodd" d="M171.606,254.887 L178.434,259.237 L172.79,267.508 L171.606,254.887"/>
<path fill-rule="evenodd" d="M176.034,244.146 L203.659,222.278 L182.187,253.738 L176.034,244.146"/>
<path fill-rule="evenodd" d="M178.434,259.237 L182.187,253.738 L190.746,267.08 L178.434,259.237"/>
<path fill-rule="evenodd" d="M168.751,273.425 L172.79,267.508 L173.452,274.565 L168.751,273.425"/>
<path fill-rule="evenodd" d="M162.494,282.593 L166.54,276.666 L168.626,281.51 L162.494,282.593"/>
<path fill-rule="evenodd" d="M173.452,274.565 L187.992,278.09 L174.014,280.558 L173.452,274.565"/>
<path fill-rule="evenodd" d="M190.746,267.08 L203.681,275.319 L196.81,276.533 L190.746,267.08"/>
<path fill-rule="evenodd" d="M187.992,278.09 L196.81,276.533 L199.617,280.908 L187.992,278.09"/>
<path fill-rule="evenodd" d="M168.626,281.51 L174.014,280.558 L175.629,297.772 L168.626,281.51"/>
<path fill-rule="evenodd" d="M142.188,312.346 L146.304,306.315 L151.644,314.638 L142.188,312.346"/>
<path fill-rule="evenodd" d="M135.335,322.387 L140.073,315.445 L147.577,320.226 L135.335,322.387"/>
<path fill-rule="evenodd" d="M151.644,314.638 L163.264,317.455 L154.449,319.012 L151.644,314.638"/>
<path fill-rule="evenodd" d="M175.629,297.772 L182.632,314.035 L177.244,314.987 L175.629,297.772"/>
<path fill-rule="evenodd" d="M163.264,317.455 L177.244,314.987 L177.806,320.981 L163.264,317.455"/>
<path fill-rule="evenodd" d="M147.577,320.226 L154.449,319.012 L160.515,328.468 L147.577,320.226"/>
<path fill-rule="evenodd" d="M49.0418,517.68 L65.4086,438.33 L147.609,373.256 L49.0418,517.68"/>
<path fill-rule="evenodd" d="M160.515,328.468 L172.825,336.309 L169.073,341.807 L160.515,328.468"/>
<path fill-rule="evenodd" d="M177.806,320.981 L182.509,322.121 L178.468,328.041 L177.806,320.981"/>
<path fill-rule="evenodd" d="M182.632,314.035 L188.766,312.952 L184.719,318.881 L182.632,314.035"/>
<path fill-rule="evenodd" d="M199.617,280.908 L209.071,283.2 L204.956,289.23 L199.617,280.908"/>
<path fill-rule="evenodd" d="M203.681,275.319 L215.926,273.157 L211.187,280.101 L203.681,275.319"/>
<path fill-rule="evenodd" d="M209.071,283.2 L211.187,280.101 L220.34,285.932 L209.071,283.2"/>
<path fill-rule="evenodd" d="M188.766,312.952 L204.956,289.23 L216.977,307.97 L188.766,312.952"/>
<path fill-rule="evenodd" d="M182.509,322.121 L184.719,318.881 L186.534,323.096 L182.509,322.121"/>
<path fill-rule="evenodd" d="M172.825,336.309 L178.468,328.041 L179.652,340.658 L172.825,336.309"/>
<path fill-rule="evenodd" d="M147.609,373.256 L169.073,341.807 L175.223,351.395 L147.609,373.256"/>
<path fill-rule="evenodd" d="M179.652,340.658 L184.714,343.882 L180.283,347.39 L179.652,340.658"/>
<path fill-rule="evenodd" d="M186.534,323.096 L205.242,327.632 L192.747,337.523 L186.534,323.096"/>
<path fill-rule="evenodd" d="M216.977,307.97 L233.84,304.992 L221.39,314.848 L216.977,307.97"/>
<path fill-rule="evenodd" d="M220.34,285.932 L249.108,292.905 L241.162,299.196 L220.34,285.932"/>
<path fill-rule="evenodd" d="M233.84,304.992 L241.162,299.196 L246.697,302.721 L233.84,304.992"/>
<path fill-rule="evenodd" d="M205.242,327.632 L221.39,314.848 L234.074,334.621 L205.242,327.632"/>
<path fill-rule="evenodd" d="M184.714,343.882 L192.747,337.523 L199.557,353.338 L184.714,343.882"/>
<path fill-rule="evenodd" d="M175.223,351.395 L180.283,347.39 L181.59,361.32 L175.223,351.395"/>
<path fill-rule="evenodd" d="M181.59,361.32 L228.632,434.651 L201.025,568.497 L181.59,361.32"/>
<path fill-rule="evenodd" d="M199.557,353.338 L240.079,379.151 L230.556,425.322 L199.557,353.338"/>
<path fill-rule="evenodd" d="M234.074,334.621 L248.541,338.128 L245.568,352.539 L234.074,334.621"/>
<path fill-rule="evenodd" d="M246.697,302.721 L256.19,301.045 L254.782,307.871 L246.697,302.721"/>
<path fill-rule="evenodd" d="M249.108,292.905 L259.578,284.617 L257.451,294.928 L249.108,292.905"/>
<path fill-rule="evenodd" d="M215.926,273.157 L281.872,176.53 L263.681,264.723 L215.926,273.157"/>
<path fill-rule="evenodd" d="M203.659,222.278 L302.224,77.8558 L285.858,157.205 L203.659,222.278"/>
<path fill-rule="evenodd" d="M281.872,176.53 L285.858,157.205 L305.877,141.357 L281.872,176.53"/>
<path fill-rule="evenodd" d="M259.578,284.617 L263.681,264.723 L290.744,259.944 L259.578,284.617"/>
<path fill-rule="evenodd" d="M256.19,301.045 L257.451,294.928 L271.518,298.338 L256.19,301.045"/>
<path fill-rule="evenodd" d="M248.541,338.128 L254.782,307.871 L335.293,359.158 L248.541,338.128"/>
<path fill-rule="evenodd" d="M240.079,379.151 L245.568,352.539 L278.231,403.454 L240.079,379.151"/>
<path fill-rule="evenodd" d="M228.632,434.651 L230.556,425.322 L246.708,462.828 L228.632,434.651"/>
<path fill-rule="evenodd" d="M19.4148,0 L47.3982,0 L104.546,132.707 L19.4148,0"/>
<path fill-rule="evenodd" d="M0,145.571 L0,78.2489 L73.0312,192.093 L0,145.571"/>
<path fill-rule="evenodd" d="M0,232.517 L0,226.217 L15.9663,236.388 L0,232.517"/>
<path fill-rule="evenodd" d="M0,311.289 L0,277.877 L79.7383,297.207 L0,311.289"/>
<path fill-rule="evenodd" d="M0,383.503 L0,346.287 L60.5082,335.602 L0,383.503"/>
<path fill-rule="evenodd" d="M0,520.685 L0,490.11 L45.3909,454.176 L0,520.685"/>
<path fill-rule="evenodd" d="M32.0626,600 L0,600 L0,589.538 L49.0418,517.68 L32.0626,600"/>
<path fill-rule="evenodd" d="M318.283,0 L355.36,0 L302.224,77.8558 L318.283,0"/>
<path fill-rule="evenodd" d="M360,62.0545 L360,98.511 L305.877,141.357 L360,62.0545"/>
<path fill-rule="evenodd" d="M360,205.118 L360,247.714 L290.744,259.944 L360,205.118"/>
<path fill-rule="evenodd" d="M360,282.712 L360,319.788 L271.518,298.338 L360,282.712"/>
<path fill-rule="evenodd" d="M360,365.148 L360,374.897 L335.293,359.158 L360,365.148"/>
<path fill-rule="evenodd" d="M360,455.543 L360,530.92 L278.231,403.454 L360,455.543"/>
<path fill-rule="evenodd" d="M334.703,600 L305.778,600 L246.708,462.828 L334.703,600"/>
<path fill-rule="evenodd" d="M147.695,0 L155.818,0 L150.234,27.0713 L147.695,0"/>
<path fill-rule="evenodd" d="M203.98,600 L194.527,600 L201.025,568.497 L203.98,600"/>
</g>
</g>
</svg>
