<?xml version="1.0" encoding="UTF-8" standalone="no"?>
<svg width="142.875mm" height="211.667mm"
 viewBox="0 0 405 600"
 xmlns="http://www.w3.org/2000/svg" xmlns:xlink="http://www.w3.org/1999/xlink"  version="1.2" baseProfile="tiny">
<title>Qt Svg Document</title>
<desc>Generated with Qt</desc>
<defs>
</defs>
<g fill="none" stroke="black" vector-effect="non-scaling-stroke" stroke-width="1" fill-rule="evenodd" stroke-linecap="square" stroke-linejoin="bevel" >

<g fill="#000000" fill-opacity="1" stroke="none" transform="matrix(1,0,0,1,0,0)"
font-family="Helvetica" font-size="12pt" font-weight="400" font-style="normal" 
>
<path fill-rule="evenodd" d="M18.347,550.469 L83.9727,454.485 L75.3392,508.623 L18.347,550.469"/>
<path fill-rule="evenodd" d="M58.31,447.569 L88.6253,425.31 L86.0488,441.467 L58.31,447.569"/>
<path fill-rule="evenodd" d="M30.3553,402.361 L94.5367,388.241 L89.8658,417.531 L30.3553,402.361"/>
<path fill-rule="evenodd" d="M61.3879,337.054 L101.086,347.174 L98.5849,362.857 L61.3879,337.054"/>
<path fill-rule="evenodd" d="M70.2007,274.271 L108.478,300.822 L104.882,323.369 L70.2007,274.271"/>
<path fill-rule="evenodd" d="M70.4635,126.443 L124.163,202.465 L117.729,242.81 L70.4635,126.443"/>
<path fill-rule="evenodd" d="M124.163,202.465 L152.105,27.2499 L167.619,263.986 L124.163,202.465"/>
<path fill-rule="evenodd" d="M108.478,300.822 L117.729,242.81 L154.165,332.514 L108.478,300.822"/>
<path fill-rule="evenodd" d="M101.086,347.174 L104.882,323.369 L126.224,353.582 L101.086,347.174"/>
<path fill-rule="evenodd" d="M94.5367,388.241 L98.5849,362.857 L125.393,381.453 L94.5367,388.241"/>
<path fill-rule="evenodd" d="M88.6253,425.31 L89.8658,417.531 L96.8094,419.301 L88.6253,425.31"/>
<path fill-rule="evenodd" d="M83.9727,454.485 L86.0488,441.467 L94.0819,439.699 L83.9727,454.485"/>
<path fill-rule="evenodd" d="M96.8094,419.301 L119.338,402.759 L106.363,421.737 L96.8094,419.301"/>
<path fill-rule="evenodd" d="M125.393,381.453 L135.413,379.249 L131.167,385.458 L125.393,381.453"/>
<path fill-rule="evenodd" d="M126.224,353.582 L148.993,359.386 L139.81,372.817 L126.224,353.582"/>
<path fill-rule="evenodd" d="M154.165,332.514 L163.119,338.725 L159.085,344.626 L154.165,332.514"/>
<path fill-rule="evenodd" d="M167.619,263.986 L191.299,297.509 L171.695,326.182 L167.619,263.986"/>
<path fill-rule="evenodd" d="M163.119,338.725 L171.695,326.182 L172.965,345.555 L163.119,338.725"/>
<path fill-rule="evenodd" d="M148.993,359.386 L159.085,344.626 L166.938,363.96 L148.993,359.386"/>
<path fill-rule="evenodd" d="M135.413,379.249 L139.81,372.817 L143.151,377.546 L135.413,379.249"/>
<path fill-rule="evenodd" d="M119.338,402.759 L131.167,385.458 L137.201,389.644 L119.338,402.759"/>
<path fill-rule="evenodd" d="M143.151,377.546 L158.18,374.24 L146.746,382.635 L143.151,377.546"/>
<path fill-rule="evenodd" d="M166.938,363.96 L170.829,364.952 L168.142,366.925 L166.938,363.96"/>
<path fill-rule="evenodd" d="M172.965,345.555 L185.451,354.217 L174.08,362.566 L172.965,345.555"/>
<path fill-rule="evenodd" d="M170.829,364.952 L174.08,362.566 L174.294,365.836 L170.829,364.952"/>
<path fill-rule="evenodd" d="M158.18,374.24 L168.142,366.925 L170.052,371.628 L158.18,374.24"/>
<path fill-rule="evenodd" d="M174.294,365.836 L184.527,368.444 L174.608,370.626 L174.294,365.836"/>
<path fill-rule="evenodd" d="M170.052,371.628 L174.608,370.626 L175.563,385.195 L170.052,371.628"/>
<path fill-rule="evenodd" d="M137.201,389.644 L146.746,382.635 L165.623,409.36 L137.201,389.644"/>
<path fill-rule="evenodd" d="M94.0819,439.699 L106.363,421.737 L138.498,429.928 L94.0819,439.699"/>
<path fill-rule="evenodd" d="M65.1929,572.248 L75.3392,508.623 L142.318,459.444 L65.1929,572.248"/>
<path fill-rule="evenodd" d="M138.498,429.928 L166.748,423.713 L158.936,435.138 L138.498,429.928"/>
<path fill-rule="evenodd" d="M165.623,409.36 L173.043,414.506 L171.181,417.228 L165.623,409.36"/>
<path fill-rule="evenodd" d="M175.563,385.195 L182.092,401.27 L177.095,408.579 L175.563,385.195"/>
<path fill-rule="evenodd" d="M173.043,414.506 L177.095,408.579 L177.695,417.734 L173.043,414.506"/>
<path fill-rule="evenodd" d="M166.748,423.713 L171.181,417.228 L174.55,421.997 L166.748,423.713"/>
<path fill-rule="evenodd" d="M177.695,417.734 L181.604,420.445 L177.926,421.254 L177.695,417.734"/>
<path fill-rule="evenodd" d="M174.55,421.997 L177.926,421.254 L178.325,427.342 L174.55,421.997"/>
<path fill-rule="evenodd" d="M142.318,459.444 L158.936,435.138 L171.173,438.257 L142.318,459.444"/>
<path fill-rule="evenodd" d="M178.325,427.342 L180.96,431.072 L178.679,432.746 L178.325,427.342"/>
<path fill-rule="evenodd" d="M171.173,438.257 L178.679,432.746 L179.174,440.297 L171.173,438.257"/>
<path fill-rule="evenodd" d="M179.174,440.297 L182.475,441.138 L180.174,455.563 L179.174,440.297"/>
<path fill-rule="evenodd" d="M180.96,431.072 L184.494,428.477 L183.505,434.676 L180.96,431.072"/>
<path fill-rule="evenodd" d="M181.604,420.445 L185.927,419.494 L185.359,423.05 L181.604,420.445"/>
<path fill-rule="evenodd" d="M182.092,401.27 L190.883,388.413 L186.932,413.186 L182.092,401.27"/>
<path fill-rule="evenodd" d="M184.527,368.444 L194.414,366.269 L193.695,370.781 L184.527,368.444"/>
<path fill-rule="evenodd" d="M185.451,354.217 L197.78,345.164 L195.252,361.015 L185.451,354.217"/>
<path fill-rule="evenodd" d="M191.299,297.509 L209.663,270.65 L202.786,313.772 L191.299,297.509"/>
<path fill-rule="evenodd" d="M197.78,345.164 L202.786,313.772 L215.678,332.023 L197.78,345.164"/>
<path fill-rule="evenodd" d="M194.414,366.269 L195.252,361.015 L200.8,364.864 L194.414,366.269"/>
<path fill-rule="evenodd" d="M190.883,388.413 L193.695,370.781 L201.566,372.788 L190.883,388.413"/>
<path fill-rule="evenodd" d="M200.8,364.864 L208.079,363.262 L204.994,367.773 L200.8,364.864"/>
<path fill-rule="evenodd" d="M215.678,332.023 L243.309,311.735 L222.67,341.921 L215.678,332.023"/>
<path fill-rule="evenodd" d="M208.079,363.262 L222.67,341.921 L233.755,357.614 L208.079,363.262"/>
<path fill-rule="evenodd" d="M201.566,372.788 L204.994,367.773 L218.414,377.082 L201.566,372.788"/>
<path fill-rule="evenodd" d="M185.927,419.494 L186.932,413.186 L189.202,418.773 L185.927,419.494"/>
<path fill-rule="evenodd" d="M184.494,428.477 L185.359,423.05 L188.715,425.378 L184.494,428.477"/>
<path fill-rule="evenodd" d="M189.202,418.773 L201.349,416.101 L191.156,423.585 L189.202,418.773"/>
<path fill-rule="evenodd" d="M218.414,377.082 L245.193,383.909 L236.965,389.95 L218.414,377.082"/>
<path fill-rule="evenodd" d="M233.755,357.614 L301.219,342.772 L249.892,380.459 L233.755,357.614"/>
<path fill-rule="evenodd" d="M245.193,383.909 L249.892,380.459 L253.895,386.127 L245.193,383.909"/>
<path fill-rule="evenodd" d="M201.349,416.101 L236.965,389.95 L257.01,403.855 L201.349,416.101"/>
<path fill-rule="evenodd" d="M253.895,386.127 L292.669,396.011 L265.153,402.064 L253.895,386.127"/>
<path fill-rule="evenodd" d="M257.01,403.855 L265.153,402.064 L275.457,416.651 L257.01,403.855"/>
<path fill-rule="evenodd" d="M188.715,425.378 L191.156,423.585 L193.128,428.439 L188.715,425.378"/>
<path fill-rule="evenodd" d="M182.475,441.138 L183.505,434.676 L189.299,442.878 L182.475,441.138"/>
<path fill-rule="evenodd" d="M193.128,428.439 L228.261,452.81 L200.112,445.634 L193.128,428.439"/>
<path fill-rule="evenodd" d="M275.457,416.651 L385.287,492.838 L316.971,475.423 L275.457,416.651"/>
<path fill-rule="evenodd" d="M228.261,452.81 L316.971,475.423 L370.879,551.74 L228.261,452.81"/>
<path fill-rule="evenodd" d="M189.299,442.878 L200.112,445.634 L212.108,475.168 L189.299,442.878"/>
<path fill-rule="evenodd" d="M0,26.6882 L0,0 L19.105,0 L70.4635,126.443 L0,26.6882"/>
<path fill-rule="evenodd" d="M0,225.574 L0,174.888 L70.2007,274.271 L0,225.574"/>
<path fill-rule="evenodd" d="M0,321.406 L0,294.471 L61.3879,337.054 L0,321.406"/>
<path fill-rule="evenodd" d="M0,409.039 L0,394.623 L30.3553,402.361 L0,409.039"/>
<path fill-rule="evenodd" d="M0,490.383 L0,460.397 L58.31,447.569 L0,490.383"/>
<path fill-rule="evenodd" d="M0,577.304 L0,563.941 L18.347,550.469 L0,577.304"/>
<path fill-rule="evenodd" d="M60.7671,600 L46.2181,600 L65.1929,572.248 L60.7671,600"/>
<path fill-rule="evenodd" d="M252.824,0 L394.71,0 L209.663,270.65 L252.824,0"/>
<path fill-rule="evenodd" d="M405,75.2447 L405,193.014 L243.309,311.735 L405,75.2447"/>
<path fill-rule="evenodd" d="M405,266.571 L405,319.94 L301.219,342.772 L405,266.571"/>
<path fill-rule="evenodd" d="M405,371.298 L405,424.645 L292.669,396.011 L405,371.298"/>
<path fill-rule="evenodd" d="M405,497.863 L405,506.512 L385.287,492.838 L405,497.863"/>
<path fill-rule="evenodd" d="M405,575.409 L405,600 L404.968,600 L370.879,551.74 L405,575.409"/>
<path fill-rule="evenodd" d="M300.285,600 L262.812,600 L212.108,475.168 L300.285,600"/>
<path fill-rule="evenodd" d="M150.319,0 L156.451,0 L152.105,27.2499 L150.319,0"/>
<path fill-rule="evenodd" d="M189.64,600 L157.141,600 L180.174,455.563 L189.64,600"/>
</g>
</g>
</svg>
