<?xml version="1.0" encoding="UTF-8" standalone="no"?>
<svg width="261.761mm" height="211.667mm"
 viewBox="0 0 742 600"
 xmlns="http://www.w3.org/2000/svg" xmlns:xlink="http://www.w3.org/1999/xlink"  version="1.2" baseProfile="tiny">
<title>Qt Svg Document</title>
<desc>Generated with Qt</desc>
<defs>
</defs>
<g fill="none" stroke="black" vector-effect="non-scaling-stroke" stroke-width="1" fill-rule="evenodd" stroke-linecap="square" stroke-linejoin="bevel" >

<g fill="#000000" fill-opacity="1" stroke="none" transform="matrix(1,0,0,1,0,0)"
font-family="Helvetica" font-size="12pt" font-weight="400" font-style="normal" 
>
<path fill-rule="evenodd" d="M129.964,103.962 L250.244,182.053 L172.047,164.854 L129.964,103.962"/>
<path fill-rule="evenodd" d="M77.3095,144.019 L172.047,164.854 L223.036,238.631 L77.3095,144.019"/>
<path fill-rule="evenodd" d="M33.4595,309.591 L208.875,302.24 L158.847,337.169 L33.4595,309.591"/>
<path fill-rule="evenodd" d="M223.036,238.631 L262.906,264.515 L248.079,274.868 L223.036,238.631"/>
<path fill-rule="evenodd" d="M208.875,302.24 L248.079,274.868 L265.358,299.872 L208.875,302.24"/>
<path fill-rule="evenodd" d="M53.7129,410.575 L158.847,337.169 L218.463,350.281 L53.7129,410.575"/>
<path fill-rule="evenodd" d="M157.488,546.813 L255.732,403.85 L236.801,491.438 L157.488,546.813"/>
<path fill-rule="evenodd" d="M218.463,350.281 L271.501,330.872 L265.092,360.537 L218.463,350.281"/>
<path fill-rule="evenodd" d="M265.358,299.872 L278.324,299.329 L275.145,314.028 L265.358,299.872"/>
<path fill-rule="evenodd" d="M262.906,264.515 L289.923,245.652 L283.024,277.577 L262.906,264.515"/>
<path fill-rule="evenodd" d="M250.244,182.053 L301.245,193.269 L297.095,212.47 L250.244,182.053"/>
<path fill-rule="evenodd" d="M296.31,39.248 L325.428,81.3789 L314.637,131.308 L296.31,39.248"/>
<path fill-rule="evenodd" d="M325.428,81.3789 L336.068,32.1513 L354.139,122.921 L325.428,81.3789"/>
<path fill-rule="evenodd" d="M301.245,193.269 L314.637,131.308 L328.15,199.186 L301.245,193.269"/>
<path fill-rule="evenodd" d="M289.923,245.652 L297.095,212.47 L318.004,226.046 L289.923,245.652"/>
<path fill-rule="evenodd" d="M328.15,199.186 L349.688,203.924 L331.607,216.549 L328.15,199.186"/>
<path fill-rule="evenodd" d="M354.139,122.921 L390.452,175.462 L367.754,191.31 L354.139,122.921"/>
<path fill-rule="evenodd" d="M349.688,203.924 L367.754,191.31 L371.206,208.657 L349.688,203.924"/>
<path fill-rule="evenodd" d="M318.004,226.046 L331.607,216.549 L335.799,237.599 L318.004,226.046"/>
<path fill-rule="evenodd" d="M278.324,299.329 L283.024,277.577 L314.194,297.822 L278.324,299.329"/>
<path fill-rule="evenodd" d="M271.501,330.872 L275.145,314.028 L283.703,326.406 L271.501,330.872"/>
<path fill-rule="evenodd" d="M255.732,403.85 L265.092,360.537 L282.818,364.436 L255.732,403.85"/>
<path fill-rule="evenodd" d="M283.703,326.406 L317.42,314.071 L296.362,344.726 L283.703,326.406"/>
<path fill-rule="evenodd" d="M314.194,297.822 L329.028,297.199 L324.151,304.282 L314.194,297.822"/>
<path fill-rule="evenodd" d="M335.799,237.599 L359.435,252.943 L343.476,276.165 L335.799,237.599"/>
<path fill-rule="evenodd" d="M371.206,208.657 L387.42,212.222 L375.398,229.716 L371.206,208.657"/>
<path fill-rule="evenodd" d="M390.452,175.462 L433.181,145.63 L401.598,191.59 L390.452,175.462"/>
<path fill-rule="evenodd" d="M387.42,212.222 L401.598,191.59 L420.956,219.599 L387.42,212.222"/>
<path fill-rule="evenodd" d="M359.435,252.943 L375.398,229.716 L383.078,268.292 L359.435,252.943"/>
<path fill-rule="evenodd" d="M329.028,297.199 L343.476,276.165 L347.506,296.422 L329.028,297.199"/>
<path fill-rule="evenodd" d="M317.42,314.071 L324.151,304.282 L331.377,308.964 L317.42,314.071"/>
<path fill-rule="evenodd" d="M347.506,296.422 L367.925,295.579 L348.739,302.613 L347.506,296.422"/>
<path fill-rule="evenodd" d="M383.078,268.292 L404.477,282.192 L387.112,288.544 L383.078,268.292"/>
<path fill-rule="evenodd" d="M367.925,295.579 L387.112,288.544 L388.345,294.735 L367.925,295.579"/>
<path fill-rule="evenodd" d="M331.377,308.964 L348.739,302.613 L352.772,322.861 L331.377,308.964"/>
<path fill-rule="evenodd" d="M282.818,364.436 L296.362,344.726 L314.853,371.482 L282.818,364.436"/>
<path fill-rule="evenodd" d="M221.059,564.277 L236.801,491.438 L302.763,445.384 L221.059,564.277"/>
<path fill-rule="evenodd" d="M314.853,371.482 L348.467,378.875 L334.256,399.555 L314.853,371.482"/>
<path fill-rule="evenodd" d="M352.772,322.861 L376.414,338.209 L360.452,361.435 L352.772,322.861"/>
<path fill-rule="evenodd" d="M388.345,294.735 L406.818,293.958 L392.374,314.986 L388.345,294.735"/>
<path fill-rule="evenodd" d="M404.477,282.192 L418.424,277.088 L411.698,286.87 L404.477,282.192"/>
<path fill-rule="evenodd" d="M420.956,219.599 L453.069,226.662 L439.492,246.42 L420.956,219.599"/>
<path fill-rule="evenodd" d="M418.424,277.088 L439.492,246.42 L452.157,264.748 L418.424,277.088"/>
<path fill-rule="evenodd" d="M406.818,293.958 L411.698,286.87 L421.661,293.335 L406.818,293.958"/>
<path fill-rule="evenodd" d="M376.414,338.209 L392.374,314.986 L400.052,353.554 L376.414,338.209"/>
<path fill-rule="evenodd" d="M348.467,378.875 L360.452,361.435 L364.631,382.429 L348.467,378.875"/>
<path fill-rule="evenodd" d="M302.763,445.384 L334.256,399.555 L345.37,415.637 L302.763,445.384"/>
<path fill-rule="evenodd" d="M364.631,382.429 L386.151,387.163 L368.084,399.779 L364.631,382.429"/>
<path fill-rule="evenodd" d="M400.052,353.554 L417.792,365.072 L404.23,374.54 L400.052,353.554"/>
<path fill-rule="evenodd" d="M386.151,387.163 L404.23,374.54 L407.687,391.901 L386.151,387.163"/>
<path fill-rule="evenodd" d="M345.37,415.637 L368.084,399.779 L381.708,468.214 L345.37,415.637"/>
<path fill-rule="evenodd" d="M381.708,468.214 L410.425,509.765 L399.783,559.004 L381.708,468.214"/>
<path fill-rule="evenodd" d="M407.687,391.901 L434.62,397.824 L421.214,459.847 L407.687,391.901"/>
<path fill-rule="evenodd" d="M417.792,365.072 L445.947,345.413 L438.756,378.684 L417.792,365.072"/>
<path fill-rule="evenodd" d="M421.661,293.335 L457.526,291.828 L452.827,313.577 L421.661,293.335"/>
<path fill-rule="evenodd" d="M452.157,264.748 L464.349,260.285 L460.708,277.116 L452.157,264.748"/>
<path fill-rule="evenodd" d="M453.069,226.662 L480.121,187.297 L470.773,230.555 L453.069,226.662"/>
<path fill-rule="evenodd" d="M433.181,145.63 L514.793,26.8703 L499.069,99.6274 L433.181,145.63"/>
<path fill-rule="evenodd" d="M480.121,187.297 L499.069,99.6274 L578.457,44.2003 L480.121,187.297"/>
<path fill-rule="evenodd" d="M464.349,260.285 L470.773,230.555 L517.503,240.833 L464.349,260.285"/>
<path fill-rule="evenodd" d="M457.526,291.828 L460.708,277.116 L470.504,291.285 L457.526,291.828"/>
<path fill-rule="evenodd" d="M445.947,345.413 L452.827,313.577 L472.889,326.602 L445.947,345.413"/>
<path fill-rule="evenodd" d="M470.504,291.285 L526.856,288.922 L487.743,316.231 L470.504,291.285"/>
<path fill-rule="evenodd" d="M517.503,240.833 L681.903,180.668 L576.992,253.918 L517.503,240.833"/>
<path fill-rule="evenodd" d="M526.856,288.922 L576.992,253.918 L702.65,281.555 L526.856,288.922"/>
<path fill-rule="evenodd" d="M472.889,326.602 L487.743,316.231 L512.831,352.534 L472.889,326.602"/>
<path fill-rule="evenodd" d="M434.62,397.824 L438.756,378.684 L485.457,409.004 L434.62,397.824"/>
<path fill-rule="evenodd" d="M512.831,352.534 L658.392,447.038 L563.762,426.226 L512.831,352.534"/>
<path fill-rule="evenodd" d="M485.457,409.004 L563.762,426.226 L605.903,487.202 L485.457,409.004"/>
<path fill-rule="evenodd" d="M410.425,509.765 L421.214,459.847 L439.536,551.887 L410.425,509.765"/>
<path fill-rule="evenodd" d="M269.185,0 L288.497,0 L296.31,39.248 L269.185,0"/>
<path fill-rule="evenodd" d="M0,19.5849 L0,0 L58.1127,0 L129.964,103.962 L0,19.5849"/>
<path fill-rule="evenodd" d="M0,127.015 L0,93.8265 L77.3095,144.019 L0,127.015"/>
<path fill-rule="evenodd" d="M0,310.993 L0,302.232 L33.4595,309.591 L0,310.993"/>
<path fill-rule="evenodd" d="M0,448.077 L0,430.233 L53.7129,410.575 L0,448.077"/>
<path fill-rule="evenodd" d="M120.938,600 L81.3103,600 L157.488,546.813 L120.938,600"/>
<path fill-rule="evenodd" d="M213.338,600 L196.51,600 L221.059,564.277 L213.338,600"/>
<path fill-rule="evenodd" d="M520.601,0 L533.259,0 L514.793,26.8703 L520.601,0"/>
<path fill-rule="evenodd" d="M608.831,0 L641.763,0 L578.457,44.2003 L608.831,0"/>
<path fill-rule="evenodd" d="M742.857,138.11 L742.857,158.36 L681.903,180.668 L742.857,138.11"/>
<path fill-rule="evenodd" d="M742.857,279.871 L742.857,290.398 L702.65,281.555 L742.857,279.871"/>
<path fill-rule="evenodd" d="M742.857,465.615 L742.857,501.876 L658.392,447.038 L742.857,465.615"/>
<path fill-rule="evenodd" d="M742.857,576.118 L742.857,600 L683.861,600 L605.903,487.202 L742.857,576.118"/>
<path fill-rule="evenodd" d="M472.789,600 L449.115,600 L439.536,551.887 L472.789,600"/>
<path fill-rule="evenodd" d="M329.667,0 L343.017,0 L336.068,32.1513 L329.667,0"/>
<path fill-rule="evenodd" d="M407.945,600 L390.923,600 L399.783,559.004 L407.945,600"/>
</g>
</g>
</svg>
