<?xml version="1.0" encoding="UTF-8" standalone="no"?>
<svg width="255.764mm" height="211.667mm"
 viewBox="0 0 725 600"
 xmlns="http://www.w3.org/2000/svg" xmlns:xlink="http://www.w3.org/1999/xlink"  version="1.2" baseProfile="tiny">
<title>Qt Svg Document</title>
<desc>Generated with Qt</desc>
<defs>
</defs>
<g fill="none" stroke="black" vector-effect="non-scaling-stroke" stroke-width="1" fill-rule="evenodd" stroke-linecap="square" stroke-linejoin="bevel" >

<g fill="#000000" fill-opacity="1" stroke="none" transform="matrix(1,0,0,1,0,0)"
font-family="Helvetica" font-size="12pt" font-weight="400" font-style="normal" 
>
<path fill-rule="evenodd" d="M124.503,569.955 L254.369,414.439 L242.534,492.207 L124.503,569.955"/>
<path fill-rule="evenodd" d="M228.362,412.351 L257.62,393.078 L256.658,399.4 L228.362,412.351"/>
<path fill-rule="evenodd" d="M32.1968,336.56 L264.921,345.108 L259.565,380.297 L32.1968,336.56"/>
<path fill-rule="evenodd" d="M198.666,292.756 L270.777,306.627 L267.412,328.734 L198.666,292.756"/>
<path fill-rule="evenodd" d="M252.682,238.817 L279,252.591 L275.387,276.331 L252.682,238.817"/>
<path fill-rule="evenodd" d="M293.433,31.219 L308.821,56.6428 L304.352,86.0082 L293.433,31.219"/>
<path fill-rule="evenodd" d="M308.821,56.6428 L313.311,27.1407 L324.28,82.1849 L308.821,56.6428"/>
<path fill-rule="evenodd" d="M279,252.591 L304.352,86.0082 L344.367,286.8 L279,252.591"/>
<path fill-rule="evenodd" d="M270.777,306.627 L275.387,276.331 L296.748,311.623 L270.777,306.627"/>
<path fill-rule="evenodd" d="M264.921,345.108 L267.412,328.734 L301.25,346.443 L264.921,345.108"/>
<path fill-rule="evenodd" d="M257.62,393.078 L259.565,380.297 L273.078,382.896 L257.62,393.078"/>
<path fill-rule="evenodd" d="M254.369,414.439 L256.658,399.4 L273.282,391.791 L254.369,414.439"/>
<path fill-rule="evenodd" d="M273.078,382.896 L290.04,371.723 L279.654,384.161 L273.078,382.896"/>
<path fill-rule="evenodd" d="M301.25,346.443 L310.856,346.796 L308.14,350.049 L301.25,346.443"/>
<path fill-rule="evenodd" d="M296.748,311.623 L334.21,318.829 L315.019,341.811 L296.748,311.623"/>
<path fill-rule="evenodd" d="M344.367,286.8 L355.912,292.842 L347.563,302.839 L344.367,286.8"/>
<path fill-rule="evenodd" d="M324.28,82.1849 L411.494,226.281 L364.267,282.836 L324.28,82.1849"/>
<path fill-rule="evenodd" d="M355.912,292.842 L364.267,282.836 L367.466,298.889 L355.912,292.842"/>
<path fill-rule="evenodd" d="M334.21,318.829 L347.563,302.839 L351.409,322.138 L334.21,318.829"/>
<path fill-rule="evenodd" d="M310.856,346.796 L315.019,341.811 L318.199,347.066 L310.856,346.796"/>
<path fill-rule="evenodd" d="M290.04,371.723 L308.14,350.049 L316.39,354.366 L290.04,371.723"/>
<path fill-rule="evenodd" d="M318.199,347.066 L326.984,347.388 L320.843,351.433 L318.199,347.066"/>
<path fill-rule="evenodd" d="M351.409,322.138 L362.173,324.209 L353.023,330.236 L351.409,322.138"/>
<path fill-rule="evenodd" d="M367.466,298.889 L385.937,308.555 L371.312,318.189 L367.466,298.889"/>
<path fill-rule="evenodd" d="M362.173,324.209 L371.312,318.189 L372.924,326.277 L362.173,324.209"/>
<path fill-rule="evenodd" d="M326.984,347.388 L353.023,330.236 L356.659,348.478 L326.984,347.388"/>
<path fill-rule="evenodd" d="M316.39,354.366 L320.843,351.433 L325.505,359.137 L316.39,354.366"/>
<path fill-rule="evenodd" d="M273.282,391.791 L279.654,384.161 L286.905,385.556 L273.282,391.791"/>
<path fill-rule="evenodd" d="M325.505,359.137 L334.426,363.805 L329.653,365.99 L325.505,359.137"/>
<path fill-rule="evenodd" d="M356.659,348.478 L367.077,348.861 L357.599,353.199 L356.659,348.478"/>
<path fill-rule="evenodd" d="M372.924,326.277 L403.549,332.168 L376.56,344.521 L372.924,326.277"/>
<path fill-rule="evenodd" d="M367.077,348.861 L376.56,344.521 L377.501,349.244 L367.077,348.861"/>
<path fill-rule="evenodd" d="M334.426,363.805 L357.599,353.199 L362.657,378.58 L334.426,363.805"/>
<path fill-rule="evenodd" d="M286.905,385.556 L329.653,365.99 L348.689,397.441 L286.905,385.556"/>
<path fill-rule="evenodd" d="M233.211,553.466 L242.534,492.207 L335.511,430.962 L233.211,553.466"/>
<path fill-rule="evenodd" d="M348.689,397.441 L361.454,399.896 L354.914,407.727 L348.689,397.441"/>
<path fill-rule="evenodd" d="M362.657,378.58 L374.207,384.624 L365.855,394.625 L362.657,378.58"/>
<path fill-rule="evenodd" d="M377.501,349.244 L402.97,350.18 L382.559,374.622 L377.501,349.244"/>
<path fill-rule="evenodd" d="M374.207,384.624 L382.559,374.622 L385.757,390.669 L374.207,384.624"/>
<path fill-rule="evenodd" d="M361.454,399.896 L365.855,394.625 L367.123,400.987 L361.454,399.896"/>
<path fill-rule="evenodd" d="M335.511,430.962 L354.914,407.727 L359.438,415.201 L335.511,430.962"/>
<path fill-rule="evenodd" d="M367.123,400.987 L377.877,403.055 L368.735,409.077 L367.123,400.987"/>
<path fill-rule="evenodd" d="M385.757,390.669 L391.844,393.855 L387.024,397.03 L385.757,390.669"/>
<path fill-rule="evenodd" d="M377.877,403.055 L387.024,397.03 L388.638,405.125 L377.877,403.055"/>
<path fill-rule="evenodd" d="M359.438,415.201 L368.735,409.077 L375.118,441.108 L359.438,415.201"/>
<path fill-rule="evenodd" d="M375.118,441.108 L390.531,466.573 L386.055,495.987 L375.118,441.108"/>
<path fill-rule="evenodd" d="M388.638,405.125 L399.563,407.227 L395.014,437.119 L388.638,405.125"/>
<path fill-rule="evenodd" d="M391.844,393.855 L402.685,386.714 L400.878,398.583 L391.844,393.855"/>
<path fill-rule="evenodd" d="M402.97,350.18 L409.42,342.456 L408.215,350.372 L402.97,350.18"/>
<path fill-rule="evenodd" d="M403.549,332.168 L411.543,328.509 L410.774,333.558 L403.549,332.168"/>
<path fill-rule="evenodd" d="M385.937,308.555 L417.771,287.586 L412.466,322.439 L385.937,308.555"/>
<path fill-rule="evenodd" d="M411.494,226.281 L430.578,203.428 L423.965,246.885 L411.494,226.281"/>
<path fill-rule="evenodd" d="M417.771,287.586 L423.965,246.885 L439.812,273.068 L417.771,287.586"/>
<path fill-rule="evenodd" d="M411.543,328.509 L412.466,322.439 L418.223,325.452 L411.543,328.509"/>
<path fill-rule="evenodd" d="M409.42,342.456 L410.774,333.558 L416.01,334.565 L409.42,342.456"/>
<path fill-rule="evenodd" d="M418.223,325.452 L426.959,321.453 L421.978,327.417 L418.223,325.452"/>
<path fill-rule="evenodd" d="M439.812,273.068 L501.049,232.73 L451.39,292.197 L439.812,273.068"/>
<path fill-rule="evenodd" d="M426.959,321.453 L451.39,292.197 L459.956,306.35 L426.959,321.453"/>
<path fill-rule="evenodd" d="M416.01,334.565 L421.978,327.417 L447.041,340.534 L416.01,334.565"/>
<path fill-rule="evenodd" d="M402.685,386.714 L408.215,350.372 L455.234,352.099 L402.685,386.714"/>
<path fill-rule="evenodd" d="M447.041,340.534 L466.972,344.368 L461.391,348.044 L447.041,340.534"/>
<path fill-rule="evenodd" d="M459.956,306.35 L672.082,209.26 L478.407,336.835 L459.956,306.35"/>
<path fill-rule="evenodd" d="M466.972,344.368 L478.407,336.835 L485.074,347.85 L466.972,344.368"/>
<path fill-rule="evenodd" d="M455.234,352.099 L461.391,348.044 L470.19,352.649 L455.234,352.099"/>
<path fill-rule="evenodd" d="M485.074,347.85 L519.423,354.457 L488.383,353.317 L485.074,347.85"/>
<path fill-rule="evenodd" d="M470.19,352.649 L488.383,353.317 L496.225,366.274 L470.19,352.649"/>
<path fill-rule="evenodd" d="M399.563,407.227 L400.878,398.583 L427.759,412.651 L399.563,407.227"/>
<path fill-rule="evenodd" d="M496.225,366.274 L676.134,460.429 L537.015,433.667 L496.225,366.274"/>
<path fill-rule="evenodd" d="M427.759,412.651 L537.015,433.667 L569.049,486.594 L427.759,412.651"/>
<path fill-rule="evenodd" d="M390.531,466.573 L395.014,437.119 L405.965,492.074 L390.531,466.573"/>
<path fill-rule="evenodd" d="M274.538,0 L287.212,0 L293.433,31.219 L274.538,0"/>
<path fill-rule="evenodd" d="M0,106.577 L0,0 L108.138,0 L252.682,238.817 L0,106.577"/>
<path fill-rule="evenodd" d="M0,254.54 L0,188.785 L198.666,292.756 L0,254.54"/>
<path fill-rule="evenodd" d="M0,335.377 L0,330.366 L32.1968,336.56 L0,335.377"/>
<path fill-rule="evenodd" d="M0,562.775 L0,516.872 L228.362,412.351 L0,562.775"/>
<path fill-rule="evenodd" d="M99.4127,600 L78.8901,600 L124.503,569.955 L99.4127,600"/>
<path fill-rule="evenodd" d="M226.13,600 L194.353,600 L233.211,553.466 L226.13,600"/>
<path fill-rule="evenodd" d="M461.537,0 L600.455,0 L430.578,203.428 L461.537,0"/>
<path fill-rule="evenodd" d="M695.395,0 L725,0 L725,85.2122 L501.049,232.73 L695.395,0"/>
<path fill-rule="evenodd" d="M725,174.403 L725,185.04 L672.082,209.26 L725,174.403"/>
<path fill-rule="evenodd" d="M725,362.009 L725,394.003 L519.423,354.457 L725,362.009"/>
<path fill-rule="evenodd" d="M725,469.829 L725,486.002 L676.134,460.429 L725,469.829"/>
<path fill-rule="evenodd" d="M725,568.211 L725,600 L637.688,600 L569.049,486.594 L725,568.211"/>
<path fill-rule="evenodd" d="M471.288,600 L427.474,600 L405.965,492.074 L471.288,600"/>
<path fill-rule="evenodd" d="M307.902,0 L317.441,0 L313.311,27.1407 L307.902,0"/>
<path fill-rule="evenodd" d="M406.783,600 L370.226,600 L386.055,495.987 L406.783,600"/>
</g>
</g>
</svg>
