<?xml version="1.0" encoding="UTF-8" standalone="no"?>
<svg width="150.283mm" height="211.667mm"
 viewBox="0 0 426 600"
 xmlns="http://www.w3.org/2000/svg" xmlns:xlink="http://www.w3.org/1999/xlink"  version="1.2" baseProfile="tiny">
<title>Qt Svg Document</title>
<desc>Generated with Qt</desc>
<defs>
</defs>
<g fill="none" stroke="black" vector-effect="non-scaling-stroke" stroke-width="1" fill-rule="evenodd" stroke-linecap="square" stroke-linejoin="bevel" >

<g fill="#000000" fill-opacity="1" stroke="none" transform="matrix(1,0,0,1,0,0)"
font-family="Helvetica" font-size="12pt" font-weight="400" font-style="normal" 
>
<path fill-rule="evenodd" d="M18.9287,530.775 L98.5955,414.412 L88.2369,480.534 L18.9287,530.775"/>
<path fill-rule="evenodd" d="M87.2813,403.35 L102,392.681 L100.748,400.671 L87.2813,403.35"/>
<path fill-rule="evenodd" d="M50.7861,372.631 L106.889,361.472 L103.18,385.148 L50.7861,372.631"/>
<path fill-rule="evenodd" d="M58.8881,309.739 L112.969,322.659 L109.794,342.927 L58.8881,309.739"/>
<path fill-rule="evenodd" d="M81.7529,249.61 L120.46,274.845 L115.701,305.222 L81.7529,249.61"/>
<path fill-rule="evenodd" d="M74.7907,43.3069 L139.998,150.125 L130.552,210.42 L74.7907,43.3069"/>
<path fill-rule="evenodd" d="M139.998,150.125 L159.348,26.6043 L171.779,202.187 L139.998,150.125"/>
<path fill-rule="evenodd" d="M120.46,274.845 L130.552,210.42 L160.832,301.166 L120.46,274.845"/>
<path fill-rule="evenodd" d="M112.969,322.659 L115.701,305.222 L128.629,326.4 L112.969,322.659"/>
<path fill-rule="evenodd" d="M106.889,361.472 L109.794,342.927 L130.91,356.693 L106.889,361.472"/>
<path fill-rule="evenodd" d="M102,392.681 L103.18,385.148 L110.108,386.803 L102,392.681"/>
<path fill-rule="evenodd" d="M98.5955,414.412 L100.748,400.671 L109.147,399.001 L98.5955,414.412"/>
<path fill-rule="evenodd" d="M110.108,386.803 L124.778,376.169 L116.459,388.32 L110.108,386.803"/>
<path fill-rule="evenodd" d="M130.91,356.693 L139.247,355.035 L135.889,359.94 L130.91,356.693"/>
<path fill-rule="evenodd" d="M128.629,326.4 L154.604,332.605 L142.875,349.736 L128.629,326.4"/>
<path fill-rule="evenodd" d="M160.832,301.166 L171.408,308.061 L165.844,316.187 L160.832,301.166"/>
<path fill-rule="evenodd" d="M171.779,202.187 L205.771,257.869 L178.538,297.647 L171.779,202.187"/>
<path fill-rule="evenodd" d="M171.408,308.061 L178.538,297.647 L179.656,313.438 L171.408,308.061"/>
<path fill-rule="evenodd" d="M154.604,332.605 L165.844,316.187 L172.771,336.946 L154.604,332.605"/>
<path fill-rule="evenodd" d="M139.247,355.035 L142.875,349.736 L145.367,353.818 L139.247,355.035"/>
<path fill-rule="evenodd" d="M124.778,376.169 L135.889,359.94 L141.827,363.811 L124.778,376.169"/>
<path fill-rule="evenodd" d="M145.367,353.818 L159.486,351.009 L148.51,358.966 L145.367,353.818"/>
<path fill-rule="evenodd" d="M172.771,336.946 L177.372,338.045 L173.962,340.516 L172.771,336.946"/>
<path fill-rule="evenodd" d="M179.656,313.438 L196.325,324.305 L181.201,335.269 L179.656,313.438"/>
<path fill-rule="evenodd" d="M177.372,338.045 L181.201,335.269 L181.467,339.023 L177.372,338.045"/>
<path fill-rule="evenodd" d="M159.486,351.009 L173.962,340.516 L176.345,347.656 L159.486,351.009"/>
<path fill-rule="evenodd" d="M181.467,339.023 L198.858,343.178 L181.999,346.532 L181.467,339.023"/>
<path fill-rule="evenodd" d="M176.345,347.656 L181.999,346.532 L183.622,369.466 L176.345,347.656"/>
<path fill-rule="evenodd" d="M141.827,363.811 L148.51,358.966 L157.839,374.25 L141.827,363.811"/>
<path fill-rule="evenodd" d="M109.147,399.001 L116.459,388.32 L137.532,393.355 L109.147,399.001"/>
<path fill-rule="evenodd" d="M157.839,374.25 L175.546,385.793 L166.04,387.684 L157.839,374.25"/>
<path fill-rule="evenodd" d="M183.622,369.466 L188.229,383.27 L184.65,383.982 L183.622,369.466"/>
<path fill-rule="evenodd" d="M175.546,385.793 L184.65,383.982 L185.225,392.104 L175.546,385.793"/>
<path fill-rule="evenodd" d="M137.532,393.355 L166.04,387.684 L174.96,402.296 L137.532,393.355"/>
<path fill-rule="evenodd" d="M75.9931,558.691 L88.2369,480.534 L170.159,421.15 L75.9931,558.691"/>
<path fill-rule="evenodd" d="M174.96,402.296 L181.928,403.961 L178.782,408.556 L174.96,402.296"/>
<path fill-rule="evenodd" d="M185.225,392.104 L188.558,394.277 L185.677,398.485 L185.225,392.104"/>
<path fill-rule="evenodd" d="M188.229,383.27 L197.333,381.459 L190.806,390.994 L188.229,383.27"/>
<path fill-rule="evenodd" d="M188.558,394.277 L190.806,390.994 L192.83,397.062 L188.558,394.277"/>
<path fill-rule="evenodd" d="M181.928,403.961 L185.677,398.485 L186.136,404.966 L181.928,403.961"/>
<path fill-rule="evenodd" d="M170.159,421.15 L178.782,408.556 L181.466,412.954 L170.159,421.15"/>
<path fill-rule="evenodd" d="M186.136,404.966 L190.912,406.107 L186.446,409.344 L186.136,404.966"/>
<path fill-rule="evenodd" d="M192.83,397.062 L198.39,400.686 L194.887,403.225 L192.83,397.062"/>
<path fill-rule="evenodd" d="M190.912,406.107 L194.887,403.225 L196.276,407.389 L190.912,406.107"/>
<path fill-rule="evenodd" d="M181.466,412.954 L186.446,409.344 L187.388,422.655 L181.466,412.954"/>
<path fill-rule="evenodd" d="M187.388,422.655 L197.495,439.212 L191.341,478.494 L187.388,422.655"/>
<path fill-rule="evenodd" d="M196.276,407.389 L202.257,408.818 L200.498,420.042 L196.276,407.389"/>
<path fill-rule="evenodd" d="M198.39,400.686 L204.189,396.483 L203.054,403.727 L198.39,400.686"/>
<path fill-rule="evenodd" d="M197.333,381.459 L209.275,364.017 L206.839,379.569 L197.333,381.459"/>
<path fill-rule="evenodd" d="M198.858,343.178 L212.98,340.369 L212.046,346.329 L198.858,343.178"/>
<path fill-rule="evenodd" d="M196.325,324.305 L217.952,308.629 L213.72,335.646 L196.325,324.305"/>
<path fill-rule="evenodd" d="M205.771,257.869 L231.877,219.738 L221.792,284.115 L205.771,257.869"/>
<path fill-rule="evenodd" d="M217.952,308.629 L221.792,284.115 L230.988,299.179 L217.952,308.629"/>
<path fill-rule="evenodd" d="M212.98,340.369 L213.72,335.646 L219.098,339.152 L212.98,340.369"/>
<path fill-rule="evenodd" d="M209.275,364.017 L212.046,346.329 L220.072,348.246 L209.275,364.017"/>
<path fill-rule="evenodd" d="M219.098,339.152 L227.434,337.494 L224.077,342.398 L219.098,339.152"/>
<path fill-rule="evenodd" d="M230.988,299.179 L276.009,266.544 L241.677,316.689 L230.988,299.179"/>
<path fill-rule="evenodd" d="M227.434,337.494 L241.677,316.689 L251.46,332.715 L227.434,337.494"/>
<path fill-rule="evenodd" d="M220.072,348.246 L224.077,342.398 L240.552,353.139 L220.072,348.246"/>
<path fill-rule="evenodd" d="M204.189,396.483 L206.839,379.569 L235.344,373.899 L204.189,396.483"/>
<path fill-rule="evenodd" d="M240.552,353.139 L258.175,357.349 L252.888,361.181 L240.552,353.139"/>
<path fill-rule="evenodd" d="M251.46,332.715 L307.549,321.558 L263.945,353.166 L251.46,332.715"/>
<path fill-rule="evenodd" d="M258.175,357.349 L263.945,353.166 L267.919,359.677 L258.175,357.349"/>
<path fill-rule="evenodd" d="M235.344,373.899 L252.888,361.181 L263.733,368.252 L235.344,373.899"/>
<path fill-rule="evenodd" d="M267.919,359.677 L285.604,363.902 L272.134,366.581 L267.919,359.677"/>
<path fill-rule="evenodd" d="M263.733,368.252 L272.134,366.581 L279.382,378.454 L263.733,368.252"/>
<path fill-rule="evenodd" d="M202.257,408.818 L203.054,403.727 L215.839,412.062 L202.257,408.818"/>
<path fill-rule="evenodd" d="M279.382,378.454 L397.502,455.462 L314.25,435.573 L279.382,378.454"/>
<path fill-rule="evenodd" d="M215.839,412.062 L314.25,435.573 L355.468,503.093 L215.839,412.062"/>
<path fill-rule="evenodd" d="M197.495,439.212 L200.498,420.042 L218.227,473.172 L197.495,439.212"/>
<path fill-rule="evenodd" d="M48.3539,0 L60.3402,0 L74.7907,43.3069 L48.3539,0"/>
<path fill-rule="evenodd" d="M0,196.312 L0,115.688 L81.7529,249.61 L0,196.312"/>
<path fill-rule="evenodd" d="M0,295.67 L0,271.347 L58.8881,309.739 L0,295.67"/>
<path fill-rule="evenodd" d="M0,382.733 L0,360.498 L50.7861,372.631 L0,382.733"/>
<path fill-rule="evenodd" d="M0,466.619 L0,420.711 L87.2813,403.35 L0,466.619"/>
<path fill-rule="evenodd" d="M0,558.422 L0,544.496 L18.9287,530.775 L0,558.422"/>
<path fill-rule="evenodd" d="M69.5218,600 L47.7115,600 L75.9931,558.691 L69.5218,600"/>
<path fill-rule="evenodd" d="M266.301,0 L382.319,0 L231.877,219.738 L266.301,0"/>
<path fill-rule="evenodd" d="M426.316,47.003 L426.316,157.589 L276.009,266.544 L426.316,47.003"/>
<path fill-rule="evenodd" d="M426.316,235.466 L426.316,297.935 L307.549,321.558 L426.316,235.466"/>
<path fill-rule="evenodd" d="M426.316,335.913 L426.316,397.518 L285.604,363.902 L426.316,335.913"/>
<path fill-rule="evenodd" d="M426.316,462.346 L426.316,474.247 L397.502,455.462 L426.316,462.346"/>
<path fill-rule="evenodd" d="M426.316,549.282 L426.316,600 L414.625,600 L355.468,503.093 L426.316,549.282"/>
<path fill-rule="evenodd" d="M295.649,600 L260.546,600 L218.227,473.172 L295.649,600"/>
<path fill-rule="evenodd" d="M157.465,0 L163.516,0 L159.348,26.6043 L157.465,0"/>
<path fill-rule="evenodd" d="M199.944,600 L172.307,600 L191.341,478.494 L199.944,600"/>
</g>
</g>
</svg>
