<?xml version="1.0" encoding="UTF-8" standalone="no"?>
<svg width="188.736mm" height="211.667mm"
 viewBox="0 0 535 600"
 xmlns="http://www.w3.org/2000/svg" xmlns:xlink="http://www.w3.org/1999/xlink"  version="1.2" baseProfile="tiny">
<title>Qt Svg Document</title>
<desc>Generated with Qt</desc>
<defs>
</defs>
<g fill="none" stroke="black" vector-effect="non-scaling-stroke" stroke-width="1" fill-rule="evenodd" stroke-linecap="square" stroke-linejoin="bevel" >

<g fill="#000000" fill-opacity="1" stroke="none" transform="matrix(1,0,0,1,0,0)"
font-family="Helvetica" font-size="12pt" font-weight="400" font-style="normal" 
>
<path fill-rule="evenodd" d="M29.3599,537.663 L120.875,419.601 L108.804,478.076 L29.3599,537.663"/>
<path fill-rule="evenodd" d="M23.4905,399.127 L143.718,308.95 L135.401,349.236 L23.4905,399.127"/>
<path fill-rule="evenodd" d="M101.42,280.892 L148.672,284.95 L147.224,291.964 L101.42,280.892"/>
<path fill-rule="evenodd" d="M73.71,225.256 L156.846,245.352 L150.022,278.41 L73.71,225.256"/>
<path fill-rule="evenodd" d="M105.304,128.173 L171.516,174.292 L161.861,221.061 L105.304,128.173"/>
<path fill-rule="evenodd" d="M175.433,72.7282 L188.165,93.6391 L185.521,106.447 L175.433,72.7282"/>
<path fill-rule="evenodd" d="M188.165,93.6391 L199.151,40.4203 L241.067,180.524 L188.165,93.6391"/>
<path fill-rule="evenodd" d="M171.516,174.292 L185.521,106.447 L214.849,204.475 L171.516,174.292"/>
<path fill-rule="evenodd" d="M156.846,245.352 L161.861,221.061 L180.069,250.965 L156.846,245.352"/>
<path fill-rule="evenodd" d="M148.672,284.95 L150.022,278.41 L160.922,286.003 L148.672,284.95"/>
<path fill-rule="evenodd" d="M143.718,308.95 L147.224,291.964 L161.699,295.463 L143.718,308.95"/>
<path fill-rule="evenodd" d="M160.922,286.003 L172.936,287.035 L167.865,290.838 L160.922,286.003"/>
<path fill-rule="evenodd" d="M180.069,250.965 L211.043,258.452 L192.909,272.054 L180.069,250.965"/>
<path fill-rule="evenodd" d="M214.849,204.475 L250.189,229.091 L227.34,246.228 L214.849,204.475"/>
<path fill-rule="evenodd" d="M241.067,180.524 L264.227,218.561 L254.606,225.778 L241.067,180.524"/>
<path fill-rule="evenodd" d="M250.189,229.091 L254.606,225.778 L257.021,233.849 L250.189,229.091"/>
<path fill-rule="evenodd" d="M211.043,258.452 L227.34,246.228 L232.553,263.652 L211.043,258.452"/>
<path fill-rule="evenodd" d="M172.936,287.035 L192.909,272.054 L203.636,289.671 L172.936,287.035"/>
<path fill-rule="evenodd" d="M161.699,295.463 L167.865,290.838 L181.309,300.203 L161.699,295.463"/>
<path fill-rule="evenodd" d="M120.875,419.601 L135.401,349.236 L196.549,321.976 L120.875,419.601"/>
<path fill-rule="evenodd" d="M181.309,300.203 L208.359,306.741 L202.166,314.73 L181.309,300.203"/>
<path fill-rule="evenodd" d="M203.636,289.671 L220.469,291.117 L211.534,302.644 L203.636,289.671"/>
<path fill-rule="evenodd" d="M232.553,263.652 L240.306,265.526 L235.117,272.221 L232.553,263.652"/>
<path fill-rule="evenodd" d="M257.021,233.849 L262.112,237.395 L259.204,241.147 L257.021,233.849"/>
<path fill-rule="evenodd" d="M264.227,218.561 L294.05,196.193 L269.719,227.581 L264.227,218.561"/>
<path fill-rule="evenodd" d="M262.112,237.395 L269.719,227.581 L285.697,253.824 L262.112,237.395"/>
<path fill-rule="evenodd" d="M240.306,265.526 L259.204,241.147 L268.54,272.351 L240.306,265.526"/>
<path fill-rule="evenodd" d="M220.469,291.117 L235.117,272.221 L241.305,292.907 L220.469,291.117"/>
<path fill-rule="evenodd" d="M208.359,306.741 L211.534,302.644 L215.008,308.348 L208.359,306.741"/>
<path fill-rule="evenodd" d="M196.549,321.976 L202.166,314.73 L206.317,317.622 L196.549,321.976"/>
<path fill-rule="evenodd" d="M215.008,308.348 L222.86,310.246 L217.593,312.595 L215.008,308.348"/>
<path fill-rule="evenodd" d="M241.305,292.907 L258.451,294.38 L243.712,300.951 L241.305,292.907"/>
<path fill-rule="evenodd" d="M268.54,272.351 L294.039,278.515 L273.167,287.819 L268.54,272.351"/>
<path fill-rule="evenodd" d="M285.697,253.824 L310.567,271.146 L299.302,276.168 L285.697,253.824"/>
<path fill-rule="evenodd" d="M294.039,278.515 L299.302,276.168 L301.886,280.411 L294.039,278.515"/>
<path fill-rule="evenodd" d="M258.451,294.38 L273.167,287.819 L275.57,295.85 L258.451,294.38"/>
<path fill-rule="evenodd" d="M222.86,310.246 L243.712,300.951 L248.335,316.404 L222.86,310.246"/>
<path fill-rule="evenodd" d="M206.317,317.622 L217.593,312.595 L231.212,334.962 L206.317,317.622"/>
<path fill-rule="evenodd" d="M91.4714,562.039 L108.804,478.076 L222.878,392.515 L91.4714,562.039"/>
<path fill-rule="evenodd" d="M231.212,334.962 L254.77,351.371 L247.172,361.174 L231.212,334.962"/>
<path fill-rule="evenodd" d="M248.335,316.404 L276.582,323.232 L257.675,347.623 L248.335,316.404"/>
<path fill-rule="evenodd" d="M275.57,295.85 L296.419,297.641 L281.762,316.549 L275.57,295.85"/>
<path fill-rule="evenodd" d="M301.886,280.411 L308.529,282.017 L305.356,286.111 L301.886,280.411"/>
<path fill-rule="evenodd" d="M310.567,271.146 L320.329,266.794 L314.716,274.036 L310.567,271.146"/>
<path fill-rule="evenodd" d="M308.529,282.017 L314.716,274.036 L335.552,288.549 L308.529,282.017"/>
<path fill-rule="evenodd" d="M296.419,297.641 L305.356,286.111 L313.257,299.087 L296.419,297.641"/>
<path fill-rule="evenodd" d="M276.582,323.232 L281.762,316.549 L284.322,325.103 L276.582,323.232"/>
<path fill-rule="evenodd" d="M254.77,351.371 L257.675,347.623 L259.856,354.914 L254.77,351.371"/>
<path fill-rule="evenodd" d="M222.878,392.515 L247.172,361.174 L252.655,370.18 L222.878,392.515"/>
<path fill-rule="evenodd" d="M259.856,354.914 L266.676,359.664 L262.267,362.971 L259.856,354.914"/>
<path fill-rule="evenodd" d="M284.322,325.103 L305.824,330.301 L289.532,342.52 L284.322,325.103"/>
<path fill-rule="evenodd" d="M313.257,299.087 L343.926,301.722 L323.973,316.687 L313.257,299.087"/>
<path fill-rule="evenodd" d="M335.552,288.549 L355.167,293.29 L349,297.916 L335.552,288.549"/>
<path fill-rule="evenodd" d="M343.926,301.722 L349,297.916 L355.946,302.754 L343.926,301.722"/>
<path fill-rule="evenodd" d="M305.824,330.301 L323.973,316.687 L336.825,337.794 L305.824,330.301"/>
<path fill-rule="evenodd" d="M266.676,359.664 L289.532,342.52 L302.029,384.288 L266.676,359.664"/>
<path fill-rule="evenodd" d="M252.655,370.18 L262.267,362.971 L275.792,408.18 L252.655,370.18"/>
<path fill-rule="evenodd" d="M275.792,408.18 L328.705,495.082 L317.717,548.312 L275.792,408.18"/>
<path fill-rule="evenodd" d="M302.029,384.288 L345.348,414.462 L331.347,482.285 L302.029,384.288"/>
<path fill-rule="evenodd" d="M336.825,337.794 L360.018,343.4 L355.009,367.66 L336.825,337.794"/>
<path fill-rule="evenodd" d="M355.946,302.754 L368.191,303.806 L366.842,310.343 L355.946,302.754"/>
<path fill-rule="evenodd" d="M355.167,293.29 L373.146,279.805 L369.64,296.789 L355.167,293.29"/>
<path fill-rule="evenodd" d="M320.329,266.794 L395.978,169.201 L381.457,239.543 L320.329,266.794"/>
<path fill-rule="evenodd" d="M294.05,196.193 L425.382,26.7638 L408.059,110.68 L294.05,196.193"/>
<path fill-rule="evenodd" d="M395.978,169.201 L408.059,110.68 L487.568,51.044 L395.978,169.201"/>
<path fill-rule="evenodd" d="M373.146,279.805 L381.457,239.543 L493.301,189.682 L373.146,279.805"/>
<path fill-rule="evenodd" d="M368.191,303.806 L369.64,296.789 L415.47,307.867 L368.191,303.806"/>
<path fill-rule="evenodd" d="M360.018,343.4 L366.842,310.343 L443.151,363.495 L360.018,343.4"/>
<path fill-rule="evenodd" d="M345.348,414.462 L355.009,367.66 L411.606,460.612 L345.348,414.462"/>
<path fill-rule="evenodd" d="M328.705,495.082 L331.347,482.285 L341.426,515.975 L328.705,495.082"/>
<path fill-rule="evenodd" d="M131.151,0 L153.675,0 L175.433,72.7282 L131.151,0"/>
<path fill-rule="evenodd" d="M0,54.8254 L0,0 L27.2624,0 L105.304,128.173 L0,54.8254"/>
<path fill-rule="evenodd" d="M0,207.439 L0,173.915 L73.71,225.256 L0,207.439"/>
<path fill-rule="evenodd" d="M0,272.18 L0,256.376 L101.42,280.892 L0,272.18"/>
<path fill-rule="evenodd" d="M0,416.746 L0,409.599 L23.4905,399.127 L0,416.746"/>
<path fill-rule="evenodd" d="M0,575.54 L0,559.685 L29.3599,537.663 L0,575.54"/>
<path fill-rule="evenodd" d="M83.6349,600 L62.0459,600 L91.4714,562.039 L83.6349,600"/>
<path fill-rule="evenodd" d="M430.907,0 L446.128,0 L425.382,26.7638 L430.907,0"/>
<path fill-rule="evenodd" d="M527.134,0 L535.714,0 L535.714,14.9314 L487.568,51.044 L527.134,0"/>
<path fill-rule="evenodd" d="M535.714,157.87 L535.714,170.774 L493.301,189.682 L535.714,157.87"/>
<path fill-rule="evenodd" d="M535.714,318.195 L535.714,336.933 L415.47,307.867 L535.714,318.195"/>
<path fill-rule="evenodd" d="M535.714,385.87 L535.714,427.969 L443.151,363.495 L535.714,385.87"/>
<path fill-rule="evenodd" d="M535.714,547.058 L535.714,600 L496.475,600 L411.606,460.612 L535.714,547.058"/>
<path fill-rule="evenodd" d="M392.587,600 L366.564,600 L341.426,515.975 L392.587,600"/>
<path fill-rule="evenodd" d="M187.059,0 L207.496,0 L199.151,40.4203 L187.059,0"/>
<path fill-rule="evenodd" d="M333.18,600 L307.047,600 L317.717,548.312 L333.18,600"/>
</g>
</g>
</svg>
