<?xml version="1.0" encoding="UTF-8" standalone="no"?>
<svg width="142.875mm" height="211.667mm"
 viewBox="0 0 405 600"
 xmlns="http://www.w3.org/2000/svg" xmlns:xlink="http://www.w3.org/1999/xlink"  version="1.2" baseProfile="tiny">
<title>Qt Svg Document</title>
<desc>Generated with Qt</desc>
<defs>
</defs>
<g fill="none" stroke="black" vector-effect="non-scaling-stroke" stroke-width="1" fill-rule="evenodd" stroke-linecap="square" stroke-linejoin="bevel" >

<g fill="#000000" fill-opacity="1" stroke="none" transform="matrix(1,0,0,1,0,0)"
font-family="Helvetica" font-size="12pt" font-weight="400" font-style="normal" 
>
<path fill-rule="evenodd" d="M18.3402,567.646 L34.4035,539.818 L28.8105,555.144 L18.3402,567.646"/>
<path fill-rule="evenodd" d="M118.485,288.909 L131.739,273.102 L126.86,286.472 L118.485,288.909"/>
<path fill-rule="evenodd" d="M113.857,260.158 L139.169,252.742 L136.781,259.285 L113.857,260.158"/>
<path fill-rule="evenodd" d="M37.6418,224.456 L151.072,220.124 L140.887,248.033 L37.6418,224.456"/>
<path fill-rule="evenodd" d="M147.981,206.645 L155.374,208.334 L153.731,212.837 L147.981,206.645"/>
<path fill-rule="evenodd" d="M133.997,129.982 L169.857,168.634 L163.546,185.933 L133.997,129.982"/>
<path fill-rule="evenodd" d="M148.431,74.6309 L181.402,137.018 L170.845,165.926 L148.431,74.6309"/>
<path fill-rule="evenodd" d="M181.402,137.018 L188.639,117.203 L203.896,179.579 L181.402,137.018"/>
<path fill-rule="evenodd" d="M169.857,168.634 L170.845,165.926 L172.103,171.054 L169.857,168.634"/>
<path fill-rule="evenodd" d="M155.374,208.334 L163.546,185.933 L178.119,213.528 L155.374,208.334"/>
<path fill-rule="evenodd" d="M151.072,220.124 L153.731,212.837 L160.177,219.777 L151.072,220.124"/>
<path fill-rule="evenodd" d="M139.169,252.742 L140.887,248.033 L148.949,249.875 L139.169,252.742"/>
<path fill-rule="evenodd" d="M131.739,273.102 L136.781,259.285 L143.541,259.027 L131.739,273.102"/>
<path fill-rule="evenodd" d="M148.949,249.875 L151.951,249 L150.854,250.307 L148.949,249.875"/>
<path fill-rule="evenodd" d="M160.177,219.777 L176.891,219.139 L168.697,228.95 L160.177,219.777"/>
<path fill-rule="evenodd" d="M178.119,213.528 L181.022,214.193 L179.46,216.064 L178.119,213.528"/>
<path fill-rule="evenodd" d="M172.103,171.054 L195.795,196.569 L182.307,212.656 L172.103,171.054"/>
<path fill-rule="evenodd" d="M203.896,179.579 L206.27,184.073 L205.284,185.252 L203.896,179.579"/>
<path fill-rule="evenodd" d="M195.795,196.569 L205.284,185.252 L212.463,214.519 L195.795,196.569"/>
<path fill-rule="evenodd" d="M181.022,214.193 L182.307,212.656 L182.781,214.594 L181.022,214.193"/>
<path fill-rule="evenodd" d="M176.891,219.139 L179.46,216.064 L181.003,218.982 L176.891,219.139"/>
<path fill-rule="evenodd" d="M182.781,214.594 L199.051,218.29 L183.821,218.874 L182.781,214.594"/>
<path fill-rule="evenodd" d="M212.463,214.519 L215.381,217.664 L213.255,217.745 L212.463,214.519"/>
<path fill-rule="evenodd" d="M199.051,218.29 L213.255,217.745 L214.238,221.74 L199.051,218.29"/>
<path fill-rule="evenodd" d="M181.003,218.982 L183.821,218.874 L186.263,228.926 L181.003,218.982"/>
<path fill-rule="evenodd" d="M151.951,249 L168.697,228.95 L179.805,240.91 L151.951,249"/>
<path fill-rule="evenodd" d="M186.263,228.926 L190.897,237.687 L188.558,238.367 L186.263,228.926"/>
<path fill-rule="evenodd" d="M179.805,240.91 L188.558,238.367 L192.5,254.578 L179.805,240.91"/>
<path fill-rule="evenodd" d="M143.541,259.027 L150.854,250.307 L182.758,257.532 L143.541,259.027"/>
<path fill-rule="evenodd" d="M192.5,254.578 L194.814,257.073 L193.125,257.137 L192.5,254.578"/>
<path fill-rule="evenodd" d="M182.758,257.532 L193.125,257.137 L193.835,260.041 L182.758,257.532"/>
<path fill-rule="evenodd" d="M34.4035,539.818 L126.86,286.472 L191.511,267.66 L34.4035,539.818"/>
<path fill-rule="evenodd" d="M193.835,260.041 L195.668,260.457 L194.454,262.562 L193.835,260.041"/>
<path fill-rule="evenodd" d="M194.814,257.073 L197.682,256.962 L196.542,258.939 L194.814,257.073"/>
<path fill-rule="evenodd" d="M190.897,237.687 L212.392,231.438 L199.457,253.88 L190.897,237.687"/>
<path fill-rule="evenodd" d="M214.238,221.74 L217.548,222.492 L215.358,226.291 L214.238,221.74"/>
<path fill-rule="evenodd" d="M215.381,217.664 L220.447,217.467 L218.433,220.957 L215.381,217.664"/>
<path fill-rule="evenodd" d="M206.27,184.073 L314.044,55.3395 L222.245,214.351 L206.27,184.073"/>
<path fill-rule="evenodd" d="M220.447,217.467 L222.245,214.351 L223.819,217.336 L220.447,217.467"/>
<path fill-rule="evenodd" d="M217.548,222.492 L218.433,220.957 L220.464,223.151 L217.548,222.492"/>
<path fill-rule="evenodd" d="M212.392,231.438 L215.358,226.291 L216.341,230.289 L212.392,231.438"/>
<path fill-rule="evenodd" d="M197.682,256.962 L199.457,253.88 L201.019,256.835 L197.682,256.962"/>
<path fill-rule="evenodd" d="M195.668,260.457 L196.542,258.939 L198.551,261.11 L195.668,260.457"/>
<path fill-rule="evenodd" d="M191.511,267.66 L194.454,262.562 L195.428,266.52 L191.511,267.66"/>
<path fill-rule="evenodd" d="M23.2145,570.479 L28.8105,555.144 L39.2984,542.62 L23.2145,570.479"/>
<path fill-rule="evenodd" d="M195.428,266.52 L199.342,265.383 L196.401,270.479 L195.428,266.52"/>
<path fill-rule="evenodd" d="M198.551,261.11 L201.436,261.762 L200.559,263.278 L198.551,261.11"/>
<path fill-rule="evenodd" d="M201.019,256.835 L204.36,256.708 L202.578,259.787 L201.019,256.835"/>
<path fill-rule="evenodd" d="M216.341,230.289 L220.299,229.138 L217.324,234.286 L216.341,230.289"/>
<path fill-rule="evenodd" d="M220.464,223.151 L223.38,223.81 L222.493,225.344 L220.464,223.151"/>
<path fill-rule="evenodd" d="M223.819,217.336 L227.194,217.204 L225.394,220.322 L223.819,217.336"/>
<path fill-rule="evenodd" d="M223.38,223.81 L225.394,220.322 L227.758,224.804 L223.38,223.81"/>
<path fill-rule="evenodd" d="M220.299,229.138 L222.493,225.344 L224.799,227.831 L220.299,229.138"/>
<path fill-rule="evenodd" d="M227.758,224.804 L231.938,225.755 L228.751,226.683 L227.758,224.804"/>
<path fill-rule="evenodd" d="M224.799,227.831 L228.751,226.683 L235.387,239.251 L224.799,227.831"/>
<path fill-rule="evenodd" d="M204.36,256.708 L217.324,234.286 L222.666,256.014 L204.36,256.708"/>
<path fill-rule="evenodd" d="M201.436,261.762 L202.578,259.787 L203.917,262.324 L201.436,261.762"/>
<path fill-rule="evenodd" d="M199.342,265.383 L200.559,263.278 L201.837,264.657 L199.342,265.383"/>
<path fill-rule="evenodd" d="M203.917,262.324 L207.236,263.079 L204.707,263.819 L203.917,262.324"/>
<path fill-rule="evenodd" d="M222.666,256.014 L232.576,255.64 L223.248,258.379 L222.666,256.014"/>
<path fill-rule="evenodd" d="M235.387,239.251 L246.728,251.484 L242.502,252.725 L235.387,239.251"/>
<path fill-rule="evenodd" d="M232.576,255.64 L242.502,252.725 L243.818,255.217 L232.576,255.64"/>
<path fill-rule="evenodd" d="M207.236,263.079 L223.248,258.379 L225.426,267.228 L207.236,263.079"/>
<path fill-rule="evenodd" d="M201.837,264.657 L204.707,263.819 L209.554,272.991 L201.837,264.657"/>
<path fill-rule="evenodd" d="M39.2984,542.62 L196.401,270.479 L212.457,335.841 L39.2984,542.62"/>
<path fill-rule="evenodd" d="M212.457,335.841 L221.598,324.925 L214.538,344.31 L212.457,335.841"/>
<path fill-rule="evenodd" d="M209.554,272.991 L231.772,296.987 L227.88,307.676 L209.554,272.991"/>
<path fill-rule="evenodd" d="M225.426,267.228 L241.342,270.858 L232.357,295.382 L225.426,267.228"/>
<path fill-rule="evenodd" d="M243.818,255.217 L247.118,255.093 L245.74,258.855 L243.818,255.217"/>
<path fill-rule="evenodd" d="M246.728,251.484 L248.645,250.923 L247.957,252.806 L246.728,251.484"/>
<path fill-rule="evenodd" d="M231.938,225.755 L260.884,217.322 L255.828,231.201 L231.938,225.755"/>
<path fill-rule="evenodd" d="M227.194,217.204 L318.979,58.1989 L261.411,215.88 L227.194,217.204"/>
<path fill-rule="evenodd" d="M314.044,55.3395 L330.309,27.1657 L324.646,42.6764 L314.044,55.3395"/>
<path fill-rule="evenodd" d="M318.979,58.1989 L324.646,42.6764 L335.254,30.0047 L318.979,58.1989"/>
<path fill-rule="evenodd" d="M260.884,217.322 L261.411,215.88 L266.488,215.686 L260.884,217.322"/>
<path fill-rule="evenodd" d="M248.645,250.923 L255.828,231.201 L289.776,238.939 L248.645,250.923"/>
<path fill-rule="evenodd" d="M247.118,255.093 L247.957,252.806 L249.984,254.984 L247.118,255.093"/>
<path fill-rule="evenodd" d="M241.342,270.858 L245.74,258.855 L253.553,273.642 L241.342,270.858"/>
<path fill-rule="evenodd" d="M231.772,296.987 L232.357,295.382 L233.101,298.421 L231.772,296.987"/>
<path fill-rule="evenodd" d="M221.598,324.925 L227.88,307.676 L231.038,313.653 L221.598,324.925"/>
<path fill-rule="evenodd" d="M233.101,298.421 L238.726,304.472 L235.511,308.312 L233.101,298.421"/>
<path fill-rule="evenodd" d="M253.553,273.642 L262.781,275.747 L257.804,281.69 L253.553,273.642"/>
<path fill-rule="evenodd" d="M249.984,254.984 L281.173,253.789 L265.861,272.069 L249.984,254.984"/>
<path fill-rule="evenodd" d="M289.776,238.939 L294.849,237.462 L292.997,239.672 L289.776,238.939"/>
<path fill-rule="evenodd" d="M266.488,215.686 L328.149,197.677 L314.606,213.857 L266.488,215.686"/>
<path fill-rule="evenodd" d="M294.849,237.462 L314.606,213.857 L385.144,211.175 L294.849,237.462"/>
<path fill-rule="evenodd" d="M281.173,253.789 L292.997,239.672 L344.399,251.367 L281.173,253.789"/>
<path fill-rule="evenodd" d="M262.781,275.747 L265.861,272.069 L271.027,277.628 L262.781,275.747"/>
<path fill-rule="evenodd" d="M238.726,304.472 L257.804,281.69 L310.828,382.06 L238.726,304.472"/>
<path fill-rule="evenodd" d="M231.038,313.653 L235.511,308.312 L241.754,333.931 L231.038,313.653"/>
<path fill-rule="evenodd" d="M109.008,0 L130.137,0 L148.431,74.6309 L109.008,0"/>
<path fill-rule="evenodd" d="M13.3606,0 L65.3205,0 L133.997,129.982 L13.3606,0"/>
<path fill-rule="evenodd" d="M0,172.953 L0,47.2444 L147.981,206.645 L0,172.953"/>
<path fill-rule="evenodd" d="M0,225.895 L0,215.88 L37.6418,224.456 L0,225.895"/>
<path fill-rule="evenodd" d="M0,293.354 L0,264.499 L113.857,260.158 L0,293.354"/>
<path fill-rule="evenodd" d="M0,430.425 L0,323.449 L118.485,288.909 L0,430.425"/>
<path fill-rule="evenodd" d="M0,599.42 L0,589.548 L18.3402,567.646 L0,599.42"/>
<path fill-rule="evenodd" d="M12.4408,600 L6.17082,600 L23.2145,570.479 L12.4408,600"/>
<path fill-rule="evenodd" d="M340.225,0 L345.989,0 L330.309,27.1657 L340.225,0"/>
<path fill-rule="evenodd" d="M352.577,0 L360.376,0 L335.254,30.0047 L352.577,0"/>
<path fill-rule="evenodd" d="M405,105.903 L405,175.27 L328.149,197.677 L405,105.903"/>
<path fill-rule="evenodd" d="M405,205.387 L405,210.416 L385.144,211.175 L405,205.387"/>
<path fill-rule="evenodd" d="M405,249.056 L405,265.164 L344.399,251.367 L405,249.056"/>
<path fill-rule="evenodd" d="M405,308.151 L405,421.98 L271.027,277.628 L405,308.151"/>
<path fill-rule="evenodd" d="M405,483.5 L405,560.334 L310.828,382.06 L405,483.5"/>
<path fill-rule="evenodd" d="M382.332,600 L306.961,600 L241.754,333.931 L382.332,600"/>
<path fill-rule="evenodd" d="M159.915,0 L231.413,0 L188.639,117.203 L159.915,0"/>
<path fill-rule="evenodd" d="M277.215,600 L121.2,600 L214.538,344.31 L277.215,600"/>
</g>
</g>
</svg>
