<?xml version="1.0" encoding="UTF-8" standalone="no"?>
<svg width="221.544mm" height="211.667mm"
 viewBox="0 0 628 600"
 xmlns="http://www.w3.org/2000/svg" xmlns:xlink="http://www.w3.org/1999/xlink"  version="1.2" baseProfile="tiny">
<title>Qt Svg Document</title>
<desc>Generated with Qt</desc>
<defs>
</defs>
<g fill="none" stroke="black" vector-effect="non-scaling-stroke" stroke-width="1" fill-rule="evenodd" stroke-linecap="square" stroke-linejoin="bevel" >

<g fill="#000000" fill-opacity="1" stroke="none" transform="matrix(1,0,0,1,0,0)"
font-family="Helvetica" font-size="12pt" font-weight="400" font-style="normal" 
>
<path fill-rule="evenodd" d="M122.126,221.175 L143.882,229.01 L132.484,226.818 L122.126,221.175"/>
<path fill-rule="evenodd" d="M253.398,241.615 L277.375,254.679 L256.601,250.684 L253.398,241.615"/>
<path fill-rule="evenodd" d="M143.882,229.01 L256.601,250.684 L264.255,272.359 L143.882,229.01"/>
<path fill-rule="evenodd" d="M28.485,206.821 L132.484,226.818 L226.987,278.306 L28.485,206.821"/>
<path fill-rule="evenodd" d="M156.232,422.083 L172.911,407.787 L165.76,416.229 L156.232,422.083"/>
<path fill-rule="evenodd" d="M233.571,322.505 L257.734,307.66 L243.535,324.421 L233.571,322.505"/>
<path fill-rule="evenodd" d="M226.987,278.306 L269.6,293.652 L265.038,299.037 L226.987,278.306"/>
<path fill-rule="evenodd" d="M264.255,272.359 L282.173,278.811 L271.135,291.84 L264.255,272.359"/>
<path fill-rule="evenodd" d="M269.6,293.652 L271.135,291.84 L272.092,294.549 L269.6,293.652"/>
<path fill-rule="evenodd" d="M257.734,307.66 L265.038,299.037 L268.605,300.981 L257.734,307.66"/>
<path fill-rule="evenodd" d="M272.092,294.549 L276.493,296.134 L273.336,298.074 L272.092,294.549"/>
<path fill-rule="evenodd" d="M268.605,300.981 L273.336,298.074 L275.735,304.865 L268.605,300.981"/>
<path fill-rule="evenodd" d="M172.911,407.787 L243.535,324.421 L265.296,328.605 L172.911,407.787"/>
<path fill-rule="evenodd" d="M275.735,304.865 L286.287,310.614 L279.745,316.221 L275.735,304.865"/>
<path fill-rule="evenodd" d="M265.296,328.605 L279.745,316.221 L285.49,332.488 L265.296,328.605"/>
<path fill-rule="evenodd" d="M98.202,495.977 L165.76,416.229 L255.771,360.926 L98.202,495.977"/>
<path fill-rule="evenodd" d="M285.49,332.488 L288.317,333.032 L286.294,334.765 L285.49,332.488"/>
<path fill-rule="evenodd" d="M255.771,360.926 L286.294,334.765 L288.444,340.852 L255.771,360.926"/>
<path fill-rule="evenodd" d="M288.444,340.852 L292.149,338.576 L292.554,352.49 L288.444,340.852"/>
<path fill-rule="evenodd" d="M288.317,333.032 L291.899,329.962 L292.008,333.742 L288.317,333.032"/>
<path fill-rule="evenodd" d="M286.287,310.614 L291.213,306.392 L291.417,313.409 L286.287,310.614"/>
<path fill-rule="evenodd" d="M276.493,296.134 L290.662,287.429 L291.068,301.383 L276.493,296.134"/>
<path fill-rule="evenodd" d="M282.173,278.811 L290.138,269.409 L290.499,281.81 L282.173,278.811"/>
<path fill-rule="evenodd" d="M277.375,254.679 L289.779,257.064 L289.908,261.507 L277.375,254.679"/>
<path fill-rule="evenodd" d="M256.193,27.2397 L285.511,110.256 L288.437,210.919 L256.193,27.2397"/>
<path fill-rule="evenodd" d="M285.511,110.256 L284.814,86.2782 L292.494,130.03 L285.511,110.256"/>
<path fill-rule="evenodd" d="M289.779,257.064 L288.437,210.919 L296.774,258.409 L289.779,257.064"/>
<path fill-rule="evenodd" d="M290.138,269.409 L289.908,261.507 L294.646,264.088 L290.138,269.409"/>
<path fill-rule="evenodd" d="M296.774,258.409 L299.081,258.852 L297.234,261.032 L296.774,258.409"/>
<path fill-rule="evenodd" d="M292.494,130.03 L326.54,226.438 L312.357,243.181 L292.494,130.03"/>
<path fill-rule="evenodd" d="M299.081,258.852 L312.357,243.181 L315.668,262.042 L299.081,258.852"/>
<path fill-rule="evenodd" d="M294.646,264.088 L297.234,261.032 L298.101,265.971 L294.646,264.088"/>
<path fill-rule="evenodd" d="M290.662,287.429 L290.499,281.81 L296.367,283.923 L290.662,287.429"/>
<path fill-rule="evenodd" d="M298.101,265.971 L312.669,273.908 L300.777,281.214 L298.101,265.971"/>
<path fill-rule="evenodd" d="M315.668,262.042 L328.094,264.431 L317.256,271.089 L315.668,262.042"/>
<path fill-rule="evenodd" d="M312.669,273.908 L317.256,271.089 L318.288,276.969 L312.669,273.908"/>
<path fill-rule="evenodd" d="M296.367,283.923 L300.777,281.214 L301.583,285.801 L296.367,283.923"/>
<path fill-rule="evenodd" d="M291.213,306.392 L291.068,301.383 L295.286,302.902 L291.213,306.392"/>
<path fill-rule="evenodd" d="M301.583,285.801 L311.197,289.264 L303.368,295.974 L301.583,285.801"/>
<path fill-rule="evenodd" d="M318.288,276.969 L322.723,279.385 L319.237,282.373 L318.288,276.969"/>
<path fill-rule="evenodd" d="M311.197,289.264 L319.237,282.373 L321.071,292.82 L311.197,289.264"/>
<path fill-rule="evenodd" d="M295.286,302.902 L303.368,295.974 L305.212,306.477 L295.286,302.902"/>
<path fill-rule="evenodd" d="M291.899,329.962 L291.417,313.409 L303.519,320.002 L291.899,329.962"/>
<path fill-rule="evenodd" d="M305.212,306.477 L315.132,310.049 L307.054,316.972 L305.212,306.477"/>
<path fill-rule="evenodd" d="M321.071,292.82 L331.044,296.411 L322.923,303.371 L321.071,292.82"/>
<path fill-rule="evenodd" d="M315.132,310.049 L322.923,303.371 L324.7,313.495 L315.132,310.049"/>
<path fill-rule="evenodd" d="M303.519,320.002 L307.054,316.972 L308.017,322.453 L303.519,320.002"/>
<path fill-rule="evenodd" d="M292.149,338.576 L292.008,333.742 L298.108,334.915 L292.149,338.576"/>
<path fill-rule="evenodd" d="M308.017,322.453 L313.515,325.449 L309.027,328.206 L308.017,322.453"/>
<path fill-rule="evenodd" d="M324.7,313.495 L329.915,315.373 L325.506,318.082 L324.7,313.495"/>
<path fill-rule="evenodd" d="M313.515,325.449 L325.506,318.082 L328.204,333.451 L313.515,325.449"/>
<path fill-rule="evenodd" d="M298.108,334.915 L309.027,328.206 L310.627,337.322 L298.108,334.915"/>
<path fill-rule="evenodd" d="M293.365,380.39 L292.554,352.49 L299.746,372.857 L293.365,380.39"/>
<path fill-rule="evenodd" d="M310.627,337.322 L327.157,340.5 L313.926,356.118 L310.627,337.322"/>
<path fill-rule="evenodd" d="M328.204,333.451 L331.573,335.287 L329.049,338.267 L328.204,333.451"/>
<path fill-rule="evenodd" d="M327.157,340.5 L329.049,338.267 L329.521,340.955 L327.157,340.5"/>
<path fill-rule="evenodd" d="M299.746,372.857 L313.926,356.118 L333.785,469.243 L299.746,372.857"/>
<path fill-rule="evenodd" d="M333.785,469.243 L340.968,489.582 L341.685,514.245 L333.785,469.243"/>
<path fill-rule="evenodd" d="M329.521,340.955 L336.687,342.333 L338.061,389.604 L329.521,340.955"/>
<path fill-rule="evenodd" d="M331.573,335.287 L336.319,329.685 L336.561,338.005 L331.573,335.287"/>
<path fill-rule="evenodd" d="M329.915,315.373 L335.798,311.758 L335.966,317.552 L329.915,315.373"/>
<path fill-rule="evenodd" d="M331.044,296.411 L335.247,292.809 L335.397,297.979 L331.044,296.411"/>
<path fill-rule="evenodd" d="M322.723,279.385 L334.561,269.239 L335.052,286.102 L322.723,279.385"/>
<path fill-rule="evenodd" d="M328.094,264.431 L334.311,260.611 L334.457,265.655 L328.094,264.431"/>
<path fill-rule="evenodd" d="M326.54,226.438 L333.092,218.704 L333.925,247.348 L326.54,226.438"/>
<path fill-rule="evenodd" d="M334.311,260.611 L333.925,247.348 L337.842,258.441 L334.311,260.611"/>
<path fill-rule="evenodd" d="M334.561,269.239 L334.457,265.655 L337.958,266.328 L334.561,269.239"/>
<path fill-rule="evenodd" d="M337.842,258.441 L370.747,238.225 L340.007,264.571 L337.842,258.441"/>
<path fill-rule="evenodd" d="M337.958,266.328 L340.007,264.571 L340.822,266.878 L337.958,266.328"/>
<path fill-rule="evenodd" d="M335.247,292.809 L335.052,286.102 L339.955,288.774 L335.247,292.809"/>
<path fill-rule="evenodd" d="M340.822,266.878 L360.979,270.754 L346.556,283.116 L340.822,266.878"/>
<path fill-rule="evenodd" d="M339.955,288.774 L346.556,283.116 L350.603,294.575 L339.955,288.774"/>
<path fill-rule="evenodd" d="M335.798,311.758 L335.397,297.979 L349.789,303.162 L335.798,311.758"/>
<path fill-rule="evenodd" d="M350.603,294.575 L357.579,298.376 L352.95,301.22 L350.603,294.575"/>
<path fill-rule="evenodd" d="M349.789,303.162 L352.95,301.22 L354.196,304.749 L349.789,303.162"/>
<path fill-rule="evenodd" d="M336.319,329.685 L335.966,317.552 L344.113,320.486 L336.319,329.685"/>
<path fill-rule="evenodd" d="M354.196,304.749 L356.685,305.645 L355.152,307.455 L354.196,304.749"/>
<path fill-rule="evenodd" d="M357.579,298.376 L368.556,291.631 L361.181,300.338 L357.579,298.376"/>
<path fill-rule="evenodd" d="M360.979,270.754 L453.207,191.706 L382.703,274.932 L360.979,270.754"/>
<path fill-rule="evenodd" d="M370.747,238.225 L527.917,103.517 L460.53,183.062 L370.747,238.225"/>
<path fill-rule="evenodd" d="M453.207,191.706 L460.53,183.062 L470.287,177.068 L453.207,191.706"/>
<path fill-rule="evenodd" d="M368.556,291.631 L382.703,274.932 L392.63,276.84 L368.556,291.631"/>
<path fill-rule="evenodd" d="M356.685,305.645 L361.181,300.338 L398.679,320.768 L356.685,305.645"/>
<path fill-rule="evenodd" d="M344.113,320.486 L355.152,307.455 L362.032,326.939 L344.113,320.486"/>
<path fill-rule="evenodd" d="M336.687,342.333 L336.561,338.005 L348.769,344.656 L336.687,342.333"/>
<path fill-rule="evenodd" d="M362.032,326.939 L482.789,370.426 L369.711,348.683 L362.032,326.939"/>
<path fill-rule="evenodd" d="M398.679,320.768 L598.186,392.615 L493.661,372.517 L398.679,320.768"/>
<path fill-rule="evenodd" d="M482.789,370.426 L493.661,372.517 L503.54,377.899 L482.789,370.426"/>
<path fill-rule="evenodd" d="M348.769,344.656 L369.711,348.683 L372.94,357.825 L348.769,344.656"/>
<path fill-rule="evenodd" d="M340.968,489.582 L338.061,389.604 L370.086,572.034 L340.968,489.582"/>
<path fill-rule="evenodd" d="M246.574,0 L251.412,0 L256.193,27.2397 L246.574,0"/>
<path fill-rule="evenodd" d="M0,103.557 L0,0 L168.071,0 L253.398,241.615 L0,103.557"/>
<path fill-rule="evenodd" d="M0,177.194 L0,154.637 L122.126,221.175 L0,177.194"/>
<path fill-rule="evenodd" d="M0,201.343 L0,196.562 L28.485,206.821 L0,201.343"/>
<path fill-rule="evenodd" d="M0,466.011 L0,277.593 L233.571,322.505 L0,466.011"/>
<path fill-rule="evenodd" d="M0,555.987 L0,518.071 L156.232,422.083 L0,555.987"/>
<path fill-rule="evenodd" d="M10.0789,600 L0,600 L0,580.144 L98.202,495.977 L10.0789,600"/>
<path fill-rule="evenodd" d="M299.75,600 L107.323,600 L293.365,380.39 L299.75,600"/>
<path fill-rule="evenodd" d="M326.733,0 L518.367,0 L333.092,218.704 L326.733,0"/>
<path fill-rule="evenodd" d="M615.611,0 L628.022,0 L628.022,17.7179 L527.917,103.517 L615.611,0"/>
<path fill-rule="evenodd" d="M628.022,41.8751 L628.022,80.1557 L470.287,177.068 L628.022,41.8751"/>
<path fill-rule="evenodd" d="M628.022,132.216 L628.022,322.103 L392.63,276.84 L628.022,132.216"/>
<path fill-rule="evenodd" d="M628.022,398.352 L628.022,403.36 L598.186,392.615 L628.022,398.352"/>
<path fill-rule="evenodd" d="M628.022,422.728 L628.022,445.72 L503.54,377.899 L628.022,422.728"/>
<path fill-rule="evenodd" d="M628.022,496.8 L628.022,600 L458.464,600 L372.94,357.825 L628.022,496.8"/>
<path fill-rule="evenodd" d="M379.962,600 L374.995,600 L370.086,572.034 L379.962,600"/>
<path fill-rule="evenodd" d="M269.668,0 L282.305,0 L284.814,86.2782 L269.668,0"/>
<path fill-rule="evenodd" d="M356.739,600 L344.178,600 L341.685,514.245 L356.739,600"/>
</g>
</g>
</svg>
