<?xml version="1.0" encoding="UTF-8" standalone="no"?>
<svg width="210.256mm" height="211.667mm"
 viewBox="0 0 596 600"
 xmlns="http://www.w3.org/2000/svg" xmlns:xlink="http://www.w3.org/1999/xlink"  version="1.2" baseProfile="tiny">
<title>Qt Svg Document</title>
<desc>Generated with Qt</desc>
<defs>
</defs>
<g fill="none" stroke="black" vector-effect="non-scaling-stroke" stroke-width="1" fill-rule="evenodd" stroke-linecap="square" stroke-linejoin="bevel" >

<g fill="#000000" fill-opacity="1" stroke="none" transform="matrix(1,0,0,1,0,0)"
font-family="Helvetica" font-size="12pt" font-weight="400" font-style="normal" 
>
<path fill-rule="evenodd" d="M126.112,223.141 L155.236,233.221 L139.3,232.002 L126.112,223.141"/>
<path fill-rule="evenodd" d="M179.674,181.899 L268.934,241.911 L206.154,237.113 L179.674,181.899"/>
<path fill-rule="evenodd" d="M155.236,233.221 L206.154,237.113 L214.05,253.576 L155.236,233.221"/>
<path fill-rule="evenodd" d="M27.0655,223.423 L139.3,232.002 L232.332,294.514 L27.0655,223.423"/>
<path fill-rule="evenodd" d="M145.497,410.076 L168.775,389.911 L159.757,403.092 L145.497,410.076"/>
<path fill-rule="evenodd" d="M136.553,343.083 L233.166,295.796 L197.616,347.757 L136.553,343.083"/>
<path fill-rule="evenodd" d="M232.332,294.514 L233.715,294.994 L233.504,295.302 L232.332,294.514"/>
<path fill-rule="evenodd" d="M214.05,253.576 L252.92,267.029 L233.832,294.823 L214.05,253.576"/>
<path fill-rule="evenodd" d="M233.715,294.994 L233.832,294.823 L233.953,295.075 L233.715,294.994"/>
<path fill-rule="evenodd" d="M233.166,295.796 L233.504,295.302 L233.787,295.492 L233.166,295.796"/>
<path fill-rule="evenodd" d="M233.953,295.075 L234.356,295.214 L234.082,295.348 L233.953,295.075"/>
<path fill-rule="evenodd" d="M233.787,295.492 L234.082,295.348 L234.323,295.852 L233.787,295.492"/>
<path fill-rule="evenodd" d="M168.775,389.911 L197.616,347.757 L215.827,349.151 L168.775,389.911"/>
<path fill-rule="evenodd" d="M234.323,295.852 L258.565,312.129 L246.915,322.22 L234.323,295.852"/>
<path fill-rule="evenodd" d="M215.827,349.151 L246.915,322.22 L261.443,352.642 L215.827,349.151"/>
<path fill-rule="evenodd" d="M96.1928,495.997 L159.757,403.092 L260.426,353.787 L96.1928,495.997"/>
<path fill-rule="evenodd" d="M261.443,352.642 L261.723,352.664 L261.533,352.829 L261.443,352.642"/>
<path fill-rule="evenodd" d="M260.426,353.787 L261.533,352.829 L261.695,353.166 L260.426,353.787"/>
<path fill-rule="evenodd" d="M261.695,353.166 L262.001,353.016 L261.954,353.705 L261.695,353.166"/>
<path fill-rule="evenodd" d="M261.723,352.664 L262.044,352.385 L262.023,352.688 L261.723,352.664"/>
<path fill-rule="evenodd" d="M258.565,312.129 L265.15,306.424 L264.495,316.111 L258.565,312.129"/>
<path fill-rule="evenodd" d="M234.356,295.214 L267,279.197 L265.188,305.861 L234.356,295.214"/>
<path fill-rule="evenodd" d="M252.92,267.029 L269.464,242.94 L267.485,272.07 L252.92,267.029"/>
<path fill-rule="evenodd" d="M268.934,241.911 L269.531,241.957 L269.508,242.297 L268.934,241.911"/>
<path fill-rule="evenodd" d="M228.58,27.2564 L277.263,128.736 L269.627,240.549 L228.58,27.2564"/>
<path fill-rule="evenodd" d="M277.263,128.736 L278.345,112.9 L284.17,143.133 L277.263,128.736"/>
<path fill-rule="evenodd" d="M269.531,241.957 L269.627,240.549 L269.903,241.985 L269.531,241.957"/>
<path fill-rule="evenodd" d="M269.464,242.94 L269.508,242.297 L269.78,242.48 L269.464,242.94"/>
<path fill-rule="evenodd" d="M269.903,241.985 L270.11,242.001 L269.951,242.232 L269.903,241.985"/>
<path fill-rule="evenodd" d="M284.17,143.133 L306.258,189.177 L295.944,204.249 L284.17,143.133"/>
<path fill-rule="evenodd" d="M270.11,242.001 L295.944,204.249 L303.724,244.63 L270.11,242.001"/>
<path fill-rule="evenodd" d="M269.78,242.48 L269.951,242.232 L270.033,242.65 L269.78,242.48"/>
<path fill-rule="evenodd" d="M267,279.197 L267.485,272.07 L275.718,274.92 L267,279.197"/>
<path fill-rule="evenodd" d="M270.033,242.65 L300.225,262.907 L276.225,274.671 L270.033,242.65"/>
<path fill-rule="evenodd" d="M303.724,244.63 L332.86,246.909 L306.639,259.762 L303.724,244.63"/>
<path fill-rule="evenodd" d="M300.225,262.907 L306.639,259.762 L308.287,268.315 L300.225,262.907"/>
<path fill-rule="evenodd" d="M275.718,274.92 L276.225,274.671 L276.313,275.125 L275.718,274.92"/>
<path fill-rule="evenodd" d="M265.15,306.424 L265.188,305.861 L265.626,306.012 L265.15,306.424"/>
<path fill-rule="evenodd" d="M276.313,275.125 L294.147,281.293 L279.887,293.652 L276.313,275.125"/>
<path fill-rule="evenodd" d="M308.287,268.315 L308.757,268.631 L308.407,268.935 L308.287,268.315"/>
<path fill-rule="evenodd" d="M294.147,281.293 L308.407,268.935 L311.98,287.46 L294.147,281.293"/>
<path fill-rule="evenodd" d="M265.626,306.012 L279.887,293.652 L283.461,312.18 L265.626,306.012"/>
<path fill-rule="evenodd" d="M262.044,352.385 L264.495,316.111 L286.684,331.01 L262.044,352.385"/>
<path fill-rule="evenodd" d="M283.461,312.18 L301.294,318.347 L287.034,330.706 L283.461,312.18"/>
<path fill-rule="evenodd" d="M311.98,287.46 L329.815,293.628 L315.554,305.988 L311.98,287.46"/>
<path fill-rule="evenodd" d="M301.294,318.347 L315.554,305.988 L319.128,324.515 L301.294,318.347"/>
<path fill-rule="evenodd" d="M286.684,331.01 L287.034,330.706 L287.154,331.325 L286.684,331.01"/>
<path fill-rule="evenodd" d="M262.001,353.016 L262.023,352.688 L262.581,352.732 L262.001,353.016"/>
<path fill-rule="evenodd" d="M287.154,331.325 L295.216,336.734 L288.802,339.878 L287.154,331.325"/>
<path fill-rule="evenodd" d="M319.128,324.515 L319.723,324.721 L319.216,324.969 L319.128,324.515"/>
<path fill-rule="evenodd" d="M295.216,336.734 L319.216,324.969 L325.408,356.99 L295.216,336.734"/>
<path fill-rule="evenodd" d="M262.581,352.732 L288.802,339.878 L291.717,355.01 L262.581,352.732"/>
<path fill-rule="evenodd" d="M254.597,461.002 L261.954,353.705 L289.183,410.463 L254.597,461.002"/>
<path fill-rule="evenodd" d="M291.717,355.01 L325.331,357.64 L299.497,395.392 L291.717,355.01"/>
<path fill-rule="evenodd" d="M325.408,356.99 L325.661,357.16 L325.49,357.409 L325.408,356.99"/>
<path fill-rule="evenodd" d="M325.331,357.64 L325.49,357.409 L325.538,357.656 L325.331,357.64"/>
<path fill-rule="evenodd" d="M289.183,410.463 L299.497,395.392 L311.271,456.508 L289.183,410.463"/>
<path fill-rule="evenodd" d="M311.271,456.508 L318.178,470.904 L317.096,486.74 L311.271,456.508"/>
<path fill-rule="evenodd" d="M325.538,357.656 L325.91,357.684 L325.814,359.091 L325.538,357.656"/>
<path fill-rule="evenodd" d="M325.661,357.16 L325.977,356.7 L325.933,357.343 L325.661,357.16"/>
<path fill-rule="evenodd" d="M319.723,324.721 L328.441,320.443 L327.956,327.571 L319.723,324.721"/>
<path fill-rule="evenodd" d="M329.815,293.628 L330.291,293.216 L330.253,293.78 L329.815,293.628"/>
<path fill-rule="evenodd" d="M308.757,268.631 L333.397,247.256 L330.946,283.529 L308.757,268.631"/>
<path fill-rule="evenodd" d="M332.86,246.909 L333.44,246.625 L333.418,246.952 L332.86,246.909"/>
<path fill-rule="evenodd" d="M306.258,189.177 L340.844,138.638 L333.487,245.936 L306.258,189.177"/>
<path fill-rule="evenodd" d="M333.44,246.625 L333.487,245.936 L333.746,246.475 L333.44,246.625"/>
<path fill-rule="evenodd" d="M333.397,247.256 L333.418,246.952 L333.718,246.976 L333.397,247.256"/>
<path fill-rule="evenodd" d="M333.746,246.475 L335.015,245.854 L333.908,246.812 L333.746,246.475"/>
<path fill-rule="evenodd" d="M333.718,246.976 L333.908,246.812 L333.998,246.998 L333.718,246.976"/>
<path fill-rule="evenodd" d="M330.291,293.216 L330.946,283.529 L336.876,287.512 L330.291,293.216"/>
<path fill-rule="evenodd" d="M333.998,246.998 L379.614,250.489 L348.526,277.42 L333.998,246.998"/>
<path fill-rule="evenodd" d="M336.876,287.512 L348.526,277.42 L361.118,303.788 L336.876,287.512"/>
<path fill-rule="evenodd" d="M328.441,320.443 L330.253,293.78 L361.085,304.426 L328.441,320.443"/>
<path fill-rule="evenodd" d="M361.118,303.788 L361.654,304.148 L361.359,304.292 L361.118,303.788"/>
<path fill-rule="evenodd" d="M361.085,304.426 L361.359,304.292 L361.488,304.565 L361.085,304.426"/>
<path fill-rule="evenodd" d="M325.977,356.7 L327.956,327.571 L342.521,332.611 L325.977,356.7"/>
<path fill-rule="evenodd" d="M361.488,304.565 L361.726,304.647 L361.609,304.818 L361.488,304.565"/>
<path fill-rule="evenodd" d="M361.654,304.148 L362.275,303.844 L361.937,304.338 L361.654,304.148"/>
<path fill-rule="evenodd" d="M379.614,250.489 L426.666,209.73 L397.825,251.883 L379.614,250.489"/>
<path fill-rule="evenodd" d="M335.015,245.854 L499.248,103.643 L435.684,196.548 L335.015,245.854"/>
<path fill-rule="evenodd" d="M426.666,209.73 L435.684,196.548 L449.944,189.564 L426.666,209.73"/>
<path fill-rule="evenodd" d="M362.275,303.844 L397.825,251.883 L458.888,256.558 L362.275,303.844"/>
<path fill-rule="evenodd" d="M361.726,304.647 L361.937,304.338 L363.109,305.126 L361.726,304.647"/>
<path fill-rule="evenodd" d="M342.521,332.611 L361.609,304.818 L381.391,346.065 L342.521,332.611"/>
<path fill-rule="evenodd" d="M325.91,357.684 L325.933,357.343 L326.507,357.729 L325.91,357.684"/>
<path fill-rule="evenodd" d="M381.391,346.065 L440.205,366.42 L389.287,362.528 L381.391,346.065"/>
<path fill-rule="evenodd" d="M363.109,305.126 L568.376,376.217 L456.141,367.638 L363.109,305.126"/>
<path fill-rule="evenodd" d="M440.205,366.42 L456.141,367.638 L469.329,376.5 L440.205,366.42"/>
<path fill-rule="evenodd" d="M326.507,357.729 L389.287,362.528 L415.767,417.741 L326.507,357.729"/>
<path fill-rule="evenodd" d="M318.178,470.904 L325.814,359.091 L366.861,572.384 L318.178,470.904"/>
<path fill-rule="evenodd" d="M215.515,0 L223.33,0 L228.58,27.2564 L215.515,0"/>
<path fill-rule="evenodd" d="M0,61.1878 L0,0 L92.4769,0 L179.674,181.899 L0,61.1878"/>
<path fill-rule="evenodd" d="M0,179.491 L0,138.414 L126.112,223.141 L0,179.491"/>
<path fill-rule="evenodd" d="M0,221.347 L0,214.056 L27.0655,223.423 L0,221.347"/>
<path fill-rule="evenodd" d="M0,409.975 L0,332.605 L136.553,343.083 L0,409.975"/>
<path fill-rule="evenodd" d="M0,536.111 L0,481.35 L145.497,410.076 L0,536.111"/>
<path fill-rule="evenodd" d="M24.9916,600 L0,600 L0,579.323 L96.1928,495.997 L24.9916,600"/>
<path fill-rule="evenodd" d="M245.114,600 L159.437,600 L254.597,461.002 L245.114,600"/>
<path fill-rule="evenodd" d="M350.303,0 L435.757,0 L340.844,138.638 L350.303,0"/>
<path fill-rule="evenodd" d="M570.203,0 L596.45,0 L596.45,19.4434 L499.248,103.643 L570.203,0"/>
<path fill-rule="evenodd" d="M596.45,62.6554 L596.45,117.797 L449.944,189.564 L596.45,62.6554"/>
<path fill-rule="evenodd" d="M596.45,189.172 L596.45,267.113 L458.888,256.558 L596.45,189.172"/>
<path fill-rule="evenodd" d="M596.45,378.371 L596.45,385.934 L568.376,376.217 L596.45,378.371"/>
<path fill-rule="evenodd" d="M596.45,420.499 L596.45,461.904 L469.329,376.5 L596.45,420.499"/>
<path fill-rule="evenodd" d="M596.45,539.13 L596.45,600 L503.137,600 L415.767,417.741 L596.45,539.13"/>
<path fill-rule="evenodd" d="M380.099,600 L372.181,600 L366.861,572.384 L380.099,600"/>
<path fill-rule="evenodd" d="M256.596,0 L286.047,0 L278.345,112.9 L256.596,0"/>
<path fill-rule="evenodd" d="M338.915,600 L309.369,600 L317.096,486.74 L338.915,600"/>
</g>
</g>
</svg>
