<?xml version="1.0" encoding="UTF-8" standalone="no"?>
<svg width="160.161mm" height="211.667mm"
 viewBox="0 0 454 600"
 xmlns="http://www.w3.org/2000/svg" xmlns:xlink="http://www.w3.org/1999/xlink"  version="1.2" baseProfile="tiny">
<title>Qt Svg Document</title>
<desc>Generated with Qt</desc>
<defs>
</defs>
<g fill="none" stroke="black" vector-effect="non-scaling-stroke" stroke-width="1" fill-rule="evenodd" stroke-linecap="square" stroke-linejoin="bevel" >

<g fill="#000000" fill-opacity="1" stroke="none" transform="matrix(1,0,0,1,0,0)"
font-family="Helvetica" font-size="12pt" font-weight="400" font-style="normal" 
>
<path fill-rule="evenodd" d="M72.1851,501.829 L85.914,480.681 L84.0581,491.033 L72.1851,501.829"/>
<path fill-rule="evenodd" d="M19.8396,400.506 L115.823,313.639 L105.852,369.332 L19.8396,400.506"/>
<path fill-rule="evenodd" d="M92.4745,307.015 L118.733,297.522 L116.932,307.478 L92.4745,307.015"/>
<path fill-rule="evenodd" d="M76.7675,277.136 L122.3,277.953 L119.689,292.266 L76.7675,277.136"/>
<path fill-rule="evenodd" d="M62.6199,208.3 L130.654,232.133 L125.539,260.188 L62.6199,208.3"/>
<path fill-rule="evenodd" d="M102.122,158.362 L138.664,188.25 L132.646,221.217 L102.122,158.362"/>
<path fill-rule="evenodd" d="M153.375,56.5499 L160.139,70.5935 L158.552,79.3055 L153.375,56.5499"/>
<path fill-rule="evenodd" d="M160.139,70.5935 L168.125,26.8024 L193.754,140.399 L160.139,70.5935"/>
<path fill-rule="evenodd" d="M138.664,188.25 L158.552,79.3055 L193.591,233.175 L138.664,188.25"/>
<path fill-rule="evenodd" d="M130.654,232.133 L132.646,221.217 L139.439,235.21 L130.654,232.133"/>
<path fill-rule="evenodd" d="M122.3,277.953 L125.539,260.188 L147.633,278.408 L122.3,277.953"/>
<path fill-rule="evenodd" d="M118.733,297.522 L119.689,292.266 L126.55,294.69 L118.733,297.522"/>
<path fill-rule="evenodd" d="M115.823,313.639 L116.932,307.478 L122.501,307.586 L115.823,313.639"/>
<path fill-rule="evenodd" d="M126.55,294.69 L143.424,288.569 L133.849,297.274 L126.55,294.69"/>
<path fill-rule="evenodd" d="M147.633,278.408 L154.456,278.546 L151.298,281.414 L147.633,278.408"/>
<path fill-rule="evenodd" d="M139.439,235.21 L184.747,251.07 L158.625,274.753 L139.439,235.21"/>
<path fill-rule="evenodd" d="M193.591,233.175 L199.311,237.86 L195.46,241.358 L193.591,233.175"/>
<path fill-rule="evenodd" d="M193.754,140.399 L228.086,211.691 L212.945,225.461 L193.754,140.399"/>
<path fill-rule="evenodd" d="M199.311,237.86 L212.945,225.461 L219.474,254.404 L199.311,237.86"/>
<path fill-rule="evenodd" d="M184.747,251.07 L195.46,241.358 L198.819,255.995 L184.747,251.07"/>
<path fill-rule="evenodd" d="M154.456,278.546 L158.625,274.753 L160.521,278.677 L154.456,278.546"/>
<path fill-rule="evenodd" d="M143.424,288.569 L151.298,281.414 L154.944,284.387 L143.424,288.569"/>
<path fill-rule="evenodd" d="M160.521,278.677 L169.966,278.889 L162.033,281.805 L160.521,278.677"/>
<path fill-rule="evenodd" d="M198.819,255.995 L215.874,261.964 L201.412,267.296 L198.819,255.995"/>
<path fill-rule="evenodd" d="M219.474,254.404 L224.732,258.733 L220.784,260.168 L219.474,254.404"/>
<path fill-rule="evenodd" d="M215.874,261.964 L220.784,260.168 L221.653,263.972 L215.874,261.964"/>
<path fill-rule="evenodd" d="M169.966,278.889 L201.412,267.296 L204.257,279.691 L169.966,278.889"/>
<path fill-rule="evenodd" d="M154.944,284.387 L162.033,281.805 L168.703,295.623 L154.944,284.387"/>
<path fill-rule="evenodd" d="M122.501,307.586 L133.849,297.274 L165.446,308.464 L122.501,307.586"/>
<path fill-rule="evenodd" d="M168.703,295.623 L184.953,308.891 L175,308.666 L168.703,295.623"/>
<path fill-rule="evenodd" d="M165.446,308.464 L175,308.666 L176.855,312.498 L165.446,308.464"/>
<path fill-rule="evenodd" d="M85.914,480.681 L105.852,369.332 L174.338,344.51 L85.914,480.681"/>
<path fill-rule="evenodd" d="M176.855,312.498 L191.728,317.731 L184.633,328.656 L176.855,312.498"/>
<path fill-rule="evenodd" d="M184.953,308.891 L197.34,309.173 L193.138,315.574 L184.953,308.891"/>
<path fill-rule="evenodd" d="M204.257,279.691 L216.493,279.977 L207.478,293.72 L204.257,279.691"/>
<path fill-rule="evenodd" d="M221.653,263.972 L226.001,265.473 L223.031,270.016 L221.653,263.972"/>
<path fill-rule="evenodd" d="M224.732,258.733 L232.128,256.044 L228.411,261.772 L224.732,258.733"/>
<path fill-rule="evenodd" d="M228.086,211.691 L307.77,139.225 L242.058,240.706 L228.086,211.691"/>
<path fill-rule="evenodd" d="M232.128,256.044 L242.058,240.706 L246.87,250.702 L232.128,256.044"/>
<path fill-rule="evenodd" d="M226.001,265.473 L228.411,261.772 L237.791,269.537 L226.001,265.473"/>
<path fill-rule="evenodd" d="M216.493,279.977 L223.031,270.016 L225.367,280.183 L216.493,279.977"/>
<path fill-rule="evenodd" d="M197.34,309.173 L207.478,293.72 L211.1,309.49 L197.34,309.173"/>
<path fill-rule="evenodd" d="M191.728,317.731 L193.138,315.574 L198.675,320.14 L191.728,317.731"/>
<path fill-rule="evenodd" d="M174.338,344.51 L184.633,328.656 L189.603,338.977 L174.338,344.51"/>
<path fill-rule="evenodd" d="M77.0363,530.224 L84.0581,491.033 L128.711,450.426 L77.0363,530.224"/>
<path fill-rule="evenodd" d="M189.603,338.977 L204.338,333.637 L194.413,348.967 L189.603,338.977"/>
<path fill-rule="evenodd" d="M198.675,320.14 L210.466,324.205 L208.056,327.906 L198.675,320.14"/>
<path fill-rule="evenodd" d="M211.1,309.49 L219.978,309.696 L213.438,319.66 L211.1,309.49"/>
<path fill-rule="evenodd" d="M225.367,280.183 L239.132,280.5 L228.99,295.958 L225.367,280.183"/>
<path fill-rule="evenodd" d="M237.791,269.537 L244.741,271.948 L243.33,274.105 L237.791,269.537"/>
<path fill-rule="evenodd" d="M246.87,250.702 L262.131,245.17 L251.838,261.02 L246.87,250.702"/>
<path fill-rule="evenodd" d="M244.741,271.948 L251.838,261.02 L259.618,277.182 L244.741,271.948"/>
<path fill-rule="evenodd" d="M239.132,280.5 L243.33,274.105 L251.507,280.782 L239.132,280.5"/>
<path fill-rule="evenodd" d="M259.618,277.182 L271.004,281.208 L261.469,281.007 L259.618,277.182"/>
<path fill-rule="evenodd" d="M251.507,280.782 L261.469,281.007 L267.772,294.064 L251.507,280.782"/>
<path fill-rule="evenodd" d="M219.978,309.696 L228.99,295.958 L232.21,309.983 L219.978,309.696"/>
<path fill-rule="evenodd" d="M210.466,324.205 L213.438,319.66 L214.816,325.706 L210.466,324.205"/>
<path fill-rule="evenodd" d="M204.338,333.637 L208.056,327.906 L211.737,330.947 L204.338,333.637"/>
<path fill-rule="evenodd" d="M214.816,325.706 L220.597,327.714 L215.685,329.511 L214.816,325.706"/>
<path fill-rule="evenodd" d="M232.21,309.983 L266.517,310.785 L235.056,322.384 L232.21,309.983"/>
<path fill-rule="evenodd" d="M267.772,294.064 L281.523,305.293 L274.438,307.874 L267.772,294.064"/>
<path fill-rule="evenodd" d="M266.517,310.785 L274.438,307.874 L275.948,310.997 L266.517,310.785"/>
<path fill-rule="evenodd" d="M220.597,327.714 L235.056,322.384 L237.648,333.682 L220.597,327.714"/>
<path fill-rule="evenodd" d="M211.737,330.947 L215.685,329.511 L216.996,335.275 L211.737,330.947"/>
<path fill-rule="evenodd" d="M128.711,450.426 L194.413,348.967 L208.383,377.976 L128.711,450.426"/>
<path fill-rule="evenodd" d="M216.996,335.275 L237.153,351.814 L223.524,364.208 L216.996,335.275"/>
<path fill-rule="evenodd" d="M237.648,333.682 L251.716,338.606 L241.005,348.315 L237.648,333.682"/>
<path fill-rule="evenodd" d="M275.948,310.997 L282.01,311.128 L277.843,314.919 L275.948,310.997"/>
<path fill-rule="evenodd" d="M281.523,305.293 L293.032,301.116 L285.165,308.264 L281.523,305.293"/>
<path fill-rule="evenodd" d="M271.004,281.208 L313.97,282.087 L302.615,292.404 L271.004,281.208"/>
<path fill-rule="evenodd" d="M293.032,301.116 L302.615,292.404 L309.92,294.991 L293.032,301.116"/>
<path fill-rule="evenodd" d="M282.01,311.128 L285.165,308.264 L288.825,311.265 L282.01,311.128"/>
<path fill-rule="evenodd" d="M251.716,338.606 L277.843,314.919 L297.029,354.467 L251.716,338.606"/>
<path fill-rule="evenodd" d="M237.153,351.814 L241.005,348.315 L242.875,356.501 L237.153,351.814"/>
<path fill-rule="evenodd" d="M208.383,377.976 L223.524,364.208 L242.715,449.261 L208.383,377.976"/>
<path fill-rule="evenodd" d="M242.715,449.261 L276.332,519.066 L268.346,562.851 L242.715,449.261"/>
<path fill-rule="evenodd" d="M242.875,356.501 L297.808,401.429 L277.913,510.389 L242.875,356.501"/>
<path fill-rule="evenodd" d="M297.029,354.467 L305.819,357.545 L303.826,368.469 L297.029,354.467"/>
<path fill-rule="evenodd" d="M288.825,311.265 L314.176,311.72 L310.933,329.5 L288.825,311.265"/>
<path fill-rule="evenodd" d="M309.92,294.991 L317.742,292.157 L316.785,297.416 L309.92,294.991"/>
<path fill-rule="evenodd" d="M313.97,282.087 L320.655,276.028 L319.544,282.194 L313.97,282.087"/>
<path fill-rule="evenodd" d="M262.131,245.17 L350.572,108.983 L330.627,220.346 L262.131,245.17"/>
<path fill-rule="evenodd" d="M307.77,139.225 L359.458,59.404 L352.432,98.608 L307.77,139.225"/>
<path fill-rule="evenodd" d="M350.572,108.983 L352.432,98.608 L364.335,87.7843 L350.572,108.983"/>
<path fill-rule="evenodd" d="M320.655,276.028 L330.627,220.346 L416.631,189.177 L320.655,276.028"/>
<path fill-rule="evenodd" d="M317.742,292.157 L319.544,282.194 L344.021,282.658 L317.742,292.157"/>
<path fill-rule="evenodd" d="M314.176,311.72 L316.785,297.416 L359.675,312.537 L314.176,311.72"/>
<path fill-rule="evenodd" d="M305.819,357.545 L310.933,329.5 L373.816,381.365 L305.819,357.545"/>
<path fill-rule="evenodd" d="M297.808,401.429 L303.826,368.469 L334.337,431.305 L297.808,401.429"/>
<path fill-rule="evenodd" d="M276.332,519.066 L277.913,510.389 L283.068,533.048 L276.332,519.066"/>
<path fill-rule="evenodd" d="M126.068,0 L140.533,0 L153.375,56.5499 L126.068,0"/>
<path fill-rule="evenodd" d="M0,74.5416 L0,0 L25.6447,0 L102.122,158.362 L0,74.5416"/>
<path fill-rule="evenodd" d="M0,186.327 L0,156.906 L62.6199,208.3 L0,186.327"/>
<path fill-rule="evenodd" d="M0,275.55 L0,250.2 L76.7675,277.136 L0,275.55"/>
<path fill-rule="evenodd" d="M0,340.631 L0,305.104 L92.4745,307.015 L0,340.631"/>
<path fill-rule="evenodd" d="M0,418.515 L0,407.718 L19.8396,400.506 L0,418.515"/>
<path fill-rule="evenodd" d="M8.44103,600 L0,600 L0,567.351 L72.1851,501.829 L8.44103,600"/>
<path fill-rule="evenodd" d="M64.411,600 L31.7271,600 L77.0363,530.224 L64.411,600"/>
<path fill-rule="evenodd" d="M370.209,0 L398.03,0 L359.458,59.404 L370.209,0"/>
<path fill-rule="evenodd" d="M421.338,0 L454.545,0 L454.545,5.89413 L364.335,87.7843 L421.338,0"/>
<path fill-rule="evenodd" d="M454.545,154.762 L454.545,175.394 L416.631,189.177 L454.545,154.762"/>
<path fill-rule="evenodd" d="M454.545,242.48 L454.545,284.941 L344.021,282.658 L454.545,242.48"/>
<path fill-rule="evenodd" d="M454.545,314.497 L454.545,345.827 L359.675,312.537 L454.545,314.497"/>
<path fill-rule="evenodd" d="M454.545,409.691 L454.545,447.627 L373.816,381.365 L454.545,409.691"/>
<path fill-rule="evenodd" d="M454.545,529.963 L454.545,600 L415.797,600 L334.337,431.305 L454.545,529.963"/>
<path fill-rule="evenodd" d="M315.4,600 L298.269,600 L283.068,533.048 L315.4,600"/>
<path fill-rule="evenodd" d="M162.039,0 L172.974,0 L168.125,26.8024 L162.039,0"/>
<path fill-rule="evenodd" d="M276.782,600 L261.623,600 L268.346,562.851 L276.782,600"/>
</g>
</g>
</svg>
