<?xml version="1.0" encoding="UTF-8" standalone="no"?>
<svg width="218.369mm" height="211.667mm"
 viewBox="0 0 619 600"
 xmlns="http://www.w3.org/2000/svg" xmlns:xlink="http://www.w3.org/1999/xlink"  version="1.2" baseProfile="tiny">
<title>Qt Svg Document</title>
<desc>Generated with Qt</desc>
<defs>
</defs>
<g fill="none" stroke="black" vector-effect="non-scaling-stroke" stroke-width="1" fill-rule="evenodd" stroke-linecap="square" stroke-linejoin="bevel" >

<g fill="#000000" fill-opacity="1" stroke="none" transform="matrix(1,0,0,1,0,0)"
font-family="Helvetica" font-size="12pt" font-weight="400" font-style="normal" 
>
<path fill-rule="evenodd" d="M154.148,244.312 L208.829,264.22 L178.286,263.082 L154.148,244.312"/>
<path fill-rule="evenodd" d="M147.73,261.943 L178.286,263.082 L202.417,281.846 L147.73,261.943"/>
<path fill-rule="evenodd" d="M80.0881,484.531 L124.665,447.12 L108.4,473.013 L80.0881,484.531"/>
<path fill-rule="evenodd" d="M27.9401,376.892 L217.129,299.924 L165.548,382.037 L27.9401,376.892"/>
<path fill-rule="evenodd" d="M202.417,281.846 L223.641,289.57 L219.932,295.465 L202.417,281.846"/>
<path fill-rule="evenodd" d="M217.129,299.924 L219.932,295.465 L222.732,297.643 L217.129,299.924"/>
<path fill-rule="evenodd" d="M124.665,447.12 L165.548,382.037 L200.651,383.35 L124.665,447.12"/>
<path fill-rule="evenodd" d="M92.1299,498.914 L108.4,473.013 L136.742,461.483 L92.1299,498.914"/>
<path fill-rule="evenodd" d="M136.742,461.483 L212.709,397.742 L207.906,432.531 L136.742,461.483"/>
<path fill-rule="evenodd" d="M200.651,383.35 L216.537,370.018 L214.624,383.872 L200.651,383.35"/>
<path fill-rule="evenodd" d="M222.732,297.643 L226.755,296.005 L226.162,300.311 L222.732,297.643"/>
<path fill-rule="evenodd" d="M223.641,289.57 L228.751,281.452 L227.448,290.955 L223.641,289.57"/>
<path fill-rule="evenodd" d="M208.829,264.22 L231.002,265.047 L230.054,271.948 L208.829,264.22"/>
<path fill-rule="evenodd" d="M136.239,79.2234 L244.99,163.766 L231.721,259.831 L136.239,79.2234"/>
<path fill-rule="evenodd" d="M245.396,30.3324 L259.686,57.3624 L255.502,87.6588 L245.396,30.3324"/>
<path fill-rule="evenodd" d="M259.686,57.3624 L263.867,27.0943 L273.973,84.3862 L259.686,57.3624"/>
<path fill-rule="evenodd" d="M244.99,163.766 L255.502,87.6588 L272.718,185.322 L244.99,163.766"/>
<path fill-rule="evenodd" d="M231.002,265.047 L231.721,259.831 L234.547,265.178 L231.002,265.047"/>
<path fill-rule="evenodd" d="M228.751,281.452 L230.054,271.948 L233.862,273.334 L228.751,281.452"/>
<path fill-rule="evenodd" d="M234.547,265.178 L238.89,265.34 L236.576,269.02 L234.547,265.178"/>
<path fill-rule="evenodd" d="M272.718,185.322 L283.764,193.91 L276.321,205.759 L272.718,185.322"/>
<path fill-rule="evenodd" d="M273.973,84.3862 L309.89,152.325 L291.203,182.069 L273.973,84.3862"/>
<path fill-rule="evenodd" d="M283.764,193.91 L291.203,182.069 L294.806,202.494 L283.764,193.91"/>
<path fill-rule="evenodd" d="M238.89,265.34 L276.321,205.759 L287.144,267.153 L238.89,265.34"/>
<path fill-rule="evenodd" d="M233.862,273.334 L236.576,269.02 L240.046,275.585 L233.862,273.334"/>
<path fill-rule="evenodd" d="M226.755,296.005 L227.448,290.955 L233.632,293.206 L226.755,296.005"/>
<path fill-rule="evenodd" d="M240.046,275.585 L259.517,282.669 L246.573,287.938 L240.046,275.585"/>
<path fill-rule="evenodd" d="M287.144,267.153 L296.74,267.515 L287.847,271.137 L287.144,267.153"/>
<path fill-rule="evenodd" d="M294.806,202.494 L350.361,245.684 L305.636,263.892 L294.806,202.494"/>
<path fill-rule="evenodd" d="M296.74,267.515 L305.636,263.892 L306.339,267.877 L296.74,267.515"/>
<path fill-rule="evenodd" d="M259.517,282.669 L287.847,271.137 L291.965,294.476 L259.517,282.669"/>
<path fill-rule="evenodd" d="M233.632,293.206 L246.573,287.938 L253.104,300.298 L233.632,293.206"/>
<path fill-rule="evenodd" d="M216.537,370.018 L226.162,300.311 L264.291,329.942 L216.537,370.018"/>
<path fill-rule="evenodd" d="M253.104,300.298 L285.544,312.112 L267.393,327.339 L253.104,300.298"/>
<path fill-rule="evenodd" d="M291.965,294.476 L302.149,298.181 L293.848,305.145 L291.965,294.476"/>
<path fill-rule="evenodd" d="M306.339,267.877 L336.904,269.024 L310.451,291.216 L306.339,267.877"/>
<path fill-rule="evenodd" d="M302.149,298.181 L310.451,291.216 L312.331,301.886 L302.149,298.181"/>
<path fill-rule="evenodd" d="M285.544,312.112 L293.848,305.145 L295.732,315.822 L285.544,312.112"/>
<path fill-rule="evenodd" d="M264.291,329.942 L267.393,327.339 L271.882,335.839 L264.291,329.942"/>
<path fill-rule="evenodd" d="M212.709,397.742 L214.624,383.872 L228.616,384.395 L212.709,397.742"/>
<path fill-rule="evenodd" d="M271.882,335.839 L279.465,341.73 L276.367,344.329 L271.882,335.839"/>
<path fill-rule="evenodd" d="M295.732,315.822 L305.914,319.529 L297.615,326.495 L295.732,315.822"/>
<path fill-rule="evenodd" d="M312.331,301.886 L322.518,305.593 L314.213,312.564 L312.331,301.886"/>
<path fill-rule="evenodd" d="M305.914,319.529 L314.213,312.564 L316.094,323.236 L305.914,319.529"/>
<path fill-rule="evenodd" d="M279.465,341.73 L297.615,326.495 L303.617,360.499 L279.465,341.73"/>
<path fill-rule="evenodd" d="M228.616,384.395 L276.367,344.329 L298.925,387.023 L228.616,384.395"/>
<path fill-rule="evenodd" d="M189.068,568.979 L207.906,432.531 L297.737,395.985 L189.068,568.979"/>
<path fill-rule="evenodd" d="M298.925,387.023 L303.268,387.187 L300.956,390.864 L298.925,387.023"/>
<path fill-rule="evenodd" d="M303.617,360.499 L314.65,369.074 L307.217,380.901 L303.617,360.499"/>
<path fill-rule="evenodd" d="M316.094,323.236 L338.362,331.345 L322.085,357.244 L316.094,323.236"/>
<path fill-rule="evenodd" d="M314.65,369.074 L322.085,357.244 L325.68,377.646 L314.65,369.074"/>
<path fill-rule="evenodd" d="M303.268,387.187 L307.217,380.901 L308.36,387.381 L303.268,387.187"/>
<path fill-rule="evenodd" d="M297.737,395.985 L300.956,390.864 L302.615,394 L297.737,395.985"/>
<path fill-rule="evenodd" d="M308.36,387.381 L317.943,387.748 L309.063,391.371 L308.36,387.381"/>
<path fill-rule="evenodd" d="M325.68,377.646 L331.541,382.202 L326.822,384.126 L325.68,377.646"/>
<path fill-rule="evenodd" d="M317.943,387.748 L326.822,384.126 L327.526,388.115 L317.943,387.748"/>
<path fill-rule="evenodd" d="M302.615,394 L309.063,391.371 L312.984,413.609 L302.615,394"/>
<path fill-rule="evenodd" d="M312.984,413.609 L327.266,440.621 L323.082,470.898 L312.984,413.609"/>
<path fill-rule="evenodd" d="M327.526,388.115 L334.485,388.38 L331.449,410.351 L327.526,388.115"/>
<path fill-rule="evenodd" d="M331.541,382.202 L335.566,380.562 L334.971,384.867 L331.541,382.202"/>
<path fill-rule="evenodd" d="M338.362,331.345 L343.471,323.218 L342.161,332.728 L338.362,331.345"/>
<path fill-rule="evenodd" d="M322.518,305.593 L348.961,283.397 L344.783,313.695 L322.518,305.593"/>
<path fill-rule="evenodd" d="M336.904,269.024 L352.779,255.707 L350.871,269.549 L336.904,269.024"/>
<path fill-rule="evenodd" d="M350.361,245.684 L354.388,244.047 L353.795,248.351 L350.361,245.684"/>
<path fill-rule="evenodd" d="M309.89,152.325 L383.163,35.6939 L355.213,238.055 L309.89,152.325"/>
<path fill-rule="evenodd" d="M354.388,244.047 L355.213,238.055 L357.673,242.711 L354.388,244.047"/>
<path fill-rule="evenodd" d="M352.779,255.707 L353.795,248.351 L357.821,251.477 L352.779,255.707"/>
<path fill-rule="evenodd" d="M357.673,242.711 L378.228,234.35 L360.924,248.872 L357.673,242.711"/>
<path fill-rule="evenodd" d="M357.821,251.477 L360.924,248.872 L365.4,257.358 L357.821,251.477"/>
<path fill-rule="evenodd" d="M348.961,283.397 L350.871,269.549 L364.834,270.073 L348.961,283.397"/>
<path fill-rule="evenodd" d="M365.4,257.358 L372.979,263.239 L369.875,265.843 L365.4,257.358"/>
<path fill-rule="evenodd" d="M364.834,270.073 L369.875,265.843 L372.254,270.351 L364.834,270.073"/>
<path fill-rule="evenodd" d="M343.471,323.218 L344.783,313.695 L348.588,315.08 L343.471,323.218"/>
<path fill-rule="evenodd" d="M372.254,270.351 L376.595,270.514 L374.284,274.194 L372.254,270.351"/>
<path fill-rule="evenodd" d="M372.979,263.239 L390.283,248.72 L378.481,267.51 L372.979,263.239"/>
<path fill-rule="evenodd" d="M378.228,234.35 L422.807,196.938 L406.542,222.833 L378.228,234.35"/>
<path fill-rule="evenodd" d="M390.283,248.72 L406.542,222.833 L434.868,211.311 L390.283,248.72"/>
<path fill-rule="evenodd" d="M376.595,270.514 L378.481,267.51 L382.64,270.742 L376.595,270.514"/>
<path fill-rule="evenodd" d="M348.588,315.08 L374.284,274.194 L407.171,336.408 L348.588,315.08"/>
<path fill-rule="evenodd" d="M335.566,380.562 L342.161,332.728 L400.735,354.047 L335.566,380.562"/>
<path fill-rule="evenodd" d="M407.171,336.408 L426.654,343.501 L413.706,348.769 L407.171,336.408"/>
<path fill-rule="evenodd" d="M382.64,270.742 L586.742,278.362 L459.193,330.261 L382.64,270.742"/>
<path fill-rule="evenodd" d="M426.654,343.501 L459.193,330.261 L519.872,377.439 L426.654,343.501"/>
<path fill-rule="evenodd" d="M400.735,354.047 L413.706,348.769 L420.25,361.149 L400.735,354.047"/>
<path fill-rule="evenodd" d="M334.485,388.38 L334.971,384.867 L339.747,388.578 L334.485,388.38"/>
<path fill-rule="evenodd" d="M420.25,361.149 L513.431,395.063 L436.661,392.196 L420.25,361.149"/>
<path fill-rule="evenodd" d="M519.872,377.439 L574.546,397.345 L544.008,396.204 L519.872,377.439"/>
<path fill-rule="evenodd" d="M513.431,395.063 L544.008,396.204 L568.156,414.98 L513.431,395.063"/>
<path fill-rule="evenodd" d="M339.747,388.578 L436.661,392.196 L501.036,513.979 L339.747,388.578"/>
<path fill-rule="evenodd" d="M327.266,440.621 L331.449,410.351 L341.555,467.646 L327.266,440.621"/>
<path fill-rule="evenodd" d="M229.364,0 L240.048,0 L245.396,30.3324 L229.364,0"/>
<path fill-rule="evenodd" d="M34.3265,0 L94.3628,0 L136.239,79.2234 L34.3265,0"/>
<path fill-rule="evenodd" d="M0,188.199 L0,124.479 L154.148,244.312 L0,188.199"/>
<path fill-rule="evenodd" d="M0,256.417 L0,208.168 L147.73,261.943 L0,256.417"/>
<path fill-rule="evenodd" d="M0,388.26 L0,375.846 L27.9401,376.892 L0,388.26"/>
<path fill-rule="evenodd" d="M0,551.737 L0,517.12 L80.0881,484.531 L0,551.737"/>
<path fill-rule="evenodd" d="M28.619,600 L0,600 L0,576.223 L92.1299,498.914 L28.619,600"/>
<path fill-rule="evenodd" d="M184.786,600 L169.579,600 L189.068,568.979 L184.786,600"/>
<path fill-rule="evenodd" d="M388.091,0 L405.589,0 L383.163,35.6939 L388.091,0"/>
<path fill-rule="evenodd" d="M546.535,0 L619.355,0 L619.355,32.0042 L422.807,196.938 L546.535,0"/>
<path fill-rule="evenodd" d="M619.355,56.5026 L619.355,136.243 L434.868,211.311 L619.355,56.5026"/>
<path fill-rule="evenodd" d="M619.355,265.091 L619.355,279.582 L586.742,278.362 L619.355,265.091"/>
<path fill-rule="evenodd" d="M619.355,399.021 L619.355,413.656 L574.546,397.345 L619.355,399.021"/>
<path fill-rule="evenodd" d="M619.355,433.616 L619.355,454.78 L568.156,414.98 L619.355,433.616"/>
<path fill-rule="evenodd" d="M611.689,600 L546.503,600 L501.036,513.979 L611.689,600"/>
<path fill-rule="evenodd" d="M411.516,600 L364.895,600 L341.555,467.646 L411.516,600"/>
<path fill-rule="evenodd" d="M259.089,0 L267.607,0 L263.867,27.0943 L259.089,0"/>
<path fill-rule="evenodd" d="M345.847,600 L305.259,600 L323.082,470.898 L345.847,600"/>
</g>
</g>
</svg>
