<?xml version="1.0" encoding="UTF-8" standalone="no"?>
<svg width="216.958mm" height="211.667mm"
 viewBox="0 0 615 600"
 xmlns="http://www.w3.org/2000/svg" xmlns:xlink="http://www.w3.org/1999/xlink"  version="1.2" baseProfile="tiny">
<title>Qt Svg Document</title>
<desc>Generated with Qt</desc>
<defs>
</defs>
<g fill="none" stroke="black" vector-effect="non-scaling-stroke" stroke-width="1" fill-rule="evenodd" stroke-linecap="square" stroke-linejoin="bevel" >

<g fill="#000000" fill-opacity="1" stroke="none" transform="matrix(1,0,0,1,0,0)"
font-family="Helvetica" font-size="12pt" font-weight="400" font-style="normal" 
>
<path fill-rule="evenodd" d="M27.448,546.677 L67.9396,512.698 L52.8931,535.884 L27.448,546.677"/>
<path fill-rule="evenodd" d="M54.6221,412.466 L162.744,366.606 L130.997,415.528 L54.6221,412.466"/>
<path fill-rule="evenodd" d="M82.293,323.259 L188.121,327.501 L170.485,354.677 L82.293,323.259"/>
<path fill-rule="evenodd" d="M176.69,313.662 L193.269,319.568 L190.931,323.171 L176.69,313.662"/>
<path fill-rule="evenodd" d="M188.121,327.501 L190.931,323.171 L198.009,327.897 L188.121,327.501"/>
<path fill-rule="evenodd" d="M162.744,366.606 L170.485,354.677 L181.564,358.624 L162.744,366.606"/>
<path fill-rule="evenodd" d="M67.9396,512.698 L130.997,415.528 L181.33,417.546 L67.9396,512.698"/>
<path fill-rule="evenodd" d="M37.8528,559.061 L52.8931,535.884 L78.328,525.096 L37.8528,559.061"/>
<path fill-rule="evenodd" d="M78.328,525.096 L191.725,429.937 L184.969,479.864 L78.328,525.096"/>
<path fill-rule="evenodd" d="M181.33,417.546 L194.949,406.117 L193.337,418.027 L181.33,417.546"/>
<path fill-rule="evenodd" d="M181.564,358.624 L202.582,349.709 L200.465,365.357 L181.564,358.624"/>
<path fill-rule="evenodd" d="M198.009,327.897 L205.493,328.197 L204.91,332.505 L198.009,327.897"/>
<path fill-rule="evenodd" d="M193.269,319.568 L210.189,293.495 L206.045,324.12 L193.269,319.568"/>
<path fill-rule="evenodd" d="M204.676,251.08 L214.996,257.971 L213.279,270.657 L204.676,251.08"/>
<path fill-rule="evenodd" d="M179.858,26.6219 L230.659,142.222 L216.775,244.822 L179.858,26.6219"/>
<path fill-rule="evenodd" d="M230.659,142.222 L235.125,109.221 L247,179.406 L230.659,142.222"/>
<path fill-rule="evenodd" d="M214.996,257.971 L216.775,244.822 L219.51,260.984 L214.996,257.971"/>
<path fill-rule="evenodd" d="M210.189,293.495 L213.279,270.657 L218.015,281.434 L210.189,293.495"/>
<path fill-rule="evenodd" d="M219.51,260.984 L227.726,266.47 L221.945,275.379 L219.51,260.984"/>
<path fill-rule="evenodd" d="M247,179.406 L262.03,213.609 L254.698,224.907 L247,179.406"/>
<path fill-rule="evenodd" d="M227.726,266.47 L254.698,224.907 L266.061,292.066 L227.726,266.47"/>
<path fill-rule="evenodd" d="M218.015,281.434 L221.945,275.379 L226.071,299.765 L218.015,281.434"/>
<path fill-rule="evenodd" d="M205.493,328.197 L206.045,324.12 L219.011,328.739 L205.493,328.197"/>
<path fill-rule="evenodd" d="M226.071,299.765 L239.158,329.546 L231.055,329.222 L226.071,299.765"/>
<path fill-rule="evenodd" d="M219.011,328.739 L231.055,329.222 L231.74,333.274 L219.011,328.739"/>
<path fill-rule="evenodd" d="M202.582,349.709 L204.91,332.505 L219.762,342.422 L202.582,349.709"/>
<path fill-rule="evenodd" d="M231.74,333.274 L236.952,335.131 L232.382,337.069 L231.74,333.274"/>
<path fill-rule="evenodd" d="M239.158,329.546 L249.171,329.948 L240.88,333.464 L239.158,329.546"/>
<path fill-rule="evenodd" d="M266.061,292.066 L294.194,310.851 L270.91,320.727 L266.061,292.066"/>
<path fill-rule="evenodd" d="M249.171,329.948 L270.91,320.727 L272.629,330.888 L249.171,329.948"/>
<path fill-rule="evenodd" d="M236.952,335.131 L240.88,333.464 L242.478,337.1 L236.952,335.131"/>
<path fill-rule="evenodd" d="M219.762,342.422 L232.382,337.069 L235.011,352.603 L219.762,342.422"/>
<path fill-rule="evenodd" d="M194.949,406.117 L200.465,365.357 L230.69,376.125 L194.949,406.117"/>
<path fill-rule="evenodd" d="M235.011,352.603 L248.214,361.419 L237.958,370.025 L235.011,352.603"/>
<path fill-rule="evenodd" d="M242.478,337.1 L266.849,345.781 L251.831,358.384 L242.478,337.1"/>
<path fill-rule="evenodd" d="M272.629,330.888 L284.051,331.346 L274.117,339.683 L272.629,330.888"/>
<path fill-rule="evenodd" d="M266.849,345.781 L274.117,339.683 L275.681,348.928 L266.849,345.781"/>
<path fill-rule="evenodd" d="M248.214,361.419 L251.831,358.384 L255.221,366.098 L248.214,361.419"/>
<path fill-rule="evenodd" d="M230.69,376.125 L237.958,370.025 L239.523,379.272 L230.69,376.125"/>
<path fill-rule="evenodd" d="M191.725,429.937 L193.337,418.027 L205.345,418.508 L191.725,429.937"/>
<path fill-rule="evenodd" d="M239.523,379.272 L248.354,382.418 L241.087,388.516 L239.523,379.272"/>
<path fill-rule="evenodd" d="M255.221,366.098 L262.227,370.775 L258.61,373.811 L255.221,366.098"/>
<path fill-rule="evenodd" d="M275.681,348.928 L284.513,352.074 L277.245,358.173 L275.681,348.928"/>
<path fill-rule="evenodd" d="M262.227,370.775 L277.245,358.173 L281.561,383.685 L262.227,370.775"/>
<path fill-rule="evenodd" d="M248.354,382.418 L258.61,373.811 L264.999,388.347 L248.354,382.418"/>
<path fill-rule="evenodd" d="M205.345,418.508 L241.087,388.516 L246.44,420.156 L205.345,418.508"/>
<path fill-rule="evenodd" d="M174.718,555.622 L184.969,479.864 L238.658,457.092 L174.718,555.622"/>
<path fill-rule="evenodd" d="M246.44,420.156 L262.216,420.788 L249.787,439.941 L246.44,420.156"/>
<path fill-rule="evenodd" d="M264.999,388.347 L279.838,393.634 L272.375,405.133 L264.999,388.347"/>
<path fill-rule="evenodd" d="M281.561,383.685 L284.863,385.89 L282.54,389.47 L281.561,383.685"/>
<path fill-rule="evenodd" d="M279.838,393.634 L282.54,389.47 L283.463,394.925 L279.838,393.634"/>
<path fill-rule="evenodd" d="M262.216,420.788 L272.375,405.133 L279.56,421.483 L262.216,420.788"/>
<path fill-rule="evenodd" d="M238.658,457.092 L249.787,439.941 L251.749,451.539 L238.658,457.092"/>
<path fill-rule="evenodd" d="M251.749,451.539 L281.571,438.89 L267.368,543.852 L251.749,451.539"/>
<path fill-rule="evenodd" d="M279.56,421.483 L283.903,421.657 L282.899,429.081 L279.56,421.483"/>
<path fill-rule="evenodd" d="M283.463,394.925 L287.334,396.305 L285.718,408.251 L283.463,394.925"/>
<path fill-rule="evenodd" d="M284.863,385.89 L289.766,378.334 L288.422,388.266 L284.863,385.89"/>
<path fill-rule="evenodd" d="M284.513,352.074 L294.448,343.737 L292.915,355.067 L284.513,352.074"/>
<path fill-rule="evenodd" d="M284.051,331.346 L297.671,319.917 L296.059,331.828 L284.051,331.346"/>
<path fill-rule="evenodd" d="M294.194,310.851 L299.184,308.735 L298.508,313.732 L294.194,310.851"/>
<path fill-rule="evenodd" d="M262.03,213.609 L325.237,116.208 L300.279,300.646 L262.03,213.609"/>
<path fill-rule="evenodd" d="M299.184,308.735 L300.279,300.646 L303.103,307.073 L299.184,308.735"/>
<path fill-rule="evenodd" d="M297.671,319.917 L298.508,313.732 L302.147,316.161 L297.671,319.917"/>
<path fill-rule="evenodd" d="M303.103,307.073 L323.069,298.604 L305.763,313.126 L303.103,307.073"/>
<path fill-rule="evenodd" d="M302.147,316.161 L305.763,313.126 L309.153,320.839 L302.147,316.161"/>
<path fill-rule="evenodd" d="M294.448,343.737 L296.059,331.828 L308.066,332.309 L294.448,343.737"/>
<path fill-rule="evenodd" d="M309.153,320.839 L316.16,325.518 L312.542,328.553 L309.153,320.839"/>
<path fill-rule="evenodd" d="M308.066,332.309 L312.542,328.553 L314.303,332.559 L308.066,332.309"/>
<path fill-rule="evenodd" d="M289.766,378.334 L292.915,355.067 L302.621,358.525 L289.766,378.334"/>
<path fill-rule="evenodd" d="M314.303,332.559 L319.341,332.761 L316.39,337.308 L314.303,332.559"/>
<path fill-rule="evenodd" d="M316.16,325.518 L333.465,310.995 L321.658,329.189 L316.16,325.518"/>
<path fill-rule="evenodd" d="M323.069,298.604 L363.552,264.632 L348.509,287.814 L323.069,298.604"/>
<path fill-rule="evenodd" d="M333.465,310.995 L348.509,287.814 L373.949,277.023 L333.465,310.995"/>
<path fill-rule="evenodd" d="M319.341,332.761 L321.658,329.189 L327.498,333.088 L319.341,332.761"/>
<path fill-rule="evenodd" d="M302.621,358.525 L316.39,337.308 L330,368.279 L302.621,358.525"/>
<path fill-rule="evenodd" d="M287.334,396.305 L288.422,388.266 L315.475,406.33 L287.334,396.305"/>
<path fill-rule="evenodd" d="M283.903,421.657 L285.718,408.251 L288.014,421.822 L283.903,421.657"/>
<path fill-rule="evenodd" d="M281.571,438.89 L282.899,429.081 L286.324,436.874 L281.571,438.89"/>
<path fill-rule="evenodd" d="M288.014,421.822 L318.892,423.06 L290.277,435.197 L288.014,421.822"/>
<path fill-rule="evenodd" d="M315.475,406.33 L338.77,414.628 L332.125,417.447 L315.475,406.33"/>
<path fill-rule="evenodd" d="M330,368.279 L394.159,391.135 L348.546,410.482 L330,368.279"/>
<path fill-rule="evenodd" d="M327.498,333.088 L513.441,340.542 L406.557,385.876 L327.498,333.088"/>
<path fill-rule="evenodd" d="M394.159,391.135 L406.557,385.876 L437.624,406.62 L394.159,391.135"/>
<path fill-rule="evenodd" d="M338.77,414.628 L348.546,410.482 L352.521,419.527 L338.77,414.628"/>
<path fill-rule="evenodd" d="M318.892,423.06 L332.125,417.447 L341.914,423.983 L318.892,423.06"/>
<path fill-rule="evenodd" d="M352.521,419.527 L367.959,425.027 L354.705,424.496 L352.521,419.527"/>
<path fill-rule="evenodd" d="M437.624,406.62 L504.677,430.508 L471.402,429.174 L437.624,406.62"/>
<path fill-rule="evenodd" d="M367.959,425.027 L471.402,429.174 L576.408,499.287 L367.959,425.027"/>
<path fill-rule="evenodd" d="M341.914,423.983 L354.705,424.496 L359.697,435.857 L341.914,423.983"/>
<path fill-rule="evenodd" d="M286.324,436.874 L290.277,435.197 L293.213,452.55 L286.324,436.874"/>
<path fill-rule="evenodd" d="M168.159,0 L175.354,0 L179.858,26.6219 L168.159,0"/>
<path fill-rule="evenodd" d="M0,114.417 L0,0 L94.3389,0 L204.676,251.08 L0,114.417"/>
<path fill-rule="evenodd" d="M0,250.717 L0,195.686 L176.69,313.662 L0,250.717"/>
<path fill-rule="evenodd" d="M0,319.96 L0,293.942 L82.293,323.259 L0,319.96"/>
<path fill-rule="evenodd" d="M0,435.634 L0,410.277 L54.6221,412.466 L0,435.634"/>
<path fill-rule="evenodd" d="M0,569.71 L0,558.319 L27.448,546.677 L0,569.71"/>
<path fill-rule="evenodd" d="M11.2858,600 L0,600 L0,590.825 L37.8528,559.061 L11.2858,600"/>
<path fill-rule="evenodd" d="M168.712,600 L145.919,600 L174.718,555.622 L168.712,600"/>
<path fill-rule="evenodd" d="M340.963,0 L400.649,0 L325.237,116.208 L340.963,0"/>
<path fill-rule="evenodd" d="M535.282,0 L615.385,0 L615.385,53.3049 L363.552,264.632 L535.282,0"/>
<path fill-rule="evenodd" d="M615.385,74.4204 L615.385,174.618 L373.949,277.023 L615.385,74.4204"/>
<path fill-rule="evenodd" d="M615.385,297.302 L615.385,344.628 L513.441,340.542 L615.385,297.302"/>
<path fill-rule="evenodd" d="M615.385,434.945 L615.385,469.947 L504.677,430.508 L615.385,434.945"/>
<path fill-rule="evenodd" d="M615.385,513.172 L615.385,525.311 L576.408,499.287 L615.385,513.172"/>
<path fill-rule="evenodd" d="M605.53,600 L431.83,600 L359.697,435.857 L605.53,600"/>
<path fill-rule="evenodd" d="M358.01,600 L318.159,600 L293.213,452.55 L358.01,600"/>
<path fill-rule="evenodd" d="M216.646,0 L249.905,0 L235.125,109.221 L216.646,0"/>
<path fill-rule="evenodd" d="M276.867,600 L259.77,600 L267.368,543.852 L276.867,600"/>
</g>
</g>
</svg>
