<svg id="svgRoot" xmlns="http://www.w3.org/2000/svg" width="1403" height="994" viewBox="0 0 1403 994">
        <defs>
          <clipPath id="viewportClip"><rect id="clipRect" x="0" y="0" width="1403" height="994"/></clipPath>
        </defs>
        <rect id="bgRect" x="0" y="0" width="100%" height="100%" fill="#ffffff"/>
        <g id="viewportGroup" clip-path="url(#viewportClip)">
            <g id="sceneGroup" transform="matrix(8.563403610837788 0 0 -8.563403610837788 743.2475292458072 496.9993109335677)">
              <g id="polyLayer"><g><clipPath id="_ec0"><polygon points="-7.052329996619967,-58.037751302231214 6.838596959766946,-58.03775130223113 -1.963731288524741,-6.122900480731914 -7.052320318771154,-24.859765164812938"/></clipPath><path d="M6.838596959766946,-58.03775130223113L-1.963731288524741,-6.122900480731914M-1.963731288524741,-6.122900480731914L-7.052320318771154,-24.859765164812938M-7.052320318771154,-24.859765164812938L-7.052329996619967,-58.037751302231214" fill="none" stroke="#000000" stroke-width="0.6" stroke-opacity="1" vector-effect="non-scaling-stroke" clip-path="url(#_ec0)"/></g><g><clipPath id="_ec1"><polygon points="-16.06285325216917,-58.0377513022312 -12.842377498034693,-58.03775130223221 -7.490469720769852,-26.47308980310845"/></clipPath><path d="M-12.842377498034693,-58.03775130223221L-7.490469720769852,-26.47308980310845M-7.490469720769852,-26.47308980310845L-16.06285325216917,-58.0377513022312" fill="none" stroke="#000000" stroke-width="0.6" stroke-opacity="1" vector-effect="non-scaling-stroke" clip-path="url(#_ec1)"/></g><g><clipPath id="_ec2"><polygon points="-50.47335108397792,-58.03775130223121 -49.62989696135264,-58.03775130223221 -44.35739064833433,-51.073230801936006"/></clipPath><path d="M-49.62989696135264,-58.03775130223221L-44.35739064833433,-51.073230801936006M-44.35739064833433,-51.073230801936006L-50.47335108397792,-58.03775130223121" fill="none" stroke="#000000" stroke-width="0.6" stroke-opacity="1" vector-effect="non-scaling-stroke" clip-path="url(#_ec2)"/></g><g><clipPath id="_ec3"><polygon points="-61.93306410508012,-58.03775130223221 -32.148849712226365,-28.36162519419304 -70.44233256405647,-58.037751302231214"/></clipPath><path d="M-61.93306410508012,-58.03775130223221L-32.148849712226365,-28.36162519419304M-32.148849712226365,-28.36162519419304L-70.44233256405647,-58.037751302231214" fill="none" stroke="#000000" stroke-width="0.6" stroke-opacity="1" vector-effect="non-scaling-stroke" clip-path="url(#_ec3)"/></g><g><clipPath id="_ec4"><polygon points="-86.79347173420132,-49.70267484301329 -16.324323808879853,-8.485581902559716 -86.79347173420132,-22.436169984203083"/></clipPath><path d="M-86.79347173420132,-49.70267484301329L-16.324323808879853,-8.485581902559716M-16.324323808879853,-8.485581902559716L-86.79347173420132,-22.436169984203083" fill="none" stroke="#000000" stroke-width="0.6" stroke-opacity="1" vector-effect="non-scaling-stroke" clip-path="url(#_ec4)"/></g><g><clipPath id="_ec5"><polygon points="-86.79347173420138,-2.4371323159239893 -13.458081938050881,-0.00008946460013151136 -86.79347173420133,2.4369962014847943"/></clipPath><path d="M-86.79347173420138,-2.4371323159239893L-13.458081938050881,-0.00008946460013151136M-13.458081938050881,-0.00008946460013151136L-86.79347173420133,2.4369962014847943" fill="none" stroke="#000000" stroke-width="0.6" stroke-opacity="1" vector-effect="non-scaling-stroke" clip-path="url(#_ec5)"/></g><g><clipPath id="_ec6"><polygon points="38.24513795387843,-58.03775130223121 2.7151943236585794,-11.105740985556622 15.461038730481043,-58.03775130223121"/></clipPath><path d="M38.24513795387843,-58.03775130223121L2.7151943236585794,-11.105740985556622M2.7151943236585794,-11.105740985556622L15.461038730481043,-58.03775130223121" fill="none" stroke="#000000" stroke-width="0.6" stroke-opacity="1" vector-effect="non-scaling-stroke" clip-path="url(#_ec6)"/></g><g><clipPath id="_ec7"><polygon points="54.56496286684291,-58.03775130223121 29.724605535044248,-33.287511897557124 51.459239946040256,-58.037751302231214"/></clipPath><path d="M54.56496286684291,-58.03775130223121L29.724605535044248,-33.287511897557124M29.724605535044248,-33.287511897557124L51.459239946040256,-58.037751302231214" fill="none" stroke="#000000" stroke-width="0.6" stroke-opacity="1" vector-effect="non-scaling-stroke" clip-path="url(#_ec7)"/></g><g><clipPath id="_ec8"><polygon points="77.0432529793652,-46.124948248228975 23.727162366554694,-14.940560928976993 77.04325297936609,-56.25873876708874"/></clipPath><path d="M77.0432529793652,-46.124948248228975L23.727162366554694,-14.940560928976993M23.727162366554694,-14.940560928976993L77.04325297936609,-56.25873876708874" fill="none" stroke="#000000" stroke-width="0.6" stroke-opacity="1" vector-effect="non-scaling-stroke" clip-path="url(#_ec8)"/></g><g><clipPath id="_ec9"><polygon points="77.0432529793652,-3.007634753469233 34.607170880641206,-1.5973965629436861 77.04325297936609,-9.998379574083572"/></clipPath><path d="M77.0432529793652,-3.007634753469233L34.607170880641206,-1.5973965629436861M34.607170880641206,-1.5973965629436861L77.04325297936609,-9.998379574083572" fill="none" stroke="#000000" stroke-width="0.6" stroke-opacity="1" vector-effect="non-scaling-stroke" clip-path="url(#_ec9)"/></g><g><clipPath id="_ec10"><polygon points="-86.79347173420132,22.436036442866595 -16.324318869923445,8.485404651624776 -86.79347173420132,49.70255564151972"/></clipPath><path d="M-86.79347173420132,22.436036442866595L-16.324318869923445,8.485404651624776M-16.324318869923445,8.485404651624776L-86.79347173420132,49.70255564151972" fill="none" stroke="#000000" stroke-width="0.6" stroke-opacity="1" vector-effect="non-scaling-stroke" clip-path="url(#_ec10)"/></g><g><clipPath id="_ec11"><polygon points="-70.44227905035223,58.03759036939118 -32.148833157545596,28.36145715618659 -61.9330199360715,58.037590369391026"/></clipPath><path d="M-70.44227905035223,58.03759036939118L-32.148833157545596,28.36145715618659M-32.148833157545596,28.36145715618659L-61.9330199360715,58.037590369391026" fill="none" stroke="#000000" stroke-width="0.6" stroke-opacity="1" vector-effect="non-scaling-stroke" clip-path="url(#_ec11)"/></g><g><clipPath id="_ec12"><polygon points="-50.473314083625155,58.03759036938936 -44.357360841848276,51.0730698690968 -49.62986076497743,58.03759036939103"/></clipPath><path d="M-50.473314083625155,58.03759036938936L-44.357360841848276,51.0730698690968M-44.357360841848276,51.0730698690968L-49.62986076497743,58.03759036939103" fill="none" stroke="#000000" stroke-width="0.6" stroke-opacity="1" vector-effect="non-scaling-stroke" clip-path="url(#_ec12)"/></g><g><clipPath id="_ec13"><polygon points="-16.062823862073856,58.03759036938936 -7.4904543311840825,26.472907605279033 -12.842346792519022,58.03759036939104"/></clipPath><path d="M-16.062823862073856,58.03759036938936L-7.4904543311840825,26.472907605279033M-7.4904543311840825,26.472907605279033L-12.842346792519022,58.03759036939104" fill="none" stroke="#000000" stroke-width="0.6" stroke-opacity="1" vector-effect="non-scaling-stroke" clip-path="url(#_ec13)"/></g><g><clipPath id="_ec14"><polygon points="77.04325297936609,9.998146683661993 34.6071718935018,1.5971896058854327 77.04325297936609,3.0074029876643547"/></clipPath><path d="M77.04325297936609,9.998146683661993L34.6071718935018,1.5971896058854327M34.6071718935018,1.5971896058854327L77.04325297936609,3.0074029876643547" fill="none" stroke="#000000" stroke-width="0.6" stroke-opacity="1" vector-effect="non-scaling-stroke" clip-path="url(#_ec14)"/></g><g><clipPath id="_ec15"><polygon points="77.04325297936609,56.258481627004365 23.72717108042707,14.940360312692064 77.04325297936609,46.124700801357754"/></clipPath><path d="M77.04325297936609,56.258481627004365L23.72717108042707,14.940360312692064M23.72717108042707,14.940360312692064L77.04325297936609,46.124700801357754" fill="none" stroke="#000000" stroke-width="0.6" stroke-opacity="1" vector-effect="non-scaling-stroke" clip-path="url(#_ec15)"/></g><g><clipPath id="_ec16"><polygon points="51.45932284344417,58.03759036938936 29.724624908614715,33.28730773959251 54.56505460101853,58.03759036939103"/></clipPath><path d="M51.45932284344417,58.03759036938936L29.724624908614715,33.28730773959251M29.724624908614715,33.28730773959251L54.56505460101853,58.03759036939103" fill="none" stroke="#000000" stroke-width="0.6" stroke-opacity="1" vector-effect="non-scaling-stroke" clip-path="url(#_ec16)"/></g><g><clipPath id="_ec17"><polygon points="15.461082063119648,58.03759036938936 2.7152008052626115,11.10555262998605 38.245208255646126,58.03759036939104"/></clipPath><path d="M15.461082063119648,58.03759036938936L2.7152008052626115,11.10555262998605M2.7152008052626115,11.10555262998605L38.245208255646126,58.03759036939104" fill="none" stroke="#000000" stroke-width="0.6" stroke-opacity="1" vector-effect="non-scaling-stroke" clip-path="url(#_ec17)"/></g><g><clipPath id="_ec18"><polygon points="-7.052296138036658,58.03759036938936 -7.052305815891807,24.859582510165986 -1.9637277189277205,6.122714859710914 6.8386358357608446,58.03759036939104"/></clipPath><path d="M-7.052296138036658,58.03759036938936L-7.052305815891807,24.859582510165986M-7.052305815891807,24.859582510165986L-1.9637277189277205,6.122714859710914M-1.9637277189277205,6.122714859710914L6.8386358357608446,58.03759036939104" fill="none" stroke="#000000" stroke-width="0.6" stroke-opacity="1" vector-effect="non-scaling-stroke" clip-path="url(#_ec18)"/></g><polygon points="-3.130897255696173,-5.873714657849392 -2.042514191852935,-5.6582503838268865 -2.136626576826928,-5.103189235395209" fill="#000000" fill-opacity="1" stroke="none"/><polygon points="-4.128904165290528,-6.647135530022687 -3.130897255696173,-5.873714657849392 -4.027875808760501,-6.051287094586243" fill="#000000" fill-opacity="1" stroke="none"/><polygon points="-3.838113176031341,-4.9320986637384765 -2.8287396288753164,-3.782679396626414 -3.4941871587776347,-2.903680244147539" fill="#000000" fill-opacity="1" stroke="none"/><polygon points="-7.052320035591049,-23.888955869155943 -4.128904165290528,-6.6471355300226875 -7.052315667087542,-8.912678435292042" fill="#000000" fill-opacity="1" stroke="none"/><polygon points="-4.987823077818401,-6.241325279025723 -4.0278758087605,-6.051287094586243 -3.838113176031341,-4.932098663738476" fill="#000000" fill-opacity="1" stroke="none"/><polygon points="-7.052315573622006,-8.592256168953366 -4.987823077818401,-6.241325279025723 -7.052315007083754,-6.650027205343598" fill="#000000" fill-opacity="1" stroke="none"/><polygon points="-6.3384399587810725,-2.6448826056392023 -4.50288616542916,-1.5712753104585897 -4.828821520369431,-1.14074264201897" fill="#000000" fill-opacity="1" stroke="none"/><polygon points="-7.052314046281296,-3.3561660112206724 -6.3384399587810725,-2.644882605639202 -7.052313960598357,-3.0624243518776773" fill="#000000" fill-opacity="1" stroke="none"/><polygon points="-7.052313591329185,-1.7964810923896581 -5.882929896472526,-0.251827329637206 -7.052313129426028,-0.2129663223784619" fill="#000000" fill-opacity="1" stroke="none"/><polygon points="-7.490469720770204,-26.473089803110533 -7.052320318771154,-24.859765164812416 -7.052320035591049,-23.888955869155325" fill="#000000" fill-opacity="1" stroke="none"/><polygon points="-7.933129322373338,-9.595278584593794 -7.052315667087542,-8.91267843529204 -7.052315573622006,-8.592256168953366" fill="#000000" fill-opacity="1" stroke="none"/><polygon points="-44.357390648334615,-51.073230801933875 -7.933129322373333,-9.595278584593792 -20.086898590492893,-19.01402983488591" fill="#000000" fill-opacity="1" stroke="none"/><polygon points="-11.17787265798759,-7.4667527808511025 -7.052315007083754,-6.650027205343598 -7.052314046281296,-3.3561660112206733" fill="#000000" fill-opacity="1" stroke="none"/><polygon points="-11.858119099147677,-8.144530576368677 -11.17787265798759,-7.4667527808511025 -11.374470254247809,-7.505672679331697" fill="#000000" fill-opacity="1" stroke="none"/><polygon points="-8.772304906961523,-4.068439448982527 -7.052313960598357,-3.0624243518776773 -7.052313591329185,-1.7964810923896586" fill="#000000" fill-opacity="1" stroke="none"/><polygon points="-32.148849712224774,-28.361625194193916 -20.08689859049128,-19.01402983488466 -11.858119099146677,-8.144530576367686" fill="#000000" fill-opacity="1" stroke="none"/><polygon points="-16.324323808880234,-8.485581902561037 -11.374470254247544,-7.505672679331645 -8.772304906961363,-4.068439448982433" fill="#000000" fill-opacity="1" stroke="none"/><polygon points="-1.8258944298234732,-5.615366750926726 -1.491428072341514,-5.549153343814961 -1.7243533674619176,-5.24147899264293" fill="#000000" fill-opacity="1" stroke="none"/><polygon points="-2.0425141918533325,-5.6582503838269655 -1.963731288525148,-6.122900480732978 -1.8258944298234732,-5.615366750926726" fill="#000000" fill-opacity="1" stroke="none"/><polygon points="-2.2253950122899777,-4.579645923362269 -2.1366265768271044,-5.103189235395345 -1.9427758470968013,-4.952961617712438" fill="#000000" fill-opacity="1" stroke="none"/><polygon points="-2.8287396288751308,-3.7826793966262025 -2.225395012290101,-4.579645923361545 -2.4362955013192806,-3.335785535826468" fill="#000000" fill-opacity="1" stroke="none"/><polygon points="-3.1323556234036185,-0.7696580582071533 -2.993286137158887,-0.6883169307991054 -3.100458390442636,-0.5815334859846597" fill="#000000" fill-opacity="1" stroke="none"/><polygon points="-4.5028861654290715,-1.5712753104585375 -3.4941871587775877,-2.903680244147259 -3.1323556234036185,-0.769658058207153" fill="#000000" fill-opacity="1" stroke="none"/><polygon points="-5.491939408369063,-0.2648207468233858 -4.828821520369381,-1.1407426420189213 -3.9994871862021775,-0.31441800031954764" fill="#000000" fill-opacity="1" stroke="none"/><polygon points="-1.4914280723410622,-5.549153343814871 2.7151943236584692,-11.105740985555066 1.0684981358186199,-5.042371623007282" fill="#000000" fill-opacity="1" stroke="none"/><polygon points="-1.5668849223272021,-4.661659138658967 -0.12610036403408564,-3.545100887432227 -1.0213868592123132,-2.653062387524349" fill="#000000" fill-opacity="1" stroke="none"/><polygon points="-1.9427758470965104,-4.952961617712213 -1.7243533674617884,-5.241478992642454 -1.5668849223272021,-4.661659138658967" fill="#000000" fill-opacity="1" stroke="none"/><polygon points="-2.8632068975795972,-0.8179242580272095 -2.4362955013192806,-3.3357855358264685 -1.4562562946996593,-2.219770607767643" fill="#000000" fill-opacity="1" stroke="none"/><polygon points="0.9541897245396171,-4.6214718092172085 1.0684981358186199,-5.042371623007282 1.325549097884469,-4.991483933949777" fill="#000000" fill-opacity="1" stroke="none"/><polygon points="-2.993286137158884,-0.6883169307991037 -2.863206897579598,-0.8179242580272026 -2.8949357315305333,-0.6307922135453796" fill="#000000" fill-opacity="1" stroke="none"/><polygon points="-3.3467765752762637,-0.3361089148754089 -3.1004583904426353,-0.5815334859846572 -3.0604590166865395,-0.345623835569593" fill="#000000" fill-opacity="1" stroke="none"/><polygon points="-0.126100364034064,-3.54510088743221 0.9541897245396016,-4.621471809217142 0.5248623203886122,-3.0406272988243987" fill="#000000" fill-opacity="1" stroke="none"/><polygon points="-0.6563237616664507,-1.308851287116969 -0.2907589863268559,-0.8925661592406466 -0.5086560304702885,-0.7651189713056796" fill="#000000" fill-opacity="1" stroke="none"/><polygon points="-1.4562562946996487,-2.2197706077676305 -1.021386859212307,-2.653062387524327 -0.6563237616664507,-1.308851287116969" fill="#000000" fill-opacity="1" stroke="none"/><polygon points="-2.9426229789495197,-0.34953976919066454 -2.8949357315305333,-0.6307922135453796 -2.44249244166278,-0.36616013443288825" fill="#000000" fill-opacity="1" stroke="none"/><polygon points="1.3255490978845188,-4.991483933949772 29.724605535042702,-33.28751189755523 4.350354213022804,-4.392671383622638" fill="#000000" fill-opacity="1" stroke="none"/><polygon points="-0.014651604355858439,-1.0540603618748314 0.5248623203886124,-3.0406272988243996 1.7536689507587346,-2.0883446175557143" fill="#000000" fill-opacity="1" stroke="none"/><polygon points="2.932037386285387,-2.777568026021692 4.350354213022801,-4.392671383622636 5.35376647079859,-4.194028552022969" fill="#000000" fill-opacity="1" stroke="none"/><polygon points="-0.29075898632686,-0.8925661592406512 -0.014651604355855108,-1.0540603618748428 -0.1133699784087204,-0.6905652805278204" fill="#000000" fill-opacity="1" stroke="none"/><polygon points="-1.115353757174958,-0.410263679445229 -0.5086560304702897,-0.7651189713056841 -0.41857243967117286,-0.4334191541212958" fill="#000000" fill-opacity="1" stroke="none"/><polygon points="1.7536689507587162,-2.0883446175557276 2.9320373862854483,-2.777568026021762 2.094702273236212,-1.8240555758917696" fill="#000000" fill-opacity="1" stroke="none"/><polygon points="-0.18106241762346453,-0.4413121001040329 -0.11336997840872039,-0.6905652805278205 0.09738805783828308,-0.45056558146342396" fill="#000000" fill-opacity="1" stroke="none"/><polygon points="5.353766470798519,-4.1940285520229805 23.727162366552495,-14.940560928975916 8.943149560833959,-3.483448015284182" fill="#000000" fill-opacity="1" stroke="none"/><polygon points="0.9123431321666722,-0.4776482128596663 2.094702273236212,-1.8240555758917698 3.712023701647772,-0.5706873499592966" fill="#000000" fill-opacity="1" stroke="none"/><polygon points="5.250561116870724,-0.621816109099976 8.943149560833959,-3.4834480152841825 20.789719902952314,-1.138214279830978" fill="#000000" fill-opacity="1" stroke="none"/><polygon points="-5.882929896472458,-0.2518273296371152 -5.491939408369944,-0.2648207468232613 -5.692352879207198,-0.00009172898894116432" fill="#000000" fill-opacity="1" stroke="none"/><polygon points="-7.052313005238895,0.21278365748098071 -5.8829297496325434,0.25164398278169736 -7.052312543333781,1.7962984271941127" fill="#000000" fill-opacity="1" stroke="none"/><polygon points="-13.458081938049872,-0.00008946460013703472 -7.052313129428512,-0.21296632237829272 -7.052313005238895,0.2127836574809806" fill="#000000" fill-opacity="1" stroke="none"/><polygon points="-3.999487186202023,-0.31441800031939376 -3.346776575275726,-0.33610891487523986 -3.6840166433278267,-0.00009231456444858122" fill="#000000" fill-opacity="1" stroke="none"/><polygon points="-5.4919392539790195,0.26463717195020986 -3.9994870027495835,0.3142335550867977 -4.828820854986244,1.1405586805702936" fill="#000000" fill-opacity="1" stroke="none"/><polygon points="-5.8829297496325434,0.2516439827816974 -5.692352879207198,-0.0000917289889410533 -5.4919392539790195,0.26463717195020997" fill="#000000" fill-opacity="1" stroke="none"/><polygon points="-8.772302534510956,4.068257787745019 -7.052312543333781,1.7962984271941131 -7.052312174064608,3.0622416869950544" fill="#000000" fill-opacity="1" stroke="none"/><polygon points="-3.0604590166865093,-0.345623835569417 -2.942622978949549,-0.3495397691904907 -3.0018728737601275,-0.00009251347406785682" fill="#000000" fill-opacity="1" stroke="none"/><polygon points="-3.34677637933285,0.33592408899140347 -3.0604588153366628,0.34543884270696906 -3.1004580515874793,0.5813485161888752" fill="#000000" fill-opacity="1" stroke="none"/><polygon points="-3.999487002749583,0.31423355508679773 -3.6840166433278263,-0.00009231456444869224 -3.34677637933285,0.33592408899140347" fill="#000000" fill-opacity="1" stroke="none"/><polygon points="-6.338438415685631,2.644699524348415 -4.828820854986244,1.1405586805702939 -4.502885248972342,1.5710911588823735" fill="#000000" fill-opacity="1" stroke="none"/><polygon points="-2.4424924416625284,-0.36616013443274115 -1.1153537571735797,-0.4102636794451655 -1.8166246976291838,-0.00009285912537709828" fill="#000000" fill-opacity="1" stroke="none"/><polygon points="-2.9426227753453795,0.34935470760776677 -2.4424922281287333,0.3659747811931258 -2.8949353640039543,0.6306071243919318" fill="#000000" fill-opacity="1" stroke="none"/><polygon points="-3.0604588153366628,0.345438842706969 -3.0018728737601275,-0.00009251347406791233 -2.9426227753453795,0.3493547076077668" fill="#000000" fill-opacity="1" stroke="none"/><polygon points="-3.1323551750324015,0.7694731076115406 -3.1004580515874793,0.5813485161888752 -2.9932857357162277,0.6881318987933505" fill="#000000" fill-opacity="1" stroke="none"/><polygon points="-16.324318869920553,8.485404651624657 -8.772302534510956,4.0682577877450194 -11.37446587917603,7.5054925384813425" fill="#000000" fill-opacity="1" stroke="none"/><polygon points="-7.052312174064608,3.0622416869950553 -6.33843841568563,2.6446995243484155 -7.052312088381669,3.3559833463932502" fill="#000000" fill-opacity="1" stroke="none"/><polygon points="-4.502885248972341,1.571091158882374 -3.1323551750324015,0.7694731076115411 -3.494185466587075,2.9034955024712157" fill="#000000" fill-opacity="1" stroke="none"/><polygon points="-11.177868305301919,7.4665725252175035 -7.052312088381669,3.3559833463932502 -7.05231112757921,6.64984454168445" fill="#000000" fill-opacity="1" stroke="none"/><polygon points="-0.41857243967114344,-0.4334191541211872 -0.18106241762349462,-0.44131210010392224 -0.30088908016428473,-0.00009330101307208905" fill="#000000" fill-opacity="1" stroke="none"/><polygon points="-1.1153535178388552,0.41007755225110265 -0.4185721867864396,0.4332326205816503 -0.5086555840478905,0.7649324903346886" fill="#000000" fill-opacity="1" stroke="none"/><polygon points="-2.4424922281287333,0.36597478119312593 -1.8166246976291835,-0.0000928591253771538 -1.1153535178388552,0.41007755225110265" fill="#000000" fill-opacity="1" stroke="none"/><polygon points="-2.8632064211554695,0.8177391495348201 -1.4562550001354424,2.2195846790946816 -2.4362935574224958,3.335600180436368" fill="#000000" fill-opacity="1" stroke="none"/><polygon points="-2.9932857357162277,0.6881318987933507 -2.894935364003954,0.6306071243919318 -2.8632064211554695,0.8177391495348203" fill="#000000" fill-opacity="1" stroke="none"/><polygon points="-3.8381103027680856,4.931914127692427 -3.494185466587075,2.903495502471216 -2.8287374228513187,3.782494268396965" fill="#000000" fill-opacity="1" stroke="none"/><polygon points="0.09738805783837684,-0.4505655814633174 0.9123431321665723,-0.477648212859553 0.492974405462477,-0.00009353268934031433" fill="#000000" fill-opacity="1" stroke="none"/><polygon points="-0.18106216021196883,0.4411254280514134 0.09738832035118794,0.45037874701501907 -0.11336957564708627,0.6903785686703421" fill="#000000" fill-opacity="1" stroke="none"/><polygon points="-0.4185721867864396,0.43323262058165024 -0.3008890801642847,-0.00009330101307214456 -0.18106216021196883,0.4411254280514134" fill="#000000" fill-opacity="1" stroke="none"/><polygon points="-0.656322997680211,1.3086648911726524 -0.5086555840478905,0.7649324903346886 -0.29075846589866394,0.8923795509935047" fill="#000000" fill-opacity="1" stroke="none"/><polygon points="-4.98781943894349,6.241141411114596 -3.838110302768085,4.931914127692427 -4.027872282981477,6.051102666961275" fill="#000000" fill-opacity="1" stroke="none"/><polygon points="-1.4562550001354422,2.219584679094682 -0.6563229976802107,1.3086648911726524 -1.0213853112545253,2.6528762058602835" fill="#000000" fill-opacity="1" stroke="none"/><polygon points="-2.2253923446157637,4.579460439067713 -1.94277295843963,4.952775972885947 -2.1366236030367913,5.103003705554206" fill="#000000" fill-opacity="1" stroke="none"/><polygon points="-2.828737422851318,3.782494268396965 -2.4362935574224958,3.3356001804363684 -2.2253923446157637,4.579460439067713" fill="#000000" fill-opacity="1" stroke="none"/><polygon points="3.7120237016479094,-0.5706873499591903 5.250561116870575,-0.6218161090998596 4.44830512554368,-0.00009468616098129434" fill="#000000" fill-opacity="1" stroke="none"/><polygon points="0.9123434108964397,0.4774609031620578 3.7120240338361272,0.5704984075251043 2.0947033369194066,1.8238675763517191" fill="#000000" fill-opacity="1" stroke="none"/><polygon points="0.09738832035118797,0.45037874701501907 0.49297440546247695,-0.00009353268934031433 0.9123434108964397,0.4774609031620577" fill="#000000" fill-opacity="1" stroke="none"/><polygon points="-0.014650989402042014,1.05387359278858 1.75367016858936,2.088156816912985 0.5248640942960252,3.0404402143383" fill="#000000" fill-opacity="1" stroke="none"/><polygon points="-0.2907584658986639,0.8923795509935049 -0.11336957564708616,0.6903785686703422 -0.014650989402041958,1.05387359278858" fill="#000000" fill-opacity="1" stroke="none"/><polygon points="-1.5668822018517607,4.6614732732715085 -1.0213853112545253,2.652876205860284 -0.12609829636525416,3.5449141829679895" fill="#000000" fill-opacity="1" stroke="none"/><polygon points="-1.94277295843963,4.952775972885948 -1.5668822018517605,4.661473273271509 -1.72435030942335,5.241293221892667" fill="#000000" fill-opacity="1" stroke="none"/><polygon points="-3.130893830285551,5.873529706174599 -2.1366236030367913,5.103003705554206 -2.042510894892103,5.658064797595547" fill="#000000" fill-opacity="1" stroke="none"/><polygon points="20.789719902952818,-1.1382142798308785 34.607170880644844,-1.5973965629436861 26.538715089964796,-0.00010113246677367904" fill="#000000" fill-opacity="1" stroke="none"/><polygon points="5.250561480246237,0.6216262694712968 20.789720530116703,1.1380153768768329 8.943151588864406,3.4832560186548456" fill="#000000" fill-opacity="1" stroke="none"/><polygon points="3.7120240338361277,0.5704984075251045 4.44830512554368,-0.00009468616098118332 5.250561480246237,0.6216262694712972" fill="#000000" fill-opacity="1" stroke="none"/><polygon points="2.932039005927176,2.7773795380129545 5.3537689136194455,4.193838649847343 4.350356773040435,4.392482066705777" fill="#000000" fill-opacity="1" stroke="none"/><polygon points="1.753670168589361,2.0881568169129854 2.0947033369194066,1.82386757635172 2.932039005927176,2.7773795380129545" fill="#000000" fill-opacity="1" stroke="none"/><polygon points="0.954192421284853,4.621284475884636 1.325552008310281,4.99129638187736 1.0685010775088415,5.042184220618851" fill="#000000" fill-opacity="1" stroke="none"/><polygon points="-0.12609829636525371,3.5449141829679904 0.5248640942960263,3.0404402143383003 0.954192421284853,4.621284475884636" fill="#000000" fill-opacity="1" stroke="none"/><polygon points="-1.8258911530633455,5.615181037338245 -1.72435030942335,5.241293221892667 -1.4914248361961473,5.548967435449575" fill="#000000" fill-opacity="1" stroke="none"/><polygon points="-11.858114352285384,8.144350718664493 -11.374465879175666,7.50549253848086 -11.17786830530141,7.4665725252169945" fill="#000000" fill-opacity="1" stroke="none"/><polygon points="-32.14883315754223,28.361457156185843 -11.858114352285384,8.144350718664494 -20.08688750130019,19.013854772553984" fill="#000000" fill-opacity="1" stroke="none"/><polygon points="-7.052311127579209,6.649844541684079 -4.987819438943115,6.241141411114169 -7.052310561040958,8.592073502012143" fill="#000000" fill-opacity="1" stroke="none"/><polygon points="-7.93312372804117,9.595096434986583 -7.052310561040958,8.592073502012143 -7.052310467575422,8.91249576941292" fill="#000000" fill-opacity="1" stroke="none"/><polygon points="-4.128900292676822,6.64695116342523 -4.027872282981416,6.051102666960919 -3.13089383028497,5.873529706174148" fill="#000000" fill-opacity="1" stroke="none"/><polygon points="-44.3573608418475,51.07306986909367 -20.086887501298193,19.013854772551348 -7.9331237280403215,9.595096434985617" fill="#000000" fill-opacity="1" stroke="none"/><polygon points="-7.052310467575422,8.912495769412669 -4.128900292676809,6.646951163425156 -7.052306099071943,23.88877310515541" fill="#000000" fill-opacity="1" stroke="none"/><polygon points="-2.042510894892157,5.658064797595231 -1.8258911530632527,5.615181037337902 -1.9637277189277222,6.122714859710914" fill="#000000" fill-opacity="1" stroke="none"/><polygon points="-7.490454331184896,26.472907605281783 -7.052306099071943,23.888773105155412 -7.052305815891806,24.859582510165758" fill="#000000" fill-opacity="1" stroke="none"/><polygon points="20.78972053011617,1.1380153768768153 26.53871508996461,-0.00010113246680898413 34.60717189349935,1.5971896058848079" fill="#000000" fill-opacity="1" stroke="none"/><polygon points="5.353768913619112,4.193838649847147 8.94315158886417,3.483256018654663 23.727171080428526,14.940360312692269" fill="#000000" fill-opacity="1" stroke="none"/><polygon points="1.325552008310033,4.991296381877113 4.350356773040234,4.392482066705547 29.724624908615027,33.287307739592976" fill="#000000" fill-opacity="1" stroke="none"/><polygon points="-1.4914248361963587,5.548967435449296 1.0685010775087607,5.0421842206185685 2.7152008052626777,11.10555262998387" fill="#000000" fill-opacity="1" stroke="none"/></g>
              <g id="lineLayer"/>
            </g>
            <g id="labelLayer"/>
            <g id="pointLayer"/>
          </g>
        </svg>