<svg id="svgRoot" xmlns="http://www.w3.org/2000/svg" width="1403" height="994" viewBox="0 0 1403 994">
        <defs>
          <clipPath id="viewportClip"><rect id="clipRect" x="0" y="0" width="1403" height="994"/></clipPath>
        </defs>
        <rect id="bgRect" x="0" y="0" width="100%" height="100%" fill="#ffffff"/>
        <g id="viewportGroup" clip-path="url(#viewportClip)">
            <g id="sceneGroup" transform="matrix(13.751586777674058 0 0 -13.751586777674058 687.9163284791939 497.0000183564416)">
              <g id="polyLayer"><g><clipPath id="_ec0"><polygon points="-12.611230298338828,-36.141282433707694 -11.861801183592434,-36.1412824337076 -10.874357404215516,-31.804328381476807"/></clipPath><path d="M-11.861801183592434,-36.1412824337076L-10.874357404215516,-31.804328381476807M-10.874357404215516,-31.804328381476807L-12.611230298338828,-36.141282433707694" fill="none" stroke="#000000" stroke-width="0.6" stroke-opacity="1" vector-effect="non-scaling-stroke" clip-path="url(#_ec0)"/></g><g><clipPath id="_ec1"><polygon points="-22.978829193790162,-36.141282433707694 -21.258264468297057,-36.14128243370942 -10.599571685543197,-16.9879168224561"/></clipPath><path d="M-21.258264468297057,-36.14128243370942L-10.599571685543197,-16.9879168224561M-10.599571685543197,-16.9879168224561L-22.978829193790162,-36.141282433707694" fill="none" stroke="#000000" stroke-width="0.6" stroke-opacity="1" vector-effect="non-scaling-stroke" clip-path="url(#_ec1)"/></g><g><clipPath id="_ec2"><polygon points="-32.18496301048981,-36.14128243370942 -16.16352742718118,-16.41542996357748 -43.19797682311757,-36.1412824337077"/></clipPath><path d="M-32.18496301048981,-36.14128243370942L-16.16352742718118,-16.41542996357748M-16.16352742718118,-16.41542996357748L-43.19797682311757,-36.1412824337077" fill="none" stroke="#000000" stroke-width="0.6" stroke-opacity="1" vector-effect="non-scaling-stroke" clip-path="url(#_ec2)"/></g><g><clipPath id="_ec3"><polygon points="-50.024505506232785,-12.474493090389863 -38.46652957092192,-9.12334940909659 -50.024505506232785,-10.777182484573903"/></clipPath><path d="M-50.024505506232785,-12.474493090389863L-38.46652957092192,-9.12334940909659M-38.46652957092192,-9.12334940909659L-50.024505506232785,-10.777182484573903" fill="none" stroke="#000000" stroke-width="0.6" stroke-opacity="1" vector-effect="non-scaling-stroke" clip-path="url(#_ec3)"/></g><g><clipPath id="_ec4"><polygon points="-50.02450550623291,-1.3881977967618795 -14.706958756043544,0.0000017605978479273698 -50.024505506232785,1.3881921820879835"/></clipPath><path d="M-50.02450550623291,-1.3881977967618795L-14.706958756043544,0.0000017605978479273698M-14.706958756043544,0.0000017605978479273698L-50.024505506232785,1.3881921820879835" fill="none" stroke="#000000" stroke-width="0.6" stroke-opacity="1" vector-effect="non-scaling-stroke" clip-path="url(#_ec4)"/></g><g><clipPath id="_ec5"><polygon points="-9.104996475769722,-27.386252036084414 -9.10499544632795,-36.141282433707694 4.595605057492136,-36.14128243370769 -1.6411128135209765,-8.749010011122664"/></clipPath><path d="M-9.104996475769722,-27.386252036084414L-9.10499544632795,-36.141282433707694M4.595605057492136,-36.14128243370769L-1.6411128135209765,-8.749010011122664M-1.6411128135209765,-8.749010011122664L-9.104996475769722,-27.386252036084414" fill="none" stroke="#000000" stroke-width="0.6" stroke-opacity="1" vector-effect="non-scaling-stroke" clip-path="url(#_ec5)"/></g><g><clipPath id="_ec6"><polygon points="18.966412840793467,-36.14128243370769 9.586004745909122,-19.284967594538102 16.33666360661884,-36.141282433707694"/></clipPath><path d="M18.966412840793467,-36.14128243370769L9.586004745909122,-19.284967594538102M9.586004745909122,-19.284967594538102L16.33666360661884,-36.141282433707694" fill="none" stroke="#000000" stroke-width="0.6" stroke-opacity="1" vector-effect="non-scaling-stroke" clip-path="url(#_ec6)"/></g><g><clipPath id="_ec7"><polygon points="26.52331667820726,-36.141282433707694 12.890824767066078,-19.35674501329231 23.739060502740102,-36.141282433707694"/></clipPath><path d="M26.52331667820726,-36.141282433707694L12.890824767066078,-19.35674501329231M12.890824767066078,-19.35674501329231L23.739060502740102,-36.141282433707694" fill="none" stroke="#000000" stroke-width="0.6" stroke-opacity="1" vector-effect="non-scaling-stroke" clip-path="url(#_ec7)"/></g><g><clipPath id="_ec8"><polygon points="52.00008428712681,-17.106707065980572 15.126487675424869,-6.415510059832286 52.000084287128004,-33.320543427714156"/></clipPath><path d="M52.00008428712681,-17.106707065980572L15.126487675424869,-6.415510059832286M15.126487675424869,-6.415510059832286L52.000084287128004,-33.320543427714156" fill="none" stroke="#000000" stroke-width="0.6" stroke-opacity="1" vector-effect="non-scaling-stroke" clip-path="url(#_ec8)"/></g><g><clipPath id="_ec9"><polygon points="52.00008428712863,-2.621983250237122 40.44211191824979,-2.1676859388238654 52.000084287128004,-3.8215154473096105"/></clipPath><path d="M52.00008428712863,-2.621983250237122L40.44211191824979,-2.1676859388238654M40.44211191824979,-2.1676859388238654L52.000084287128004,-3.8215154473096105" fill="none" stroke="#000000" stroke-width="0.6" stroke-opacity="1" vector-effect="non-scaling-stroke" clip-path="url(#_ec9)"/></g><g><clipPath id="_ec10"><polygon points="-50.0245055062328,10.77717641716934 -38.46653313735078,9.123346908683061 -50.024505506232785,12.474486231721503"/></clipPath><path d="M-50.0245055062328,10.77717641716934L-38.46653313735078,9.123346908683061M-38.46653313735078,9.123346908683061L-50.024505506232785,12.474486231721503" fill="none" stroke="#000000" stroke-width="0.6" stroke-opacity="1" vector-effect="non-scaling-stroke" clip-path="url(#_ec10)"/></g><g><clipPath id="_ec11"><polygon points="-43.197992970273845,36.141285103427435 -16.163532492932063,16.41543441180511 -32.184974922846024,36.14128510342747"/></clipPath><path d="M-43.197992970273845,36.141285103427435L-16.163532492932063,16.41543441180511M-16.163532492932063,16.41543441180511L-32.184974922846024,36.14128510342747" fill="none" stroke="#000000" stroke-width="0.6" stroke-opacity="1" vector-effect="non-scaling-stroke" clip-path="url(#_ec11)"/></g><g><clipPath id="_ec12"><polygon points="-22.978838989020005,36.141285103429254 -10.599575471953358,16.98792074058474 -21.258273759670455,36.141285103427464"/></clipPath><path d="M-22.978838989020005,36.141285103429254L-10.599575471953358,16.98792074058474M-10.599575471953358,16.98792074058474L-21.258273759670455,36.141285103427464" fill="none" stroke="#000000" stroke-width="0.6" stroke-opacity="1" vector-effect="non-scaling-stroke" clip-path="url(#_ec12)"/></g><g><clipPath id="_ec13"><polygon points="-12.611238688462436,36.141285103429254 -10.874364550757491,31.80433105120028 -11.861809419368923,36.14128510342747"/></clipPath><path d="M-12.611238688462436,36.141285103429254L-10.874364550757491,31.80433105120028M-10.874364550757491,31.80433105120028L-11.861809419368923,36.14128510342747" fill="none" stroke="#000000" stroke-width="0.6" stroke-opacity="1" vector-effect="non-scaling-stroke" clip-path="url(#_ec13)"/></g><g><clipPath id="_ec14"><polygon points="52.000084287127976,3.821536361757232 40.442111236689016,2.16770369907681 52.000084287128004,2.62200402707196"/></clipPath><path d="M52.000084287127976,3.821536361757232L40.442111236689016,2.16770369907681M40.442111236689016,2.16770369907681L52.000084287128004,2.62200402707196" fill="none" stroke="#000000" stroke-width="0.6" stroke-opacity="1" vector-effect="non-scaling-stroke" clip-path="url(#_ec14)"/></g><g><clipPath id="_ec15"><polygon points="52.000084287128004,33.320569050695084 15.126487017330874,6.415521748480387 52.000084287128004,17.106729550680264"/></clipPath><path d="M52.000084287128004,33.320569050695084L15.126487017330874,6.415521748480387M15.126487017330874,6.415521748480387L52.000084287128004,17.106729550680264" fill="none" stroke="#000000" stroke-width="0.6" stroke-opacity="1" vector-effect="non-scaling-stroke" clip-path="url(#_ec15)"/></g><g><clipPath id="_ec16"><polygon points="23.739044576330343,36.141285103427435 12.890820504992007,19.35675648911274 26.52329820894088,36.14128510342747"/></clipPath><path d="M23.739044576330343,36.141285103427435L12.890820504992007,19.35675648911274M12.890820504992007,19.35675648911274L26.52329820894088,36.14128510342747" fill="none" stroke="#000000" stroke-width="0.6" stroke-opacity="1" vector-effect="non-scaling-stroke" clip-path="url(#_ec16)"/></g><g><clipPath id="_ec17"><polygon points="16.33665127036602,36.141285103427435 9.586000186215642,19.284977613304363 18.96639873524619,36.14128510342747"/></clipPath><path d="M16.33665127036602,36.141285103427435L9.586000186215642,19.284977613304363M9.586000186215642,19.284977613304363L18.96639873524619,36.14128510342747" fill="none" stroke="#000000" stroke-width="0.6" stroke-opacity="1" vector-effect="non-scaling-stroke" clip-path="url(#_ec17)"/></g><g><clipPath id="_ec18"><polygon points="-9.105003945521107,36.141285103429254 -9.1050029160795,27.386256105646844 -1.6411149448542561,8.74901666528266 4.595595139348952,36.14128510342748"/></clipPath><path d="M-9.105003945521107,36.141285103429254L-9.1050029160795,27.386256105646844M-9.1050029160795,27.386256105646844L-1.6411149448542561,8.74901666528266M-1.6411149448542561,8.74901666528266L4.595595139348952,36.14128510342748" fill="none" stroke="#000000" stroke-width="0.6" stroke-opacity="1" vector-effect="non-scaling-stroke" clip-path="url(#_ec18)"/></g><polygon points="-10.874357404215534,-31.804328381478317 -9.104996475769722,-27.386252036085352 -9.104996870041148,-24.03311598558321" fill="#000000" fill-opacity="1" stroke="none"/><polygon points="-10.599571685543825,-16.987916822455915 -9.104997970337754,-14.675490832348027 -9.104998014229105,-14.302210747320466" fill="#000000" fill-opacity="1" stroke="none"/><polygon points="-16.163527427180163,-16.415429963577186 -9.104998371337745,-11.265130774106586 -9.104998787613656,-7.72485452317532" fill="#000000" fill-opacity="1" stroke="none"/><polygon points="-38.46652957092209,-9.123349409096589 -9.104999117181134,-4.922002176431224 -9.104999624174576,-0.6102060953490618" fill="#000000" fill-opacity="1" stroke="none"/><polygon points="-4.933600595507058,-8.221444701009283 -2.2131726079207614,-6.236467668452935 -2.587645008010919,-4.591748409035541" fill="#000000" fill-opacity="1" stroke="none"/><polygon points="-5.815718922781314,-9.586270888962302 -4.933600595507058,-8.22144470100928 -5.618805958305651,-8.721409013222674" fill="#000000" fill-opacity="1" stroke="none"/><polygon points="-3.43336393417117,-4.110446770000071 -2.720454448331587,-4.008436409872831 -2.9109625213405836,-3.1717063953859057" fill="#000000" fill-opacity="1" stroke="none"/><polygon points="-5.355318082813005,-7.5641433205344555 -3.4333639341711706,-4.110446770000071 -4.607218593911721,-4.278413866743284" fill="#000000" fill-opacity="1" stroke="none"/><polygon points="-3.945600425574291,-1.372519216203669 -3.625577983573661,-0.9785023726311664 -3.8416277331582496,-0.9158605191591144" fill="#000000" fill-opacity="1" stroke="none"/><polygon points="-9.104997970337754,-14.675490832348027 -9.104996870041148,-24.03311598558225 -5.815718922781313,-9.586270888962302" fill="#000000" fill-opacity="1" stroke="none"/><polygon points="-6.25946537159077,-9.188870099075675 -5.61880595830565,-8.721409013222672 -5.355318082813005,-7.5641433205344555" fill="#000000" fill-opacity="1" stroke="none"/><polygon points="-9.104998371337745,-11.265130774106586 -9.104998014229105,-14.302210747320464 -6.25946537159077,-9.188870099075675" fill="#000000" fill-opacity="1" stroke="none"/><polygon points="-6.529146211048454,-4.553422871752822 -4.607218593911721,-4.278413866743284 -3.945600425574291,-1.3725192162036688" fill="#000000" fill-opacity="1" stroke="none"/><polygon points="-9.104999117181134,-4.922002176431224 -9.104998787613656,-7.7248545231753205 -6.529146211048453,-4.553422871752822" fill="#000000" fill-opacity="1" stroke="none"/><polygon points="-9.104999670033951,-0.22018867334661846 -9.104999624174576,-0.6102060953490613 -7.920429478531414,-0.2667493533694388" fill="#000000" fill-opacity="1" stroke="none"/><polygon points="0.01672308071001205,-4.6094105483503975 0.5794631000290185,-4.1988038281042845 0.31269953063062994,-3.8703603460061133" fill="#000000" fill-opacity="1" stroke="none"/><polygon points="-2.213172607920855,-6.236467668453003 -1.6411128135208852,-8.749010011123776 0.01672308071001205,-4.6094105483503975" fill="#000000" fill-opacity="1" stroke="none"/><polygon points="-2.1586831517109624,-3.9280524433024793 0.09736279024726227,-3.6052343807377447 -1.0427662244509976,-2.2014896922363785" fill="#000000" fill-opacity="1" stroke="none"/><polygon points="-2.720454448331648,-4.00843640987284 -2.5876450080109743,-4.5917484090356275 -2.1586831517109624,-3.9280524433024793" fill="#000000" fill-opacity="1" stroke="none"/><polygon points="-3.395099964388076,-1.045327584574768 -2.9109625213406156,-3.171706395385963 -1.9593143307019254,-1.4616218568688977" fill="#000000" fill-opacity="1" stroke="none"/><polygon points="2.520806666019105,-6.589016412981014 9.586004745909193,-19.2849675945371 6.428115879018207,-11.399756674276386" fill="#000000" fill-opacity="1" stroke="none"/><polygon points="0.5794631000288857,-4.198803828104382 2.520806666019988,-6.5890164129826 1.0141629570514121,-3.8816224007030167" fill="#000000" fill-opacity="1" stroke="none"/><polygon points="0.43842219576087926,-3.556432122565724 0.8040802630408368,-3.504110036988857 0.6036307080486454,-3.143908138079733" fill="#000000" fill-opacity="1" stroke="none"/><polygon points="0.09736279024711547,-3.605234380737766 0.3126995306305691,-3.8703603460062665 0.43842219576087926,-3.556432122565724" fill="#000000" fill-opacity="1" stroke="none"/><polygon points="-1.5464689738187438,-1.5813229831243945 -1.0427662244510199,-2.201489692236413 -0.784692238223729,-1.8021939017036261" fill="#000000" fill-opacity="1" stroke="none"/><polygon points="1.7090091753055483,-3.3746235789415784 2.489067349044113,-3.2630048997069285 2.288109179489611,-2.952079694999793" fill="#000000" fill-opacity="1" stroke="none"/><polygon points="0.8040802630408368,-3.504110036988857 1.0141629570514124,-3.881622400703017 1.7090091753055483,-3.3746235789415784" fill="#000000" fill-opacity="1" stroke="none"/><polygon points="-0.019570097812485532,-2.024034792979914 0.6036307080486453,-3.143908138079733 0.9406254701076162,-2.302435625129989" fill="#000000" fill-opacity="1" stroke="none"/><polygon points="4.277918761215213,-6.030740059481568 6.42811587901898,-11.399756674278319 12.890824767064272,-19.35674501329186" fill="#000000" fill-opacity="1" stroke="none"/><polygon points="2.4890673490441126,-3.2630048997069285 4.277918761215211,-6.030740059481568 3.132610962599866,-3.1709201160417284" fill="#000000" fill-opacity="1" stroke="none"/><polygon points="2.082145580232652,-2.6334100215888774 2.288109179489611,-2.952079694999793 2.542084007869365,-2.7667653975871476" fill="#000000" fill-opacity="1" stroke="none"/><polygon points="3.027068876836033,-2.907382783890008 3.1326109625998657,-3.170920116041728 3.6705302615453856,-3.0939491365628937" fill="#000000" fill-opacity="1" stroke="none"/><polygon points="-3.6255779835736557,-0.9785023726311598 -3.3950999643880784,-1.0453275845747585 -3.457446388954608,-0.7714960145693142" fill="#000000" fill-opacity="1" stroke="none"/><polygon points="-5.791827374404548,-0.35041612312028025 -3.841627733158248,-0.9158605191591075 -3.731326473815286,-0.4314061090301732" fill="#000000" fill-opacity="1" stroke="none"/><polygon points="-1.9593143307019183,-1.4616218568688855 -1.5464689738187625,-1.5813229831243731 -1.830986543089789,-1.231020498492612" fill="#000000" fill-opacity="1" stroke="none"/><polygon points="-3.5331046849169883,-0.43919740865315116 -3.457446388954608,-0.7714960145693142 -3.1982421279733573,-0.4523595061610239" fill="#000000" fill-opacity="1" stroke="none"/><polygon points="-0.7846922382237189,-1.8021939017036104 -0.019570097812499965,-2.0240347929798883 -0.4398964285683856,-1.2687208562356913" fill="#000000" fill-opacity="1" stroke="none"/><polygon points="-2.4391867250016617,-0.48219491481040855 -1.830986543089789,-1.231020498492612 -1.4362097432691852,-0.5216178976371716" fill="#000000" fill-opacity="1" stroke="none"/><polygon points="0.9406254701076255,-2.3024356251299665 2.0821455802326283,-2.633410021588841 1.2955040054638354,-1.4163075111094334" fill="#000000" fill-opacity="1" stroke="none"/><polygon points="-0.8426706565896771,-0.5449475269779774 -0.4398964285683857,-1.2687208562356913 0.006326580223587119,-0.578318186620679" fill="#000000" fill-opacity="1" stroke="none"/><polygon points="2.542084007869396,-2.7667653975871254 3.0270688768360174,-2.907382783889971 2.873816908879619,-2.5247144436735027" fill="#000000" fill-opacity="1" stroke="none"/><polygon points="0.7733785374761624,-0.6084679075901169 1.2955040054638354,-1.4163075111094332 1.6059240037973377,-0.6411919144407882" fill="#000000" fill-opacity="1" stroke="none"/><polygon points="3.6705302615454682,-3.093949136562882 15.126487675425793,-6.4155100598324735 9.442364006473163,-2.2680562979773207" fill="#000000" fill-opacity="1" stroke="none"/><polygon points="2.127712786266893,-0.6617013285002841 2.873816908879619,-2.5247144436735023 5.258442502296155,-0.7847576957731062" fill="#000000" fill-opacity="1" stroke="none"/><polygon points="7.531962256044764,-0.8741205942650723 9.442364006473163,-2.2680562979773207 16.67302855801784,-1.2334190691099391" fill="#000000" fill-opacity="1" stroke="none"/><polygon points="-14.706958756039967,0.0000017605979110157932 -9.104999670033067,-0.2201886733464562 -9.104999721814961,0.22019364161013105" fill="#000000" fill-opacity="1" stroke="none"/><polygon points="-7.920429478530881,-0.26674935336928407 -5.7918273744053295,-0.3504161231201124 -7.000410889546948,0.0000027577617507379415" fill="#000000" fill-opacity="1" stroke="none"/><polygon points="-9.104999767674752,0.6102110471769379 -9.104999721814961,0.220193641610131 -7.920429556906097,0.26675462700980945" fill="#000000" fill-opacity="1" stroke="none"/><polygon points="-38.4665331373501,9.12334690868296 -9.104999767674752,0.6102110471769375 -9.105000274668189,4.922007096396294" fill="#000000" fill-opacity="1" stroke="none"/><polygon points="-3.731326473815255,-0.4314061090300383 -3.53310468491702,-0.43919740865301393 -3.6331026015303145,0.0000031821406428766963" fill="#000000" fill-opacity="1" stroke="none"/><polygon points="-5.7918275171686675,0.3504219448521132 -3.7313265803163196,0.43141246519346144 -3.841627961694832,0.9158668769202593" fill="#000000" fill-opacity="1" stroke="none"/><polygon points="-7.920429556906098,0.26675462700980934 -7.000410889546949,0.000002757761750626919 -5.791827517168668,0.3504219448521131" fill="#000000" fill-opacity="1" stroke="none"/><polygon points="-3.19824212797325,-0.45235950616089227 -2.4391867250017736,-0.48219491481026866 -2.830830761547428,0.0000033531022013422174" fill="#000000" fill-opacity="1" stroke="none"/><polygon points="-3.533104785342588,0.43920381633084216 -3.198242148548052,0.45236600359890294 -3.4574465504888945,0.7715025204052604" fill="#000000" fill-opacity="1" stroke="none"/><polygon points="-3.7313265803163196,0.4314124651934614 -3.6331026015303145,0.000003182140642765674 -3.533104785342588,0.4392038163308422" fill="#000000" fill-opacity="1" stroke="none"/><polygon points="-3.945600788020303,1.3725256583749312 -3.841627961694832,0.915866876920259 -3.625578171808854,0.978508804215608" fill="#000000" fill-opacity="1" stroke="none"/><polygon points="-6.529147208875472,4.553428450093047 -3.9456007880203035,1.372525658374931 -4.607219605681331,4.2784199553596185" fill="#000000" fill-opacity="1" stroke="none"/><polygon points="-1.4362097432691114,-0.5216178976370395 -0.8426706565897539,-0.5449475269778397 -1.1459316629823466,0.0000034975927017955044" fill="#000000" fill-opacity="1" stroke="none"/><polygon points="-2.4391869440998537,0.48220160079595165 -1.4362098860930863,0.5216248460687705 -1.8309868944909033,1.2310274091031275" fill="#000000" fill-opacity="1" stroke="none"/><polygon points="-3.1982421485480526,0.452366003598903 -2.830830761547428,0.000003353102201231195 -2.4391869440998537,0.48220160079595176" fill="#000000" fill-opacity="1" stroke="none"/><polygon points="-3.3951001996107415,1.045334068823517 -1.9593147238063702,1.46162870828844 -2.9109632827805445,3.1717129140128284" fill="#000000" fill-opacity="1" stroke="none"/><polygon points="-3.6255781718088547,0.9785088042156078 -3.4574465504888945,0.7715025204052596 -3.395100199610742,1.045334068823517" fill="#000000" fill-opacity="1" stroke="none"/><polygon points="0.00632658022367194,-0.578318186620548 0.7733785374760744,-0.6084679075899796 0.3801092240643719,0.0000037064212417003972" fill="#000000" fill-opacity="1" stroke="none"/><polygon points="-0.8426707729819232,0.5449546299839623 0.0063264335100207125,0.5783255080516878 -0.4398967332256807,1.2687280419219826" fill="#000000" fill-opacity="1" stroke="none"/><polygon points="-1.4362098860930863,0.5216248460687704 -1.1459316629823464,0.000003497592701684482 -0.8426707729819233,0.5449546299839622" fill="#000000" fill-opacity="1" stroke="none"/><polygon points="-1.5464694417032212,1.5813299316008158 -0.7846927186570056,1.8022010656367917 -1.0427668164120152,2.201496808885107" fill="#000000" fill-opacity="1" stroke="none"/><polygon points="-1.9593147238063706,1.46162870828844 -1.8309868944909033,1.231027409103127 -1.5464694417032212,1.5813299316008158" fill="#000000" fill-opacity="1" stroke="none"/><polygon points="-3.433364931804813,4.110453167036234 -2.910963282780545,3.1717129140128284 -2.720455405977937,4.008442989726259" fill="#000000" fill-opacity="1" stroke="none"/><polygon points="1.60592400379739,-0.6411919144406567 2.127712786266839,-0.6617013285001487 1.862711472545699,0.000003798220988171508" fill="#000000" fill-opacity="1" stroke="none"/><polygon points="0.7733783900972787,0.6084754274143805 1.6059237658023384,0.6411996460644046 1.2955036073018853,1.4163150876938244" fill="#000000" fill-opacity="1" stroke="none"/><polygon points="0.006326433510020879,0.5783255080516877 0.3801092240643721,0.0000037064212414783526 0.7733783900972786,0.6084754274143804" fill="#000000" fill-opacity="1" stroke="none"/><polygon points="-0.019570528588048863,2.0240421913682844 0.9406248057457709,2.3024432319544212 0.6036298979745924,3.1439155062607984" fill="#000000" fill-opacity="1" stroke="none"/><polygon points="-0.7846927186570054,1.8022010656367915 -0.43989673322568046,1.2687280419219826 -0.019570528588048863,2.0240421913682844" fill="#000000" fill-opacity="1" stroke="none"/><polygon points="-2.158684106921235,3.928059171375729 -1.0427668164120154,2.2014968088851075 0.09736178327703682,3.6052417128607264" fill="#000000" fill-opacity="1" stroke="none"/><polygon points="5.258442502296326,-0.7847576957729813 7.531962256044578,-0.8741205942649345 6.333965771576591,0.000004480341602386417" fill="#000000" fill-opacity="1" stroke="none"/><polygon points="2.12771270722404,0.6617092013469479 5.258442349428325,0.7847663755686445 2.8738163801749588,2.524722527616924" fill="#000000" fill-opacity="1" stroke="none"/><polygon points="1.6059237658023386,0.6411996460644046 1.862711472545699,0.0000037982209883935525 2.12771270722404,0.6617092013469478" fill="#000000" fill-opacity="1" stroke="none"/><polygon points="2.082144995660259,2.633417979861072 2.5420833380791517,2.7667734634343404 2.2881084970968844,2.9520876773741227" fill="#000000" fill-opacity="1" stroke="none"/><polygon points="0.9406248057457709,2.3024432319544212 1.2955036073018853,1.4163150876938244 2.0821449956602596,2.633417979861072" fill="#000000" fill-opacity="1" stroke="none"/><polygon points="0.438421249177662,3.5564395362459376 0.6036298979745927,3.1439155062607984 0.8040794082031897,3.504117534244674" fill="#000000" fill-opacity="1" stroke="none"/><polygon points="16.67302855801853,-1.2334190691098403 40.44211191824979,-2.1676859388237517 25.292948051217188,0.000006925683090130974" fill="#000000" fill-opacity="1" stroke="none"/><polygon points="7.531962076591887,0.874129861125017 16.673028191784297,1.2334306932202717 9.442363507591125,2.2680660288163423" fill="#000000" fill-opacity="1" stroke="none"/><polygon points="5.258442349428325,0.7847663755686445 6.333965771576591,0.000004480341602608462 7.531962076591887,0.8741298611250171" fill="#000000" fill-opacity="1" stroke="none"/><polygon points="3.0270682975256573,2.90739101545797 3.670529218688926,3.0939574187957395 3.132610252000184,3.1709282084715715" fill="#000000" fill-opacity="1" stroke="none"/><polygon points="2.542083338079152,2.7667734634343404 2.8738163801749588,2.5247225276169245 3.0270682975256573,2.90739101545797" fill="#000000" fill-opacity="1" stroke="none"/><polygon points="1.709008593796348,3.374631276408154 2.2881084970968844,2.952087677374123 2.4890665274089265,3.263012837830583" fill="#000000" fill-opacity="1" stroke="none"/><polygon points="-9.10500060423567,7.72485946840846 -9.105000274668189,4.922007096396297 -6.529147208875472,4.553428450093049" fill="#000000" fill-opacity="1" stroke="none"/><polygon points="-16.16353249293268,16.415434411805748 -9.10500060423567,7.724859468408461 -9.105001020511619,11.265136034525717" fill="#000000" fill-opacity="1" stroke="none"/><polygon points="-5.355319845758302,7.564149083950275 -4.607219605681331,4.278419955359621 -3.4333649318048143,4.110453167036236" fill="#000000" fill-opacity="1" stroke="none"/><polygon points="-6.259467915607811,9.188876321022459 -5.355319845758302,7.564149083950275 -5.618808103219669,8.721415177720448" fill="#000000" fill-opacity="1" stroke="none"/><polygon points="-2.7204554059779364,4.008442989726261 -2.1586841069212364,3.928059171375731 -2.5876461099276975,4.591754998681694" fill="#000000" fill-opacity="1" stroke="none"/><polygon points="0.0973617832770377,3.6052417128607277 0.4384212491776607,3.5564395362459393 0.31269848889047125,3.870367772522941" fill="#000000" fill-opacity="1" stroke="none"/><polygon points="-4.933602996719847,8.221451302529342 -2.5876461099276975,4.591754998681694 -2.2131740530444715,6.236474564965664" fill="#000000" fill-opacity="1" stroke="none"/><polygon points="0.8040794082031906,3.504117534244676 1.709008593796348,3.374631276408156 1.014162073137047,3.881630065291192" fill="#000000" fill-opacity="1" stroke="none"/><polygon points="0.016721745621783635,4.609418178202092 0.31269848889047125,3.870367772522941 0.5794620708597302,4.198811440068653" fill="#000000" fill-opacity="1" stroke="none"/><polygon points="-9.105001377620194,14.302215467453795 -9.105001020511619,11.265136034525604 -6.259467915607733,9.188876321022317" fill="#000000" fill-opacity="1" stroke="none"/><polygon points="-10.599575471952797,16.987920740583277 -9.105001377620194,14.302215467453793 -9.10500142151154,14.675495504955375" fill="#000000" fill-opacity="1" stroke="none"/><polygon points="-5.815721153130105,9.58627647468217 -5.6188081032196475,8.721415177720354 -4.933602996719763,8.22145130252921" fill="#000000" fill-opacity="1" stroke="none"/><polygon points="-9.105002521808144,24.033120662412912 -9.10500142151154,14.675495504955814 -5.815721153130137,9.586276474682315" fill="#000000" fill-opacity="1" stroke="none"/><polygon points="-10.874364550757086,31.804331051199366 -9.105002521808144,24.033120662412916 -9.105002916079497,27.386256105646922" fill="#000000" fill-opacity="1" stroke="none"/><polygon points="-2.2131740530444795,6.2364745649656275 0.01672174562179407,4.609418178202066 -1.6411149448542532,8.749016665282669" fill="#000000" fill-opacity="1" stroke="none"/><polygon points="16.6730281917843,1.233430693220272 25.292948051217188,0.000006925683090575063 40.44211123668963,2.1677036990769785" fill="#000000" fill-opacity="1" stroke="none"/><polygon points="3.6705292186889307,3.093957418795741 9.442363507591129,2.2680660288163437 15.126487017332394,6.4155217484807725" fill="#000000" fill-opacity="1" stroke="none"/><polygon points="4.277917517575245,6.030748868515744 12.890820504991883,19.35675648911277 6.428113388091704,11.399766213007247" fill="#000000" fill-opacity="1" stroke="none"/><polygon points="2.4890665274089274,3.2630128378305847 3.1326102520001857,3.1709282084715733 4.27791751757484,6.0307488685151185" fill="#000000" fill-opacity="1" stroke="none"/><polygon points="2.520805408061734,6.589024980196992 6.4281133880908286,11.39976621300617 9.58600018621459,19.284977613303905" fill="#000000" fill-opacity="1" stroke="none"/><polygon points="0.5794620708597241,4.198811440068646 1.0141620731370442,3.8816300652911866 2.520805408061733,6.5890249801969905" fill="#000000" fill-opacity="1" stroke="none"/></g>
              <g id="lineLayer"/>
            </g>
            <g id="labelLayer"/>
            <g id="pointLayer"/>
          </g>
        </svg>