<svg id="svgRoot" xmlns="http://www.w3.org/2000/svg" width="1403" height="994" viewBox="0 0 1403 994">
        <defs>
          <clipPath id="viewportClip"><rect id="clipRect" x="0" y="0" width="1403" height="994"/></clipPath>
        </defs>
        <rect id="bgRect" x="0" y="0" width="100%" height="100%" fill="#ffffff"/>
        <g id="viewportGroup" clip-path="url(#viewportClip)">
            <g id="sceneGroup" transform="matrix(16.825269001181073 -0.5975097950244209 -0.5402181739989865 -15.195214088197249 666.3792436339168 491.39236872372084)">
              <g id="polyLayer"><g><clipPath id="_ec0"><polygon points="-10.601120077158974,-32.659846403705664 -10.176124749656083,-32.676558170287535 -9.385715820612859,-28.782718795640903"/></clipPath><path d="M-10.176124749656083,-32.676558170287535L-9.385715820612859,-28.782718795640903M-9.385715820612859,-28.782718795640903L-10.601120077158974,-32.659846403705664" fill="none" stroke="#000000" stroke-width="0.6" stroke-opacity="1" vector-effect="non-scaling-stroke" clip-path="url(#_ec0)"/></g><g><clipPath id="_ec1"><polygon points="-20.109431482443867,-32.285958338304006 -17.820568829026342,-32.37596153581944 -9.909120368548429,-16.62862375818986"/></clipPath><path d="M-17.820568829026342,-32.37596153581944L-9.909120368548429,-16.62862375818986M-9.909120368548429,-16.62862375818986L-20.109431482443867,-32.285958338304006" fill="none" stroke="#000000" stroke-width="0.6" stroke-opacity="1" vector-effect="non-scaling-stroke" clip-path="url(#_ec1)"/></g><g><clipPath id="_ec2"><polygon points="-32.91943198253466,-31.78224047499134 -20.886966463791396,-19.095788417675067 -37.89841624562138,-31.5864556805695"/></clipPath><path d="M-32.91943198253466,-31.78224047499134L-20.886966463791396,-19.095788417675067M-20.886966463791396,-19.095788417675067L-37.89841624562138,-31.5864556805695" fill="none" stroke="#000000" stroke-width="0.6" stroke-opacity="1" vector-effect="non-scaling-stroke" clip-path="url(#_ec2)"/></g><g><clipPath id="_ec3"><polygon points="-39.99795399083128,-12.21190266489591 -34.034504893345,-10.083212205958262 -39.96145280677772,-11.075061532698331"/></clipPath><path d="M-39.99795399083128,-12.21190266489591L-34.034504893345,-10.083212205958262M-34.034504893345,-10.083212205958262L-39.96145280677772,-11.075061532698331" fill="none" stroke="#000000" stroke-width="0.6" stroke-opacity="1" vector-effect="non-scaling-stroke" clip-path="url(#_ec3)"/></g><g><clipPath id="_ec4"><polygon points="-39.63842958896055,-1.0143993873136203 -13.779627895548472,0.00002637582652531556 -39.573370453250334,1.0118883460407704"/></clipPath><path d="M-39.63842958896055,-1.0143993873136203L-13.779627895548472,0.00002637582652531556M-13.779627895548472,0.00002637582652531556L-39.573370453250334,1.0118883460407704" fill="none" stroke="#000000" stroke-width="0.6" stroke-opacity="1" vector-effect="non-scaling-stroke" clip-path="url(#_ec4)"/></g><g><clipPath id="_ec5"><polygon points="-8.921960180696303,-27.303342871760847 -8.921958919574875,-32.72587477509007 3.1966477169919045,-33.20240548570513 -2.2931798517079187,-6.15759890805748"/></clipPath><path d="M-8.921960180696303,-27.303342871760847L-8.921958919574875,-32.72587477509007M3.1966477169919045,-33.20240548570513L-2.2931798517079187,-6.15759890805748M-2.2931798517079187,-6.15759890805748L-8.921960180696303,-27.303342871760847" fill="none" stroke="#000000" stroke-width="0.6" stroke-opacity="1" vector-effect="non-scaling-stroke" clip-path="url(#_ec5)"/></g><g><clipPath id="_ec6"><polygon points="15.366411790545218,-33.68094782113247 1.6150847665530819,-6.309658037791451 10.13092979601934,-33.47507696237089"/></clipPath><path d="M15.366411790545218,-33.68094782113247L1.6150847665530819,-6.309658037791451M1.6150847665530819,-6.309658037791451L10.13092979601934,-33.47507696237089" fill="none" stroke="#000000" stroke-width="0.6" stroke-opacity="1" vector-effect="non-scaling-stroke" clip-path="url(#_ec6)"/></g><g><clipPath id="_ec7"><polygon points="29.70393371323192,-34.24473124237672 9.039491686573456,-12.457158617062305 23.063380189608168,-33.98360982929765"/></clipPath><path d="M29.70393371323192,-34.24473124237672L9.039491686573456,-12.457158617062305M9.039491686573456,-12.457158617062305L23.063380189608168,-33.98360982929765" fill="none" stroke="#000000" stroke-width="0.6" stroke-opacity="1" vector-effect="non-scaling-stroke" clip-path="url(#_ec7)"/></g><g><clipPath id="_ec8"><polygon points="43.21897129519857,-17.492818318349237 15.439242662663673,-7.576684424756422 42.8901986871024,-27.73254707552683"/></clipPath><path d="M43.21897129519857,-17.492818318349237L15.439242662663673,-7.576684424756422M15.439242662663673,-7.576684424756422L42.8901986871024,-27.73254707552683" fill="none" stroke="#000000" stroke-width="0.6" stroke-opacity="1" vector-effect="non-scaling-stroke" clip-path="url(#_ec8)"/></g><g><clipPath id="_ec9"><polygon points="43.70821509778034,-2.2551625307258405 38.4672146415669,-2.0495634775580243 43.6867714600342,-2.9230315340903927"/></clipPath><path d="M43.70821509778034,-2.2551625307258405L38.4672146415669,-2.0495634775580243M38.4672146415669,-2.0495634775580243L43.6867714600342,-2.9230315340903927" fill="none" stroke="#000000" stroke-width="0.6" stroke-opacity="1" vector-effect="non-scaling-stroke" clip-path="url(#_ec9)"/></g><g><clipPath id="_ec10"><polygon points="-39.25406614286749,10.956723921747368 -34.03450932440319,10.083255865215506 -39.22264991406372,11.935192485129324"/></clipPath><path d="M-39.25406614286749,10.956723921747368L-34.03450932440319,10.083255865215506M-34.03450932440319,10.083255865215506L-39.22264991406372,11.935192485129324" fill="none" stroke="#000000" stroke-width="0.6" stroke-opacity="1" vector-effect="non-scaling-stroke" clip-path="url(#_ec10)"/></g><g><clipPath id="_ec11"><polygon points="-38.518913897255906,33.853277359914394 -38.57572736043932,32.08380375284643 -20.886977012438365,19.095839976260322 -34.74285220390709,33.70479417071527"/></clipPath><path d="M-38.57572736043932,32.08380375284643L-20.886977012438365,19.095839976260322M-20.886977012438365,19.095839976260322L-34.74285220390709,33.70479417071527" fill="none" stroke="#000000" stroke-width="0.6" stroke-opacity="1" vector-effect="non-scaling-stroke" clip-path="url(#_ec11)"/></g><g><clipPath id="_ec12"><polygon points="-20.673321673182727,33.15154877024179 -9.909128067894926,16.62867863809879 -18.160572040238833,33.05274183607084"/></clipPath><path d="M-20.673321673182727,33.15154877024179L-9.909128067894926,16.62867863809879M-9.909128067894926,16.62867863809879L-18.160572040238833,33.05274183607084" fill="none" stroke="#000000" stroke-width="0.6" stroke-opacity="1" vector-effect="non-scaling-stroke" clip-path="url(#_ec12)"/></g><g><clipPath id="_ec13"><polygon points="-10.631473578596342,32.75668084920835 -9.385729376119343,28.782775380514067 -10.188859828871065,32.739276286868225"/></clipPath><path d="M-10.631473578596342,32.75668084920835L-9.385729376119343,28.782775380514067M-9.385729376119343,28.782775380514067L-10.188859828871065,32.739276286868225" fill="none" stroke="#000000" stroke-width="0.6" stroke-opacity="1" vector-effect="non-scaling-stroke" clip-path="url(#_ec13)"/></g><g><clipPath id="_ec14"><polygon points="43.875490752173135,2.954691594781295 38.467213669960984,2.049639608301277 43.85321574554073,2.260929339765761"/></clipPath><path d="M43.875490752173135,2.954691594781295L38.467213669960984,2.049639608301277M38.467213669960984,2.049639608301277L43.85321574554073,2.260929339765761" fill="none" stroke="#000000" stroke-width="0.6" stroke-opacity="1" vector-effect="non-scaling-stroke" clip-path="url(#_ec14)"/></g><g><clipPath id="_ec15"><polygon points="44.714046977102974,29.071795269055958 15.43923979216379,7.576750436190196 44.35530045055499,17.898519168906475"/></clipPath><path d="M44.714046977102974,29.071795269055958L15.43923979216379,7.576750436190196M15.43923979216379,7.576750436190196L44.35530045055499,17.898519168906475" fill="none" stroke="#000000" stroke-width="0.6" stroke-opacity="1" vector-effect="non-scaling-stroke" clip-path="url(#_ec15)"/></g><g><clipPath id="_ec16"><polygon points="21.44236434905997,31.495465823571067 9.039486284950726,12.45722184868282 26.893025518426636,31.281133638506788"/></clipPath><path d="M21.44236434905997,31.495465823571067L9.039486284950726,12.45722184868282M9.039486284950726,12.45722184868282L26.893025518426636,31.281133638506788" fill="none" stroke="#000000" stroke-width="0.6" stroke-opacity="1" vector-effect="non-scaling-stroke" clip-path="url(#_ec16)"/></g><g><clipPath id="_ec17"><polygon points="9.655617531941061,31.958947064034874 1.6150819432932622,6.309717726166127 14.407359073431111,31.77209796154895"/></clipPath><path d="M9.655617531941061,31.958947064034874L1.6150819432932622,6.309717726166127M1.6150819432932622,6.309717726166127L14.407359073431111,31.77209796154895" fill="none" stroke="#000000" stroke-width="0.6" stroke-opacity="1" vector-effect="non-scaling-stroke" clip-path="url(#_ec17)"/></g><g><clipPath id="_ec18"><polygon points="-8.921974133257578,32.68945950851048 -8.921972880618336,27.303399060760917 -2.2931826531131128,6.15765687425387 2.9973574010619064,32.22076474050413"/></clipPath><path d="M-8.921974133257578,32.68945950851048L-8.921972880618336,27.303399060760917M-8.921972880618336,27.303399060760917L-2.2931826531131128,6.15765687425387M-2.2931826531131128,6.15765687425387L2.9973574010619064,32.22076474050413" fill="none" stroke="#000000" stroke-width="0.6" stroke-opacity="1" vector-effect="non-scaling-stroke" clip-path="url(#_ec18)"/></g><polygon points="-9.385715820612951,-28.782718795641657 -8.921960180696303,-27.303342871760833 -8.921960367973918,-26.49809222407748" fill="#000000" fill-opacity="1" stroke="none"/><polygon points="-9.909120368547695,-16.62862375818771 -8.921963015729855,-15.113351058786085 -8.92196312029681,-14.6637372136443" fill="#000000" fill-opacity="1" stroke="none"/><polygon points="-20.886966463791303,-19.09578841767358 -8.921964132736807,-10.310478239314339 -8.921965023484715,-6.480467235017619" fill="#000000" fill-opacity="1" stroke="none"/><polygon points="-34.03450489334559,-10.083212205958423 -8.921965162964483,-5.880736329991793 -8.921966270373026,-1.119134456228407" fill="#000000" fill-opacity="1" stroke="none"/><polygon points="-2.9238845472481083,-5.906384685881781 -2.419369579794496,-5.535944266726912 -2.4818927247483455,-5.22793343382871" fill="#000000" fill-opacity="1" stroke="none"/><polygon points="-5.56498962676132,-9.960443962058601 -2.9238845472481088,-5.906384685881781 -5.060511857786289,-7.47520457736751" fill="#000000" fill-opacity="1" stroke="none"/><polygon points="-4.104353826481312,-5.074529724099978 -2.565312647568352,-4.8169777800934455 -2.9709673267928953,-2.8185812549469262" fill="#000000" fill-opacity="1" stroke="none"/><polygon points="-4.891061675986785,-6.640431884793149 -4.104353826481312,-5.074529724099978 -4.589686282025624,-5.155748030099556" fill="#000000" fill-opacity="1" stroke="none"/><polygon points="-3.7521295904427285,-1.0296417775633668 -3.5371317757641663,-0.8029584378854977 -3.694698229498761,-0.7467141860773242" fill="#000000" fill-opacity="1" stroke="none"/><polygon points="-8.921963015729855,-15.113351058786085 -8.921960367973918,-26.498092224077716 -5.56498962676132,-9.960443962058601" fill="#000000" fill-opacity="1" stroke="none"/><polygon points="-5.45654048453097,-7.765988835422481 -5.060511857786289,-7.47520457736751 -4.891061675986785,-6.6404318847931485" fill="#000000" fill-opacity="1" stroke="none"/><polygon points="-8.921964132736807,-10.310478239314339 -8.92196312029681,-14.6637372136443 -5.45654048453097,-7.765988835422481" fill="#000000" fill-opacity="1" stroke="none"/><polygon points="-8.24583560779497,-5.767588947244583 -4.589686282025624,-5.155748030099555 -3.7521295904427285,-1.0296417775633664" fill="#000000" fill-opacity="1" stroke="none"/><polygon points="-8.921965162964483,-5.880736329991793 -8.921965023484715,-6.480467235017618 -8.24583560779497,-5.767588947244583" fill="#000000" fill-opacity="1" stroke="none"/><polygon points="-8.921966486338022,-0.19053468111050756 -8.921966270373026,-1.1191344562284062 -6.578113684226701,-0.2824816139346617" fill="#000000" fill-opacity="1" stroke="none"/><polygon points="-1.1080571412747275,-4.573112317815666 0.5991152196085394,-4.287424341220873 0.24391826046683618,-3.5804235636326407" fill="#000000" fill-opacity="1" stroke="none"/><polygon points="-2.002306364789501,-5.229715349554633 -1.1080571412747275,-4.573112317815666 -1.834587578169004,-4.694694072070091" fill="#000000" fill-opacity="1" stroke="none"/><polygon points="-1.5564221368711433,-3.807349053935763 -0.5824270061092162,-2.3122801808925786 -0.9622188253152103,-1.9118463422833765" fill="#000000" fill-opacity="1" stroke="none"/><polygon points="-2.419369579794659,-5.535944266727032 -2.2931798517078503,-6.157598908058862 -2.002306364789501,-5.229715349554633" fill="#000000" fill-opacity="1" stroke="none"/><polygon points="-2.1712001912451346,-4.751024749938055 -1.8345875781690042,-4.694694072070091 -1.5564221368711433,-3.807349053935763" fill="#000000" fill-opacity="1" stroke="none"/><polygon points="-2.5653126475685046,-4.816977780093471 -2.4818927247484788,-5.227933433828914 -2.1712001912451346,-4.751024749938055" fill="#000000" fill-opacity="1" stroke="none"/><polygon points="-3.367853097051391,-0.8633834357553698 -2.970967326792951,-2.8185812549470373 -2.198400577257427,-1.2808262380906057" fill="#000000" fill-opacity="1" stroke="none"/><polygon points="0.5991152196087912,-4.287424341220831 1.6150847665534296,-6.309658037790893 0.962110140502576,-4.2266786972305095" fill="#000000" fill-opacity="1" stroke="none"/><polygon points="-0.18006112454402334,-2.7365150020042357 0.2439182604669446,-3.5804235636325608 0.46581538399959543,-3.4174954668397683" fill="#000000" fill-opacity="1" stroke="none"/><polygon points="0.8282321514661266,-3.7996099043659974 0.962110140502576,-4.226678697230509 1.1961407656529888,-4.187514675311922" fill="#000000" fill-opacity="1" stroke="none"/><polygon points="-0.5824270061091802,-2.312280180892523 -0.180061124544185,-2.736515002003914 -0.47558816133158444,-2.148284051739472" fill="#000000" fill-opacity="1" stroke="none"/><polygon points="-1.234314099434119,-1.6249624507065512 -0.9622188253152011,-1.9118463422833474 -0.9087198648208709,-1.741185185208929" fill="#000000" fill-opacity="1" stroke="none"/><polygon points="0.4658153839997319,-3.4174954668396684 0.8282321514659878,-3.799609904365555 0.6630486065841539,-3.2726768541943327" fill="#000000" fill-opacity="1" stroke="none"/><polygon points="-0.6301589249692046,-1.840619114662776 -0.47558816133158444,-2.148284051739472 -0.3421326697701552,-1.9434317428638748" fill="#000000" fill-opacity="1" stroke="none"/><polygon points="1.196140765653275,-4.187514675311875 9.039491686574175,-12.457158617061582 3.4106218411007996,-3.8169307599743867" fill="#000000" fill-opacity="1" stroke="none"/><polygon points="0.3205036669603363,-2.1799635940096276 0.6630486065841539,-3.2726768541943327 1.5523761571853396,-2.6196875637607127" fill="#000000" fill-opacity="1" stroke="none"/><polygon points="2.957380167763487,-3.121211825362474 3.4106218411007996,-3.816930759974387 4.428989610704443,-3.6465112790867678" fill="#000000" fill-opacity="1" stroke="none"/><polygon points="-3.537131775764145,-0.8029584378854752 -3.367853097051399,-0.8633834357553327 -3.407798964493965,-0.6665961514478953" fill="#000000" fill-opacity="1" stroke="none"/><polygon points="-4.799795985496118,-0.35224318677656385 -3.6946982294987567,-0.7467141860772996 -3.623987763068406,-0.3983689330453836" fill="#000000" fill-opacity="1" stroke="none"/><polygon points="-2.1984005772574005,-1.2808262380905528 -1.234314099434242,-1.6249624507064218 -1.9775817539344542,-0.8412975454755186" fill="#000000" fill-opacity="1" stroke="none"/><polygon points="-3.460948130581391,-0.40476481000593956 -3.407798964493965,-0.6665961514478953 -3.170279840304702,-0.4161674278393239" fill="#000000" fill-opacity="1" stroke="none"/><polygon points="-0.9087198648208445,-1.741185185208845 -0.6301589249692661,-1.8406191146626538 -0.8208842489634913,-1.4609904357024746" fill="#000000" fill-opacity="1" stroke="none"/><polygon points="-2.350287530547188,-0.44833488210679384 -1.977581753934454,-0.8412975454755187 -1.7911769489378955,-0.4702682147129179" fill="#000000" fill-opacity="1" stroke="none"/><polygon points="-0.34213266977009865,-1.9434317428637877 0.3205036669602922,-2.1799635940094886 0.05517519985183994,-1.3335697321346482" fill="#000000" fill-opacity="1" stroke="none"/><polygon points="-1.3091221321860442,-0.4891787289796484 -0.8208842489634913,-1.4609904357024743 -0.5258721729225038,-0.5199048186573166" fill="#000000" fill-opacity="1" stroke="none"/><polygon points="1.55237615718548,-2.619687563760609 2.9573801677633296,-3.1212118253622307 2.2817563354575388,-2.0841397279331293" fill="#000000" fill-opacity="1" stroke="none"/><polygon points="-0.195834711978095,-0.5328518485320488 0.05517519985183994,-1.3335697321346482 0.5575659447672866,-0.5624069807967716" fill="#000000" fill-opacity="1" stroke="none"/><polygon points="4.428989610704868,-3.646511279086697 15.439242662663101,-7.576684424755729 9.036492368173278,-2.8754654432373865" fill="#000000" fill-opacity="1" stroke="none"/><polygon points="1.3096091342262355,-0.5919088610171321 2.2817563354575383,-2.0841397279331284 4.1616954858631985,-0.7037932728481255" fill="#000000" fill-opacity="1" stroke="none"/><polygon points="6.1870259336340325,-0.7832449015767518 9.036492368173276,-2.875465443237386 18.623528241453094,-1.2711160858228037" fill="#000000" fill-opacity="1" stroke="none"/><polygon points="-13.779627895546582,0.000026375826564617455 -8.921966486339443,-0.1905346811103641 -8.92196657497733,0.19058960650601026" fill="#000000" fill-opacity="1" stroke="none"/><polygon points="-6.578113684226443,-0.28248161393456933 -4.79979598549653,-0.35224318677643396 -5.786672790005253,0.000028164014547471528" fill="#000000" fill-opacity="1" stroke="none"/><polygon points="-8.921966790941317,1.1191893883848245 -8.92196657497733,0.1905896065060103 -6.578113812025986,0.28253758831642795" fill="#000000" fill-opacity="1" stroke="none"/><polygon points="-34.03450932440175,10.083255865215161 -8.921966790941319,1.1191893883848252 -8.92196789834986,5.880791265846503" fill="#000000" fill-opacity="1" stroke="none"/><polygon points="-3.623987763068383,-0.39836893304527154 -3.4609481305814143,-0.4047648100058258 -3.5431171914778425,0.000028661337602153836" fill="#000000" fill-opacity="1" stroke="none"/><polygon points="-4.799796141118966,0.3522999571146327 -3.623987947398943,0.3984262292583548 -3.694698572537919,0.7467714470155415" fill="#000000" fill-opacity="1" stroke="none"/><polygon points="-6.578113812025985,0.28253758831642783 -5.786672790005253,0.00002816401454763806 -4.799796141118966,0.3522999571146327" fill="#000000" fill-opacity="1" stroke="none"/><polygon points="-3.1702798403045995,-0.4161674278392153 -2.3502875305472988,-0.4483348821066774 -2.7755384884946177,0.000028839415986359196" fill="#000000" fill-opacity="1" stroke="none"/><polygon points="-3.460948313858705,0.4048221793351243 -3.1702800266306483,0.41622492732739036 -3.407799267049104,0.6666535473622636" fill="#000000" fill-opacity="1" stroke="none"/><polygon points="-3.623987947398943,0.39842622925835486 -3.5431171914778425,0.000028661337602153836 -3.460948313858705,0.4048221793351243" fill="#000000" fill-opacity="1" stroke="none"/><polygon points="-3.752130066108707,1.0296990281918723 -3.694698572537919,0.7467714470155415 -3.537132136485111,0.8030157720011946" fill="#000000" fill-opacity="1" stroke="none"/><polygon points="-8.245838221403226,5.7676441739714015 -3.752130066108707,1.0296990281918728 -4.589688644681645,5.155804897910335" fill="#000000" fill-opacity="1" stroke="none"/><polygon points="-1.7911769489378402,-0.4702682147128083 -1.3091221321861017,-0.4891787289795347 -1.5548999912851678,0.000029111979563289925" fill="#000000" fill-opacity="1" stroke="none"/><polygon points="-2.35028773678185,0.44839274833708626 -1.7911771602845705,0.4703263313378591 -1.9775821346169256,0.8413555825952357" fill="#000000" fill-opacity="1" stroke="none"/><polygon points="-3.1702800266306483,0.4162249273273903 -2.7755384884946177,0.000028839415986414707 -2.35028773678185,0.44839274833708637" fill="#000000" fill-opacity="1" stroke="none"/><polygon points="-3.3678534909208455,0.8634408434361847 -2.1984011533463543,1.2808841706922953 -2.9709686098931685,2.818638868360931" fill="#000000" fill-opacity="1" stroke="none"/><polygon points="-3.537132136485111,0.8030157720011944 -3.4077992670491035,0.6666535473622632 -3.3678534909208455,0.8634408434361847" fill="#000000" fill-opacity="1" stroke="none"/><polygon points="-0.5258721729224695,-0.519904818657207 -0.19583471197813052,-0.5328518485319366 -0.3628828954861142,0.000029371110082276886" fill="#000000" fill-opacity="1" stroke="none"/><polygon points="-1.3091223537012489,0.4892370612642286 -0.5258724113411709,0.5199635013339754 -0.8208849103985875,1.4610489834149147" fill="#000000" fill-opacity="1" stroke="none"/><polygon points="-1.7911771602845705,0.4703263313378591 -1.5548999912851678,0.000029111979563456458 -1.3091223537012489,0.4892370612642285" fill="#000000" fill-opacity="1" stroke="none"/><polygon points="-1.2343148471978211,1.6250208083900772 -0.9087206522787211,1.7412436929791177 -0.9622196920041504,1.9119048336146343" fill="#000000" fill-opacity="1" stroke="none"/><polygon points="-2.198401153346354,1.280884170692295 -1.9775821346169256,0.8413555825952359 -1.2343148471978211,1.6250208083900772" fill="#000000" fill-opacity="1" stroke="none"/><polygon points="-4.104356113331418,5.074586802643982 -2.970968609893168,2.8186388683609307 -2.5653148498609766,4.8170355529726745" fill="#000000" fill-opacity="1" stroke="none"/><polygon points="0.5575659447673567,-0.562406980796664 1.3096091342261627,-0.5919088610170194 0.92397753009489,0.000029666619700718933" fill="#000000" fill-opacity="1" stroke="none"/><polygon points="-0.195834947725884,0.5329106792373534 0.5575656940044649,0.5624661485896819 0.05517460356268322,1.333628675695946" fill="#000000" fill-opacity="1" stroke="none"/><polygon points="-0.5258724113411708,0.5199635013339755 -0.3628828954861141,0.000029371110082276886 -0.19583494772588406,0.5329106792373532" fill="#000000" fill-opacity="1" stroke="none"/><polygon points="-0.630159758210045,1.8406777466188267 -0.342133538293241,1.943490507529155 -0.4755891271300259,2.1483427652659106" fill="#000000" fill-opacity="1" stroke="none"/><polygon points="-0.908720652278721,1.7412436929791177 -0.8208849103985874,1.4610489834149147 -0.6301597582100449,1.8406777466188267" fill="#000000" fill-opacity="1" stroke="none"/><polygon points="-1.5564238714752623,3.8074073241150357 -0.9622196920041504,1.9119048336146343 -0.5824280473513422,2.3123388497480706" fill="#000000" fill-opacity="1" stroke="none"/><polygon points="-2.171202312851959,4.751082690741472 -1.5564238714752623,3.8074073241150357 -1.8345896966868698,4.694752167313559" fill="#000000" fill-opacity="1" stroke="none"/><polygon points="4.161695485863339,-0.703793272848023 6.18702593363388,-0.7832449015766391 5.120256333012527,0.00003060733456006215" fill="#000000" fill-opacity="1" stroke="none"/><polygon points="1.3096088682914553,0.5919683652830707 4.161695201800649,0.7038540547173469 2.2817554288779194,2.0841997090186823" fill="#000000" fill-opacity="1" stroke="none"/><polygon points="0.557565694004465,0.5624661485896819 0.9239775300948901,0.00002966661970060791 1.3096088682914555,0.5919683652830708" fill="#000000" fill-opacity="1" stroke="none"/><polygon points="0.3205026885867103,2.180022653749764 1.5523750547079505,2.6197472006561076 0.6630471612250721,3.272736147801761" fill="#000000" fill-opacity="1" stroke="none"/><polygon points="-0.34213353829324084,1.9434905075291553 0.05517460356268322,1.333628675695946 0.3205026885867103,2.180022653749764" fill="#000000" fill-opacity="1" stroke="none"/><polygon points="-0.18006234938193433,2.7365738603405605 0.4658138944327694,3.4175546609380336 0.24391668529529348,3.580482672114857" fill="#000000" fill-opacity="1" stroke="none"/><polygon points="-0.582428047351342,2.3123388497480706 -0.4755891271300259,2.148342765265911 -0.18006234938193444,2.7365738603405605" fill="#000000" fill-opacity="1" stroke="none"/><polygon points="18.62352824145357,-1.2711160858227237 38.467214641570536,-2.049563477558081 26.219488650263898,0.00003532759660629381" fill="#000000" fill-opacity="1" stroke="none"/><polygon points="6.187025606058666,0.7833065894987175 18.62352767797142,1.2711833385712843 9.03649115933256,2.8755283906669726" fill="#000000" fill-opacity="1" stroke="none"/><polygon points="4.161695201800649,0.7038540547173471 5.120256333012527,0.00003060733456017317 6.187025606058666,0.7833065894987171" fill="#000000" fill-opacity="1" stroke="none"/><polygon points="2.9573787685999036,3.121272065150117 4.428987975162604,3.646572176895055 3.4106201299419894,3.816991201639211" fill="#000000" fill-opacity="1" stroke="none"/><polygon points="1.5523750547079502,2.6197472006561076 2.28175542887792,2.084199709018682 2.9573787685999036,3.121272065150117" fill="#000000" fill-opacity="1" stroke="none"/><polygon points="0.8282304537181999,3.799669223991662 1.1961388633732968,4.187574129540948 0.9621082399218892,4.2267380434410535" fill="#000000" fill-opacity="1" stroke="none"/><polygon points="0.4658138944327692,3.4175546609380336 0.6630471612250719,3.272736147801761 0.8282304537181999,3.799669223991662" fill="#000000" fill-opacity="1" stroke="none"/><polygon points="-1.1080589543941812,4.573170696404739 0.24391668529529342,3.580482672114857 0.5991132840744882,4.287483526178836" fill="#000000" fill-opacity="1" stroke="none"/><polygon points="-8.921968037829647,6.48052224058105 -8.921967898349859,5.880791265846571 -8.2458382214033,5.7676441739714805" fill="#000000" fill-opacity="1" stroke="none"/><polygon points="-20.88697701243652,19.0958399762589 -8.921968037829647,6.480522240581049 -8.921968928577632,10.31053357968329" fill="#000000" fill-opacity="1" stroke="none"/><polygon points="-4.891064749242748,6.640488770578904 -4.589688644681658,5.155804897910398 -4.104356113331451,5.074586802644048" fill="#000000" fill-opacity="1" stroke="none"/><polygon points="-5.45654417247226,7.7660456810303105 -4.891064749242748,6.640488770578904 -5.060515344113394,7.475261539922787" fill="#000000" fill-opacity="1" stroke="none"/><polygon points="-2.5653148498609655,4.817035552972731 -2.1712023128520013,4.751082690741537 -2.4818951033038026,5.2279913023728035" fill="#000000" fill-opacity="1" stroke="none"/><polygon points="-2.9238873930426603,5.906442607742838 -2.4818951033038026,5.2279913023728035 -2.419372077541835,5.536002270605157" fill="#000000" fill-opacity="1" stroke="none"/><polygon points="-2.0023087899914582,5.229773579223322 -1.8345896966868884,4.694752167313619 -1.1080589543942878,4.573170696404813" fill="#000000" fill-opacity="1" stroke="none"/><polygon points="-8.921969941017627,14.663792550697568 -8.921968928577632,10.310533579683316 -5.45654417247227,7.766045681030333" fill="#000000" fill-opacity="1" stroke="none"/><polygon points="-9.909128067895523,16.6286786380994 -8.921969941017627,14.663792550697568 -8.921970045584583,15.113406393782515" fill="#000000" fill-opacity="1" stroke="none"/><polygon points="-5.564994235118482,9.96050062239 -5.060515344113398,7.475261539922802 -2.923887393042669,5.90644260774285" fill="#000000" fill-opacity="1" stroke="none"/><polygon points="-8.92197269334065,26.498148108001295 -8.921970045584583,15.11340639378278 -5.564994235118515,9.96050062239017" fill="#000000" fill-opacity="1" stroke="none"/><polygon points="-9.385729376119398,28.782775380513822 -8.92197269334065,26.498148108001292 -8.921972880618334,27.30339906076052" fill="#000000" fill-opacity="1" stroke="none"/><polygon points="-2.4193720775418344,5.53600227060516 -2.002308789991459,5.229773579223326 -2.293182653113115,6.157656874253862" fill="#000000" fill-opacity="1" stroke="none"/><polygon points="18.623527677971556,1.2711833385712896 26.219488650263948,0.000035327596615175594 38.46721366996148,2.0496396083011503" fill="#000000" fill-opacity="1" stroke="none"/><polygon points="4.428987975162694,3.646572176895087 9.03649115933261,2.8755283906670055 15.439239792163079,7.576750436189485" fill="#000000" fill-opacity="1" stroke="none"/><polygon points="1.1961388633733392,4.187574129540994 3.410620129942016,3.816991201639255 9.039486284951199,12.457221848682916" fill="#000000" fill-opacity="1" stroke="none"/><polygon points="0.5991132840745126,4.287483526178885 0.9621082399219052,4.226738043441103 1.615081943293152,6.309717726164381" fill="#000000" fill-opacity="1" stroke="none"/></g>
              <g id="lineLayer"/>
            </g>
            <g id="labelLayer"/>
            <g id="pointLayer"/>
          </g>
        </svg>