<svg id="svgRoot" xmlns="http://www.w3.org/2000/svg" width="1403" height="994" viewBox="0 0 1403 994">
        <defs>
          <clipPath id="viewportClip"><rect id="clipRect" x="0" y="0" width="1403" height="994"/></clipPath>
        </defs>
        <rect id="bgRect" x="0" y="0" width="100%" height="100%" fill="#ffffff"/>
        <g id="viewportGroup" clip-path="url(#viewportClip)">
            <g id="sceneGroup" transform="matrix(11.892548726835429 0 0 -11.892548726835429 705.1512525544483 497.002345174296)">
              <g id="polyLayer"><g><clipPath id="_ec0"><polygon points="-10.39153279950919,-41.79067635049779 -9.742666196184018,-41.79067635049796 -8.763923106126185,-36.77577152480444"/></clipPath><path d="M-9.742666196184018,-41.79067635049796L-8.763923106126185,-36.77577152480444M-8.763923106126185,-36.77577152480444L-10.39153279950919,-41.79067635049779" fill="none" stroke="#000000" stroke-width="0.6" stroke-opacity="1" vector-effect="non-scaling-stroke" clip-path="url(#_ec0)"/></g><g><clipPath id="_ec1"><polygon points="-30.920276764288044,-41.79067635049779 -27.949204386817655,-41.79067635049796 -11.999020771938376,-14.079367699378054"/></clipPath><path d="M-27.949204386817655,-41.79067635049796L-11.999020771938376,-14.079367699378054M-11.999020771938376,-14.079367699378054L-30.920276764288044,-41.79067635049779" fill="none" stroke="#000000" stroke-width="0.6" stroke-opacity="1" vector-effect="non-scaling-stroke" clip-path="url(#_ec1)"/></g><g><clipPath id="_ec2"><polygon points="-59.29353486383292,-41.79067635049782 -45.93538128336877,-41.79067635049796 -24.140202920918455,-18.110611340272953 -59.293534863832924,-39.8976364714745"/></clipPath><path d="M-45.93538128336877,-41.79067635049796L-24.140202920918455,-18.110611340272953M-24.140202920918455,-18.110611340272953L-59.293534863832924,-39.8976364714745" fill="none" stroke="#000000" stroke-width="0.6" stroke-opacity="1" vector-effect="non-scaling-stroke" clip-path="url(#_ec2)"/></g><g><clipPath id="_ec3"><polygon points="-59.29353486383292,-29.480777185768048 -31.99141239966957,-16.08430509241589 -59.29353486383292,-23.758567688181575"/></clipPath><path d="M-59.29353486383292,-29.480777185768048L-31.99141239966957,-16.08430509241589M-31.99141239966957,-16.08430509241589L-59.29353486383292,-23.758567688181575" fill="none" stroke="#000000" stroke-width="0.6" stroke-opacity="1" vector-effect="non-scaling-stroke" clip-path="url(#_ec3)"/></g><g><clipPath id="_ec4"><polygon points="-59.293534863832974,-1.667176991057687 -14.762785573464416,0.00019180862177822777 -59.29353486383292,1.6674766509584182"/></clipPath><path d="M-59.293534863832974,-1.667176991057687L-14.762785573464416,0.00019180862177822777M-14.762785573464416,0.00019180862177822777L-59.29353486383292,1.6674766509584182" fill="none" stroke="#000000" stroke-width="0.6" stroke-opacity="1" vector-effect="non-scaling-stroke" clip-path="url(#_ec4)"/></g><g><clipPath id="_ec5"><polygon points="-8.345792444696457,-35.487449465590586 -8.34578650901239,-41.79067635049779 6.5698030002817305,-41.79067635049779 0.20040662997917025,-9.155353290956555"/></clipPath><path d="M-8.345792444696457,-35.487449465590586L-8.34578650901239,-41.79067635049779M6.5698030002817305,-41.79067635049779L0.20040662997917025,-9.155353290956555M0.20040662997917025,-9.155353290956555L-8.345792444696457,-35.487449465590586" fill="none" stroke="#000000" stroke-width="0.6" stroke-opacity="1" vector-effect="non-scaling-stroke" clip-path="url(#_ec5)"/></g><g><clipPath id="_ec6"><polygon points="20.159215427075495,-41.79067635049779 12.308725957787829,-28.151561299580862 16.735389875585586,-41.79067635049779"/></clipPath><path d="M20.159215427075495,-41.79067635049779L12.308725957787829,-28.151561299580862M12.308725957787829,-28.151561299580862L16.735389875585586,-41.79067635049779" fill="none" stroke="#000000" stroke-width="0.6" stroke-opacity="1" vector-effect="non-scaling-stroke" clip-path="url(#_ec6)"/></g><g><clipPath id="_ec7"><polygon points="30.9935710163198,-41.79067635049779 12.228647998661472,-21.40300570882755 26.14938699211208,-41.79067635049779"/></clipPath><path d="M30.9935710163198,-41.79067635049779L12.228647998661472,-21.40300570882755M12.228647998661472,-21.40300570882755L26.14938699211208,-41.79067635049779" fill="none" stroke="#000000" stroke-width="0.6" stroke-opacity="1" vector-effect="non-scaling-stroke" clip-path="url(#_ec7)"/></g><g><clipPath id="_ec8"><polygon points="58.67949448639774,-28.405104472008134 21.397186718710145,-10.111690903030649 58.679494486397374,-33.21809692231513"/></clipPath><path d="M58.67949448639774,-28.405104472008134L21.397186718710145,-10.111690903030649M21.397186718710145,-10.111690903030649L58.679494486397374,-33.21809692231513" fill="none" stroke="#000000" stroke-width="0.6" stroke-opacity="1" vector-effect="non-scaling-stroke" clip-path="url(#_ec8)"/></g><g><clipPath id="_ec9"><polygon points="58.67949448639774,-2.7495755382513494 31.377402234744295,-1.727352348642853 58.679494486397374,-9.401550964643901"/></clipPath><path d="M58.67949448639774,-2.7495755382513494L31.377402234744295,-1.727352348642853M31.377402234744295,-1.727352348642853L58.679494486397374,-9.401550964643901" fill="none" stroke="#000000" stroke-width="0.6" stroke-opacity="1" vector-effect="non-scaling-stroke" clip-path="url(#_ec9)"/></g><g><clipPath id="_ec10"><polygon points="-59.29353486383293,23.75885484675168 -31.991442612181345,16.08465623075108 -59.29353486383292,29.481049715027858"/></clipPath><path d="M-59.29353486383293,23.75885484675168L-31.991442612181345,16.08465623075108M-31.991442612181345,16.08465623075108L-59.29353486383292,29.481049715027858" fill="none" stroke="#000000" stroke-width="0.6" stroke-opacity="1" vector-effect="non-scaling-stroke" clip-path="url(#_ec10)"/></g><g><clipPath id="_ec11"><polygon points="-59.29353486383292,41.7910707443915 -59.29353486383292,39.89788968659137 -24.140237010928104,18.110977294594704 -45.93552390006238,41.79107074439095"/></clipPath><path d="M-59.29353486383292,39.89788968659137L-24.140237010928104,18.110977294594704M-24.140237010928104,18.110977294594704L-45.93552390006238,41.79107074439095" fill="none" stroke="#000000" stroke-width="0.6" stroke-opacity="1" vector-effect="non-scaling-stroke" clip-path="url(#_ec11)"/></g><g><clipPath id="_ec12"><polygon points="-30.920383575323285,41.79107074439162 -11.999047276054625,14.079756513785469 -27.949303559937483,41.79107074439095"/></clipPath><path d="M-30.920383575323285,41.79107074439162L-11.999047276054625,14.079756513785469M-11.999047276054625,14.079756513785469L-27.949303559937483,41.79107074439095" fill="none" stroke="#000000" stroke-width="0.6" stroke-opacity="1" vector-effect="non-scaling-stroke" clip-path="url(#_ec12)"/></g><g><clipPath id="_ec13"><polygon points="-10.391612328753126,41.79107074439162 -8.763992196491927,36.77616591869628 -9.74274508139263,41.79107074439095"/></clipPath><path d="M-10.391612328753126,41.79107074439162L-8.763992196491927,36.77616591869628M-8.763992196491927,36.77616591869628L-9.74274508139263,41.79107074439095" fill="none" stroke="#000000" stroke-width="0.6" stroke-opacity="1" vector-effect="non-scaling-stroke" clip-path="url(#_ec13)"/></g><g><clipPath id="_ec14"><polygon points="58.679494486397374,9.402077885802782 31.377398849717792,1.7278228308850885 58.679494486397374,2.7500976220328406"/></clipPath><path d="M58.679494486397374,9.402077885802782L31.377398849717792,1.7278228308850885M31.377398849717792,1.7278228308850885L58.679494486397374,2.7500976220328406" fill="none" stroke="#000000" stroke-width="0.6" stroke-opacity="1" vector-effect="non-scaling-stroke" clip-path="url(#_ec14)"/></g><g><clipPath id="_ec15"><polygon points="58.679494486397374,33.2186575808584 21.397167694258314,10.112142611265881 58.679494486397374,28.40565261590768"/></clipPath><path d="M58.679494486397374,33.2186575808584L21.397167694258314,10.112142611265881M21.397167694258314,10.112142611265881L58.679494486397374,28.40565261590768" fill="none" stroke="#000000" stroke-width="0.6" stroke-opacity="1" vector-effect="non-scaling-stroke" clip-path="url(#_ec15)"/></g><g><clipPath id="_ec16"><polygon points="26.14926307522728,41.79107074439162 12.228607699498752,21.40344014002403 30.99342296575854,41.79107074439095"/></clipPath><path d="M26.14926307522728,41.79107074439162L12.228607699498752,21.40344014002403M12.228607699498752,21.40344014002403L30.99342296575854,41.79107074439095" fill="none" stroke="#000000" stroke-width="0.6" stroke-opacity="1" vector-effect="non-scaling-stroke" clip-path="url(#_ec16)"/></g><g><clipPath id="_ec17"><polygon points="16.73529542354072,41.79107074439162 12.308672921947618,28.151995826730854 20.159105105163224,41.79107074439095"/></clipPath><path d="M16.73529542354072,41.79107074439162L12.308672921947618,28.151995826730854M12.308672921947618,28.151995826730854L20.159105105163224,41.79107074439095" fill="none" stroke="#000000" stroke-width="0.6" stroke-opacity="1" vector-effect="non-scaling-stroke" clip-path="url(#_ec17)"/></g><g><clipPath id="_ec18"><polygon points="-8.345865217085825,41.79107074439344 -8.345859281403,35.48784517843322 0.20038939810155298,9.155765048099795 6.569718638115441,41.79107074439095"/></clipPath><path d="M-8.345865217085825,41.79107074439344L-8.345859281403,35.48784517843322M-8.345859281403,35.48784517843322L0.20038939810155298,9.155765048099795M0.20038939810155298,9.155765048099795L6.569718638115441,41.79107074439095" fill="none" stroke="#000000" stroke-width="0.6" stroke-opacity="1" vector-effect="non-scaling-stroke" clip-path="url(#_ec18)"/></g><polygon points="-8.763923106126471,-36.775771524804505 -8.345792444696457,-35.487449465590544 -8.345793248994289,-34.633348799578016" fill="#000000" fill-opacity="1" stroke="none"/><polygon points="-8.944741306119505,-9.606193137482887 -8.34581697534305,-9.437843493772775 -8.34581764282197,-8.729033687877223" fill="#000000" fill-opacity="1" stroke="none"/><polygon points="-11.999020771937648,-14.079367699376927 -8.944741306119505,-9.606193137482887 -9.516902855134564,-9.767020120077559" fill="#000000" fill-opacity="1" stroke="none"/><polygon points="-8.873100667402252,-8.64850000988437 -8.345818026398858,-8.321705378597567 -8.345818581324757,-7.732417976830579" fill="#000000" fill-opacity="1" stroke="none"/><polygon points="-11.641327785063227,-10.364167642167224 -9.516902855134596,-9.767020120077568 -8.87310066740227,-8.64850000988438" fill="#000000" fill-opacity="1" stroke="none"/><polygon points="-24.140202920918213,-18.110611340273355 -11.641327785063227,-10.364167642167224 -18.884178542829023,-12.400036418669634" fill="#000000" fill-opacity="1" stroke="none"/><polygon points="-14.273413337674063,-7.390523856337649 -8.345821642208014,-4.482002116559767 -8.345824967969182,-0.950306868239772" fill="#000000" fill-opacity="1" stroke="none"/><polygon points="-31.9914123996686,-16.084305092415768 -18.884178542829574,-12.400036418669789 -14.27341333767448,-7.390523856337852" fill="#000000" fill-opacity="1" stroke="none"/><polygon points="-3.143048689938504,-7.975414699105817 -0.7494393652407262,-7.302603032777844 -2.615954137468575,-5.274676332082981" fill="#000000" fill-opacity="1" stroke="none"/><polygon points="-8.34581697534305,-9.437843493772775 -8.345793248994289,-34.63334879957805 -3.143048689938504,-7.975414699105816" fill="#000000" fill-opacity="1" stroke="none"/><polygon points="-7.863651291201793,-8.022872289483088 -2.9114420585878964,-4.953635291376157 -4.551390178466917,-3.1718682089289616" fill="#000000" fill-opacity="1" stroke="none"/><polygon points="-8.345818026398858,-8.321705378597567 -8.34581764282197,-8.729033687877223 -7.863651291201793,-8.022872289483088" fill="#000000" fill-opacity="1" stroke="none"/><polygon points="-5.738582830540626,-3.202694911522759 -4.9011972353154665,-2.7918106378721053 -5.270892286308296,-2.3901452044245795" fill="#000000" fill-opacity="1" stroke="none"/><polygon points="-8.345821642208014,-4.482002116559766 -8.345818581324757,-7.732417976830579 -5.738582830540626,-3.2026949115227588" fill="#000000" fill-opacity="1" stroke="none"/><polygon points="-8.345825636794878,-0.24006689366340117 -8.345824967969182,-0.9503068682397715 -7.713895613359004,-0.26372711421396694" fill="#000000" fill-opacity="1" stroke="none"/><polygon points="-0.0028889609364912694,-8.113713408559157 0.2004066299790808,-9.155353290957445 0.3973446457540333,-8.548558302154268" fill="#000000" fill-opacity="1" stroke="none"/><polygon points="2.074052838561828,-10.370264384560606 12.308725957788331,-28.151561299582614 8.969015207940057,-17.861487329696537" fill="#000000" fill-opacity="1" stroke="none"/><polygon points="-0.7494393652407909,-7.302603032777862 -0.0028889609364659563,-8.113713408559283 -0.1917849434111815,-7.145853810206331" fill="#000000" fill-opacity="1" stroke="none"/><polygon points="-2.5040157829637564,-4.70112419170146 -1.5347834249683996,-4.100421823689517 -2.1710400410897925,-2.9950159476436493" fill="#000000" fill-opacity="1" stroke="none"/><polygon points="-2.911442058587931,-4.9536352913761785 -2.6159541374685853,-5.2746763320830325 -2.5040157829637564,-4.70112419170146" fill="#000000" fill-opacity="1" stroke="none"/><polygon points="-3.9848967681663963,-2.3422048003259412 -2.8635006290381577,-1.7919636202439482 -3.2045806664438317,-1.1993852988607383" fill="#000000" fill-opacity="1" stroke="none"/><polygon points="-4.901197235315487,-2.791810637872115 -4.5513901784669315,-3.171868208928983 -3.9848967681663963,-2.3422048003259412" fill="#000000" fill-opacity="1" stroke="none"/><polygon points="-7.210719058241278,-0.2825666499670383 -5.270892286308306,-2.390145204424596 -4.124317626265101,-0.3981252337974025" fill="#000000" fill-opacity="1" stroke="none"/><polygon points="0.39734464575400813,-8.548558302154344 2.0740528385620234,-10.370264384560947 0.6238333808882566,-7.85071320120197" fill="#000000" fill-opacity="1" stroke="none"/><polygon points="-0.4020848616660584,-6.068325364395853 -0.19178494341118152,-7.145853810206331 0.16104211145451047,-7.0466788294522145" fill="#000000" fill-opacity="1" stroke="none"/><polygon points="-1.5347834249683991,-4.100421823689517 -0.40208486166605883,-6.068325364395851 -0.8669404911334837,-3.6865119614100346" fill="#000000" fill-opacity="1" stroke="none"/><polygon points="-1.838042678290667,-1.2887969218260245 -1.58885653564797,-1.166527482505155 -1.7640918289506253,-0.9098859747280278" fill="#000000" fill-opacity="1" stroke="none"/><polygon points="-2.8635006290381577,-1.791963620243948 -2.171040041089792,-2.995015947643649 -1.838042678290667,-1.2887969218260245" fill="#000000" fill-opacity="1" stroke="none"/><polygon points="-3.655675541817639,-0.4156717574093306 -3.2045806664438317,-1.1993852988607379 -2.6940456766654766,-0.45167633679899755" fill="#000000" fill-opacity="1" stroke="none"/><polygon points="0.9574400518027191,-6.822821987077364 2.061393782559759,-6.512515312769347 1.381380459922334,-5.516599243916803" fill="#000000" fill-opacity="1" stroke="none"/><polygon points="0.16104211145451086,-7.0466788294522145 0.6238333808882566,-7.85071320120197 0.9574400518027191,-6.822821987077364" fill="#000000" fill-opacity="1" stroke="none"/><polygon points="-1.266670778016179,-1.6383858454214 -0.8669404911334838,-3.6865119614100346 -0.16517872135716716,-3.251580179152199" fill="#000000" fill-opacity="1" stroke="none"/><polygon points="8.206668768876627,-15.512600903230314 8.969015207940167,-17.861487329696878 12.2286479986611,-21.40300570882741" fill="#000000" fill-opacity="1" stroke="none"/><polygon points="-1.5888565356479707,-1.1665274825051553 -1.266670778016181,-1.638385845421399 -1.3788718710608379,-1.0634932329567603" fill="#000000" fill-opacity="1" stroke="none"/><polygon points="-2.060768530905121,-0.4753869952305371 -1.7640918289506256,-0.9098859747280285 -1.6820593736605147,-0.4895663218214908" fill="#000000" fill-opacity="1" stroke="none"/><polygon points="2.0613937825597577,-6.512515312769348 8.206668768876629,-15.512600903230316 5.016080497525038,-5.681992273081608" fill="#000000" fill-opacity="1" stroke="none"/><polygon points="2.691026885416077,-1.4813860070691687 3.1847920053355274,-1.1753645723424344 2.844533658630206,-1.008409063703791" fill="#000000" fill-opacity="1" stroke="none"/><polygon points="-0.16517872135716827,-3.2515801791521994 1.3813804599223343,-5.516599243916805 2.691026885416077,-1.481386007069169" fill="#000000" fill-opacity="1" stroke="none"/><polygon points="-1.4894772233643891,-0.4967768292845389 -1.3788718710608379,-1.0634932329567603 -0.3136232013338862,-0.5408022189079752" fill="#000000" fill-opacity="1" stroke="none"/><polygon points="3.623249912805562,-1.390503932381975 5.016080497525039,-5.681992273081609 9.691195659258454,-4.367879736091812" fill="#000000" fill-opacity="1" stroke="none"/><polygon points="3.184792005335495,-1.1753645723424546 3.62324991280558,-1.390503932382034 3.491691869709198,-0.9851568540888815" fill="#000000" fill-opacity="1" stroke="none"/><polygon points="2.073709934024347,-0.630186844444732 2.844533658630199,-1.0084090637038126 2.9565592361027573,-0.663241784747324" fill="#000000" fill-opacity="1" stroke="none"/><polygon points="9.691195659258135,-4.367879736091901 21.397186718710255,-10.111690903031327 11.36870724864086,-3.8963535951751567" fill="#000000" fill-opacity="1" stroke="none"/><polygon points="3.3925098089307766,-0.6795642988228134 3.491691869709198,-0.9851568540888815 3.951024387642515,-0.7004757567737697" fill="#000000" fill-opacity="1" stroke="none"/><polygon points="6.357521840636451,-0.790577917425406 11.36870724864086,-3.8963535951751567 20.530074713963117,-1.3212153524443353" fill="#000000" fill-opacity="1" stroke="none"/><polygon points="-14.762785573466317,0.00019180862176426672 -8.34582563679578,-0.2400668936634247 -8.3458260893051,0.24046259236555506" fill="#000000" fill-opacity="1" stroke="none"/><polygon points="-7.713895613359064,-0.26372711421403167 -7.210719058241011,-0.2825666499671229 -7.470977800339798,0.00019867289256314535" fill="#000000" fill-opacity="1" stroke="none"/><polygon points="-8.345826758130258,0.9507025676250658 -8.3458260893051,0.240462592365555 -7.713896110279816,0.2641240026808931" fill="#000000" fill-opacity="1" stroke="none"/><polygon points="-14.273427246151737,7.390908388424798 -8.345826758130258,0.9507025676250658 -8.345830083891428,4.482397814583376" fill="#000000" fill-opacity="1" stroke="none"/><polygon points="-4.124317626265141,-0.39812523379747067 -3.6556755418175992,-0.415671757409401 -3.895046853635322,0.0002020393192360137" fill="#000000" fill-opacity="1" stroke="none"/><polygon points="-7.210719590568358,0.28296448578679145 -4.124318376050149,0.3985288805115289 -5.270896786525279,2.3905466924641887" fill="#000000" fill-opacity="1" stroke="none"/><polygon points="-7.713896110279816,0.2641240026808931 -7.470977800339798,0.00019867289256314535 -7.210719590568358,0.2829644857867915" fill="#000000" fill-opacity="1" stroke="none"/><polygon points="-2.6940456766655214,-0.4516763367990632 -2.060768530905075,-0.47538699523060524 -2.3855025680763196,0.00020346006792909543" fill="#000000" fill-opacity="1" stroke="none"/><polygon points="-3.6556763249522146,0.41607628644272643 -2.6940465276436045,0.45208267632894517 -3.20458292512588,1.1997906771290827" fill="#000000" fill-opacity="1" stroke="none"/><polygon points="-4.12431837605015,0.398528880511529 -3.895046853635322,0.00020203931923568064 -3.6556763249522146,0.41607628644272654" fill="#000000" fill-opacity="1" stroke="none"/><polygon points="-5.738588859238936,3.2030955167252317 -5.270896786525279,2.3905466924641887 -4.90120249267321,2.7922128209419137" fill="#000000" fill-opacity="1" stroke="none"/><polygon points="-1.6820593736605278,-0.4895663218215561 -1.4894772233643758,-0.4967768292846049 -1.5864724098018719,0.0002042126501031194" fill="#000000" fill-opacity="1" stroke="none"/><polygon points="-2.0607694261032696,0.47579452707222875 -1.6820602950399752,0.4899745666931931 -1.7640935413667354,0.9102940663524002" fill="#000000" fill-opacity="1" stroke="none"/><polygon points="-2.6940465276436045,0.45208267632894517 -2.3855025680763196,0.00020346006792926197 -2.0607694261032696,0.4757945270722287" fill="#000000" fill-opacity="1" stroke="none"/><polygon points="-3.98490117747765,2.3426087079905464 -3.20458292512588,1.199790677129083 -2.86350400371025,1.7923696401024278" fill="#000000" fill-opacity="1" stroke="none"/><polygon points="-0.31362320133400656,-0.5408022189080343 2.0737099340240093,-0.6301868444447791 0.7889569996028221,0.00020644852874907027" fill="#000000" fill-opacity="1" stroke="none"/><polygon points="-1.4894781584919676,0.49718543673182525 -0.3136242205019142,0.5412130401390938 -1.378873872641841,1.0639020475426324" fill="#000000" fill-opacity="1" stroke="none"/><polygon points="-1.6820602950399752,0.4899745666931931 -1.5864724098018719,0.00020421265010295286 -1.4894781584919676,0.4971854367318253" fill="#000000" fill-opacity="1" stroke="none"/><polygon points="-1.8380451030333997,1.2892048713074595 -1.7640935413667354,0.9102940663524002 -1.5888587324481045,1.1669359023028025" fill="#000000" fill-opacity="1" stroke="none"/><polygon points="-31.99144261217978,16.084656230750642 -14.273427246151737,7.3909083884247995 -18.884201874988648,12.40041226154149" fill="#000000" fill-opacity="1" stroke="none"/><polygon points="-8.345833144774693,7.732813684667018 -8.345830083891428,4.482397814583377 -5.738588859238938,3.2030955167252335" fill="#000000" fill-opacity="1" stroke="none"/><polygon points="-8.87311694932307,8.648894714118178 -8.345833144774693,7.732813684667019 -8.345833699700584,8.32210107975243" fill="#000000" fill-opacity="1" stroke="none"/><polygon points="-4.901202492673209,2.792212820941914 -3.9849011774776493,2.3426087079905473 -4.551396150693751,3.172271051313374" fill="#000000" fill-opacity="1" stroke="none"/><polygon points="-2.8635040037102493,1.7923696401024287 -1.8380451030333993,1.2892048713074602 -2.171045677336763,2.9954232771949236" fill="#000000" fill-opacity="1" stroke="none"/><polygon points="-7.8636663960099735,8.023268894853324 -4.551396150693751,3.1722710513133743 -2.91145138531703,4.954041221371114" fill="#000000" fill-opacity="1" stroke="none"/><polygon points="2.9565592361027386,-0.6632417847473815 3.3925098089307957,-0.6795642988228716 3.171885042704077,0.00020869174671600543" fill="#000000" fill-opacity="1" stroke="none"/><polygon points="2.0737087466777004,0.6306021604066576 2.9565579866434155,0.6636587628891571 2.844531759095723,1.0088258310507983" fill="#000000" fill-opacity="1" stroke="none"/><polygon points="-0.3136242205019133,0.5412130401390938 0.7889569996028221,0.00020644852874940334 2.0737087466777004,0.6306021604066576" fill="#000000" fill-opacity="1" stroke="none"/><polygon points="-1.2666738602712533,1.6387948761058189 -0.165184843415767,3.2519912798880157 -0.8669474280367755,3.6869217383359048" fill="#000000" fill-opacity="1" stroke="none"/><polygon points="-1.5888587324481043,1.1669359023028032 -1.3788738726418415,1.0639020475426333 -1.2666738602712533,1.6387948761058189" fill="#000000" fill-opacity="1" stroke="none"/><polygon points="-2.504024627203043,4.701530884436932 -2.171045677336763,2.9954232771949236 -1.534791145450166,4.100830345821749" fill="#000000" fill-opacity="1" stroke="none"/><polygon points="3.9510243876424287,-0.700475756773823 6.357521840636544,-0.790577917425462 5.081580581916647,0.00021048989226857273" fill="#000000" fill-opacity="1" stroke="none"/><polygon points="3.392508528765366,0.6799820977470036 3.9510230693932895,0.7008946072836829 3.491690014276408,0.9855748404855517" fill="#000000" fill-opacity="1" stroke="none"/><polygon points="2.9565579866434155,0.6636587628891573 3.171885042704077,0.0002086917467158944 3.392508528765366,0.6799820977470036" fill="#000000" fill-opacity="1" stroke="none"/><polygon points="2.6910240947933235,1.4818024864955546 2.844531759095723,1.008825831050798 3.1847897921044765,1.1757819806953478" fill="#000000" fill-opacity="1" stroke="none"/><polygon points="-11.641347288488689,10.36455712885475 -8.87311694932307,8.648894714118178 -9.516921241921567,9.76741361047202" fill="#000000" fill-opacity="1" stroke="none"/><polygon points="-8.345834083277479,8.729429394428141 -8.345833699700584,8.32210107975243 -7.8636663960099735,8.023268894853324" fill="#000000" fill-opacity="1" stroke="none"/><polygon points="-8.944759390782643,9.606587705787993 -8.345834083277479,8.729429394428141 -8.34583475075639,9.438239192376898" fill="#000000" fill-opacity="1" stroke="none"/><polygon points="-2.9114513853170294,4.954041221371114 -2.5040246272030426,4.701530884436931 -2.6159640628721,5.275082824648322" fill="#000000" fill-opacity="1" stroke="none"/><polygon points="-0.165184843415767,3.2519912798880153 2.691024094793324,1.4818024864955532 1.3813700713553105,5.517013253400539" fill="#000000" fill-opacity="1" stroke="none"/><polygon points="-0.4020962752451879,6.068736039804444 0.1610288467098353,7.04709054909912 -0.1917983878504519,7.146264863294256" fill="#000000" fill-opacity="1" stroke="none"/><polygon points="-1.5347911454501666,4.100830345821748 -0.8669474280367755,3.6869217383359043 -0.4020962752451879,6.068736039804444" fill="#000000" fill-opacity="1" stroke="none"/><polygon points="-3.1430636953615165,7.975820192958853 -2.6159640628721,5.275082824648322 -0.7494531107714671,7.3030130371485065" fill="#000000" fill-opacity="1" stroke="none"/><polygon points="20.530074713963028,-1.321215352444361 31.377402234742476,-1.7273523486427962 25.231275377590745,0.00022947132064765619" fill="#000000" fill-opacity="1" stroke="none"/><polygon points="6.357520350205293,0.7910012986482333 20.530072298124043,1.3216654196516324 11.368699927489853,3.8967864220771604" fill="#000000" fill-opacity="1" stroke="none"/><polygon points="3.951023069393288,0.700894607283683 5.081580581916646,0.00021048989226857273 6.357520350205293,0.7910012986482333" fill="#000000" fill-opacity="1" stroke="none"/><polygon points="3.6232472938527795,1.390922166005189 9.69118745051537,4.368309403190177 5.016069799653181,5.6824131383614755" fill="#000000" fill-opacity="1" stroke="none"/><polygon points="3.1847897921044757,1.1757819806953473 3.491690014276408,0.9855748404855509 3.6232472938527795,1.390922166005188" fill="#000000" fill-opacity="1" stroke="none"/><polygon points="0.957427199758154,6.823235209280654 1.3813700713553105,5.517013253400539 2.0613815250440584,6.512930611481029" fill="#000000" fill-opacity="1" stroke="none"/><polygon points="-24.140237010928224,18.110977294595088 -18.884201874988648,12.40041226154149 -11.641347288488681,10.364557128854749" fill="#000000" fill-opacity="1" stroke="none"/><polygon points="-11.999047276053519,14.07975651378322 -9.516921241921565,9.76741361047202 -8.94475939078264,9.606587705787991" fill="#000000" fill-opacity="1" stroke="none"/><polygon points="-8.34585847710548,34.63374484440337 -8.34583475075639,9.438239192376896 -3.1430636953615165,7.975820192958851" fill="#000000" fill-opacity="1" stroke="none"/><polygon points="-8.763992196492085,36.77616591869759 -8.345858477105482,34.63374484440336 -8.345859281403,35.48784517843401" fill="#000000" fill-opacity="1" stroke="none"/><polygon points="0.1610288467098347,7.047090549099119 0.9574271997581523,6.823235209280653 0.6238185970755585,7.851125782962875" fill="#000000" fill-opacity="1" stroke="none"/><polygon points="-0.0029042241026655258,8.114124828740295 0.3973285475350419,8.54897045808061 0.20038939810155953,9.155765048099836" fill="#000000" fill-opacity="1" stroke="none"/><polygon points="-0.7494531107714684,7.303013037148505 -0.1917983878504521,7.146264863294254 -0.0029042241026655258,8.114124828740295" fill="#000000" fill-opacity="1" stroke="none"/><polygon points="20.530072298124047,1.3216654196516324 25.231275377590748,0.00022947132064743414 31.37739884971803,1.7278228308850954" fill="#000000" fill-opacity="1" stroke="none"/><polygon points="9.691187450515368,4.368309403190176 11.368699927489853,3.8967864220771595 21.397167694258314,10.112142611266737" fill="#000000" fill-opacity="1" stroke="none"/><polygon points="8.206639547088315,15.51302774343103 12.228607699499408,21.403440140023584 8.968981564475872,17.861915610938986" fill="#000000" fill-opacity="1" stroke="none"/><polygon points="2.061381525044058,6.5129306114810275 5.016069799653183,5.682413138361474 8.206639547088344,15.513027743431069" fill="#000000" fill-opacity="1" stroke="none"/><polygon points="2.0740333128809354,10.370679699733454 8.968981564475902,17.86191561093902 12.30867292194778,28.151995826731252" fill="#000000" fill-opacity="1" stroke="none"/><polygon points="0.3973285475350311,8.5489704580806 0.6238185970755528,7.851125782962866 2.0740333128809336,10.37067969973345" fill="#000000" fill-opacity="1" stroke="none"/></g>
              <g id="lineLayer"/>
            </g>
            <g id="labelLayer"/>
            <g id="pointLayer"/>
          </g>
        </svg>