<?xml version="1.0" encoding="UTF-8" standalone="no"?>
<svg width="195.792mm" height="211.667mm"
 viewBox="0 0 555 600"
 xmlns="http://www.w3.org/2000/svg" xmlns:xlink="http://www.w3.org/1999/xlink"  version="1.2" baseProfile="tiny">
<title>Qt Svg Document</title>
<desc>Generated with Qt</desc>
<defs>
</defs>
<g fill="none" stroke="black" vector-effect="non-scaling-stroke" stroke-width="1" fill-rule="evenodd" stroke-linecap="square" stroke-linejoin="bevel" >

<g fill="#000000" fill-opacity="1" stroke="none" transform="matrix(1,0,0,1,0,0)"
font-family="Helvetica" font-size="12pt" font-weight="400" font-style="normal" 
>
<path fill-rule="evenodd" d="M24.598,86.0559 L138.461,177.178 L96.5725,164.502 L24.598,86.0559"/>
<path fill-rule="evenodd" d="M165.261,130.076 L235.393,206.511 L191.383,193.193 L165.261,130.076"/>
<path fill-rule="evenodd" d="M138.461,177.178 L191.383,193.193 L207.68,232.573 L138.461,177.178"/>
<path fill-rule="evenodd" d="M71.9593,157.053 L96.5725,164.502 L138.898,210.633 L71.9593,157.053"/>
<path fill-rule="evenodd" d="M67.0863,320.208 L100.545,315.486 L85.1409,325.673 L67.0863,320.208"/>
<path fill-rule="evenodd" d="M138.898,210.633 L193.281,254.161 L184.29,260.106 L138.898,210.633"/>
<path fill-rule="evenodd" d="M207.68,232.573 L215.935,239.18 L211.601,242.046 L207.68,232.573"/>
<path fill-rule="evenodd" d="M193.281,254.161 L211.601,242.046 L228.181,282.094 L193.281,254.161"/>
<path fill-rule="evenodd" d="M100.545,315.486 L184.29,260.106 L219.676,298.674 L100.545,315.486"/>
<path fill-rule="evenodd" d="M69.7955,335.82 L85.1409,325.673 L103.123,331.115 L69.7955,335.82"/>
<path fill-rule="evenodd" d="M128.122,490.121 L174.012,420.98 L148.96,476.343 L128.122,490.121"/>
<path fill-rule="evenodd" d="M103.123,331.115 L222.289,314.291 L201.239,360.811 L103.123,331.115"/>
<path fill-rule="evenodd" d="M219.676,298.674 L230.014,297.215 L226.158,305.74 L219.676,298.674"/>
<path fill-rule="evenodd" d="M228.181,282.094 L234.551,287.194 L232.327,292.106 L228.181,282.094"/>
<path fill-rule="evenodd" d="M230.014,297.215 L232.327,292.106 L234.197,296.624 L230.014,297.215"/>
<path fill-rule="evenodd" d="M222.289,314.291 L226.158,305.74 L232.658,312.826 L222.289,314.291"/>
<path fill-rule="evenodd" d="M174.012,420.98 L201.239,360.811 L211.822,364.014 L174.012,420.98"/>
<path fill-rule="evenodd" d="M105.79,571.745 L148.96,476.343 L184.895,452.581 L105.79,571.745"/>
<path fill-rule="evenodd" d="M184.895,452.581 L232.627,380.677 L230.049,422.723 L184.895,452.581"/>
<path fill-rule="evenodd" d="M211.822,364.014 L235.876,327.774 L233.251,370.5 L211.822,364.014"/>
<path fill-rule="evenodd" d="M232.658,312.826 L236.831,312.239 L236.536,317.051 L232.658,312.826"/>
<path fill-rule="evenodd" d="M234.197,296.624 L237.823,296.111 L237.326,304.182 L234.197,296.624"/>
<path fill-rule="evenodd" d="M234.551,287.194 L238.965,277.45 L238.191,290.108 L234.551,287.194"/>
<path fill-rule="evenodd" d="M215.935,239.18 L242.376,221.692 L240.122,258.539 L215.935,239.18"/>
<path fill-rule="evenodd" d="M235.393,206.511 L243.163,208.863 L242.811,214.596 L235.393,206.511"/>
<path fill-rule="evenodd" d="M213.071,75.533 L246.409,156.052 L243.963,195.837 L213.071,75.533"/>
<path fill-rule="evenodd" d="M246.409,156.052 L251.665,70.5563 L261.796,193.214 L246.409,156.052"/>
<path fill-rule="evenodd" d="M243.163,208.863 L243.963,195.837 L247.658,210.225 L243.163,208.863"/>
<path fill-rule="evenodd" d="M242.376,221.692 L242.811,214.596 L246.697,218.832 L242.376,221.692"/>
<path fill-rule="evenodd" d="M247.658,210.225 L255.926,212.728 L249.407,217.039 L247.658,210.225"/>
<path fill-rule="evenodd" d="M261.796,193.214 L266.876,205.484 L263.02,208.035 L261.796,193.214"/>
<path fill-rule="evenodd" d="M255.926,212.728 L263.02,208.035 L263.6,215.051 L255.926,212.728"/>
<path fill-rule="evenodd" d="M246.697,218.832 L249.407,217.039 L251.093,223.622 L246.697,218.832"/>
<path fill-rule="evenodd" d="M238.965,277.45 L240.122,258.539 L245.56,262.891 L238.965,277.45"/>
<path fill-rule="evenodd" d="M251.093,223.622 L259.298,232.558 L255.515,240.912 L251.093,223.622"/>
<path fill-rule="evenodd" d="M263.6,215.051 L266.789,216.018 L264.164,221.818 L263.6,215.051"/>
<path fill-rule="evenodd" d="M266.876,205.484 L273.554,201.068 L269.112,210.884 L266.876,205.484"/>
<path fill-rule="evenodd" d="M266.789,216.018 L269.112,210.884 L271.874,217.558 L266.789,216.018"/>
<path fill-rule="evenodd" d="M259.298,232.558 L264.164,221.818 L265.638,239.463 L259.298,232.558"/>
<path fill-rule="evenodd" d="M245.56,262.891 L255.515,240.912 L265.142,278.56 L245.56,262.891"/>
<path fill-rule="evenodd" d="M237.823,296.111 L238.191,290.108 L244.506,295.165 L237.823,296.111"/>
<path fill-rule="evenodd" d="M236.831,312.239 L237.326,304.182 L240.452,311.729 L236.831,312.239"/>
<path fill-rule="evenodd" d="M235.876,327.774 L236.536,317.051 L240.283,321.133 L235.876,327.774"/>
<path fill-rule="evenodd" d="M240.452,311.729 L247.149,310.786 L242.784,317.364 L240.452,311.729"/>
<path fill-rule="evenodd" d="M244.506,295.165 L258.863,293.131 L253,301.966 L244.506,295.165"/>
<path fill-rule="evenodd" d="M265.142,278.56 L267.346,280.332 L266.088,282.242 L265.142,278.56"/>
<path fill-rule="evenodd" d="M265.638,239.463 L282.372,257.688 L268.863,278.035 L265.638,239.463"/>
<path fill-rule="evenodd" d="M271.874,217.558 L302.794,226.92 L286.132,252.024 L271.874,217.558"/>
<path fill-rule="evenodd" d="M282.372,257.688 L286.132,252.024 L293.479,269.784 L282.372,257.688"/>
<path fill-rule="evenodd" d="M267.346,280.332 L268.863,278.035 L269.173,281.805 L267.346,280.332"/>
<path fill-rule="evenodd" d="M258.863,293.131 L266.088,282.242 L268.553,291.758 L258.863,293.131"/>
<path fill-rule="evenodd" d="M269.173,281.805 L279.654,290.197 L269.959,291.56 L269.173,281.805"/>
<path fill-rule="evenodd" d="M268.553,291.758 L269.959,291.56 L270.575,299.483 L268.553,291.758"/>
<path fill-rule="evenodd" d="M247.149,310.786 L253,301.966 L261.496,308.768 L247.149,310.786"/>
<path fill-rule="evenodd" d="M270.575,299.483 L272.598,307.207 L271.192,307.405 L270.575,299.483"/>
<path fill-rule="evenodd" d="M261.496,308.768 L271.192,307.405 L271.977,317.16 L261.496,308.768"/>
<path fill-rule="evenodd" d="M240.283,321.133 L242.784,317.364 L247.672,329.18 L240.283,321.133"/>
<path fill-rule="evenodd" d="M232.627,380.677 L233.251,370.5 L238.357,372.045 L232.627,380.677"/>
<path fill-rule="evenodd" d="M247.672,329.18 L258.78,341.277 L255.019,346.942 L247.672,329.18"/>
<path fill-rule="evenodd" d="M271.977,317.16 L273.805,318.633 L272.288,320.931 L271.977,317.16"/>
<path fill-rule="evenodd" d="M272.598,307.207 L282.289,305.833 L275.063,316.724 L272.598,307.207"/>
<path fill-rule="evenodd" d="M279.654,290.197 L294.003,288.178 L288.15,297 L279.654,290.197"/>
<path fill-rule="evenodd" d="M293.479,269.784 L300.868,277.832 L298.367,281.601 L293.479,269.784"/>
<path fill-rule="evenodd" d="M294.003,288.178 L298.367,281.601 L300.699,287.236 L294.003,288.178"/>
<path fill-rule="evenodd" d="M282.289,305.833 L288.15,297 L296.643,303.8 L282.289,305.833"/>
<path fill-rule="evenodd" d="M273.805,318.633 L275.063,316.724 L276.009,320.406 L273.805,318.633"/>
<path fill-rule="evenodd" d="M258.78,341.277 L272.288,320.931 L275.513,359.501 L258.78,341.277"/>
<path fill-rule="evenodd" d="M238.357,372.045 L255.019,346.942 L269.277,381.406 L238.357,372.045"/>
<path fill-rule="evenodd" d="M225.926,489.982 L230.049,422.723 L267.597,397.896 L225.926,489.982"/>
<path fill-rule="evenodd" d="M269.277,381.406 L274.361,382.947 L272.039,388.08 L269.277,381.406"/>
<path fill-rule="evenodd" d="M275.513,359.501 L281.852,366.406 L276.987,377.146 L275.513,359.501"/>
<path fill-rule="evenodd" d="M276.009,320.406 L295.59,336.074 L285.636,358.052 L276.009,320.406"/>
<path fill-rule="evenodd" d="M281.852,366.406 L285.636,358.052 L290.058,375.342 L281.852,366.406"/>
<path fill-rule="evenodd" d="M274.361,382.947 L276.987,377.146 L277.55,383.913 L274.361,382.947"/>
<path fill-rule="evenodd" d="M267.597,397.896 L272.039,388.08 L274.274,393.48 L267.597,397.896"/>
<path fill-rule="evenodd" d="M277.55,383.913 L285.225,386.237 L278.131,390.929 L277.55,383.913"/>
<path fill-rule="evenodd" d="M290.058,375.342 L294.454,380.132 L291.744,381.925 L290.058,375.342"/>
<path fill-rule="evenodd" d="M285.225,386.237 L291.744,381.925 L293.493,388.74 L285.225,386.237"/>
<path fill-rule="evenodd" d="M274.274,393.48 L278.131,390.929 L279.355,405.751 L274.274,393.48"/>
<path fill-rule="evenodd" d="M279.355,405.751 L294.742,442.913 L289.486,528.408 L279.355,405.751"/>
<path fill-rule="evenodd" d="M293.493,388.74 L297.988,390.101 L297.187,403.127 L293.493,388.74"/>
<path fill-rule="evenodd" d="M294.454,380.132 L298.775,377.272 L298.34,384.368 L294.454,380.132"/>
<path fill-rule="evenodd" d="M295.59,336.074 L302.185,321.514 L301.029,340.427 L295.59,336.074"/>
<path fill-rule="evenodd" d="M296.643,303.8 L303.327,302.854 L302.96,308.857 L296.643,303.8"/>
<path fill-rule="evenodd" d="M300.699,287.236 L304.32,286.726 L303.824,294.782 L300.699,287.236"/>
<path fill-rule="evenodd" d="M300.868,277.832 L305.275,271.192 L304.615,281.913 L300.868,277.832"/>
<path fill-rule="evenodd" d="M302.794,226.92 L308.524,218.289 L307.899,228.465 L302.794,226.92"/>
<path fill-rule="evenodd" d="M273.554,201.068 L315.225,108.982 L311.101,176.241 L273.554,201.068"/>
<path fill-rule="evenodd" d="M308.524,218.289 L311.101,176.241 L356.258,146.382 L308.524,218.289"/>
<path fill-rule="evenodd" d="M305.275,271.192 L307.899,228.465 L329.329,234.95 L305.275,271.192"/>
<path fill-rule="evenodd" d="M304.32,286.726 L304.615,281.913 L308.493,286.138 L304.32,286.726"/>
<path fill-rule="evenodd" d="M303.327,302.854 L303.824,294.782 L306.954,302.341 L303.327,302.854"/>
<path fill-rule="evenodd" d="M302.185,321.514 L302.96,308.857 L306.599,311.771 L302.185,321.514"/>
<path fill-rule="evenodd" d="M306.954,302.341 L311.137,301.749 L308.824,306.858 L306.954,302.341"/>
<path fill-rule="evenodd" d="M308.493,286.138 L318.861,284.674 L314.993,293.224 L308.493,286.138"/>
<path fill-rule="evenodd" d="M329.329,234.95 L367.136,177.99 L339.912,238.153 L329.329,234.95"/>
<path fill-rule="evenodd" d="M356.258,146.382 L435.358,27.2259 L392.19,122.622 L356.258,146.382"/>
<path fill-rule="evenodd" d="M367.136,177.99 L392.19,122.622 L413.03,108.842 L367.136,177.99"/>
<path fill-rule="evenodd" d="M318.861,284.674 L339.912,238.153 L438.028,267.849 L318.861,284.674"/>
<path fill-rule="evenodd" d="M311.137,301.749 L314.993,293.224 L321.475,300.291 L311.137,301.749"/>
<path fill-rule="evenodd" d="M306.599,311.771 L308.824,306.858 L312.971,316.872 L306.599,311.771"/>
<path fill-rule="evenodd" d="M298.775,377.272 L301.029,340.427 L325.214,359.785 L298.775,377.272"/>
<path fill-rule="evenodd" d="M312.971,316.872 L347.869,344.804 L329.55,356.918 L312.971,316.872"/>
<path fill-rule="evenodd" d="M321.475,300.291 L440.605,283.479 L356.861,338.858 L321.475,300.291"/>
<path fill-rule="evenodd" d="M438.028,267.849 L471.355,263.145 L456.01,273.292 L438.028,267.849"/>
<path fill-rule="evenodd" d="M440.605,283.479 L456.01,273.292 L474.065,278.756 L440.605,283.479"/>
<path fill-rule="evenodd" d="M347.869,344.804 L356.861,338.858 L402.258,388.337 L347.869,344.804"/>
<path fill-rule="evenodd" d="M325.214,359.785 L329.55,356.918 L333.471,366.393 L325.214,359.785"/>
<path fill-rule="evenodd" d="M297.988,390.101 L298.34,384.368 L305.758,392.453 L297.988,390.101"/>
<path fill-rule="evenodd" d="M333.471,366.393 L402.688,421.786 L349.768,405.771 L333.471,366.393"/>
<path fill-rule="evenodd" d="M402.258,388.337 L469.189,441.911 L444.579,434.463 L402.258,388.337"/>
<path fill-rule="evenodd" d="M402.688,421.786 L444.579,434.463 L516.559,512.915 L402.688,421.786"/>
<path fill-rule="evenodd" d="M305.758,392.453 L349.768,405.771 L375.889,468.888 L305.758,392.453"/>
<path fill-rule="evenodd" d="M294.742,442.913 L297.187,403.127 L328.08,523.431 L294.742,442.913"/>
<path fill-rule="evenodd" d="M181.806,0 L193.676,0 L213.071,75.533 L181.806,0"/>
<path fill-rule="evenodd" d="M45.9024,0 L111.42,0 L165.261,130.076 L45.9024,0"/>
<path fill-rule="evenodd" d="M0,66.3674 L0,59.2493 L24.598,86.0559 L0,66.3674"/>
<path fill-rule="evenodd" d="M0,135.274 L0,99.4562 L71.9593,157.053 L0,135.274"/>
<path fill-rule="evenodd" d="M0,329.678 L0,299.904 L67.0863,320.208 L0,329.678"/>
<path fill-rule="evenodd" d="M0,381.975 L0,345.672 L69.7955,335.82 L0,381.975"/>
<path fill-rule="evenodd" d="M55.1931,600 L0,600 L0,574.848 L128.122,490.121 L55.1931,600"/>
<path fill-rule="evenodd" d="M93.0023,600 L87.0362,600 L105.79,571.745 L93.0023,600"/>
<path fill-rule="evenodd" d="M219.175,600 L176.135,600 L225.926,489.982 L219.175,600"/>
<path fill-rule="evenodd" d="M321.913,0 L364.547,0 L315.225,108.982 L321.913,0"/>
<path fill-rule="evenodd" d="M447.68,0 L453.428,0 L435.358,27.2259 L447.68,0"/>
<path fill-rule="evenodd" d="M485.271,0 L555,0 L555,14.9583 L413.03,108.842 L485.271,0"/>
<path fill-rule="evenodd" d="M555,207.831 L555,251.338 L471.355,263.145 L555,207.831"/>
<path fill-rule="evenodd" d="M555,267.332 L555,303.253 L474.065,278.756 L555,267.332"/>
<path fill-rule="evenodd" d="M555,467.883 L555,510.595 L469.189,441.911 L555,467.883"/>
<path fill-rule="evenodd" d="M555,543.683 L555,554.808 L516.559,512.915 L555,543.683"/>
<path fill-rule="evenodd" d="M496.199,600 L430.159,600 L375.889,468.888 L496.199,600"/>
<path fill-rule="evenodd" d="M359.773,600 L347.741,600 L328.08,523.431 L359.773,600"/>
<path fill-rule="evenodd" d="M245.836,0 L255.995,0 L251.665,70.5563 L245.836,0"/>
<path fill-rule="evenodd" d="M295.4,600 L285.093,600 L289.486,528.408 L295.4,600"/>
</g>
</g>
</svg>
