<?xml version="1.0" encoding="UTF-8" standalone="no"?>
<svg width="211.667mm" height="211.667mm"
 viewBox="0 0 600 600"
 xmlns="http://www.w3.org/2000/svg" xmlns:xlink="http://www.w3.org/1999/xlink"  version="1.2" baseProfile="tiny">
<title>Qt Svg Document</title>
<desc>Generated with Qt</desc>
<defs>
</defs>
<g fill="none" stroke="black" vector-effect="non-scaling-stroke" stroke-width="1" fill-rule="evenodd" stroke-linecap="square" stroke-linejoin="bevel" >

<g fill="#000000" fill-opacity="1" stroke="none" transform="matrix(1,0,0,1,0,0)"
font-family="Helvetica" font-size="12pt" font-weight="400" font-style="normal" 
>
<path fill-rule="evenodd" d="M27.1639,93.4519 L123.625,159.01 L82.7597,145.88 L27.1639,93.4519"/>
<path fill-rule="evenodd" d="M189.462,136.228 L260.256,203.191 L211.841,187.461 L189.462,136.228"/>
<path fill-rule="evenodd" d="M123.625,159.01 L211.841,187.461 L231.34,232.512 L123.625,159.01"/>
<path fill-rule="evenodd" d="M32.0774,129.659 L82.7597,145.88 L151.531,211.002 L32.0774,129.659"/>
<path fill-rule="evenodd" d="M34.0186,289.006 L168.741,292.059 L128.608,319.531 L34.0186,289.006"/>
<path fill-rule="evenodd" d="M151.531,211.002 L219.468,257.347 L208.445,264.869 L151.531,211.002"/>
<path fill-rule="evenodd" d="M231.34,232.512 L243.512,240.845 L236.902,245.468 L231.34,232.512"/>
<path fill-rule="evenodd" d="M219.468,257.347 L236.902,245.468 L251.576,279.211 L219.468,257.347"/>
<path fill-rule="evenodd" d="M168.741,292.059 L208.445,264.869 L238.849,293.612 L168.741,292.059"/>
<path fill-rule="evenodd" d="M44.5355,376.97 L128.608,319.531 L175.714,334.686 L44.5355,376.97"/>
<path fill-rule="evenodd" d="M90.6407,529.195 L182.487,416.302 L134.939,498.771 L90.6407,529.195"/>
<path fill-rule="evenodd" d="M175.714,334.686 L241.777,313.353 L221.107,349.278 L175.714,334.686"/>
<path fill-rule="evenodd" d="M238.849,293.612 L252.951,293.919 L248.102,302.354 L238.849,293.612"/>
<path fill-rule="evenodd" d="M251.576,279.211 L258.651,284.026 L255.814,288.949 L251.576,279.211"/>
<path fill-rule="evenodd" d="M252.951,293.919 L255.814,288.949 L258.027,294.034 L252.951,293.919"/>
<path fill-rule="evenodd" d="M241.777,313.353 L248.102,302.354 L255.162,309.025 L241.777,313.353"/>
<path fill-rule="evenodd" d="M182.487,416.302 L221.107,349.278 L233.774,353.374 L182.487,416.302"/>
<path fill-rule="evenodd" d="M98.0381,563.099 L134.939,498.771 L169.493,475.098 L98.0381,563.099"/>
<path fill-rule="evenodd" d="M169.493,475.098 L251.842,374.085 L245.842,422.914 L169.493,475.098"/>
<path fill-rule="evenodd" d="M233.774,353.374 L258.023,323.568 L253.639,359.812 L233.774,353.374"/>
<path fill-rule="evenodd" d="M255.162,309.025 L259.965,307.478 L259.306,312.946 L255.162,309.025"/>
<path fill-rule="evenodd" d="M258.027,294.034 L261.595,294.119 L260.819,300.463 L258.027,294.034"/>
<path fill-rule="evenodd" d="M258.651,284.026 L263.93,274.856 L262.5,286.64 L258.651,284.026"/>
<path fill-rule="evenodd" d="M243.512,240.845 L270.252,222.579 L266.181,256.303 L243.512,240.845"/>
<path fill-rule="evenodd" d="M260.256,203.191 L272.148,207.038 L271.336,213.669 L260.256,203.191"/>
<path fill-rule="evenodd" d="M267.107,129.052 L278.453,155.158 L275.124,182.799 L267.107,129.052"/>
<path fill-rule="evenodd" d="M278.453,155.158 L281.426,130.691 L288.476,178.287 L278.453,155.158"/>
<path fill-rule="evenodd" d="M272.148,207.038 L275.124,182.799 L279.074,209.202 L272.148,207.038"/>
<path fill-rule="evenodd" d="M270.252,222.579 L271.336,213.669 L276.413,218.418 L270.252,222.579"/>
<path fill-rule="evenodd" d="M279.074,209.202 L286.357,211.493 L279.998,215.936 L279.074,209.202"/>
<path fill-rule="evenodd" d="M288.476,178.287 L299.188,202.862 L292.744,207.193 L288.476,178.287"/>
<path fill-rule="evenodd" d="M286.357,211.493 L292.744,207.193 L293.832,213.981 L286.357,211.493"/>
<path fill-rule="evenodd" d="M276.413,218.418 L279.998,215.936 L281.041,222.837 L276.413,218.418"/>
<path fill-rule="evenodd" d="M263.93,274.856 L266.181,256.303 L272.244,260.425 L263.93,274.856"/>
<path fill-rule="evenodd" d="M281.041,222.837 L289.354,230.674 L283.672,240.531 L281.041,222.837"/>
<path fill-rule="evenodd" d="M293.832,213.981 L298.134,215.394 L294.876,221.118 L293.832,213.981"/>
<path fill-rule="evenodd" d="M299.188,202.862 L309.427,195.837 L301.856,208.996 L299.188,202.862"/>
<path fill-rule="evenodd" d="M298.134,215.394 L301.856,208.996 L305.678,217.784 L298.134,215.394"/>
<path fill-rule="evenodd" d="M289.354,230.674 L294.876,221.118 L297.426,238.295 L289.354,230.674"/>
<path fill-rule="evenodd" d="M272.244,260.425 L283.672,240.531 L288.26,271.342 L272.244,260.425"/>
<path fill-rule="evenodd" d="M261.595,294.119 L262.5,286.64 L273.868,294.393 L261.595,294.119"/>
<path fill-rule="evenodd" d="M259.965,307.478 L260.819,300.463 L263.386,306.381 L259.965,307.478"/>
<path fill-rule="evenodd" d="M258.023,323.568 L259.306,312.946 L263.462,316.879 L258.023,323.568"/>
<path fill-rule="evenodd" d="M263.386,306.381 L275.072,302.612 L266.385,313.277 L263.386,306.381"/>
<path fill-rule="evenodd" d="M273.868,294.393 L281.622,294.567 L278.946,297.854 L273.868,294.393"/>
<path fill-rule="evenodd" d="M288.26,271.342 L296.15,276.726 L290.157,284.081 L288.26,271.342"/>
<path fill-rule="evenodd" d="M297.426,238.295 L314.365,254.335 L302.053,269.465 L297.426,238.295"/>
<path fill-rule="evenodd" d="M305.678,217.784 L336.141,227.577 L319.044,248.597 L305.678,217.784"/>
<path fill-rule="evenodd" d="M314.365,254.335 L319.044,248.597 L326.529,265.828 L314.365,254.335"/>
<path fill-rule="evenodd" d="M296.15,276.726 L302.053,269.465 L303.915,282.01 L296.15,276.726"/>
<path fill-rule="evenodd" d="M281.622,294.567 L290.157,284.081 L291.745,294.79 L281.622,294.567"/>
<path fill-rule="evenodd" d="M275.072,302.612 L278.946,297.854 L282.444,300.235 L275.072,302.612"/>
<path fill-rule="evenodd" d="M291.745,294.79 L298.805,294.952 L292.092,297.119 L291.745,294.79"/>
<path fill-rule="evenodd" d="M303.915,282.01 L315.166,289.677 L305.52,292.783 L303.915,282.01"/>
<path fill-rule="evenodd" d="M298.805,294.952 L305.52,292.783 L305.865,295.113 L298.805,294.952"/>
<path fill-rule="evenodd" d="M282.444,300.235 L292.092,297.119 L293.692,307.899 L282.444,300.235"/>
<path fill-rule="evenodd" d="M263.462,316.879 L266.385,313.277 L271.078,324.081 L263.462,316.879"/>
<path fill-rule="evenodd" d="M251.842,374.085 L253.639,359.812 L261.513,362.258 L251.842,374.085"/>
<path fill-rule="evenodd" d="M271.078,324.081 L283.233,335.582 L278.568,341.323 L271.078,324.081"/>
<path fill-rule="evenodd" d="M293.692,307.899 L301.464,313.2 L295.56,320.443 L293.692,307.899"/>
<path fill-rule="evenodd" d="M305.865,295.113 L315.993,295.344 L307.46,305.826 L305.865,295.113"/>
<path fill-rule="evenodd" d="M315.166,289.677 L322.544,287.298 L318.666,292.062 L315.166,289.677"/>
<path fill-rule="evenodd" d="M326.529,265.828 L334.154,273.036 L331.221,276.629 L326.529,265.828"/>
<path fill-rule="evenodd" d="M322.544,287.298 L331.221,276.629 L334.219,283.534 L322.544,287.298"/>
<path fill-rule="evenodd" d="M315.993,295.344 L318.666,292.062 L323.74,295.518 L315.993,295.344"/>
<path fill-rule="evenodd" d="M301.464,313.2 L307.46,305.826 L309.351,318.566 L301.464,313.2"/>
<path fill-rule="evenodd" d="M283.233,335.582 L295.56,320.443 L300.2,351.6 L283.233,335.582"/>
<path fill-rule="evenodd" d="M261.513,362.258 L278.568,341.323 L291.954,372.089 L261.513,362.258"/>
<path fill-rule="evenodd" d="M239.109,479.382 L245.842,422.914 L288.209,394.097 L239.109,479.382"/>
<path fill-rule="evenodd" d="M291.954,372.089 L299.428,374.539 L295.791,380.928 L291.954,372.089"/>
<path fill-rule="evenodd" d="M300.2,351.6 L308.255,359.228 L302.762,368.808 L300.2,351.6"/>
<path fill-rule="evenodd" d="M309.351,318.566 L325.386,329.487 L313.921,349.37 L309.351,318.566"/>
<path fill-rule="evenodd" d="M308.255,359.228 L313.921,349.37 L316.553,367.095 L308.255,359.228"/>
<path fill-rule="evenodd" d="M299.428,374.539 L302.762,368.808 L303.838,375.933 L299.428,374.539"/>
<path fill-rule="evenodd" d="M288.209,394.097 L295.791,380.928 L298.47,387.103 L288.209,394.097"/>
<path fill-rule="evenodd" d="M303.838,375.933 L311.227,378.234 L304.767,382.722 L303.838,375.933"/>
<path fill-rule="evenodd" d="M316.553,367.095 L321.256,371.5 L317.562,373.996 L316.553,367.095"/>
<path fill-rule="evenodd" d="M311.227,378.234 L317.562,373.996 L318.633,380.678 L311.227,378.234"/>
<path fill-rule="evenodd" d="M298.47,387.103 L304.767,382.722 L309.095,411.637 L298.47,387.103"/>
<path fill-rule="evenodd" d="M309.095,411.637 L319.159,434.743 L316.192,459.216 L309.095,411.637"/>
<path fill-rule="evenodd" d="M318.633,380.678 L325.438,382.938 L322.538,407.113 L318.633,380.678"/>
<path fill-rule="evenodd" d="M321.256,371.5 L327.327,367.296 L326.241,376.266 L321.256,371.5"/>
<path fill-rule="evenodd" d="M325.386,329.487 L333.687,315.052 L331.434,333.618 L325.386,329.487"/>
<path fill-rule="evenodd" d="M323.74,295.518 L336.026,295.793 L335.117,303.263 L323.74,295.518"/>
<path fill-rule="evenodd" d="M334.219,283.534 L337.643,282.424 L336.792,289.445 L334.219,283.534"/>
<path fill-rule="evenodd" d="M334.154,273.036 L339.605,266.347 L338.31,276.962 L334.154,273.036"/>
<path fill-rule="evenodd" d="M336.141,227.577 L345.69,215.792 L344.007,230.202 L336.141,227.577"/>
<path fill-rule="evenodd" d="M309.427,195.837 L358.511,110.527 L351.553,166.874 L309.427,195.837"/>
<path fill-rule="evenodd" d="M345.69,215.792 L351.553,166.874 L427.926,114.619 L345.69,215.792"/>
<path fill-rule="evenodd" d="M339.605,266.347 L344.007,230.202 L363.864,236.562 L339.605,266.347"/>
<path fill-rule="evenodd" d="M337.643,282.424 L338.31,276.962 L342.449,280.873 L337.643,282.424"/>
<path fill-rule="evenodd" d="M336.026,295.793 L336.792,289.445 L339.586,295.868 L336.026,295.793"/>
<path fill-rule="evenodd" d="M333.687,315.052 L335.117,303.263 L338.96,305.891 L333.687,315.052"/>
<path fill-rule="evenodd" d="M339.586,295.868 L344.658,295.979 L341.793,300.96 L339.586,295.868"/>
<path fill-rule="evenodd" d="M342.449,280.873 L355.842,276.564 L349.51,287.555 L342.449,280.873"/>
<path fill-rule="evenodd" d="M363.864,236.562 L415.08,173.569 L376.53,240.628 L363.864,236.562"/>
<path fill-rule="evenodd" d="M427.926,114.619 L499.582,26.8143 L462.513,91.01 L427.926,114.619"/>
<path fill-rule="evenodd" d="M415.08,173.569 L462.513,91.01 L506.986,60.7272 L415.08,173.569"/>
<path fill-rule="evenodd" d="M355.842,276.564 L376.53,240.628 L421.902,255.282 L355.842,276.564"/>
<path fill-rule="evenodd" d="M344.658,295.979 L349.51,287.555 L358.758,296.307 L344.658,295.979"/>
<path fill-rule="evenodd" d="M338.96,305.891 L341.793,300.96 L346.022,310.708 L338.96,305.891"/>
<path fill-rule="evenodd" d="M327.327,367.296 L331.434,333.618 L354.04,349.008 L327.327,367.296"/>
<path fill-rule="evenodd" d="M346.022,310.708 L378.127,332.595 L360.71,344.549 L346.022,310.708"/>
<path fill-rule="evenodd" d="M358.758,296.307 L428.884,297.907 L389.144,325.045 L358.758,296.307"/>
<path fill-rule="evenodd" d="M421.902,255.282 L553.08,212.947 L469.02,270.487 L421.902,255.282"/>
<path fill-rule="evenodd" d="M428.884,297.907 L469.02,270.487 L563.592,300.911 L428.884,297.907"/>
<path fill-rule="evenodd" d="M378.127,332.595 L389.144,325.045 L446.114,378.86 L378.127,332.595"/>
<path fill-rule="evenodd" d="M354.04,349.008 L360.71,344.549 L366.337,357.346 L354.04,349.008"/>
<path fill-rule="evenodd" d="M325.438,382.938 L326.241,376.266 L337.336,386.755 L325.438,382.938"/>
<path fill-rule="evenodd" d="M366.337,357.346 L474.112,430.667 L385.932,402.282 L366.337,357.346"/>
<path fill-rule="evenodd" d="M446.114,378.86 L565.524,460.266 L514.965,443.866 L446.114,378.86"/>
<path fill-rule="evenodd" d="M474.112,430.667 L514.965,443.866 L570.443,496.464 L474.112,430.667"/>
<path fill-rule="evenodd" d="M337.336,386.755 L385.932,402.282 L408.142,453.683 L337.336,386.755"/>
<path fill-rule="evenodd" d="M319.159,434.743 L322.538,407.113 L330.499,460.857 L319.159,434.743"/>
<path fill-rule="evenodd" d="M211.04,0 L247.921,0 L267.107,129.052 L211.04,0"/>
<path fill-rule="evenodd" d="M45.3888,0 L130.277,0 L189.462,136.228 L45.3888,0"/>
<path fill-rule="evenodd" d="M0,74.9436 L0,67.7672 L27.1639,93.4519 L0,74.9436"/>
<path fill-rule="evenodd" d="M0,119.324 L0,107.804 L32.0774,129.659 L0,119.324"/>
<path fill-rule="evenodd" d="M0,288.242 L0,278.045 L34.0186,289.006 L0,288.242"/>
<path fill-rule="evenodd" d="M0,407.426 L0,391.335 L44.5355,376.97 L0,407.426"/>
<path fill-rule="evenodd" d="M33.0052,600 L0,600 L0,591.182 L90.6407,529.195 L33.0052,600"/>
<path fill-rule="evenodd" d="M76.8003,600 L67.9997,600 L98.0381,563.099 L76.8003,600"/>
<path fill-rule="evenodd" d="M224.471,600 L169.688,600 L239.109,479.382 L224.471,600"/>
<path fill-rule="evenodd" d="M371.925,0 L422.124,0 L358.511,110.527 L371.925,0"/>
<path fill-rule="evenodd" d="M515.015,0 L521.409,0 L499.582,26.8143 L515.015,0"/>
<path fill-rule="evenodd" d="M556.42,0 L595.789,0 L506.986,60.7272 L556.42,0"/>
<path fill-rule="evenodd" d="M600,180.86 L600,197.814 L553.08,212.947 L600,180.86"/>
<path fill-rule="evenodd" d="M600,301.729 L600,312.642 L563.592,300.911 L600,301.729"/>
<path fill-rule="evenodd" d="M600,471.375 L600,483.756 L565.524,460.266 L600,471.375"/>
<path fill-rule="evenodd" d="M600,516.602 L600,524.412 L570.443,496.464 L600,516.602"/>
<path fill-rule="evenodd" d="M562.887,600 L471.71,600 L408.142,453.683 L562.887,600"/>
<path fill-rule="evenodd" d="M390.951,600 L351.181,600 L330.499,460.857 L390.951,600"/>
<path fill-rule="evenodd" d="M262.001,0 L297.286,0 L281.426,130.691 L262.001,0"/>
<path fill-rule="evenodd" d="M337.122,600 L299.105,600 L316.192,459.216 L337.122,600"/>
</g>
</g>
</svg>
