<?xml version="1.0" encoding="UTF-8" standalone="no"?>
<svg width="282.222mm" height="165.1mm"
 viewBox="0 0 800 468"
 xmlns="http://www.w3.org/2000/svg" xmlns:xlink="http://www.w3.org/1999/xlink"  version="1.2" baseProfile="tiny">
<title>Qt Svg Document</title>
<desc>Generated with Qt</desc>
<defs>
</defs>
<g fill="none" stroke="black" vector-effect="non-scaling-stroke" stroke-width="1" fill-rule="evenodd" stroke-linecap="square" stroke-linejoin="bevel" >

<g fill="#000000" fill-opacity="1" stroke="none" transform="matrix(1,0,0,1,0,0)"
font-family="Helvetica" font-size="12pt" font-weight="400" font-style="normal" 
>
<path fill-rule="evenodd" d="M107.287,20.8901 L269.306,137.551 L229.373,130.059 L107.287,20.8901"/>
<path fill-rule="evenodd" d="M278.979,74.4167 L370.859,156.604 L315.115,146.146 L278.979,74.4167"/>
<path fill-rule="evenodd" d="M269.306,137.551 L315.115,146.146 L334.398,184.42 L269.306,137.551"/>
<path fill-rule="evenodd" d="M36.0902,93.7969 L229.373,130.059 L300.242,193.43 L36.0902,93.7969"/>
<path fill-rule="evenodd" d="M187.956,258.719 L226.835,252.16 L208.923,262.653 L187.956,258.719"/>
<path fill-rule="evenodd" d="M300.242,193.43 L316.576,199.591 L310.87,202.934 L300.242,193.43"/>
<path fill-rule="evenodd" d="M334.398,184.42 L338.017,187.03 L336.241,188.072 L334.398,184.42"/>
<path fill-rule="evenodd" d="M316.576,199.591 L336.241,188.072 L348.089,211.479 L316.576,199.591"/>
<path fill-rule="evenodd" d="M226.835,252.16 L310.87,202.934 L343.846,232.42 L226.835,252.16"/>
<path fill-rule="evenodd" d="M196.414,269.98 L208.923,262.653 L223.539,265.395 L196.414,269.98"/>
<path fill-rule="evenodd" d="M229.567,405.354 L264.452,366.9 L245.372,396.088 L229.567,405.354"/>
<path fill-rule="evenodd" d="M223.539,265.395 L344.132,245.007 L319.087,283.32 L223.539,265.395"/>
<path fill-rule="evenodd" d="M343.846,232.42 L353.415,230.806 L349.219,237.225 L343.846,232.42"/>
<path fill-rule="evenodd" d="M348.089,211.479 L362.507,216.919 L355.927,226.966 L348.089,211.479"/>
<path fill-rule="evenodd" d="M353.415,230.806 L355.927,226.966 L357.518,230.112 L353.415,230.806"/>
<path fill-rule="evenodd" d="M344.132,245.007 L349.219,237.225 L355.729,243.046 L344.132,245.007"/>
<path fill-rule="evenodd" d="M264.452,366.9 L319.087,283.32 L337.193,286.717 L264.452,366.9"/>
<path fill-rule="evenodd" d="M222.547,431.006 L245.372,396.088 L264.413,384.925 L222.547,431.006"/>
<path fill-rule="evenodd" d="M264.413,384.925 L348.601,292.263 L338.453,341.519 L264.413,384.925"/>
<path fill-rule="evenodd" d="M337.193,286.717 L353.509,268.731 L349.281,288.984 L337.193,286.717"/>
<path fill-rule="evenodd" d="M355.729,243.046 L358.983,242.499 L358.378,245.41 L355.729,243.046"/>
<path fill-rule="evenodd" d="M357.518,230.112 L361.697,229.403 L360.378,235.77 L357.518,230.112"/>
<path fill-rule="evenodd" d="M362.507,216.919 L365.087,212.994 L364.154,217.539 L362.507,216.919"/>
<path fill-rule="evenodd" d="M338.017,187.03 L374.89,165.344 L366.23,207.418 L338.017,187.03"/>
<path fill-rule="evenodd" d="M370.859,156.604 L376.477,157.659 L375.785,161.008 L370.859,156.604"/>
<path fill-rule="evenodd" d="M372.37,102.336 L383.41,124.196 L378.372,148.51 L372.37,102.336"/>
<path fill-rule="evenodd" d="M383.41,124.196 L388.471,99.7676 L394.359,145.876 L383.41,124.196"/>
<path fill-rule="evenodd" d="M376.477,157.659 L378.372,148.51 L379.638,158.254 L376.477,157.659"/>
<path fill-rule="evenodd" d="M374.89,165.344 L375.785,161.008 L378.353,163.305 L374.89,165.344"/>
<path fill-rule="evenodd" d="M379.638,158.254 L385.189,159.3 L380.156,162.246 L379.638,158.254"/>
<path fill-rule="evenodd" d="M394.359,145.876 L397.496,152.091 L395.317,153.369 L394.359,145.876"/>
<path fill-rule="evenodd" d="M385.189,159.3 L395.317,153.369 L396.35,161.406 L385.189,159.3"/>
<path fill-rule="evenodd" d="M378.353,163.305 L380.156,162.246 L380.539,165.253 L378.353,163.305"/>
<path fill-rule="evenodd" d="M365.087,212.994 L366.23,207.418 L367.94,208.656 L365.087,212.994"/>
<path fill-rule="evenodd" d="M380.539,165.253 L390.584,174.17 L383.093,185.578 L380.539,165.253"/>
<path fill-rule="evenodd" d="M396.35,161.406 L398.67,161.847 L396.782,164.731 L396.35,161.406"/>
<path fill-rule="evenodd" d="M397.496,152.091 L409.734,144.917 L400.783,158.612 L397.496,152.091"/>
<path fill-rule="evenodd" d="M398.67,161.847 L400.783,158.612 L402.807,162.635 L398.67,161.847"/>
<path fill-rule="evenodd" d="M390.584,174.17 L396.782,164.731 L398.998,181.639 L390.584,174.17"/>
<path fill-rule="evenodd" d="M367.94,208.656 L383.093,185.578 L387.801,223.035 L367.94,208.656"/>
<path fill-rule="evenodd" d="M361.697,229.403 L364.154,217.539 L385.169,225.426 L361.697,229.403"/>
<path fill-rule="evenodd" d="M387.801,223.035 L389.981,224.624 L388.049,224.945 L387.801,223.035"/>
<path fill-rule="evenodd" d="M385.169,225.426 L388.049,224.945 L388.265,226.581 L385.169,225.426"/>
<path fill-rule="evenodd" d="M358.983,242.499 L360.378,235.77 L363.406,241.759 L358.983,242.499"/>
<path fill-rule="evenodd" d="M353.509,268.731 L358.378,245.41 L367.385,253.435 L353.509,268.731"/>
<path fill-rule="evenodd" d="M363.406,241.759 L380.638,238.876 L368.619,252.076 L363.406,241.759"/>
<path fill-rule="evenodd" d="M388.265,226.581 L390.932,227.566 L388.711,230.01 L388.265,226.581"/>
<path fill-rule="evenodd" d="M389.981,224.624 L394.251,223.905 L392.154,226.221 L389.981,224.624"/>
<path fill-rule="evenodd" d="M398.998,181.639 L417.551,198.11 L403.234,213.96 L398.998,181.639"/>
<path fill-rule="evenodd" d="M402.807,162.635 L442.752,170.23 L419.541,195.908 L402.807,162.635"/>
<path fill-rule="evenodd" d="M417.551,198.11 L419.541,195.908 L423.137,203.066 L417.551,198.11"/>
<path fill-rule="evenodd" d="M394.251,223.905 L403.234,213.96 L404.316,222.22 L394.251,223.905"/>
<path fill-rule="evenodd" d="M390.932,227.566 L392.154,226.221 L396.996,229.792 L390.932,227.566"/>
<path fill-rule="evenodd" d="M380.638,238.876 L388.711,230.01 L389.675,237.363 L380.638,238.876"/>
<path fill-rule="evenodd" d="M367.385,253.435 L368.619,252.076 L370.855,256.518 L367.385,253.435"/>
<path fill-rule="evenodd" d="M348.601,292.263 L349.281,288.984 L351.24,289.353 L348.601,292.263"/>
<path fill-rule="evenodd" d="M370.855,256.518 L376.44,261.473 L374.451,263.675 L370.855,256.518"/>
<path fill-rule="evenodd" d="M389.675,237.363 L399.74,235.679 L390.758,245.623 L389.675,237.363"/>
<path fill-rule="evenodd" d="M396.996,229.792 L403.059,232.018 L401.837,233.363 L396.996,229.792"/>
<path fill-rule="evenodd" d="M404.316,222.22 L413.353,220.708 L405.28,229.574 L404.316,222.22"/>
<path fill-rule="evenodd" d="M423.137,203.066 L426.606,206.148 L425.373,207.507 L423.137,203.066"/>
<path fill-rule="evenodd" d="M413.353,220.708 L425.373,207.507 L430.586,217.824 L413.353,220.708"/>
<path fill-rule="evenodd" d="M403.059,232.018 L405.28,229.574 L405.726,233.003 L403.059,232.018"/>
<path fill-rule="evenodd" d="M399.74,235.679 L401.837,233.363 L404.01,234.959 L399.74,235.679"/>
<path fill-rule="evenodd" d="M405.726,233.003 L408.822,234.158 L405.943,234.639 L405.726,233.003"/>
<path fill-rule="evenodd" d="M404.01,234.959 L405.943,234.639 L406.19,236.549 L404.01,234.959"/>
<path fill-rule="evenodd" d="M376.44,261.473 L390.758,245.623 L394.993,277.944 L376.44,261.473"/>
<path fill-rule="evenodd" d="M351.24,289.353 L374.451,263.675 L391.185,296.948 L351.24,289.353"/>
<path fill-rule="evenodd" d="M325.446,404.648 L338.453,341.519 L384.259,314.664 L325.446,404.648"/>
<path fill-rule="evenodd" d="M391.185,296.948 L395.322,297.737 L393.209,300.971 L391.185,296.948"/>
<path fill-rule="evenodd" d="M394.993,277.944 L403.408,285.414 L397.21,294.853 L394.993,277.944"/>
<path fill-rule="evenodd" d="M406.19,236.549 L426.051,250.928 L410.898,274.006 L406.19,236.549"/>
<path fill-rule="evenodd" d="M403.408,285.414 L410.898,274.006 L413.452,294.33 L403.408,285.414"/>
<path fill-rule="evenodd" d="M395.322,297.737 L397.21,294.853 L397.642,298.177 L395.322,297.737"/>
<path fill-rule="evenodd" d="M384.259,314.664 L393.209,300.971 L396.495,307.491 L384.259,314.664"/>
<path fill-rule="evenodd" d="M397.642,298.177 L408.801,300.283 L398.674,306.213 L397.642,298.177"/>
<path fill-rule="evenodd" d="M413.452,294.33 L415.638,296.278 L413.835,297.336 L413.452,294.33"/>
<path fill-rule="evenodd" d="M408.801,300.283 L413.835,297.336 L414.353,301.329 L408.801,300.283"/>
<path fill-rule="evenodd" d="M396.495,307.491 L398.674,306.213 L399.632,313.706 L396.495,307.491"/>
<path fill-rule="evenodd" d="M399.632,313.706 L410.582,335.386 L405.52,359.813 L399.632,313.706"/>
<path fill-rule="evenodd" d="M414.353,301.329 L417.514,301.925 L415.619,311.074 L414.353,301.329"/>
<path fill-rule="evenodd" d="M415.638,296.278 L419.101,294.239 L418.207,298.575 L415.638,296.278"/>
<path fill-rule="evenodd" d="M426.051,250.928 L428.904,246.591 L427.762,252.166 L426.051,250.928"/>
<path fill-rule="evenodd" d="M408.822,234.158 L432.294,230.18 L429.837,242.045 L408.822,234.158"/>
<path fill-rule="evenodd" d="M430.586,217.824 L435.008,217.085 L433.614,223.813 L430.586,217.824"/>
<path fill-rule="evenodd" d="M426.606,206.148 L440.482,190.852 L435.614,214.173 L426.606,206.148"/>
<path fill-rule="evenodd" d="M442.752,170.23 L445.391,167.319 L444.711,170.599 L442.752,170.23"/>
<path fill-rule="evenodd" d="M409.734,144.917 L468.546,54.9351 L455.54,118.063 L409.734,144.917"/>
<path fill-rule="evenodd" d="M445.391,167.319 L455.54,118.063 L529.579,74.6569 L445.391,167.319"/>
<path fill-rule="evenodd" d="M440.482,190.852 L444.711,170.599 L456.799,172.867 L440.482,190.852"/>
<path fill-rule="evenodd" d="M435.008,217.085 L435.614,214.173 L438.263,216.538 L435.008,217.085"/>
<path fill-rule="evenodd" d="M432.294,230.18 L433.614,223.813 L436.474,229.472 L432.294,230.18"/>
<path fill-rule="evenodd" d="M428.904,246.591 L429.837,242.045 L431.485,242.665 L428.904,246.591"/>
<path fill-rule="evenodd" d="M436.474,229.472 L440.577,228.777 L438.065,232.618 L436.474,229.472"/>
<path fill-rule="evenodd" d="M438.263,216.538 L449.86,214.577 L444.773,222.359 L438.263,216.538"/>
<path fill-rule="evenodd" d="M456.799,172.867 L529.544,92.6785 L474.905,176.263 L456.799,172.867"/>
<path fill-rule="evenodd" d="M529.579,74.6569 L571.455,28.5653 L548.624,63.4914 L529.579,74.6569"/>
<path fill-rule="evenodd" d="M529.544,92.6785 L548.624,63.4914 L564.428,54.226 L529.544,92.6785"/>
<path fill-rule="evenodd" d="M449.86,214.577 L474.905,176.263 L570.453,194.189 L449.86,214.577"/>
<path fill-rule="evenodd" d="M440.577,228.777 L444.773,222.359 L450.146,227.164 L440.577,228.777"/>
<path fill-rule="evenodd" d="M431.485,242.665 L438.065,232.618 L445.903,248.105 L431.485,242.665"/>
<path fill-rule="evenodd" d="M419.101,294.239 L427.762,252.166 L455.974,272.553 L419.101,294.239"/>
<path fill-rule="evenodd" d="M445.903,248.105 L477.414,259.992 L457.75,271.511 L445.903,248.105"/>
<path fill-rule="evenodd" d="M450.146,227.164 L567.154,207.424 L483.121,256.649 L450.146,227.164"/>
<path fill-rule="evenodd" d="M570.453,194.189 L597.576,189.603 L585.067,196.93 L570.453,194.189"/>
<path fill-rule="evenodd" d="M567.154,207.424 L585.067,196.93 L606.036,200.864 L567.154,207.424"/>
<path fill-rule="evenodd" d="M477.414,259.992 L483.121,256.649 L493.751,266.155 L477.414,259.992"/>
<path fill-rule="evenodd" d="M455.974,272.553 L457.75,271.511 L459.594,275.164 L455.974,272.553"/>
<path fill-rule="evenodd" d="M417.514,301.925 L418.207,298.575 L423.132,302.98 L417.514,301.925"/>
<path fill-rule="evenodd" d="M459.594,275.164 L524.685,322.032 L478.876,313.438 L459.594,275.164"/>
<path fill-rule="evenodd" d="M493.751,266.155 L757.893,365.785 L564.618,329.524 L493.751,266.155"/>
<path fill-rule="evenodd" d="M524.685,322.032 L564.618,329.524 L686.702,438.692 L524.685,322.032"/>
<path fill-rule="evenodd" d="M423.132,302.98 L478.876,313.438 L515.012,385.166 L423.132,302.98"/>
<path fill-rule="evenodd" d="M410.582,335.386 L415.619,311.074 L421.621,357.244 L410.582,335.386"/>
<path fill-rule="evenodd" d="M320.758,0 L359.194,0 L372.37,102.336 L320.758,0"/>
<path fill-rule="evenodd" d="M195.687,0 L241.448,0 L278.979,74.4167 L195.687,0"/>
<path fill-rule="evenodd" d="M78.3165,0 L83.9055,0 L107.287,20.8901 L78.3165,0"/>
<path fill-rule="evenodd" d="M0,87.0172 L0,80.1975 L36.0902,93.7969 L0,87.0172"/>
<path fill-rule="evenodd" d="M0,290.434 L0,223.411 L187.956,258.719 L0,290.434"/>
<path fill-rule="evenodd" d="M0,385.132 L0,303.122 L196.414,269.98 L0,385.132"/>
<path fill-rule="evenodd" d="M172.205,468.571 L121.737,468.571 L229.567,405.354 L172.205,468.571"/>
<path fill-rule="evenodd" d="M197.974,468.571 L188.461,468.571 L222.547,431.006 L197.974,468.571"/>
<path fill-rule="evenodd" d="M312.232,468.571 L283.631,468.571 L325.446,404.648 L312.232,468.571"/>
<path fill-rule="evenodd" d="M479.903,0 L504.481,0 L468.546,54.9351 L479.903,0"/>
<path fill-rule="evenodd" d="M590.14,0 L597.374,0 L571.455,28.5653 L590.14,0"/>
<path fill-rule="evenodd" d="M613.631,0 L656.921,0 L564.428,54.226 L613.631,0"/>
<path fill-rule="evenodd" d="M800,70.9287 L800,155.448 L597.576,189.603 L800,70.9287"/>
<path fill-rule="evenodd" d="M800,168.136 L800,237.301 L606.036,200.864 L800,168.136"/>
<path fill-rule="evenodd" d="M800,373.695 L800,381.652 L757.893,365.785 L800,373.695"/>
<path fill-rule="evenodd" d="M728.139,468.571 L720.145,468.571 L686.702,438.692 L728.139,468.571"/>
<path fill-rule="evenodd" d="M608.365,468.571 L557.076,468.571 L515.012,385.166 L608.365,468.571"/>
<path fill-rule="evenodd" d="M477.768,468.571 L435.954,468.571 L421.621,357.244 L477.768,468.571"/>
<path fill-rule="evenodd" d="M375.627,0 L409.096,0 L388.471,99.7676 L375.627,0"/>
<path fill-rule="evenodd" d="M419.523,468.571 L383.037,468.571 L405.52,359.813 L419.523,468.571"/>
</g>
</g>
</svg>
