<?xml version="1.0" encoding="UTF-8" standalone="no"?>
<svg width="189.089mm" height="211.667mm"
 viewBox="0 0 536 600"
 xmlns="http://www.w3.org/2000/svg" xmlns:xlink="http://www.w3.org/1999/xlink"  version="1.2" baseProfile="tiny">
<title>Qt Svg Document</title>
<desc>Generated with Qt</desc>
<defs>
</defs>
<g fill="none" stroke="black" vector-effect="non-scaling-stroke" stroke-width="1" fill-rule="evenodd" stroke-linecap="square" stroke-linejoin="bevel" >

<g fill="#000000" fill-opacity="1" stroke="none" transform="matrix(1,0,0,1,0,0)"
font-family="Helvetica" font-size="12pt" font-weight="400" font-style="normal" 
>
<path fill-rule="evenodd" d="M24.2882,444.969 L167.64,352.023 L132.031,390.025 L24.2882,444.969"/>
<path fill-rule="evenodd" d="M162.703,342.911 L184.9,333.603 L180.576,338.217 L162.703,342.911"/>
<path fill-rule="evenodd" d="M52.3753,297.322 L215.692,300.741 L189.003,329.224 L52.3753,297.322"/>
<path fill-rule="evenodd" d="M90.8298,233.184 L226.002,289.738 L218.112,298.159 L90.8298,233.184"/>
<path fill-rule="evenodd" d="M49.3986,148.668 L241.421,273.282 L229.717,285.773 L49.3986,148.668"/>
<path fill-rule="evenodd" d="M238.339,264.607 L244.099,270.425 L242.485,272.147 L238.339,264.607"/>
<path fill-rule="evenodd" d="M241.421,273.282 L242.485,272.147 L244.044,274.984 L241.421,273.282"/>
<path fill-rule="evenodd" d="M226.002,289.738 L229.717,285.773 L245.854,298.043 L226.002,289.738"/>
<path fill-rule="evenodd" d="M215.692,300.741 L218.112,298.159 L223.49,300.904 L215.692,300.741"/>
<path fill-rule="evenodd" d="M184.9,333.603 L189.003,329.224 L193.074,330.175 L184.9,333.603"/>
<path fill-rule="evenodd" d="M167.64,352.023 L180.576,338.217 L194.62,334.529 L167.64,352.023"/>
<path fill-rule="evenodd" d="M193.074,330.175 L216.464,320.366 L199.149,331.593 L193.074,330.175"/>
<path fill-rule="evenodd" d="M223.49,300.904 L245.762,301.37 L236.353,307.471 L223.49,300.904"/>
<path fill-rule="evenodd" d="M245.854,298.043 L248.917,299.325 L248.173,299.807 L245.854,298.043"/>
<path fill-rule="evenodd" d="M245.762,301.37 L248.173,299.807 L250.356,301.466 L245.762,301.37"/>
<path fill-rule="evenodd" d="M216.464,320.366 L236.353,307.471 L241.253,309.971 L216.464,320.366"/>
<path fill-rule="evenodd" d="M194.62,334.529 L199.149,331.593 L202.671,332.415 L194.62,334.529"/>
<path fill-rule="evenodd" d="M75.3959,450.467 L132.031,390.025 L200.777,354.968 L75.3959,450.467"/>
<path fill-rule="evenodd" d="M202.671,332.415 L244.969,321.308 L223.883,337.368 L202.671,332.415"/>
<path fill-rule="evenodd" d="M200.777,354.968 L223.883,337.368 L231.707,339.195 L200.777,354.968"/>
<path fill-rule="evenodd" d="M231.707,339.195 L249.258,330.245 L245.906,342.511 L231.707,339.195"/>
<path fill-rule="evenodd" d="M243.749,350.404 L245.906,342.511 L248.204,343.047 L243.749,350.404"/>
<path fill-rule="evenodd" d="M248.204,343.047 L249.881,340.279 L249.718,343.401 L248.204,343.047"/>
<path fill-rule="evenodd" d="M249.258,330.245 L250.673,325.068 L250.435,329.645 L249.258,330.245"/>
<path fill-rule="evenodd" d="M244.969,321.308 L251.113,316.628 L250.951,319.737 L244.969,321.308"/>
<path fill-rule="evenodd" d="M241.253,309.971 L251.687,305.596 L251.195,315.047 L241.253,309.971"/>
<path fill-rule="evenodd" d="M250.356,301.466 L251.901,301.499 L251.844,302.597 L250.356,301.466"/>
<path fill-rule="evenodd" d="M248.917,299.325 L252.122,297.246 L251.948,300.593 L248.917,299.325"/>
<path fill-rule="evenodd" d="M244.044,274.984 L252.98,280.783 L252.483,290.332 L244.044,274.984"/>
<path fill-rule="evenodd" d="M244.099,270.425 L254.074,259.779 L253.049,279.465 L244.099,270.425"/>
<path fill-rule="evenodd" d="M235.847,68.6897 L259.895,148.042 L255.879,225.135 L235.847,68.6897"/>
<path fill-rule="evenodd" d="M259.895,148.042 L266.187,27.2424 L275.001,197.89 L259.895,148.042"/>
<path fill-rule="evenodd" d="M254.074,259.779 L255.879,225.135 L259.564,253.919 L254.074,259.779"/>
<path fill-rule="evenodd" d="M252.98,280.783 L253.049,279.465 L256.823,283.277 L252.98,280.783"/>
<path fill-rule="evenodd" d="M252.122,297.246 L252.483,290.332 L255.19,295.257 L252.122,297.246"/>
<path fill-rule="evenodd" d="M251.901,301.499 L251.948,300.593 L254.23,301.548 L251.901,301.499"/>
<path fill-rule="evenodd" d="M251.687,305.596 L251.844,302.597 L254.33,304.488 L251.687,305.596"/>
<path fill-rule="evenodd" d="M251.113,316.628 L251.195,315.047 L252.389,315.656 L251.113,316.628"/>
<path fill-rule="evenodd" d="M250.673,325.068 L250.951,319.737 L252.221,319.404 L250.673,325.068"/>
<path fill-rule="evenodd" d="M252.389,315.656 L253.471,314.832 L253.141,316.04 L252.389,315.656"/>
<path fill-rule="evenodd" d="M254.33,304.488 L256.553,303.555 L255.959,305.727 L254.33,304.488"/>
<path fill-rule="evenodd" d="M254.23,301.548 L257.085,301.607 L256.807,302.626 L254.23,301.548"/>
<path fill-rule="evenodd" d="M255.19,295.257 L259.602,292.396 L257.615,299.668 L255.19,295.257"/>
<path fill-rule="evenodd" d="M256.823,283.277 L261.301,286.183 L260.954,287.45 L256.823,283.277"/>
<path fill-rule="evenodd" d="M259.564,253.919 L274.464,238.018 L262.931,280.216 L259.564,253.919"/>
<path fill-rule="evenodd" d="M275.001,197.89 L280.485,215.988 L276.659,229.989 L275.001,197.89"/>
<path fill-rule="evenodd" d="M274.464,238.018 L276.659,229.989 L276.937,235.379 L274.464,238.018"/>
<path fill-rule="evenodd" d="M261.301,286.183 L262.931,280.216 L263.913,287.878 L261.301,286.183"/>
<path fill-rule="evenodd" d="M259.602,292.396 L260.954,287.45 L263.408,289.929 L259.602,292.396"/>
<path fill-rule="evenodd" d="M263.913,287.878 L265.241,288.74 L264.116,289.47 L263.913,287.878"/>
<path fill-rule="evenodd" d="M263.408,289.929 L264.116,289.47 L264.289,290.818 L263.408,289.929"/>
<path fill-rule="evenodd" d="M257.085,301.607 L257.615,299.668 L258.7,301.641 L257.085,301.607"/>
<path fill-rule="evenodd" d="M256.553,303.555 L256.807,302.626 L257.79,303.037 L256.553,303.555"/>
<path fill-rule="evenodd" d="M258.7,301.641 L261.003,301.689 L259.153,302.465 L258.7,301.641"/>
<path fill-rule="evenodd" d="M264.289,290.818 L270.93,297.526 L265.443,299.827 L264.289,290.818"/>
<path fill-rule="evenodd" d="M261.003,301.689 L265.443,299.827 L265.694,301.788 L261.003,301.689"/>
<path fill-rule="evenodd" d="M257.79,303.037 L259.153,302.465 L259.969,303.948 L257.79,303.037"/>
<path fill-rule="evenodd" d="M253.471,314.832 L255.959,305.727 L260.697,309.329 L253.471,314.832"/>
<path fill-rule="evenodd" d="M259.969,303.948 L264.998,306.052 L262.268,308.131 L259.969,303.948"/>
<path fill-rule="evenodd" d="M265.694,301.788 L270.466,301.887 L266.129,305.191 L265.694,301.788"/>
<path fill-rule="evenodd" d="M264.998,306.052 L266.129,305.191 L266.31,306.601 L264.998,306.052"/>
<path fill-rule="evenodd" d="M260.697,309.329 L262.268,308.131 L264.529,312.242 L260.697,309.329"/>
<path fill-rule="evenodd" d="M252.221,319.404 L253.141,316.04 L257.18,318.102 L252.221,319.404"/>
<path fill-rule="evenodd" d="M249.881,340.279 L250.435,329.645 L258.952,325.302 L249.881,340.279"/>
<path fill-rule="evenodd" d="M257.18,318.102 L264.472,316.187 L261.864,320.493 L257.18,318.102"/>
<path fill-rule="evenodd" d="M264.529,312.242 L266.125,313.456 L265.638,314.261 L264.529,312.242"/>
<path fill-rule="evenodd" d="M266.31,306.601 L269.475,307.926 L267.002,312.008 L266.31,306.601"/>
<path fill-rule="evenodd" d="M266.125,313.456 L267.002,312.008 L267.302,314.351 L266.125,313.456"/>
<path fill-rule="evenodd" d="M264.472,316.187 L265.638,314.261 L266.417,315.676 L264.472,316.187"/>
<path fill-rule="evenodd" d="M267.302,314.351 L268.37,315.163 L267.438,315.408 L267.302,314.351"/>
<path fill-rule="evenodd" d="M266.417,315.676 L267.438,315.408 L267.792,318.179 L266.417,315.676"/>
<path fill-rule="evenodd" d="M258.952,325.302 L261.864,320.493 L265.121,322.156 L258.952,325.302"/>
<path fill-rule="evenodd" d="M267.792,318.179 L268.915,320.221 L268.107,320.633 L267.792,318.179"/>
<path fill-rule="evenodd" d="M265.121,322.156 L268.107,320.633 L268.524,323.893 L265.121,322.156"/>
<path fill-rule="evenodd" d="M237.805,572.09 L249.718,343.401 L266.389,347.293 L237.805,572.09"/>
<path fill-rule="evenodd" d="M268.524,323.893 L269.314,324.296 L268.946,327.187 L268.524,323.893"/>
<path fill-rule="evenodd" d="M268.915,320.221 L269.895,319.721 L269.66,321.575 L268.915,320.221"/>
<path fill-rule="evenodd" d="M268.37,315.163 L270.547,314.591 L270.289,316.622 L268.37,315.163"/>
<path fill-rule="evenodd" d="M269.475,307.926 L271.905,303.912 L271.298,308.688 L269.475,307.926"/>
<path fill-rule="evenodd" d="M270.466,301.887 L272.345,300.457 L272.158,301.923 L270.466,301.887"/>
<path fill-rule="evenodd" d="M270.93,297.526 L272.818,296.735 L272.514,299.126 L270.93,297.526"/>
<path fill-rule="evenodd" d="M265.241,288.74 L274.607,282.668 L273.179,293.892 L265.241,288.74"/>
<path fill-rule="evenodd" d="M276.937,235.379 L281.198,230.832 L278.001,255.976 L276.937,235.379"/>
<path fill-rule="evenodd" d="M281.198,230.832 L282.317,222.032 L284.058,227.779 L281.198,230.832"/>
<path fill-rule="evenodd" d="M274.607,282.668 L278.001,255.976 L279.225,279.674 L274.607,282.668"/>
<path fill-rule="evenodd" d="M272.818,296.735 L273.179,293.892 L275.698,295.527 L272.818,296.735"/>
<path fill-rule="evenodd" d="M272.345,300.457 L272.514,299.126 L273.192,299.811 L272.345,300.457"/>
<path fill-rule="evenodd" d="M271.905,303.912 L272.158,301.923 L273.098,301.943 L271.905,303.912"/>
<path fill-rule="evenodd" d="M273.192,299.811 L275.414,298.119 L273.935,300.561 L273.192,299.811"/>
<path fill-rule="evenodd" d="M275.698,295.527 L277.422,294.804 L276.621,296.126 L275.698,295.527"/>
<path fill-rule="evenodd" d="M279.225,279.674 L291.344,271.816 L279.803,290.872 L279.225,279.674"/>
<path fill-rule="evenodd" d="M291.344,271.816 L295.383,265.147 L296.408,268.532 L291.344,271.816"/>
<path fill-rule="evenodd" d="M277.422,294.804 L279.803,290.872 L279.951,293.743 L277.422,294.804"/>
<path fill-rule="evenodd" d="M275.414,298.119 L276.621,296.126 L277.383,296.619 L275.414,298.119"/>
<path fill-rule="evenodd" d="M279.951,293.743 L282.638,292.617 L279.997,294.628 L279.951,293.743"/>
<path fill-rule="evenodd" d="M282.638,292.617 L299.756,279.578 L301.332,284.778 L282.638,292.617"/>
<path fill-rule="evenodd" d="M277.383,296.619 L279.997,294.628 L280.194,298.444 L277.383,296.619"/>
<path fill-rule="evenodd" d="M273.098,301.943 L273.935,300.561 L275.349,301.99 L273.098,301.943"/>
<path fill-rule="evenodd" d="M280.194,298.444 L286.001,302.213 L280.383,302.095 L280.194,298.444"/>
<path fill-rule="evenodd" d="M275.349,301.99 L280.383,302.095 L280.654,307.348 L275.349,301.99"/>
<path fill-rule="evenodd" d="M270.547,314.591 L271.298,308.688 L279.677,312.194 L270.547,314.591"/>
<path fill-rule="evenodd" d="M280.654,307.348 L284.26,310.99 L280.888,311.876 L280.654,307.348"/>
<path fill-rule="evenodd" d="M279.677,312.194 L280.888,311.876 L280.931,312.719 L279.677,312.194"/>
<path fill-rule="evenodd" d="M269.895,319.721 L270.289,316.622 L272.57,318.357 L269.895,319.721"/>
<path fill-rule="evenodd" d="M280.931,312.719 L282.412,313.338 L281,314.058 L280.931,312.719"/>
<path fill-rule="evenodd" d="M284.26,310.99 L289.939,309.499 L285.185,311.924 L284.26,310.99"/>
<path fill-rule="evenodd" d="M286.001,302.213 L303.509,302.579 L294.021,307.417 L286.001,302.213"/>
<path fill-rule="evenodd" d="M303.509,302.579 L306.296,301.158 L306.747,302.647 L303.509,302.579"/>
<path fill-rule="evenodd" d="M289.939,309.499 L294.021,307.417 L295.129,308.136 L289.939,309.499"/>
<path fill-rule="evenodd" d="M295.129,308.136 L307.431,304.906 L311.662,318.865 L295.129,308.136"/>
<path fill-rule="evenodd" d="M282.412,313.338 L285.185,311.924 L289.536,316.319 L282.412,313.338"/>
<path fill-rule="evenodd" d="M311.662,318.865 L340.764,337.752 L313.991,326.55 L311.662,318.865"/>
<path fill-rule="evenodd" d="M289.536,316.319 L313.991,326.55 L320.31,347.402 L289.536,316.319"/>
<path fill-rule="evenodd" d="M272.57,318.357 L281,314.058 L281.576,325.205 L272.57,318.357"/>
<path fill-rule="evenodd" d="M269.314,324.296 L269.66,321.575 L271.874,325.603 L269.314,324.296"/>
<path fill-rule="evenodd" d="M281.576,325.205 L302.991,341.487 L281.86,330.701 L281.576,325.205"/>
<path fill-rule="evenodd" d="M320.31,347.402 L326.167,353.318 L321.359,350.864 L320.31,347.402"/>
<path fill-rule="evenodd" d="M302.991,341.487 L321.359,350.864 L323.166,356.828 L302.991,341.487"/>
<path fill-rule="evenodd" d="M271.874,325.603 L281.86,330.701 L282.605,345.12 L271.874,325.603"/>
<path fill-rule="evenodd" d="M266.389,347.293 L268.946,327.187 L271.678,348.528 L266.389,347.293"/>
<path fill-rule="evenodd" d="M282.605,345.12 L286.364,351.957 L282.916,351.152 L282.605,345.12"/>
<path fill-rule="evenodd" d="M323.166,356.828 L330.232,362.2 L324.38,360.834 L323.166,356.828"/>
<path fill-rule="evenodd" d="M326.167,353.318 L354.807,367.938 L336.382,363.636 L326.167,353.318"/>
<path fill-rule="evenodd" d="M280.485,215.988 L285.348,198.197 L282.317,222.032 L280.485,215.988"/>
<path fill-rule="evenodd" d="M284.058,227.779 L380.068,125.316 L295.383,265.147 L284.058,227.779"/>
<path fill-rule="evenodd" d="M296.408,268.532 L416.413,190.724 L299.756,279.578 L296.408,268.532"/>
<path fill-rule="evenodd" d="M301.332,284.778 L510.052,197.252 L306.296,301.158 L301.332,284.778"/>
<path fill-rule="evenodd" d="M306.747,302.647 L315.349,302.827 L307.431,304.906 L306.747,302.647"/>
<path fill-rule="evenodd" d="M340.764,337.752 L486.301,398.641 L405.529,379.781 L340.764,337.752"/>
<path fill-rule="evenodd" d="M354.807,367.938 L405.529,379.781 L506.982,445.62 L354.807,367.938"/>
<path fill-rule="evenodd" d="M330.232,362.2 L336.382,363.636 L349.359,376.744 L330.232,362.2"/>
<path fill-rule="evenodd" d="M286.364,351.957 L324.38,360.834 L365.076,495.124 L286.364,351.957"/>
<path fill-rule="evenodd" d="M271.678,348.528 L282.916,351.152 L290.287,493.856 L271.678,348.528"/>
<path fill-rule="evenodd" d="M215.031,0 L227.052,0 L235.847,68.6897 L215.031,0"/>
<path fill-rule="evenodd" d="M0,23.8719 L0,0 L92.8591,0 L238.339,264.607 L0,23.8719"/>
<path fill-rule="evenodd" d="M0,116.61 L0,111.107 L49.3986,148.668 L0,116.61"/>
<path fill-rule="evenodd" d="M0,195.183 L0,186.818 L90.8298,233.184 L0,195.183"/>
<path fill-rule="evenodd" d="M0,296.226 L0,285.093 L52.3753,297.322 L0,296.226"/>
<path fill-rule="evenodd" d="M0,411.139 L0,385.636 L162.703,342.911 L0,411.139"/>
<path fill-rule="evenodd" d="M0,460.717 L0,457.355 L24.2882,444.969 L0,460.717"/>
<path fill-rule="evenodd" d="M0,530.931 L0,507.894 L75.3959,450.467 L0,530.931"/>
<path fill-rule="evenodd" d="M175.533,600 L92.5868,600 L243.749,350.404 L175.533,600"/>
<path fill-rule="evenodd" d="M236.352,600 L234.257,600 L237.805,572.09 L236.352,600"/>
<path fill-rule="evenodd" d="M310.549,0 L339.515,0 L285.348,198.197 L310.549,0"/>
<path fill-rule="evenodd" d="M455.963,0 L497.491,0 L380.068,125.316 L455.963,0"/>
<path fill-rule="evenodd" d="M536.283,99.4219 L536.283,113.002 L416.413,190.724 L536.283,99.4219"/>
<path fill-rule="evenodd" d="M536.283,183.875 L536.283,186.252 L510.052,197.252 L536.283,183.875"/>
<path fill-rule="evenodd" d="M536.283,244.811 L536.283,307.451 L315.349,302.827 L536.283,244.811"/>
<path fill-rule="evenodd" d="M536.283,410.312 L536.283,419.553 L486.301,398.641 L536.283,410.312"/>
<path fill-rule="evenodd" d="M536.283,460.577 L536.283,464.635 L506.982,445.62 L536.283,460.577"/>
<path fill-rule="evenodd" d="M536.283,518.872 L536.283,565.547 L349.359,376.744 L536.283,518.872"/>
<path fill-rule="evenodd" d="M422.737,600 L396.858,600 L365.076,495.124 L422.737,600"/>
<path fill-rule="evenodd" d="M303.878,600 L295.769,600 L290.287,493.856 L303.878,600"/>
<path fill-rule="evenodd" d="M264.78,0 L267.606,0 L266.187,27.2424 L264.78,0"/>
</g>
</g>
</svg>
