<?xml version="1.0" encoding="UTF-8" standalone="no"?>
<svg width="235.303mm" height="211.667mm"
 viewBox="0 0 667 600"
 xmlns="http://www.w3.org/2000/svg" xmlns:xlink="http://www.w3.org/1999/xlink"  version="1.2" baseProfile="tiny">
<title>Qt Svg Document</title>
<desc>Generated with Qt</desc>
<defs>
</defs>
<g fill="none" stroke="black" vector-effect="non-scaling-stroke" stroke-width="1" fill-rule="evenodd" stroke-linecap="square" stroke-linejoin="bevel" >

<g fill="#000000" fill-opacity="1" stroke="none" transform="matrix(1,0,0,1,0,0)"
font-family="Helvetica" font-size="12pt" font-weight="400" font-style="normal" 
>
<path fill-rule="evenodd" d="M30.2432,572.592 L193.048,457.014 L162.141,486.559 L30.2432,572.592"/>
<path fill-rule="evenodd" d="M160.962,427.831 L269.471,383.96 L233.329,418.51 L160.962,427.831"/>
<path fill-rule="evenodd" d="M265.868,382.061 L271.181,382.326 L270.191,383.272 L265.868,382.061"/>
<path fill-rule="evenodd" d="M269.471,383.96 L270.191,383.272 L270.771,383.434 L269.471,383.96"/>
<path fill-rule="evenodd" d="M193.048,457.014 L233.329,418.51 L250.383,416.313 L193.048,457.014"/>
<path fill-rule="evenodd" d="M80.0684,565.016 L162.141,486.559 L250.736,428.772 L80.0684,565.016"/>
<path fill-rule="evenodd" d="M250.736,428.772 L253.964,426.195 L253.689,426.848 L250.736,428.772"/>
<path fill-rule="evenodd" d="M250.383,416.313 L261.337,408.537 L258.528,415.264 L250.383,416.313"/>
<path fill-rule="evenodd" d="M270.771,383.434 L272.032,382.923 L271.709,383.698 L270.771,383.434"/>
<path fill-rule="evenodd" d="M271.181,382.326 L273.014,380.574 L272.26,382.379 L271.181,382.326"/>
<path fill-rule="evenodd" d="M224.69,333.676 L283.353,355.813 L282.015,359.018 L224.69,333.676"/>
<path fill-rule="evenodd" d="M236.379,319.898 L287.831,345.091 L283.469,355.533 L236.379,319.898"/>
<path fill-rule="evenodd" d="M283.353,355.813 L283.469,355.533 L284.313,356.172 L283.353,355.813"/>
<path fill-rule="evenodd" d="M273.014,380.574 L282.015,359.018 L291.279,363.115 L273.014,380.574"/>
<path fill-rule="evenodd" d="M284.313,356.172 L294.514,360.022 L292.251,362.185 L284.313,356.172"/>
<path fill-rule="evenodd" d="M291.279,363.115 L292.251,362.185 L296.569,365.45 L291.279,363.115"/>
<path fill-rule="evenodd" d="M272.032,382.923 L272.26,382.379 L273.256,382.429 L272.032,382.923"/>
<path fill-rule="evenodd" d="M261.337,408.537 L271.709,383.698 L289.348,388.646 L261.337,408.537"/>
<path fill-rule="evenodd" d="M253.964,426.195 L258.528,415.264 L269.417,413.861 L253.964,426.195"/>
<path fill-rule="evenodd" d="M234.18,473.57 L253.689,426.848 L272.94,414.291 L234.18,473.57"/>
<path fill-rule="evenodd" d="M269.417,413.861 L277.377,407.507 L273.572,413.326 L269.417,413.861"/>
<path fill-rule="evenodd" d="M289.348,388.646 L290.028,388.165 L289.659,388.73 L289.348,388.646"/>
<path fill-rule="evenodd" d="M273.256,382.429 L301.15,371.15 L293.123,383.426 L273.256,382.429"/>
<path fill-rule="evenodd" d="M296.569,365.45 L303.007,368.303 L302.124,369.66 L296.569,365.45"/>
<path fill-rule="evenodd" d="M301.15,371.15 L302.124,369.66 L303.062,370.373 L301.15,371.15"/>
<path fill-rule="evenodd" d="M290.028,388.165 L293.123,383.426 L296.473,383.594 L290.028,388.165"/>
<path fill-rule="evenodd" d="M277.377,407.507 L289.659,388.73 L297.977,391.062 L277.377,407.507"/>
<path fill-rule="evenodd" d="M272.94,414.291 L273.572,413.326 L274.629,413.189 L272.94,414.291"/>
<path fill-rule="evenodd" d="M274.629,413.189 L304.957,393.41 L306.005,409.149 L274.629,413.189"/>
<path fill-rule="evenodd" d="M297.977,391.062 L304.46,385.887 L304.931,393.009 L297.977,391.062"/>
<path fill-rule="evenodd" d="M296.473,383.594 L303.955,378.282 L304.334,383.988 L296.473,383.594"/>
<path fill-rule="evenodd" d="M303.062,370.373 L303.423,370.228 L303.453,370.67 L303.062,370.373"/>
<path fill-rule="evenodd" d="M303.007,368.303 L303.27,367.901 L303.306,368.436 L303.007,368.303"/>
<path fill-rule="evenodd" d="M294.514,360.022 L302.248,352.633 L302.954,363.207 L294.514,360.022"/>
<path fill-rule="evenodd" d="M287.831,345.091 L299.84,316.334 L302.215,352.133 L287.831,345.091"/>
<path fill-rule="evenodd" d="M266.711,251.411 L298.197,291.605 L299.707,314.332 L266.711,251.411"/>
<path fill-rule="evenodd" d="M262.549,73.5723 L291.012,183.391 L297.968,288.124 L262.549,73.5723"/>
<path fill-rule="evenodd" d="M291.012,183.391 L280.643,27.2663 L301.714,224.684 L291.012,183.391"/>
<path fill-rule="evenodd" d="M298.197,291.605 L297.968,288.124 L298.636,292.168 L298.197,291.605"/>
<path fill-rule="evenodd" d="M299.84,316.334 L299.707,314.332 L300.246,315.36 L299.84,316.334"/>
<path fill-rule="evenodd" d="M298.636,292.168 L306.003,301.572 L301.835,311.555 L298.636,292.168"/>
<path fill-rule="evenodd" d="M301.714,224.684 L315.653,278.465 L309.123,294.102 L301.714,224.684"/>
<path fill-rule="evenodd" d="M306.003,301.572 L309.123,294.102 L310.538,307.36 L306.003,301.572"/>
<path fill-rule="evenodd" d="M300.246,315.36 L301.835,311.555 L303.482,321.531 L300.246,315.36"/>
<path fill-rule="evenodd" d="M302.248,352.633 L302.215,352.133 L302.583,352.313 L302.248,352.633"/>
<path fill-rule="evenodd" d="M303.482,321.531 L313.929,341.463 L307.747,347.372 L303.482,321.531"/>
<path fill-rule="evenodd" d="M310.538,307.36 L327.265,328.714 L314.158,341.239 L310.538,307.36"/>
<path fill-rule="evenodd" d="M313.929,341.463 L314.158,341.239 L314.245,342.064 L313.929,341.463"/>
<path fill-rule="evenodd" d="M302.583,352.313 L307.747,347.372 L309.089,355.502 L302.583,352.313"/>
<path fill-rule="evenodd" d="M303.27,367.901 L302.954,363.207 L305.673,364.234 L303.27,367.901"/>
<path fill-rule="evenodd" d="M309.089,355.502 L310.826,356.353 L309.551,358.302 L309.089,355.502"/>
<path fill-rule="evenodd" d="M314.245,342.064 L316.883,347.088 L315.073,349.857 L314.245,342.064"/>
<path fill-rule="evenodd" d="M310.826,356.353 L315.073,349.857 L316.039,358.906 L310.826,356.353"/>
<path fill-rule="evenodd" d="M305.673,364.234 L309.551,358.302 L310.853,366.188 L305.673,364.234"/>
<path fill-rule="evenodd" d="M303.423,370.228 L303.306,368.436 L305.485,369.397 L303.423,370.228"/>
<path fill-rule="evenodd" d="M310.853,366.188 L312.181,366.69 L311.013,367.162 L310.853,366.188"/>
<path fill-rule="evenodd" d="M316.039,358.906 L322.992,362.315 L316.676,364.872 L316.039,358.906"/>
<path fill-rule="evenodd" d="M312.181,366.69 L316.676,364.872 L317.063,368.53 L312.181,366.69"/>
<path fill-rule="evenodd" d="M305.485,369.397 L311.013,367.162 L311.843,372.205 L305.485,369.397"/>
<path fill-rule="evenodd" d="M303.955,378.282 L303.453,370.67 L308.889,374.78 L303.955,378.282"/>
<path fill-rule="evenodd" d="M311.843,372.205 L312.261,372.39 L311.914,372.636 L311.843,372.205"/>
<path fill-rule="evenodd" d="M317.063,368.53 L317.479,368.686 L317.108,368.949 L317.063,368.53"/>
<path fill-rule="evenodd" d="M312.261,372.39 L317.108,368.949 L317.733,374.81 L312.261,372.39"/>
<path fill-rule="evenodd" d="M308.889,374.78 L311.914,372.636 L312.754,377.705 L308.889,374.78"/>
<path fill-rule="evenodd" d="M304.46,385.887 L304.334,383.988 L306.692,384.106 L304.46,385.887"/>
<path fill-rule="evenodd" d="M312.754,377.705 L313.758,378.465 L312.981,379.085 L312.754,377.705"/>
<path fill-rule="evenodd" d="M317.733,374.81 L318.124,374.983 L317.781,375.257 L317.733,374.81"/>
<path fill-rule="evenodd" d="M313.758,378.465 L317.781,375.257 L318.51,382.063 L313.758,378.465"/>
<path fill-rule="evenodd" d="M306.692,384.106 L312.981,379.085 L313.87,384.466 L306.692,384.106"/>
<path fill-rule="evenodd" d="M304.957,393.41 L304.931,393.009 L305.381,393.134 L304.957,393.41"/>
<path fill-rule="evenodd" d="M313.87,384.466 L318.31,384.692 L314.336,387.289 L313.87,384.466"/>
<path fill-rule="evenodd" d="M318.51,382.063 L320.282,383.407 L318.762,384.397 L318.51,382.063"/>
<path fill-rule="evenodd" d="M318.31,384.692 L318.762,384.397 L318.796,384.716 L318.31,384.692"/>
<path fill-rule="evenodd" d="M305.381,393.134 L314.336,387.289 L315.783,396.054 L305.381,393.134"/>
<path fill-rule="evenodd" d="M309.741,465.403 L306.005,409.149 L317.396,407.683 L309.741,465.403"/>
<path fill-rule="evenodd" d="M315.783,396.054 L318.829,396.908 L317.535,406.65 L315.783,396.054"/>
<path fill-rule="evenodd" d="M318.796,384.716 L320.436,384.795 L319.531,391.622 L318.796,384.716"/>
<path fill-rule="evenodd" d="M320.282,383.407 L320.657,383.162 L320.593,383.643 L320.282,383.407"/>
<path fill-rule="evenodd" d="M318.124,374.983 L322.166,371.753 L321.538,376.496 L318.124,374.983"/>
<path fill-rule="evenodd" d="M317.479,368.686 L323.104,364.689 L322.33,370.521 L317.479,368.686"/>
<path fill-rule="evenodd" d="M322.992,362.315 L323.446,362.131 L323.396,362.512 L322.992,362.315"/>
<path fill-rule="evenodd" d="M316.883,347.088 L327.616,330.677 L323.712,360.109 L316.883,347.088"/>
<path fill-rule="evenodd" d="M327.265,328.714 L327.965,328.046 L327.788,329.382 L327.265,328.714"/>
<path fill-rule="evenodd" d="M327.965,328.046 L328.147,326.669 L328.397,327.632 L327.965,328.046"/>
<path fill-rule="evenodd" d="M327.616,330.677 L327.788,329.382 L328.155,329.851 L327.616,330.677"/>
<path fill-rule="evenodd" d="M328.155,329.851 L328.739,328.957 L329.375,331.408 L328.155,329.851"/>
<path fill-rule="evenodd" d="M323.446,362.131 L323.712,360.109 L324.541,361.692 L323.446,362.131"/>
<path fill-rule="evenodd" d="M323.104,364.689 L323.396,362.512 L325.034,363.315 L323.104,364.689"/>
<path fill-rule="evenodd" d="M324.541,361.692 L331.009,359.076 L325.299,363.129 L324.541,361.692"/>
<path fill-rule="evenodd" d="M329.375,331.408 L343.887,349.935 L335.685,355.757 L329.375,331.408"/>
<path fill-rule="evenodd" d="M331.009,359.076 L335.685,355.757 L336.02,357.051 L331.009,359.076"/>
<path fill-rule="evenodd" d="M325.034,363.315 L325.299,363.129 L325.522,363.555 L325.034,363.315"/>
<path fill-rule="evenodd" d="M322.166,371.753 L322.33,370.521 L323.267,370.874 L322.166,371.753"/>
<path fill-rule="evenodd" d="M325.522,363.555 L329.811,365.65 L327.559,367.447 L325.522,363.555"/>
<path fill-rule="evenodd" d="M336.02,357.051 L345.252,353.32 L336.802,360.069 L336.02,357.051"/>
<path fill-rule="evenodd" d="M345.252,353.32 L346.044,352.687 L346.232,352.926 L345.252,353.32"/>
<path fill-rule="evenodd" d="M329.811,365.65 L336.802,360.069 L339.471,370.377 L329.811,365.65"/>
<path fill-rule="evenodd" d="M323.267,370.874 L327.559,367.447 L330.859,373.74 L323.267,370.874"/>
<path fill-rule="evenodd" d="M320.657,383.162 L321.538,376.496 L327.107,378.959 L320.657,383.162"/>
<path fill-rule="evenodd" d="M330.859,373.74 L333.551,374.756 L331.942,375.805 L330.859,373.74"/>
<path fill-rule="evenodd" d="M339.471,370.377 L339.927,370.601 L339.587,370.822 L339.471,370.377"/>
<path fill-rule="evenodd" d="M339.927,370.601 L353.26,361.9 L372.617,386.613 L339.927,370.601"/>
<path fill-rule="evenodd" d="M333.551,374.756 L339.587,370.822 L341.374,377.709 L333.551,374.756"/>
<path fill-rule="evenodd" d="M327.107,378.959 L331.942,375.805 L335.555,382.694 L327.107,378.959"/>
<path fill-rule="evenodd" d="M320.436,384.795 L320.593,383.643 L322.239,384.885 L320.436,384.795"/>
<path fill-rule="evenodd" d="M335.555,382.694 L342.826,385.913 L337.094,385.63 L335.555,382.694"/>
<path fill-rule="evenodd" d="M341.374,377.709 L366.227,387.09 L343.509,385.948 L341.374,377.709"/>
<path fill-rule="evenodd" d="M372.617,386.613 L374.433,387.503 L373.268,387.443 L372.617,386.613"/>
<path fill-rule="evenodd" d="M366.227,387.09 L373.268,387.443 L375.832,390.715 L366.227,387.09"/>
<path fill-rule="evenodd" d="M342.826,385.913 L343.509,385.948 L343.592,386.254 L342.826,385.913"/>
<path fill-rule="evenodd" d="M322.239,384.885 L337.094,385.63 L346.221,403.037 L322.239,384.885"/>
<path fill-rule="evenodd" d="M318.829,396.908 L319.531,391.622 L320.134,397.274 L318.829,396.908"/>
<path fill-rule="evenodd" d="M317.396,407.683 L317.535,406.65 L317.7,407.643 L317.396,407.683"/>
<path fill-rule="evenodd" d="M320.134,397.274 L344.707,404.164 L321.192,407.193 L320.134,397.274"/>
<path fill-rule="evenodd" d="M346.221,403.037 L347.273,403.834 L346.679,403.91 L346.221,403.037"/>
<path fill-rule="evenodd" d="M343.592,386.254 L375.217,400.234 L348.117,403.724 L343.592,386.254"/>
<path fill-rule="evenodd" d="M375.832,390.715 L394.473,397.753 L382.549,399.29 L375.832,390.715"/>
<path fill-rule="evenodd" d="M394.473,397.753 L395.183,397.664 L398.352,399.203 L394.473,397.753"/>
<path fill-rule="evenodd" d="M375.217,400.234 L382.549,399.29 L387.566,405.695 L375.217,400.234"/>
<path fill-rule="evenodd" d="M347.273,403.834 L348.117,403.724 L348.357,404.655 L347.273,403.834"/>
<path fill-rule="evenodd" d="M344.707,404.164 L346.679,403.91 L347.176,404.856 L344.707,404.164"/>
<path fill-rule="evenodd" d="M348.357,404.655 L349.477,405.503 L348.507,405.23 L348.357,404.655"/>
<path fill-rule="evenodd" d="M387.566,405.695 L452.343,434.333 L398.09,419.13 L387.566,405.695"/>
<path fill-rule="evenodd" d="M315.653,278.465 L343.343,212.153 L328.147,326.669 L315.653,278.465"/>
<path fill-rule="evenodd" d="M328.397,327.632 L331.62,324.551 L328.739,328.957 L328.397,327.632"/>
<path fill-rule="evenodd" d="M343.887,349.935 L394.552,313.969 L346.044,352.687 L343.887,349.935"/>
<path fill-rule="evenodd" d="M346.232,352.926 L400.934,330.805 L353.26,361.9 L346.232,352.926"/>
<path fill-rule="evenodd" d="M374.433,387.503 L446.164,391.096 L395.183,397.664 L374.433,387.503"/>
<path fill-rule="evenodd" d="M398.352,399.203 L604.245,476.935 L493.818,445.966 L398.352,399.203"/>
<path fill-rule="evenodd" d="M452.343,434.333 L493.818,445.966 L635.108,515.17 L452.343,434.333"/>
<path fill-rule="evenodd" d="M349.477,405.503 L398.09,419.13 L442.68,476.056 L349.477,405.503"/>
<path fill-rule="evenodd" d="M347.176,404.856 L348.507,405.23 L349.617,409.511 L347.176,404.856"/>
<path fill-rule="evenodd" d="M317.7,407.643 L321.192,407.193 L327.722,468.383 L317.7,407.643"/>
<path fill-rule="evenodd" d="M243.481,0 L250.404,0 L262.549,73.5723 L243.481,0"/>
<path fill-rule="evenodd" d="M69.7742,0 L134.873,0 L266.711,251.411 L69.7742,0"/>
<path fill-rule="evenodd" d="M0,204.135 L0,140.974 L236.379,319.898 L0,204.135"/>
<path fill-rule="evenodd" d="M0,248.869 L0,234.314 L224.69,333.676 L0,248.869"/>
<path fill-rule="evenodd" d="M0,368.738 L0,307.518 L265.868,382.061 L0,368.738"/>
<path fill-rule="evenodd" d="M0,492.911 L0,448.563 L160.962,427.831 L0,492.911"/>
<path fill-rule="evenodd" d="M0,594.061 L0,592.318 L30.2432,572.592 L0,594.061"/>
<path fill-rule="evenodd" d="M43.4715,600 L36.2444,600 L80.0684,565.016 L43.4715,600"/>
<path fill-rule="evenodd" d="M181.385,600 L151.51,600 L234.18,473.57 L181.385,600"/>
<path fill-rule="evenodd" d="M318.68,600 L291.882,600 L309.741,465.403 L318.68,600"/>
<path fill-rule="evenodd" d="M371.492,0 L431.934,0 L343.343,212.153 L371.492,0"/>
<path fill-rule="evenodd" d="M543.837,0 L667.148,0 L667.148,3.81179 L331.62,324.551 L543.837,0"/>
<path fill-rule="evenodd" d="M667.148,96.3604 L667.148,120.453 L394.552,313.969 L667.148,96.3604"/>
<path fill-rule="evenodd" d="M667.148,157.164 L667.148,223.169 L400.934,330.805 L667.148,157.164"/>
<path fill-rule="evenodd" d="M667.148,362.633 L667.148,402.17 L446.164,391.096 L667.148,362.633"/>
<path fill-rule="evenodd" d="M667.148,494.572 L667.148,500.677 L604.245,476.935 L667.148,494.572"/>
<path fill-rule="evenodd" d="M667.148,529.339 L667.148,530.861 L635.108,515.17 L667.148,529.339"/>
<path fill-rule="evenodd" d="M606.424,600 L539.769,600 L442.68,476.056 L606.424,600"/>
<path fill-rule="evenodd" d="M449.507,600 L398.987,600 L349.617,409.511 L449.507,600"/>
<path fill-rule="evenodd" d="M349.449,600 L341.769,600 L327.722,468.383 L349.449,600"/>
<path fill-rule="evenodd" d="M277.733,0 L278.833,0 L280.643,27.2663 L277.733,0"/>
</g>
</g>
</svg>
