<?xml version="1.0" encoding="UTF-8" standalone="no"?>
<svg width="202.847mm" height="211.667mm"
 viewBox="0 0 575 600"
 xmlns="http://www.w3.org/2000/svg" xmlns:xlink="http://www.w3.org/1999/xlink"  version="1.2" baseProfile="tiny">
<title>Qt Svg Document</title>
<desc>Generated with Qt</desc>
<defs>
</defs>
<g fill="none" stroke="black" vector-effect="non-scaling-stroke" stroke-width="1" fill-rule="evenodd" stroke-linecap="square" stroke-linejoin="bevel" >

<g fill="#000000" fill-opacity="1" stroke="none" transform="matrix(1,0,0,1,0,0)"
font-family="Helvetica" font-size="12pt" font-weight="400" font-style="normal" 
>
<path fill-rule="evenodd" d="M26.0793,465.785 L167.872,371.824 L132.613,410.284 L26.0793,465.785"/>
<path fill-rule="evenodd" d="M160.176,361.971 L187.533,350.378 L180.357,358.206 L160.176,361.971"/>
<path fill-rule="evenodd" d="M36.2786,314.037 L220.873,314.01 L189.637,348.083 L36.2786,314.037"/>
<path fill-rule="evenodd" d="M75.9709,238.808 L232.42,301.415 L222.793,311.916 L75.9709,238.808"/>
<path fill-rule="evenodd" d="M72.9298,173.511 L247.688,284.761 L236.527,296.935 L72.9298,173.511"/>
<path fill-rule="evenodd" d="M205.682,203.28 L262.039,269.107 L250.789,281.379 L205.682,203.28"/>
<path fill-rule="evenodd" d="M247.688,284.761 L250.789,281.379 L255.681,289.849 L247.688,284.761"/>
<path fill-rule="evenodd" d="M232.42,301.415 L236.527,296.935 L253.813,309.976 L232.42,301.415"/>
<path fill-rule="evenodd" d="M220.873,314.01 L222.793,311.916 L226.998,314.01 L220.873,314.01"/>
<path fill-rule="evenodd" d="M187.533,350.378 L189.637,348.083 L191.808,348.565 L187.533,350.378"/>
<path fill-rule="evenodd" d="M167.872,371.824 L180.357,358.206 L191.584,356.111 L167.872,371.824"/>
<path fill-rule="evenodd" d="M191.808,348.565 L222.777,335.441 L200.169,350.422 L191.808,348.565"/>
<path fill-rule="evenodd" d="M226.998,314.01 L255.123,314.006 L243.053,322.004 L226.998,314.01"/>
<path fill-rule="evenodd" d="M253.813,309.976 L258.422,311.82 L257.269,312.584 L253.813,309.976"/>
<path fill-rule="evenodd" d="M255.123,314.006 L257.269,312.584 L259.153,314.005 L255.123,314.006"/>
<path fill-rule="evenodd" d="M222.777,335.441 L243.053,322.004 L248.308,324.621 L222.777,335.441"/>
<path fill-rule="evenodd" d="M191.584,356.111 L200.169,350.422 L210.174,352.643 L191.584,356.111"/>
<path fill-rule="evenodd" d="M52.2731,497.919 L132.613,410.284 L224.612,362.355 L52.2731,497.919"/>
<path fill-rule="evenodd" d="M210.174,352.643 L245.288,346.092 L231.063,357.281 L210.174,352.643"/>
<path fill-rule="evenodd" d="M224.612,362.355 L231.063,357.281 L233.37,357.793 L224.612,362.355"/>
<path fill-rule="evenodd" d="M233.37,357.793 L248.083,350.128 L244.507,360.265 L233.37,357.793"/>
<path fill-rule="evenodd" d="M245.288,346.092 L251.127,341.498 L249.804,345.249 L245.288,346.092"/>
<path fill-rule="evenodd" d="M248.308,324.621 L258.624,320.249 L255.77,328.337 L248.308,324.621"/>
<path fill-rule="evenodd" d="M259.153,314.005 L260.827,314.005 L260.475,315.002 L259.153,314.005"/>
<path fill-rule="evenodd" d="M258.422,311.82 L262.566,309.074 L261.204,312.934 L258.422,311.82"/>
<path fill-rule="evenodd" d="M255.681,289.849 L266.841,296.954 L264.165,304.54 L255.681,289.849"/>
<path fill-rule="evenodd" d="M262.566,309.074 L264.165,304.54 L265.616,307.052 L262.566,309.074"/>
<path fill-rule="evenodd" d="M260.827,314.005 L261.204,312.934 L263.879,314.004 L260.827,314.005"/>
<path fill-rule="evenodd" d="M258.624,320.249 L260.475,315.002 L264.262,317.859 L258.624,320.249"/>
<path fill-rule="evenodd" d="M251.127,341.498 L255.77,328.337 L263.173,332.023 L251.127,341.498"/>
<path fill-rule="evenodd" d="M248.083,350.128 L249.804,345.249 L261.711,343.028 L248.083,350.128"/>
<path fill-rule="evenodd" d="M215.685,441.962 L244.507,360.265 L260.757,363.873 L215.685,441.962"/>
<path fill-rule="evenodd" d="M260.757,363.873 L265.644,355.406 L265.234,364.867 L260.757,363.873"/>
<path fill-rule="evenodd" d="M261.711,343.028 L266.284,340.645 L266.217,342.187 L261.711,343.028"/>
<path fill-rule="evenodd" d="M263.173,332.023 L266.781,329.185 L266.585,333.721 L263.173,332.023"/>
<path fill-rule="evenodd" d="M264.262,317.859 L267.329,316.56 L267.177,320.058 L264.262,317.859"/>
<path fill-rule="evenodd" d="M263.879,314.004 L267.44,314.004 L267.379,315.405 L263.879,314.004"/>
<path fill-rule="evenodd" d="M265.616,307.052 L267.804,305.603 L267.593,310.474 L265.616,307.052"/>
<path fill-rule="evenodd" d="M266.841,296.954 L268.367,292.631 L268.143,297.783 L266.841,296.954"/>
<path fill-rule="evenodd" d="M262.039,269.107 L269.752,260.695 L269.033,277.276 L262.039,269.107"/>
<path fill-rule="evenodd" d="M238.944,33.7757 L274.674,147.197 L270.179,250.838 L238.944,33.7757"/>
<path fill-rule="evenodd" d="M274.674,147.197 L279.876,27.2405 L290.348,196.956 L274.674,147.197"/>
<path fill-rule="evenodd" d="M269.752,260.695 L270.179,250.838 L271.347,258.954 L269.752,260.695"/>
<path fill-rule="evenodd" d="M268.367,292.631 L269.033,277.276 L272.397,281.206 L268.367,292.631"/>
<path fill-rule="evenodd" d="M271.347,258.954 L285.815,243.173 L273.926,276.874 L271.347,258.954"/>
<path fill-rule="evenodd" d="M290.348,196.956 L295.901,214.582 L292.101,225.354 L290.348,196.956"/>
<path fill-rule="evenodd" d="M285.815,243.173 L292.101,225.354 L292.734,235.625 L285.815,243.173"/>
<path fill-rule="evenodd" d="M272.397,281.206 L273.926,276.874 L274.984,284.228 L272.397,281.206"/>
<path fill-rule="evenodd" d="M267.804,305.603 L268.143,297.783 L273.989,301.504 L267.804,305.603"/>
<path fill-rule="evenodd" d="M274.984,284.228 L284.061,294.83 L277.167,299.398 L274.984,284.228"/>
<path fill-rule="evenodd" d="M273.989,301.504 L277.167,299.398 L277.821,303.944 L273.989,301.504"/>
<path fill-rule="evenodd" d="M267.44,314.004 L267.593,310.474 L269.631,314.003 L267.44,314.004"/>
<path fill-rule="evenodd" d="M267.329,316.56 L267.379,315.405 L268.755,315.955 L267.329,316.56"/>
<path fill-rule="evenodd" d="M269.631,314.003 L273.362,314.003 L270.364,315.273 L269.631,314.003"/>
<path fill-rule="evenodd" d="M277.821,303.944 L285.525,308.848 L278.929,311.643 L277.821,303.944"/>
<path fill-rule="evenodd" d="M273.362,314.003 L278.929,311.643 L279.268,314.002 L273.362,314.003"/>
<path fill-rule="evenodd" d="M268.755,315.955 L270.364,315.273 L271.361,316.999 L268.755,315.955"/>
<path fill-rule="evenodd" d="M266.781,329.185 L267.177,320.058 L272.897,324.374 L266.781,329.185"/>
<path fill-rule="evenodd" d="M271.361,316.999 L278.593,319.893 L274.77,322.901 L271.361,316.999"/>
<path fill-rule="evenodd" d="M279.268,314.002 L286.083,314.001 L279.961,318.817 L279.268,314.002"/>
<path fill-rule="evenodd" d="M278.593,319.893 L279.961,318.817 L280.209,320.539 L278.593,319.893"/>
<path fill-rule="evenodd" d="M272.897,324.374 L274.77,322.901 L277.723,328.014 L272.897,324.374"/>
<path fill-rule="evenodd" d="M266.284,340.645 L266.585,333.721 L273.226,337.029 L266.284,340.645"/>
<path fill-rule="evenodd" d="M265.644,355.406 L266.217,342.187 L274.125,340.712 L265.644,355.406"/>
<path fill-rule="evenodd" d="M273.226,337.029 L277.552,334.775 L275.576,338.199 L273.226,337.029"/>
<path fill-rule="evenodd" d="M277.723,328.014 L280.322,329.975 L279.589,331.246 L277.723,328.014"/>
<path fill-rule="evenodd" d="M280.209,320.539 L284.725,322.347 L281.318,328.249 L280.209,320.539"/>
<path fill-rule="evenodd" d="M280.322,329.975 L281.318,328.249 L281.718,331.028 L280.322,329.975"/>
<path fill-rule="evenodd" d="M277.552,334.775 L279.589,331.246 L280.685,333.143 L277.552,334.775"/>
<path fill-rule="evenodd" d="M281.718,331.028 L282.954,331.961 L281.929,332.495 L281.718,331.028"/>
<path fill-rule="evenodd" d="M280.685,333.143 L281.929,332.495 L282.466,336.226 L280.685,333.143"/>
<path fill-rule="evenodd" d="M274.125,340.712 L275.576,338.199 L278.852,339.83 L274.125,340.712"/>
<path fill-rule="evenodd" d="M282.466,336.226 L283.993,338.87 L282.876,339.079 L282.466,336.226"/>
<path fill-rule="evenodd" d="M278.852,339.83 L282.876,339.079 L283.303,342.046 L278.852,339.83"/>
<path fill-rule="evenodd" d="M256.249,572.051 L265.234,364.867 L281.361,368.447 L256.249,572.051"/>
<path fill-rule="evenodd" d="M283.303,342.046 L284.541,342.663 L284.011,346.962 L283.303,342.046"/>
<path fill-rule="evenodd" d="M283.993,338.87 L285.033,338.676 L284.83,340.32 L283.993,338.87"/>
<path fill-rule="evenodd" d="M282.954,331.961 L286.061,330.342 L285.614,333.967 L282.954,331.961"/>
<path fill-rule="evenodd" d="M284.725,322.347 L287.678,317.232 L286.938,323.232 L284.725,322.347"/>
<path fill-rule="evenodd" d="M286.083,314.001 L288.29,312.266 L288.076,314.001 L286.083,314.001"/>
<path fill-rule="evenodd" d="M285.525,308.848 L288.887,307.423 L288.479,310.729 L285.525,308.848"/>
<path fill-rule="evenodd" d="M284.061,294.83 L291.009,290.226 L289.637,301.344 L284.061,294.83"/>
<path fill-rule="evenodd" d="M292.734,235.625 L298.521,229.313 L294.405,262.692 L292.734,235.625"/>
<path fill-rule="evenodd" d="M298.521,229.313 L299.089,224.703 L300.025,227.673 L298.521,229.313"/>
<path fill-rule="evenodd" d="M291.009,290.226 L294.405,262.692 L295.903,286.982 L291.009,290.226"/>
<path fill-rule="evenodd" d="M288.887,307.423 L289.637,301.344 L293.256,305.571 L288.887,307.423"/>
<path fill-rule="evenodd" d="M288.29,312.266 L288.479,310.729 L289.455,311.35 L288.29,312.266"/>
<path fill-rule="evenodd" d="M287.678,317.232 L288.076,314.001 L289.543,314.001 L287.678,317.232"/>
<path fill-rule="evenodd" d="M289.455,311.35 L292.418,309.019 L290.638,312.103 L289.455,311.35"/>
<path fill-rule="evenodd" d="M293.256,305.571 L294.781,304.925 L293.944,306.375 L293.256,305.571"/>
<path fill-rule="evenodd" d="M295.903,286.982 L310.856,277.074 L296.795,301.435 L295.903,286.982"/>
<path fill-rule="evenodd" d="M310.856,277.074 L313.916,271.771 L314.77,274.48 L310.856,277.074"/>
<path fill-rule="evenodd" d="M294.781,304.925 L296.795,301.435 L296.954,304.004 L294.781,304.925"/>
<path fill-rule="evenodd" d="M292.418,309.019 L293.944,306.375 L294.683,307.237 L292.418,309.019"/>
<path fill-rule="evenodd" d="M296.954,304.004 L300.941,302.314 L297.039,305.384 L296.954,304.004"/>
<path fill-rule="evenodd" d="M300.941,302.314 L319.05,288.069 L320.876,293.866 L300.941,302.314"/>
<path fill-rule="evenodd" d="M294.683,307.237 L297.039,305.384 L297.345,310.347 L294.683,307.237"/>
<path fill-rule="evenodd" d="M289.543,314.001 L290.638,312.103 L293.618,314 L289.543,314.001"/>
<path fill-rule="evenodd" d="M297.345,310.347 L300.472,313.999 L297.57,313.999 L297.345,310.347"/>
<path fill-rule="evenodd" d="M293.618,314 L297.57,313.999 L297.732,316.619 L293.618,314"/>
<path fill-rule="evenodd" d="M286.061,330.342 L286.938,323.232 L294.161,326.122 L286.061,330.342"/>
<path fill-rule="evenodd" d="M297.732,316.619 L304.334,320.822 L298.189,324.024 L297.732,316.619"/>
<path fill-rule="evenodd" d="M300.472,313.999 L317.436,313.997 L305.703,320.109 L300.472,313.999"/>
<path fill-rule="evenodd" d="M317.436,313.997 L325.839,309.619 L327.217,313.995 L317.436,313.997"/>
<path fill-rule="evenodd" d="M304.334,320.822 L305.703,320.109 L308.684,323.591 L304.334,320.822"/>
<path fill-rule="evenodd" d="M294.161,326.122 L298.189,324.024 L298.424,327.828 L294.161,326.122"/>
<path fill-rule="evenodd" d="M285.033,338.676 L285.614,333.967 L290.503,337.656 L285.033,338.676"/>
<path fill-rule="evenodd" d="M298.424,327.828 L312.655,333.523 L298.933,336.083 L298.424,327.828"/>
<path fill-rule="evenodd" d="M308.684,323.591 L321.65,331.845 L316.563,332.794 L308.684,323.591"/>
<path fill-rule="evenodd" d="M321.65,331.845 L332.219,329.873 L335.647,340.755 L321.65,331.845"/>
<path fill-rule="evenodd" d="M312.655,333.523 L316.563,332.794 L319.549,336.282 L312.655,333.523"/>
<path fill-rule="evenodd" d="M335.647,340.755 L343.975,346.057 L336.357,343.008 L335.647,340.755"/>
<path fill-rule="evenodd" d="M319.549,336.282 L336.357,343.008 L342.789,363.428 L319.549,336.282"/>
<path fill-rule="evenodd" d="M290.503,337.656 L298.933,336.083 L299.446,344.403 L290.503,337.656"/>
<path fill-rule="evenodd" d="M284.541,342.663 L284.83,340.32 L286.846,343.811 L284.541,342.663"/>
<path fill-rule="evenodd" d="M299.446,344.403 L321.595,361.113 L299.808,350.265 L299.446,344.403"/>
<path fill-rule="evenodd" d="M342.789,363.428 L355.084,377.788 L345.868,373.199 L342.789,363.428"/>
<path fill-rule="evenodd" d="M321.595,361.113 L345.868,373.199 L348.44,381.365 L321.595,361.113"/>
<path fill-rule="evenodd" d="M286.846,343.811 L299.808,350.265 L300.913,368.165 L286.846,343.811"/>
<path fill-rule="evenodd" d="M281.361,368.447 L284.011,346.962 L287.292,369.764 L281.361,368.447"/>
<path fill-rule="evenodd" d="M300.913,368.165 L303.975,373.468 L301.202,372.852 L300.913,368.165"/>
<path fill-rule="evenodd" d="M348.44,381.365 L352.148,384.163 L349.108,383.488 L348.44,381.365"/>
<path fill-rule="evenodd" d="M355.084,377.788 L380.547,390.467 L362.511,386.463 L355.084,377.788"/>
<path fill-rule="evenodd" d="M295.901,214.582 L302.724,195.242 L299.089,224.703 L295.901,214.582"/>
<path fill-rule="evenodd" d="M300.025,227.673 L406.244,111.81 L313.916,271.771 L300.025,227.673"/>
<path fill-rule="evenodd" d="M314.77,274.48 L451.571,183.827 L319.05,288.069 L314.77,274.48"/>
<path fill-rule="evenodd" d="M320.876,293.866 L509.598,213.885 L325.839,309.619 L320.876,293.866"/>
<path fill-rule="evenodd" d="M327.217,313.995 L417.393,313.982 L332.219,329.873 L327.217,313.995"/>
<path fill-rule="evenodd" d="M343.975,346.057 L547.665,427.569 L431.511,401.782 L343.975,346.057"/>
<path fill-rule="evenodd" d="M380.547,390.467 L431.511,401.782 L532.925,466.341 L380.547,390.467"/>
<path fill-rule="evenodd" d="M352.148,384.163 L362.511,386.463 L375.852,402.047 L352.148,384.163"/>
<path fill-rule="evenodd" d="M303.975,373.468 L349.108,383.488 L396.319,533.356 L303.975,373.468"/>
<path fill-rule="evenodd" d="M287.292,369.764 L301.202,372.852 L311.31,536.674 L287.292,369.764"/>
<path fill-rule="evenodd" d="M228.304,0 L234.084,0 L238.944,33.7757 L228.304,0"/>
<path fill-rule="evenodd" d="M31.6486,0 L88.2768,0 L205.682,203.28 L31.6486,0"/>
<path fill-rule="evenodd" d="M0,127.085 L0,118.49 L72.9298,173.511 L0,127.085"/>
<path fill-rule="evenodd" d="M0,208.407 L0,200.98 L75.9709,238.808 L0,208.407"/>
<path fill-rule="evenodd" d="M0,314.042 L0,305.983 L36.2786,314.037 L0,314.042"/>
<path fill-rule="evenodd" d="M0,429.853 L0,391.854 L160.176,361.971 L0,429.853"/>
<path fill-rule="evenodd" d="M0,483.067 L0,479.372 L26.0793,465.785 L0,483.067"/>
<path fill-rule="evenodd" d="M0,554.939 L0,539.038 L52.2731,497.919 L0,554.939"/>
<path fill-rule="evenodd" d="M159.932,600 L124.469,600 L215.685,441.962 L159.932,600"/>
<path fill-rule="evenodd" d="M255.037,600 L252.801,600 L256.249,572.051 L255.037,600"/>
<path fill-rule="evenodd" d="M326.805,0 L371.602,0 L302.724,195.242 L326.805,0"/>
<path fill-rule="evenodd" d="M470.778,0 L508.746,0 L406.244,111.81 L470.778,0"/>
<path fill-rule="evenodd" d="M575.41,86.4138 L575.41,101.763 L451.571,183.827 L575.41,86.4138"/>
<path fill-rule="evenodd" d="M575.41,179.599 L575.41,185.994 L509.598,213.885 L575.41,179.599"/>
<path fill-rule="evenodd" d="M575.41,284.502 L575.41,313.96 L417.393,313.982 L575.41,284.502"/>
<path fill-rule="evenodd" d="M575.41,433.728 L575.41,438.671 L547.665,427.569 L575.41,433.728"/>
<path fill-rule="evenodd" d="M575.41,487.496 L575.41,493.387 L532.925,466.341 L575.41,487.496"/>
<path fill-rule="evenodd" d="M575.41,552.601 L575.41,600 L545.325,600 L375.852,402.047 L575.41,552.601"/>
<path fill-rule="evenodd" d="M434.81,600 L417.313,600 L396.319,533.356 L434.81,600"/>
<path fill-rule="evenodd" d="M320.423,600 L315.218,600 L311.31,536.674 L320.423,600"/>
<path fill-rule="evenodd" d="M278.195,0 L281.058,0 L279.876,27.2405 L278.195,0"/>
</g>
</g>
</svg>
