<?xml version="1.0" encoding="UTF-8" standalone="no"?>
<svg width="232.481mm" height="211.667mm"
 viewBox="0 0 659 600"
 xmlns="http://www.w3.org/2000/svg" xmlns:xlink="http://www.w3.org/1999/xlink"  version="1.2" baseProfile="tiny">
<title>Qt Svg Document</title>
<desc>Generated with Qt</desc>
<defs>
</defs>
<g fill="none" stroke="black" vector-effect="non-scaling-stroke" stroke-width="1" fill-rule="evenodd" stroke-linecap="square" stroke-linejoin="bevel" >

<g fill="#000000" fill-opacity="1" stroke="none" transform="matrix(1,0,0,1,0,0)"
font-family="Helvetica" font-size="12pt" font-weight="400" font-style="normal" 
>
<path fill-rule="evenodd" d="M29.8534,559.909 L276.168,395.354 L246.306,429.389 L29.8534,559.909"/>
<path fill-rule="evenodd" d="M272.782,387.666 L286.514,383.562 L284.736,385.588 L272.782,387.666"/>
<path fill-rule="evenodd" d="M134.684,352.164 L300.565,367.548 L287.377,382.579 L134.684,352.164"/>
<path fill-rule="evenodd" d="M293.739,363.962 L301.822,366.116 L300.699,367.395 L293.739,363.962"/>
<path fill-rule="evenodd" d="M300.565,367.548 L300.699,367.395 L301.111,367.598 L300.565,367.548"/>
<path fill-rule="evenodd" d="M286.514,383.562 L287.377,382.579 L288.834,382.869 L286.514,383.562"/>
<path fill-rule="evenodd" d="M276.168,395.354 L284.736,385.588 L292.912,384.167 L276.168,395.354"/>
<path fill-rule="evenodd" d="M288.834,382.869 L299.73,379.613 L293.472,383.793 L288.834,382.869"/>
<path fill-rule="evenodd" d="M292.912,384.167 L293.472,383.793 L294.214,383.941 L292.912,384.167"/>
<path fill-rule="evenodd" d="M122.643,570.33 L246.306,429.389 L288.588,403.893 L122.643,570.33"/>
<path fill-rule="evenodd" d="M288.588,403.893 L305.56,386.871 L302.364,395.586 L288.588,403.893"/>
<path fill-rule="evenodd" d="M294.214,383.941 L307.48,381.635 L305.789,386.247 L294.214,383.941"/>
<path fill-rule="evenodd" d="M305.56,386.871 L305.789,386.247 L306.117,386.312 L305.56,386.871"/>
<path fill-rule="evenodd" d="M299.056,404.606 L302.364,395.586 L307.734,392.348 L299.056,404.606"/>
<path fill-rule="evenodd" d="M307.734,392.348 L308.052,391.899 L308.056,392.154 L307.734,392.348"/>
<path fill-rule="evenodd" d="M306.117,386.312 L307.911,384.513 L307.952,386.678 L306.117,386.312"/>
<path fill-rule="evenodd" d="M307.48,381.635 L307.838,380.66 L307.855,381.57 L307.48,381.635"/>
<path fill-rule="evenodd" d="M299.73,379.613 L307.716,374.277 L307.772,377.21 L299.73,379.613"/>
<path fill-rule="evenodd" d="M301.111,367.598 L307.601,368.2 L307.651,370.824 L301.111,367.598"/>
<path fill-rule="evenodd" d="M301.822,366.116 L307.44,359.713 L307.59,367.652 L301.822,366.116"/>
<path fill-rule="evenodd" d="M292.135,343.405 L307.288,351.774 L307.404,357.825 L292.135,343.405"/>
<path fill-rule="evenodd" d="M301.004,337.753 L307.162,345.129 L307.281,351.398 L301.004,337.753"/>
<path fill-rule="evenodd" d="M245.622,101.878 L305.918,279.671 L306.857,329.049 L245.622,101.878"/>
<path fill-rule="evenodd" d="M305.918,279.671 L301.119,27.1586 L320.46,322.549 L305.918,279.671"/>
<path fill-rule="evenodd" d="M307.162,345.129 L306.857,329.049 L313.111,352.253 L307.162,345.129"/>
<path fill-rule="evenodd" d="M307.288,351.774 L307.281,351.398 L307.511,351.898 L307.288,351.774"/>
<path fill-rule="evenodd" d="M307.44,359.713 L307.404,357.825 L308.329,358.699 L307.44,359.713"/>
<path fill-rule="evenodd" d="M307.511,351.898 L312.082,354.422 L309.845,356.972 L307.511,351.898"/>
<path fill-rule="evenodd" d="M313.111,352.253 L313.537,352.763 L313.317,353.015 L313.111,352.253"/>
<path fill-rule="evenodd" d="M312.082,354.422 L313.317,353.015 L313.978,355.469 L312.082,354.422"/>
<path fill-rule="evenodd" d="M308.329,358.699 L309.845,356.972 L312.414,362.557 L308.329,358.699"/>
<path fill-rule="evenodd" d="M307.601,368.2 L307.59,367.652 L310.739,368.491 L307.601,368.2"/>
<path fill-rule="evenodd" d="M307.716,374.277 L307.651,370.824 L310.662,372.309 L307.716,374.277"/>
<path fill-rule="evenodd" d="M307.838,380.66 L307.772,377.21 L309.267,376.763 L307.838,380.66"/>
<path fill-rule="evenodd" d="M310.662,372.309 L310.978,372.098 L310.864,372.409 L310.662,372.309"/>
<path fill-rule="evenodd" d="M310.739,368.491 L312.249,368.631 L312.161,368.87 L310.739,368.491"/>
<path fill-rule="evenodd" d="M312.414,362.557 L313.946,364.004 L313.561,365.052 L312.414,362.557"/>
<path fill-rule="evenodd" d="M313.978,355.469 L316.554,356.892 L315.291,360.337 L313.978,355.469"/>
<path fill-rule="evenodd" d="M313.537,352.763 L321.321,343.892 L316.685,356.534 L313.537,352.763"/>
<path fill-rule="evenodd" d="M320.46,322.549 L324.634,334.858 L321.776,342.652 L320.46,322.549"/>
<path fill-rule="evenodd" d="M321.321,343.892 L321.776,342.652 L321.82,343.323 L321.321,343.892"/>
<path fill-rule="evenodd" d="M316.554,356.892 L316.685,356.534 L317.352,357.332 L316.554,356.892"/>
<path fill-rule="evenodd" d="M313.946,364.004 L315.291,360.337 L317.075,366.959 L313.946,364.004"/>
<path fill-rule="evenodd" d="M312.249,368.631 L313.561,365.052 L315.339,368.917 L312.249,368.631"/>
<path fill-rule="evenodd" d="M310.978,372.098 L312.161,368.87 L314.771,369.565 L310.978,372.098"/>
<path fill-rule="evenodd" d="M315.339,368.917 L315.692,368.95 L315.433,369.122 L315.339,368.917"/>
<path fill-rule="evenodd" d="M317.075,366.959 L317.736,367.584 L317.319,367.862 L317.075,366.959"/>
<path fill-rule="evenodd" d="M315.692,368.95 L317.319,367.862 L317.661,369.133 L315.692,368.95"/>
<path fill-rule="evenodd" d="M314.771,369.565 L315.433,369.122 L315.758,369.828 L314.771,369.565"/>
<path fill-rule="evenodd" d="M309.267,376.763 L310.864,372.409 L315.758,374.823 L309.267,376.763"/>
<path fill-rule="evenodd" d="M307.911,384.513 L307.855,381.57 L311.471,380.941 L307.911,384.513"/>
<path fill-rule="evenodd" d="M308.052,391.899 L307.952,386.678 L311.28,387.34 L308.052,391.899"/>
<path fill-rule="evenodd" d="M308.385,409.465 L308.056,392.154 L313.239,389.028 L308.385,409.465"/>
<path fill-rule="evenodd" d="M311.28,387.34 L314.832,382.323 L313.534,387.789 L311.28,387.34"/>
<path fill-rule="evenodd" d="M311.471,380.941 L316.314,376.085 L315.319,380.273 L311.471,380.941"/>
<path fill-rule="evenodd" d="M315.758,374.823 L316.679,374.548 L316.524,375.201 L315.758,374.823"/>
<path fill-rule="evenodd" d="M315.758,369.828 L317.679,370.339 L317.105,372.755 L315.758,369.828"/>
<path fill-rule="evenodd" d="M317.661,369.133 L317.959,369.16 L317.823,369.732 L317.661,369.133"/>
<path fill-rule="evenodd" d="M317.736,367.584 L318.446,367.109 L318.224,368.044 L317.736,367.584"/>
<path fill-rule="evenodd" d="M317.352,357.332 L320.372,359 L320.012,360.518 L317.352,357.332"/>
<path fill-rule="evenodd" d="M321.82,343.323 L324.94,339.767 L322.312,350.834 L321.82,343.323"/>
<path fill-rule="evenodd" d="M324.94,339.767 L325.5,337.411 L325.92,338.65 L324.94,339.767"/>
<path fill-rule="evenodd" d="M320.372,359 L322.312,350.834 L322.939,360.418 L320.372,359"/>
<path fill-rule="evenodd" d="M318.446,367.109 L320.012,360.518 L322.984,364.078 L318.446,367.109"/>
<path fill-rule="evenodd" d="M322.939,360.418 L325.963,362.088 L323.171,363.952 L322.939,360.418"/>
<path fill-rule="evenodd" d="M322.984,364.078 L323.171,363.952 L323.196,364.332 L322.984,364.078"/>
<path fill-rule="evenodd" d="M317.959,369.16 L318.224,368.044 L319.563,369.309 L317.959,369.16"/>
<path fill-rule="evenodd" d="M317.679,370.339 L317.823,369.732 L318.01,370.428 L317.679,370.339"/>
<path fill-rule="evenodd" d="M316.679,374.548 L317.105,372.755 L317.778,374.219 L316.679,374.548"/>
<path fill-rule="evenodd" d="M316.314,376.085 L316.524,375.201 L316.974,375.423 L316.314,376.085"/>
<path fill-rule="evenodd" d="M317.778,374.219 L318.341,374.051 L317.903,374.491 L317.778,374.219"/>
<path fill-rule="evenodd" d="M318.01,370.428 L321.127,371.258 L318.85,373.541 L318.01,370.428"/>
<path fill-rule="evenodd" d="M319.563,369.309 L322.773,369.607 L321.369,371.014 L319.563,369.309"/>
<path fill-rule="evenodd" d="M323.196,364.332 L325.4,366.971 L323.494,368.884 L323.196,364.332"/>
<path fill-rule="evenodd" d="M322.773,369.607 L323.494,368.884 L323.545,369.678 L322.773,369.607"/>
<path fill-rule="evenodd" d="M321.127,371.258 L321.369,371.014 L321.823,371.443 L321.127,371.258"/>
<path fill-rule="evenodd" d="M318.341,374.051 L318.85,373.541 L318.939,373.873 L318.341,374.051"/>
<path fill-rule="evenodd" d="M316.974,375.423 L317.903,374.491 L318.729,376.288 L316.974,375.423"/>
<path fill-rule="evenodd" d="M314.832,382.323 L315.319,380.273 L316.419,380.081 L314.832,382.323"/>
<path fill-rule="evenodd" d="M318.729,376.288 L319.008,376.426 L318.877,376.61 L318.729,376.288"/>
<path fill-rule="evenodd" d="M318.939,373.873 L321.319,373.162 L319.456,375.792 L318.939,373.873"/>
<path fill-rule="evenodd" d="M321.823,371.443 L322.423,371.602 L322.25,371.846 L321.823,371.443"/>
<path fill-rule="evenodd" d="M323.545,369.678 L323.771,369.699 L323.566,369.988 L323.545,369.678"/>
<path fill-rule="evenodd" d="M325.4,366.971 L326.439,365.929 L325.563,367.167 L325.4,366.971"/>
<path fill-rule="evenodd" d="M325.963,362.088 L332.027,358.037 L328.261,363.357 L325.963,362.088"/>
<path fill-rule="evenodd" d="M332.027,358.037 L332.343,357.589 L332.409,357.782 L332.027,358.037"/>
<path fill-rule="evenodd" d="M326.439,365.929 L328.261,363.357 L328.74,363.621 L326.439,365.929"/>
<path fill-rule="evenodd" d="M328.74,363.621 L332.955,359.394 L335.691,367.46 L328.74,363.621"/>
<path fill-rule="evenodd" d="M323.771,369.699 L325.563,367.167 L328.006,370.092 L323.771,369.699"/>
<path fill-rule="evenodd" d="M322.423,371.602 L323.566,369.988 L323.694,371.941 L322.423,371.602"/>
<path fill-rule="evenodd" d="M321.319,373.162 L322.25,371.846 L323.084,372.634 L321.319,373.162"/>
<path fill-rule="evenodd" d="M323.694,371.941 L324.597,372.182 L323.727,372.442 L323.694,371.941"/>
<path fill-rule="evenodd" d="M328.006,370.092 L330.741,370.346 L328.721,370.949 L328.006,370.092"/>
<path fill-rule="evenodd" d="M335.691,367.46 L337.344,368.373 L336.124,368.737 L335.691,367.46"/>
<path fill-rule="evenodd" d="M330.741,370.346 L336.124,368.737 L336.862,370.913 L330.741,370.346"/>
<path fill-rule="evenodd" d="M324.597,372.182 L328.721,370.949 L331.224,373.947 L324.597,372.182"/>
<path fill-rule="evenodd" d="M323.084,372.634 L323.727,372.442 L323.782,373.294 L323.084,372.634"/>
<path fill-rule="evenodd" d="M319.008,376.426 L319.456,375.792 L319.722,376.778 L319.008,376.426"/>
<path fill-rule="evenodd" d="M316.419,380.081 L318.877,376.61 L320.174,379.429 L316.419,380.081"/>
<path fill-rule="evenodd" d="M319.722,376.778 L323.813,378.796 L320.425,379.385 L319.722,376.778"/>
<path fill-rule="evenodd" d="M323.782,373.294 L328.708,377.946 L324.139,378.739 L323.782,373.294"/>
<path fill-rule="evenodd" d="M323.813,378.796 L324.139,378.739 L324.154,378.964 L323.813,378.796"/>
<path fill-rule="evenodd" d="M320.174,379.429 L320.425,379.385 L320.808,380.807 L320.174,379.429"/>
<path fill-rule="evenodd" d="M313.239,389.028 L313.534,387.789 L314.856,388.053 L313.239,389.028"/>
<path fill-rule="evenodd" d="M320.808,380.807 L322.125,383.67 L321.656,383.953 L320.808,380.807"/>
<path fill-rule="evenodd" d="M324.154,378.964 L327.331,380.531 L324.373,382.314 L324.154,378.964"/>
<path fill-rule="evenodd" d="M328.708,377.946 L332.797,377.235 L329.842,379.017 L328.708,377.946"/>
<path fill-rule="evenodd" d="M331.224,373.947 L336.097,375.245 L333.577,376.764 L331.224,373.947"/>
<path fill-rule="evenodd" d="M336.862,370.913 L342.424,371.43 L337.952,374.127 L336.862,370.913"/>
<path fill-rule="evenodd" d="M342.424,371.43 L342.642,371.298 L342.971,371.481 L342.424,371.43"/>
<path fill-rule="evenodd" d="M336.097,375.245 L337.952,374.127 L338.552,375.899 L336.097,375.245"/>
<path fill-rule="evenodd" d="M332.797,377.235 L333.577,376.764 L333.821,377.057 L332.797,377.235"/>
<path fill-rule="evenodd" d="M338.552,375.899 L339.315,376.102 L338.66,376.216 L338.552,375.899"/>
<path fill-rule="evenodd" d="M339.315,376.102 L348.46,374.512 L362.541,382.289 L339.315,376.102"/>
<path fill-rule="evenodd" d="M333.821,377.057 L338.66,376.216 L342.45,387.392 L333.821,377.057"/>
<path fill-rule="evenodd" d="M327.331,380.531 L329.842,379.017 L335.944,384.779 L327.331,380.531"/>
<path fill-rule="evenodd" d="M342.45,387.392 L343.297,388.406 L342.693,388.108 L342.45,387.392"/>
<path fill-rule="evenodd" d="M335.944,384.779 L342.693,388.108 L344.213,392.588 L335.944,384.779"/>
<path fill-rule="evenodd" d="M322.125,383.67 L324.373,382.314 L324.849,389.591 L322.125,383.67"/>
<path fill-rule="evenodd" d="M314.856,388.053 L321.656,383.953 L323.21,389.717 L314.856,388.053"/>
<path fill-rule="evenodd" d="M324.849,389.591 L325.078,390.089 L324.879,390.049 L324.849,389.591"/>
<path fill-rule="evenodd" d="M344.213,392.588 L345.973,394.251 L344.69,393.996 L344.213,392.588"/>
<path fill-rule="evenodd" d="M343.297,388.406 L361.363,397.317 L348.617,394.778 L343.297,388.406"/>
<path fill-rule="evenodd" d="M324.634,334.858 L328.813,323.465 L325.5,337.411 L324.634,334.858"/>
<path fill-rule="evenodd" d="M325.92,338.65 L428.644,221.574 L332.343,357.589 L325.92,338.65"/>
<path fill-rule="evenodd" d="M332.409,357.782 L338.862,353.47 L332.955,359.394 L332.409,357.782"/>
<path fill-rule="evenodd" d="M337.344,368.373 L357.467,362.359 L342.642,371.298 L337.344,368.373"/>
<path fill-rule="evenodd" d="M342.971,371.481 L357.927,372.867 L348.46,374.512 L342.971,371.481"/>
<path fill-rule="evenodd" d="M362.541,382.289 L589.783,442.817 L405.769,406.162 L362.541,382.289"/>
<path fill-rule="evenodd" d="M361.363,397.317 L405.769,406.162 L626.922,528.298 L361.363,397.317"/>
<path fill-rule="evenodd" d="M345.973,394.251 L348.617,394.778 L356.395,404.094 L345.973,394.251"/>
<path fill-rule="evenodd" d="M325.078,390.089 L344.69,393.996 L394.686,541.419 L325.078,390.089"/>
<path fill-rule="evenodd" d="M323.21,389.717 L324.879,390.049 L325.387,397.793 L323.21,389.717"/>
<path fill-rule="evenodd" d="M211.072,0 L218.161,0 L245.622,101.878 L211.072,0"/>
<path fill-rule="evenodd" d="M18.9988,0 L145.644,0 L301.004,337.753 L18.9988,0"/>
<path fill-rule="evenodd" d="M0,182.068 L0,67.5082 L292.135,343.405 L0,182.068"/>
<path fill-rule="evenodd" d="M0,285.722 L0,219.082 L293.739,363.962 L0,285.722"/>
<path fill-rule="evenodd" d="M0,339.673 L0,325.336 L134.684,352.164 L0,339.673"/>
<path fill-rule="evenodd" d="M0,469.183 L0,435.079 L272.782,387.666 L0,469.183"/>
<path fill-rule="evenodd" d="M0,579.853 L0,577.91 L29.8534,559.909 L0,579.853"/>
<path fill-rule="evenodd" d="M96.61,600 L93.0603,600 L122.643,570.33 L96.61,600"/>
<path fill-rule="evenodd" d="M227.4,600 L160.715,600 L299.056,404.606 L227.4,600"/>
<path fill-rule="evenodd" d="M312.007,600 L263.127,600 L308.385,409.465 L312.007,600"/>
<path fill-rule="evenodd" d="M405.646,0 L447.436,0 L328.813,323.465 L405.646,0"/>
<path fill-rule="evenodd" d="M585.52,0 L623.055,0 L428.644,221.574 L585.52,0"/>
<path fill-rule="evenodd" d="M659.227,32.155 L659.227,139.444 L338.862,353.47 L659.227,32.155"/>
<path fill-rule="evenodd" d="M659.227,180.399 L659.227,272.182 L357.467,362.359 L659.227,180.399"/>
<path fill-rule="evenodd" d="M659.227,320.497 L659.227,400.809 L357.927,372.867 L659.227,320.497"/>
<path fill-rule="evenodd" d="M659.227,456.649 L659.227,461.314 L589.783,442.817 L659.227,456.649"/>
<path fill-rule="evenodd" d="M659.227,544.232 L659.227,546.139 L626.922,528.298 L659.227,544.232"/>
<path fill-rule="evenodd" d="M563.831,600 L519.966,600 L356.395,404.094 L563.831,600"/>
<path fill-rule="evenodd" d="M421.633,600 L414.553,600 L394.686,541.419 L421.633,600"/>
<path fill-rule="evenodd" d="M379.892,600 L338.627,600 L325.387,397.793 L379.892,600"/>
<path fill-rule="evenodd" d="M299.34,0 L300.602,0 L301.119,27.1586 L299.34,0"/>
</g>
</g>
</svg>
