<?xml version="1.0" encoding="UTF-8" standalone="no"?>
<svg width="219.075mm" height="211.667mm"
 viewBox="0 0 621 600"
 xmlns="http://www.w3.org/2000/svg" xmlns:xlink="http://www.w3.org/1999/xlink"  version="1.2" baseProfile="tiny">
<title>Qt Svg Document</title>
<desc>Generated with Qt</desc>
<defs>
</defs>
<g fill="none" stroke="black" vector-effect="non-scaling-stroke" stroke-width="1" fill-rule="evenodd" stroke-linecap="square" stroke-linejoin="bevel" >

<g fill="#000000" fill-opacity="1" stroke="none" transform="matrix(1,0,0,1,0,0)"
font-family="Helvetica" font-size="12pt" font-weight="400" font-style="normal" 
>
<path fill-rule="evenodd" d="M39.2537,498.484 L205.052,381.994 L161.035,429.333 L39.2537,498.484"/>
<path fill-rule="evenodd" d="M217.125,359.204 L232.572,352.397 L229.084,356.148 L217.125,359.204"/>
<path fill-rule="evenodd" d="M151.71,315.844 L264.412,318.154 L243.101,341.073 L151.71,315.844"/>
<path fill-rule="evenodd" d="M103.975,235.691 L274.71,307.078 L264.884,317.646 L103.975,235.691"/>
<path fill-rule="evenodd" d="M121.624,187.117 L288.318,292.444 L277.788,303.768 L121.624,187.117"/>
<path fill-rule="evenodd" d="M260.645,242.594 L296.605,283.532 L289.577,291.09 L260.645,242.594"/>
<path fill-rule="evenodd" d="M288.318,292.444 L289.577,291.09 L291.635,294.54 L288.318,292.444"/>
<path fill-rule="evenodd" d="M274.71,307.078 L277.788,303.768 L291.767,314.21 L274.71,307.078"/>
<path fill-rule="evenodd" d="M264.412,318.154 L264.884,317.646 L265.943,318.186 L264.412,318.154"/>
<path fill-rule="evenodd" d="M232.572,352.397 L243.101,341.073 L252.423,343.647 L232.572,352.397"/>
<path fill-rule="evenodd" d="M205.052,381.994 L229.084,356.148 L249.139,351.019 L205.052,381.994"/>
<path fill-rule="evenodd" d="M252.423,343.647 L271.765,335.121 L257.598,345.075 L252.423,343.647"/>
<path fill-rule="evenodd" d="M265.943,318.186 L295.021,318.781 L283.292,327.022 L265.943,318.186"/>
<path fill-rule="evenodd" d="M291.767,314.21 L297.886,316.769 L296.498,317.744 L291.767,314.21"/>
<path fill-rule="evenodd" d="M295.021,318.781 L296.498,317.744 L297.966,318.841 L295.021,318.781"/>
<path fill-rule="evenodd" d="M271.765,335.121 L283.292,327.022 L286.469,328.64 L271.765,335.121"/>
<path fill-rule="evenodd" d="M249.139,351.019 L257.598,345.075 L264.707,347.038 L249.139,351.019"/>
<path fill-rule="evenodd" d="M28.1629,572.232 L161.035,429.333 L269.944,367.49 L28.1629,572.232"/>
<path fill-rule="evenodd" d="M269.944,367.49 L285.862,354.011 L283.824,359.609 L269.944,367.49"/>
<path fill-rule="evenodd" d="M264.707,347.038 L290.836,340.356 L286.237,352.981 L264.707,347.038"/>
<path fill-rule="evenodd" d="M286.469,328.64 L296.755,324.107 L293.752,332.35 L286.469,328.64"/>
<path fill-rule="evenodd" d="M297.966,318.841 L298.668,318.856 L298.522,319.256 L297.966,318.841"/>
<path fill-rule="evenodd" d="M297.886,316.769 L299.958,315.313 L299.224,317.328 L297.886,316.769"/>
<path fill-rule="evenodd" d="M291.635,294.54 L304.551,302.701 L301.501,311.076 L291.635,294.54"/>
<path fill-rule="evenodd" d="M299.958,315.313 L301.501,311.076 L302.826,313.298 L299.958,315.313"/>
<path fill-rule="evenodd" d="M298.668,318.856 L299.224,317.328 L303.096,318.947 L298.668,318.856"/>
<path fill-rule="evenodd" d="M296.755,324.107 L298.522,319.256 L301.95,321.817 L296.755,324.107"/>
<path fill-rule="evenodd" d="M290.836,340.356 L293.752,332.35 L303.242,337.184 L290.836,340.356"/>
<path fill-rule="evenodd" d="M285.862,354.011 L286.237,352.981 L286.872,353.156 L285.862,354.011"/>
<path fill-rule="evenodd" d="M279.874,370.453 L283.824,359.609 L290.927,355.576 L279.874,370.453"/>
<path fill-rule="evenodd" d="M286.872,353.156 L302.661,339.785 L291.728,354.497 L286.872,353.156"/>
<path fill-rule="evenodd" d="M303.242,337.184 L304.91,336.757 L304.223,337.683 L303.242,337.184"/>
<path fill-rule="evenodd" d="M302.661,339.785 L304.223,337.683 L304.797,337.976 L302.661,339.785"/>
<path fill-rule="evenodd" d="M290.927,355.576 L291.728,354.497 L292.467,354.701 L290.927,355.576"/>
<path fill-rule="evenodd" d="M292.467,354.701 L305.197,347.472 L305.087,358.185 L292.467,354.701"/>
<path fill-rule="evenodd" d="M304.797,337.976 L305.3,337.55 L305.293,338.229 L304.797,337.976"/>
<path fill-rule="evenodd" d="M304.91,336.757 L305.314,336.214 L305.309,336.655 L304.91,336.757"/>
<path fill-rule="evenodd" d="M301.95,321.817 L305.476,320.264 L305.434,324.419 L301.95,321.817"/>
<path fill-rule="evenodd" d="M303.096,318.947 L305.49,318.996 L305.48,319.943 L303.096,318.947"/>
<path fill-rule="evenodd" d="M302.826,313.298 L305.569,311.371 L305.502,317.783 L302.826,313.298"/>
<path fill-rule="evenodd" d="M304.551,302.701 L305.69,299.574 L305.651,303.395 L304.551,302.701"/>
<path fill-rule="evenodd" d="M296.605,283.532 L305.958,273.472 L305.748,293.94 L296.605,283.532"/>
<path fill-rule="evenodd" d="M275.413,71.8058 L307.041,168.236 L306.029,266.607 L275.413,71.8058"/>
<path fill-rule="evenodd" d="M307.041,168.236 L308.32,43.8768 L321.632,212.726 L307.041,168.236"/>
<path fill-rule="evenodd" d="M305.958,273.472 L306.029,266.607 L306.942,272.415 L305.958,273.472"/>
<path fill-rule="evenodd" d="M305.69,299.574 L305.748,293.94 L307.158,295.545 L305.69,299.574"/>
<path fill-rule="evenodd" d="M306.942,272.415 L321.147,257.138 L309.546,288.987 L306.942,272.415"/>
<path fill-rule="evenodd" d="M321.632,212.726 L329.066,235.392 L324.424,248.139 L321.632,212.726"/>
<path fill-rule="evenodd" d="M321.147,257.138 L324.424,248.139 L324.822,253.185 L321.147,257.138"/>
<path fill-rule="evenodd" d="M307.158,295.545 L309.546,288.987 L311.322,300.285 L307.158,295.545"/>
<path fill-rule="evenodd" d="M305.569,311.371 L305.651,303.395 L311.584,307.144 L305.569,311.371"/>
<path fill-rule="evenodd" d="M311.322,300.285 L315.148,304.64 L312.319,306.628 L311.322,300.285"/>
<path fill-rule="evenodd" d="M311.584,307.144 L312.319,306.628 L312.49,307.717 L311.584,307.144"/>
<path fill-rule="evenodd" d="M305.49,318.996 L305.502,317.783 L306.235,319.011 L305.49,318.996"/>
<path fill-rule="evenodd" d="M305.476,320.264 L305.48,319.943 L305.852,320.098 L305.476,320.264"/>
<path fill-rule="evenodd" d="M306.235,319.011 L308.223,319.052 L306.668,319.738 L306.235,319.011"/>
<path fill-rule="evenodd" d="M312.49,307.717 L321.303,313.286 L313.879,316.558 L312.49,307.717"/>
<path fill-rule="evenodd" d="M308.223,319.052 L313.879,316.558 L314.291,319.176 L308.223,319.052"/>
<path fill-rule="evenodd" d="M305.852,320.098 L306.668,319.738 L307.227,320.674 L305.852,320.098"/>
<path fill-rule="evenodd" d="M305.314,336.214 L305.434,324.419 L310.994,328.572 L305.314,336.214"/>
<path fill-rule="evenodd" d="M307.227,320.674 L314.578,323.748 L311.518,327.867 L307.227,320.674"/>
<path fill-rule="evenodd" d="M314.291,319.176 L317.92,319.251 L314.935,323.268 L314.291,319.176"/>
<path fill-rule="evenodd" d="M314.578,323.748 L314.935,323.268 L315.04,323.942 L314.578,323.748"/>
<path fill-rule="evenodd" d="M310.994,328.572 L311.518,327.867 L312.697,329.844 L310.994,328.572"/>
<path fill-rule="evenodd" d="M305.3,337.55 L305.309,336.655 L306.811,336.271 L305.3,337.55"/>
<path fill-rule="evenodd" d="M312.697,329.844 L313.603,330.52 L313.269,330.803 L312.697,329.844"/>
<path fill-rule="evenodd" d="M315.04,323.942 L319.279,325.713 L315.783,328.673 L315.04,323.942"/>
<path fill-rule="evenodd" d="M313.603,330.52 L315.783,328.673 L316.402,332.612 L313.603,330.52"/>
<path fill-rule="evenodd" d="M306.811,336.271 L313.269,330.803 L315.245,334.114 L306.811,336.271"/>
<path fill-rule="evenodd" d="M316.402,332.612 L317.605,333.511 L316.585,333.772 L316.402,332.612"/>
<path fill-rule="evenodd" d="M315.245,334.114 L316.585,333.772 L317.137,337.285 L315.245,334.114"/>
<path fill-rule="evenodd" d="M305.197,347.472 L305.293,338.229 L313.824,342.573 L305.197,347.472"/>
<path fill-rule="evenodd" d="M317.137,337.285 L318.655,339.83 L317.628,340.413 L317.137,337.285"/>
<path fill-rule="evenodd" d="M313.824,342.573 L317.628,340.413 L318.328,344.867 L313.824,342.573"/>
<path fill-rule="evenodd" d="M303.664,496.539 L305.087,358.185 L317.029,361.482 L303.664,496.539"/>
<path fill-rule="evenodd" d="M318.328,344.867 L318.657,345.035 L318.54,346.219 L318.328,344.867"/>
<path fill-rule="evenodd" d="M318.655,339.83 L319.203,339.519 L319.099,340.574 L318.655,339.83"/>
<path fill-rule="evenodd" d="M317.605,333.511 L319.854,332.936 L319.646,335.035 L317.605,333.511"/>
<path fill-rule="evenodd" d="M319.279,325.713 L320.687,324.521 L320.517,326.231 L319.279,325.713"/>
<path fill-rule="evenodd" d="M317.92,319.251 L321.712,314.151 L321.201,319.318 L317.92,319.251"/>
<path fill-rule="evenodd" d="M321.303,313.286 L321.82,313.058 L321.769,313.579 L321.303,313.286"/>
<path fill-rule="evenodd" d="M315.148,304.64 L323.215,298.973 L321.893,312.32 L315.148,304.64"/>
<path fill-rule="evenodd" d="M324.822,253.185 L328.093,249.667 L326.119,269.628 L324.822,253.185"/>
<path fill-rule="evenodd" d="M328.093,249.667 L329.402,236.415 L332.274,245.171 L328.093,249.667"/>
<path fill-rule="evenodd" d="M323.215,298.973 L326.119,269.628 L328.158,295.499 L323.215,298.973"/>
<path fill-rule="evenodd" d="M321.82,313.058 L321.893,312.32 L322.34,312.828 L321.82,313.058"/>
<path fill-rule="evenodd" d="M321.712,314.151 L321.769,313.579 L322.019,313.738 L321.712,314.151"/>
<path fill-rule="evenodd" d="M322.34,312.828 L322.868,312.596 L322.532,313.047 L322.34,312.828"/>
<path fill-rule="evenodd" d="M328.158,295.499 L343.666,284.604 L328.869,304.517 L328.158,295.499"/>
<path fill-rule="evenodd" d="M343.666,284.604 L344.735,283.165 L344.918,283.724 L343.666,284.604"/>
<path fill-rule="evenodd" d="M322.868,312.596 L328.869,304.517 L329.283,309.769 L322.868,312.596"/>
<path fill-rule="evenodd" d="M322.019,313.738 L322.532,313.047 L324.536,315.328 L322.019,313.738"/>
<path fill-rule="evenodd" d="M320.687,324.521 L321.201,319.318 L326.697,319.431 L320.687,324.521"/>
<path fill-rule="evenodd" d="M324.536,315.328 L328.549,317.863 L327.525,318.73 L324.536,315.328"/>
<path fill-rule="evenodd" d="M329.283,309.769 L347.686,301.658 L329.836,316.774 L329.283,309.769"/>
<path fill-rule="evenodd" d="M347.686,301.658 L350.123,299.594 L350.407,300.458 L347.686,301.658"/>
<path fill-rule="evenodd" d="M328.549,317.863 L329.836,316.774 L329.993,318.776 L328.549,317.863"/>
<path fill-rule="evenodd" d="M326.697,319.431 L327.525,318.73 L328.167,319.461 L326.697,319.431"/>
<path fill-rule="evenodd" d="M329.993,318.776 L331.175,319.523 L330.051,319.5 L329.993,318.776"/>
<path fill-rule="evenodd" d="M328.167,319.461 L330.051,319.5 L330.233,321.814 L328.167,319.461"/>
<path fill-rule="evenodd" d="M319.854,332.936 L320.517,326.231 L330.213,330.286 L319.854,332.936"/>
<path fill-rule="evenodd" d="M330.233,321.814 L336.307,328.728 L330.888,330.113 L330.233,321.814"/>
<path fill-rule="evenodd" d="M330.213,330.286 L330.888,330.113 L330.925,330.583 L330.213,330.286"/>
<path fill-rule="evenodd" d="M319.203,339.519 L319.646,335.035 L322.865,337.44 L319.203,339.519"/>
<path fill-rule="evenodd" d="M330.925,330.583 L333.238,331.55 L331.097,332.766 L330.925,330.583"/>
<path fill-rule="evenodd" d="M336.307,328.728 L339.763,327.844 L336.939,329.448 L336.307,328.728"/>
<path fill-rule="evenodd" d="M331.175,319.523 L353.609,319.983 L342.176,326.474 L331.175,319.523"/>
<path fill-rule="evenodd" d="M353.609,319.983 L356.308,318.45 L356.832,320.049 L353.609,319.983"/>
<path fill-rule="evenodd" d="M339.763,327.844 L342.176,326.474 L343.025,327.01 L339.763,327.844"/>
<path fill-rule="evenodd" d="M343.025,327.01 L357.87,323.213 L363.322,339.835 L343.025,327.01"/>
<path fill-rule="evenodd" d="M333.238,331.55 L336.939,329.448 L342.006,335.216 L333.238,331.55"/>
<path fill-rule="evenodd" d="M363.322,339.835 L383.409,352.527 L364.954,344.811 L363.322,339.835"/>
<path fill-rule="evenodd" d="M342.006,335.216 L364.954,344.811 L373.605,371.188 L342.006,335.216"/>
<path fill-rule="evenodd" d="M322.865,337.44 L331.097,332.766 L332.003,344.266 L322.865,337.44"/>
<path fill-rule="evenodd" d="M318.657,345.035 L319.099,340.574 L323.115,347.305 L318.657,345.035"/>
<path fill-rule="evenodd" d="M332.003,344.266 L363.843,368.049 L332.625,352.149 L332.003,344.266"/>
<path fill-rule="evenodd" d="M373.605,371.188 L376.52,374.506 L374.327,373.389 L373.605,371.188"/>
<path fill-rule="evenodd" d="M363.843,368.049 L374.327,373.389 L375.408,376.687 L363.843,368.049"/>
<path fill-rule="evenodd" d="M323.115,347.305 L332.625,352.149 L333.632,364.934 L323.115,347.305"/>
<path fill-rule="evenodd" d="M317.029,361.482 L318.54,346.219 L321.117,362.61 L317.029,361.482"/>
<path fill-rule="evenodd" d="M333.632,364.934 L334.441,366.289 L333.724,366.091 L333.632,364.934"/>
<path fill-rule="evenodd" d="M375.408,376.687 L377.344,378.133 L375.737,377.689 L375.408,376.687"/>
<path fill-rule="evenodd" d="M376.52,374.506 L391.092,381.928 L380.463,378.994 L376.52,374.506"/>
<path fill-rule="evenodd" d="M329.066,235.392 L329.676,233.725 L329.402,236.415 L329.066,235.392"/>
<path fill-rule="evenodd" d="M332.274,245.171 L534.904,27.2492 L344.735,283.165 L332.274,245.171"/>
<path fill-rule="evenodd" d="M344.918,283.724 L485.535,184.926 L350.123,299.594 L344.918,283.724"/>
<path fill-rule="evenodd" d="M350.407,300.458 L518.368,226.427 L356.308,318.45 L350.407,300.458"/>
<path fill-rule="evenodd" d="M356.832,320.049 L369.258,320.303 L357.87,323.213 L356.832,320.049"/>
<path fill-rule="evenodd" d="M383.409,352.527 L575.446,432.821 L460.082,400.974 L383.409,352.527"/>
<path fill-rule="evenodd" d="M391.092,381.928 L460.082,400.974 L591.421,483.961 L391.092,381.928"/>
<path fill-rule="evenodd" d="M377.344,378.133 L380.463,378.994 L384.215,383.269 L377.344,378.133"/>
<path fill-rule="evenodd" d="M334.441,366.289 L375.737,377.689 L417.856,506.11 L334.441,366.289"/>
<path fill-rule="evenodd" d="M321.117,362.61 L333.724,366.091 L345.864,520.068 L321.117,362.61"/>
<path fill-rule="evenodd" d="M251.862,0 L264.128,0 L275.413,71.8058 L251.862,0"/>
<path fill-rule="evenodd" d="M47.5467,0 L115.915,0 L260.645,242.594 L47.5467,0"/>
<path fill-rule="evenodd" d="M0,110.269 L0,96.2661 L121.624,187.117 L0,110.269"/>
<path fill-rule="evenodd" d="M0,192.218 L0,182.734 L103.975,235.691 L0,192.218"/>
<path fill-rule="evenodd" d="M0,312.734 L0,273.962 L151.71,315.844 L0,312.734"/>
<path fill-rule="evenodd" d="M0,454.905 L0,414.723 L217.125,359.204 L0,454.905"/>
<path fill-rule="evenodd" d="M0,526.063 L0,520.773 L39.2537,498.484 L0,526.063"/>
<path fill-rule="evenodd" d="M2.34366,600 L0,600 L0,596.081 L28.1629,572.232 L2.34366,600"/>
<path fill-rule="evenodd" d="M196.263,600 L109.3,600 L279.874,370.453 L196.263,600"/>
<path fill-rule="evenodd" d="M302.6,600 L293.425,600 L303.664,496.539 L302.6,600"/>
<path fill-rule="evenodd" d="M352.808,0 L414.808,0 L329.676,233.725 L352.808,0"/>
<path fill-rule="evenodd" d="M555.153,0 L560.241,0 L534.904,27.2492 L555.153,0"/>
<path fill-rule="evenodd" d="M621,70.2136 L621,89.7485 L485.535,184.926 L621,70.2136"/>
<path fill-rule="evenodd" d="M621,168.149 L621,181.19 L518.368,226.427 L621,168.149"/>
<path fill-rule="evenodd" d="M621,255.933 L621,325.463 L369.258,320.303 L621,255.933"/>
<path fill-rule="evenodd" d="M621,445.397 L621,451.868 L575.446,432.821 L621,445.397"/>
<path fill-rule="evenodd" d="M621,499.026 L621,502.651 L591.421,483.961 L621,499.026"/>
<path fill-rule="evenodd" d="M621,560.143 L621,600 L574.595,600 L384.215,383.269 L621,560.143"/>
<path fill-rule="evenodd" d="M473.871,600 L448.651,600 L417.856,506.11 L473.871,600"/>
<path fill-rule="evenodd" d="M358.426,600 L352.166,600 L345.864,520.068 L358.426,600"/>
<path fill-rule="evenodd" d="M304.861,0 L308.771,0 L308.32,43.8768 L304.861,0"/>
</g>
</g>
</svg>
