<?xml version="1.0" encoding="UTF-8" standalone="no"?>
<svg width="226.483mm" height="211.667mm"
 viewBox="0 0 642 600"
 xmlns="http://www.w3.org/2000/svg" xmlns:xlink="http://www.w3.org/1999/xlink"  version="1.2" baseProfile="tiny">
<title>Qt Svg Document</title>
<desc>Generated with Qt</desc>
<defs>
</defs>
<g fill="none" stroke="black" vector-effect="non-scaling-stroke" stroke-width="1" fill-rule="evenodd" stroke-linecap="square" stroke-linejoin="bevel" >

<g fill="#000000" fill-opacity="1" stroke="none" transform="matrix(1,0,0,1,0,0)"
font-family="Helvetica" font-size="12pt" font-weight="400" font-style="normal" 
>
<path fill-rule="evenodd" d="M283.159,137.677 L291.229,162.628 L283.491,151.441 L283.159,137.677"/>
<path fill-rule="evenodd" d="M235.625,82.2939 L283.491,151.441 L283.762,162.778 L235.625,82.2939"/>
<path fill-rule="evenodd" d="M222.689,126.956 L231.858,138.516 L229.668,137.065 L222.689,126.956"/>
<path fill-rule="evenodd" d="M283.762,162.778 L293.733,179.463 L284.005,173.024 L283.762,162.778"/>
<path fill-rule="evenodd" d="M291.229,162.628 L310.59,190.627 L297.471,181.938 L291.229,162.628"/>
<path fill-rule="evenodd" d="M293.733,179.463 L297.471,181.938 L300.126,190.164 L293.733,179.463"/>
<path fill-rule="evenodd" d="M231.858,138.516 L284.005,173.024 L284.774,205.554 L231.858,138.516"/>
<path fill-rule="evenodd" d="M182.726,105.974 L229.668,137.065 L263.881,186.51 L182.726,105.974"/>
<path fill-rule="evenodd" d="M284.774,205.554 L290.743,213.155 L284.816,207.3 L284.774,205.554"/>
<path fill-rule="evenodd" d="M300.126,190.164 L346.624,268.039 L315.301,237.296 L300.126,190.164"/>
<path fill-rule="evenodd" d="M290.743,213.155 L315.301,237.296 L319.235,249.539 L290.743,213.155"/>
<path fill-rule="evenodd" d="M263.881,186.51 L284.816,207.3 L285.055,217.124 L263.881,186.51"/>
<path fill-rule="evenodd" d="M285.055,217.124 L315.639,261.28 L285.857,250.315 L285.055,217.124"/>
<path fill-rule="evenodd" d="M319.235,249.539 L333.579,267.898 L323.988,264.357 L319.235,249.539"/>
<path fill-rule="evenodd" d="M315.639,261.28 L323.988,264.357 L329.344,281.04 L315.639,261.28"/>
<path fill-rule="evenodd" d="M250.117,237.173 L285.857,250.315 L286.114,261.009 L250.117,237.173"/>
<path fill-rule="evenodd" d="M286.114,261.009 L320.918,284.046 L286.605,281.613 L286.114,261.009"/>
<path fill-rule="evenodd" d="M329.344,281.04 L331.944,284.811 L330.535,284.715 L329.344,281.04"/>
<path fill-rule="evenodd" d="M320.918,284.046 L330.535,284.715 L332.907,291.964 L320.918,284.046"/>
<path fill-rule="evenodd" d="M64.2,265.738 L286.605,281.613 L286.963,296.702 L64.2,265.738"/>
<path fill-rule="evenodd" d="M286.963,296.702 L317.604,301.016 L287.062,300.868 L286.963,296.702"/>
<path fill-rule="evenodd" d="M29.0468,299.781 L287.062,300.868 L287.479,318.428 L29.0468,299.781"/>
<path fill-rule="evenodd" d="M287.479,318.428 L294.7,318.944 L287.558,321.768 L287.479,318.428"/>
<path fill-rule="evenodd" d="M269.235,329.007 L287.558,321.768 L287.673,326.539 L269.235,329.007"/>
<path fill-rule="evenodd" d="M259.121,421.525 L274.414,408.686 L269.727,417.328 L259.121,421.525"/>
<path fill-rule="evenodd" d="M287.673,326.539 L321.411,321.997 L289,381.788 L287.673,326.539"/>
<path fill-rule="evenodd" d="M294.7,318.944 L330.847,304.619 L322.012,320.89 L294.7,318.944"/>
<path fill-rule="evenodd" d="M317.604,301.016 L332.758,301.113 L331.715,303.025 L317.604,301.016"/>
<path fill-rule="evenodd" d="M332.907,291.964 L336.471,294.313 L334.727,297.506 L332.907,291.964"/>
<path fill-rule="evenodd" d="M331.944,284.811 L341.319,285.437 L337.349,292.706 L331.944,284.811"/>
<path fill-rule="evenodd" d="M333.579,267.898 L347.999,273.223 L343.767,280.959 L333.579,267.898"/>
<path fill-rule="evenodd" d="M346.624,268.039 L349.358,270.744 L348.829,271.707 L346.624,268.039"/>
<path fill-rule="evenodd" d="M347.999,273.223 L348.829,271.707 L350.25,274.053 L347.999,273.223"/>
<path fill-rule="evenodd" d="M341.319,285.437 L343.767,280.959 L347.612,285.869 L341.319,285.437"/>
<path fill-rule="evenodd" d="M336.471,294.313 L337.349,292.706 L340.049,296.666 L336.471,294.313"/>
<path fill-rule="evenodd" d="M332.758,301.113 L334.727,297.506 L335.92,301.138 L332.758,301.113"/>
<path fill-rule="evenodd" d="M330.847,304.619 L331.715,303.025 L334.014,303.354 L330.847,304.619"/>
<path fill-rule="evenodd" d="M335.92,301.138 L339.453,301.171 L336.34,302.42 L335.92,301.138"/>
<path fill-rule="evenodd" d="M340.049,296.666 L344.088,299.324 L342.332,300.018 L340.049,296.666"/>
<path fill-rule="evenodd" d="M339.453,301.171 L342.332,300.018 L343.136,301.202 L339.453,301.171"/>
<path fill-rule="evenodd" d="M334.014,303.354 L336.34,302.42 L336.774,303.749 L334.014,303.354"/>
<path fill-rule="evenodd" d="M321.411,321.997 L322.012,320.89 L326.751,321.244 L321.411,321.997"/>
<path fill-rule="evenodd" d="M274.414,408.686 L289,381.788 L289.345,396.162 L274.414,408.686"/>
<path fill-rule="evenodd" d="M224.512,500.71 L269.727,417.328 L282.031,412.467 L224.512,500.71"/>
<path fill-rule="evenodd" d="M289.345,396.162 L296.703,389.997 L289.463,401.08 L289.345,396.162"/>
<path fill-rule="evenodd" d="M282.031,412.467 L289.463,401.08 L289.665,409.453 L282.031,412.467"/>
<path fill-rule="evenodd" d="M289.665,409.453 L319.913,397.517 L290.98,463.825 L289.665,409.453"/>
<path fill-rule="evenodd" d="M285.016,477.567 L290.98,463.825 L291.043,466.471 L285.016,477.567"/>
<path fill-rule="evenodd" d="M291.043,466.471 L315.762,420.877 L292.242,516.713 L291.043,466.471"/>
<path fill-rule="evenodd" d="M319.913,397.517 L323.453,389.452 L321.662,396.826 L319.913,397.517"/>
<path fill-rule="evenodd" d="M296.703,389.997 L338.822,325.543 L330.041,362.091 L296.703,389.997"/>
<path fill-rule="evenodd" d="M326.751,321.244 L340.372,319.253 L339.629,322.238 L326.751,321.244"/>
<path fill-rule="evenodd" d="M336.774,303.749 L344.088,304.787 L341.003,316.764 L336.774,303.749"/>
<path fill-rule="evenodd" d="M343.136,301.202 L345.01,301.211 L344.501,303.204 L343.136,301.202"/>
<path fill-rule="evenodd" d="M344.088,299.324 L345.658,298.706 L345.304,300.119 L344.088,299.324"/>
<path fill-rule="evenodd" d="M347.612,285.869 L348.885,285.962 L348.6,287.116 L347.612,285.869"/>
<path fill-rule="evenodd" d="M350.25,274.053 L351.613,274.555 L351.319,275.801 L350.25,274.053"/>
<path fill-rule="evenodd" d="M349.358,270.744 L354.832,260.774 L351.909,273.293 L349.358,270.744"/>
<path fill-rule="evenodd" d="M310.59,190.627 L363.407,225.6 L355.93,256.167 L310.59,190.627"/>
<path fill-rule="evenodd" d="M363.407,225.6 L367.423,209.242 L367.88,228.562 L363.407,225.6"/>
<path fill-rule="evenodd" d="M354.832,260.774 L355.93,256.167 L356.722,257.312 L354.832,260.774"/>
<path fill-rule="evenodd" d="M367.88,228.562 L371.145,230.725 L368.069,236.395 L367.88,228.562"/>
<path fill-rule="evenodd" d="M356.722,257.312 L368.069,236.395 L369.041,275.141 L356.722,257.312"/>
<path fill-rule="evenodd" d="M351.613,274.555 L351.909,273.293 L354.05,275.452 L351.613,274.555"/>
<path fill-rule="evenodd" d="M348.885,285.962 L351.319,275.801 L358.025,286.68 L348.885,285.962"/>
<path fill-rule="evenodd" d="M345.658,298.706 L348.6,287.116 L354.99,295.096 L345.658,298.706"/>
<path fill-rule="evenodd" d="M345.01,301.211 L345.304,300.119 L346.953,301.216 L345.01,301.211"/>
<path fill-rule="evenodd" d="M344.088,304.787 L344.501,303.204 L345.73,305.016 L344.088,304.787"/>
<path fill-rule="evenodd" d="M340.372,319.253 L341.003,316.764 L341.743,319.054 L340.372,319.253"/>
<path fill-rule="evenodd" d="M338.822,325.543 L339.629,322.238 L340.904,322.336 L338.822,325.543"/>
<path fill-rule="evenodd" d="M341.743,319.054 L343.143,318.854 L342.169,320.374 L341.743,319.054"/>
<path fill-rule="evenodd" d="M345.73,305.016 L351.441,305.796 L348.934,309.741 L345.73,305.016"/>
<path fill-rule="evenodd" d="M346.953,301.216 L354.378,301.197 L352.153,304.678 L346.953,301.216"/>
<path fill-rule="evenodd" d="M354.99,295.096 L359.383,293.398 L356.824,297.38 L354.99,295.096"/>
<path fill-rule="evenodd" d="M358.025,286.68 L363.452,287.114 L360.805,291.193 L358.025,286.68"/>
<path fill-rule="evenodd" d="M354.05,275.452 L367.789,280.486 L364.275,285.851 L354.05,275.452"/>
<path fill-rule="evenodd" d="M369.041,275.141 L370.195,276.817 L369.133,278.436 L369.041,275.141"/>
<path fill-rule="evenodd" d="M367.789,280.486 L369.133,278.436 L369.209,281.004 L367.789,280.486"/>
<path fill-rule="evenodd" d="M363.452,287.114 L364.275,285.851 L365.686,287.291 L363.452,287.114"/>
<path fill-rule="evenodd" d="M359.383,293.398 L360.805,291.193 L361.624,292.526 L359.383,293.398"/>
<path fill-rule="evenodd" d="M354.378,301.197 L356.824,297.38 L359.873,301.174 L354.378,301.197"/>
<path fill-rule="evenodd" d="M351.441,305.796 L352.153,304.678 L354.415,306.194 L351.441,305.796"/>
<path fill-rule="evenodd" d="M343.143,318.854 L348.934,309.741 L354.088,317.321 L343.143,318.854"/>
<path fill-rule="evenodd" d="M340.904,322.336 L342.169,320.374 L342.848,322.483 L340.904,322.336"/>
<path fill-rule="evenodd" d="M323.453,389.452 L330.041,362.091 L338.713,354.838 L323.453,389.452"/>
<path fill-rule="evenodd" d="M342.848,322.483 L352.695,323.218 L347.129,335.799 L342.848,322.483"/>
<path fill-rule="evenodd" d="M354.088,317.321 L355.356,317.152 L354.821,318.385 L354.088,317.321"/>
<path fill-rule="evenodd" d="M354.415,306.194 L359.749,306.896 L358.791,309.141 L354.415,306.194"/>
<path fill-rule="evenodd" d="M359.873,301.174 L362.191,301.163 L361.386,303.055 L359.873,301.174"/>
<path fill-rule="evenodd" d="M361.624,292.526 L366.728,290.529 L364.127,296.615 L361.624,292.526"/>
<path fill-rule="evenodd" d="M365.686,287.291 L368.051,287.477 L367.379,289.02 L365.686,287.291"/>
<path fill-rule="evenodd" d="M369.209,281.004 L370.664,281.532 L369.316,284.595 L369.209,281.004"/>
<path fill-rule="evenodd" d="M370.195,276.817 L377.889,265.073 L371.746,279.072 L370.195,276.817"/>
<path fill-rule="evenodd" d="M371.145,230.725 L481.718,27.2062 L388.021,241.907 L371.145,230.725"/>
<path fill-rule="evenodd" d="M377.889,265.073 L388.021,241.907 L391.515,244.222 L377.889,265.073"/>
<path fill-rule="evenodd" d="M370.664,281.532 L371.746,279.072 L374.351,282.868 L370.664,281.532"/>
<path fill-rule="evenodd" d="M368.051,287.477 L369.316,284.595 L369.4,287.583 L368.051,287.477"/>
<path fill-rule="evenodd" d="M366.728,290.529 L367.379,289.02 L368.264,289.923 L366.728,290.529"/>
<path fill-rule="evenodd" d="M369.4,287.583 L373.371,287.895 L369.447,289.455 L369.4,287.583"/>
<path fill-rule="evenodd" d="M374.351,282.868 L380.46,285.078 L376.852,286.51 L374.351,282.868"/>
<path fill-rule="evenodd" d="M373.371,287.895 L376.852,286.51 L378.052,288.258 L373.371,287.895"/>
<path fill-rule="evenodd" d="M368.264,289.923 L369.447,289.455 L369.483,291.162 L368.264,289.923"/>
<path fill-rule="evenodd" d="M362.191,301.163 L364.127,296.615 L366.892,301.144 L362.191,301.163"/>
<path fill-rule="evenodd" d="M369.483,291.162 L379.336,301.115 L369.652,301.135 L369.483,291.162"/>
<path fill-rule="evenodd" d="M366.892,301.144 L369.652,301.135 L369.73,305.805 L366.892,301.144"/>
<path fill-rule="evenodd" d="M359.749,306.896 L361.386,303.055 L365.027,307.584 L359.749,306.896"/>
<path fill-rule="evenodd" d="M369.73,305.805 L371.299,308.393 L369.775,308.198 L369.73,305.805"/>
<path fill-rule="evenodd" d="M365.027,307.584 L369.775,308.198 L369.889,313.655 L365.027,307.584"/>
<path fill-rule="evenodd" d="M355.356,317.152 L358.791,309.141 L368.289,315.534 L355.356,317.152"/>
<path fill-rule="evenodd" d="M369.889,313.655 L371.108,315.191 L369.928,315.333 L369.889,313.655"/>
<path fill-rule="evenodd" d="M368.289,315.534 L369.928,315.333 L369.961,316.649 L368.289,315.534"/>
<path fill-rule="evenodd" d="M352.695,323.218 L354.821,318.385 L358.48,323.647 L352.695,323.218"/>
<path fill-rule="evenodd" d="M338.713,354.838 L347.129,335.799 L350.172,345.263 L338.713,354.838"/>
<path fill-rule="evenodd" d="M315.762,420.877 L321.662,396.826 L330.749,393.233 L315.762,420.877"/>
<path fill-rule="evenodd" d="M350.172,345.263 L362.134,335.258 L352.615,352.847 L350.172,345.263"/>
<path fill-rule="evenodd" d="M358.48,323.647 L368.093,324.358 L364.085,331.674 L358.48,323.647"/>
<path fill-rule="evenodd" d="M369.961,316.649 L371.702,317.798 L370.07,320.763 L369.961,316.649"/>
<path fill-rule="evenodd" d="M371.108,315.191 L373.282,314.93 L372.303,316.708 L371.108,315.191"/>
<path fill-rule="evenodd" d="M371.299,308.393 L376.526,309.053 L374.217,313.235 L371.299,308.393"/>
<path fill-rule="evenodd" d="M379.336,301.115 L380.889,301.119 L380.344,302.118 L379.336,301.115"/>
<path fill-rule="evenodd" d="M378.052,288.258 L387.436,288.97 L383.529,296.231 L378.052,288.258"/>
<path fill-rule="evenodd" d="M380.46,285.078 L392.015,280.499 L388.049,287.833 L380.46,285.078"/>
<path fill-rule="evenodd" d="M391.515,244.222 L512.592,58.2844 L406.348,254.049 L391.515,244.222"/>
<path fill-rule="evenodd" d="M392.015,280.499 L406.348,254.049 L425.997,267.064 L392.015,280.499"/>
<path fill-rule="evenodd" d="M387.436,288.97 L388.049,287.833 L392.067,289.306 L387.436,288.97"/>
<path fill-rule="evenodd" d="M380.889,301.119 L383.529,296.231 L386.918,301.166 L380.889,301.119"/>
<path fill-rule="evenodd" d="M376.526,309.053 L380.344,302.118 L389.032,310.63 L376.526,309.053"/>
<path fill-rule="evenodd" d="M373.282,314.93 L374.217,313.235 L375.102,314.711 L373.282,314.93"/>
<path fill-rule="evenodd" d="M371.702,317.798 L372.303,316.708 L374.686,319.753 L371.702,317.798"/>
<path fill-rule="evenodd" d="M368.093,324.358 L370.07,320.763 L370.169,324.511 L368.093,324.358"/>
<path fill-rule="evenodd" d="M362.134,335.258 L364.085,331.674 L364.939,332.9 L362.134,335.258"/>
<path fill-rule="evenodd" d="M370.169,324.511 L374.486,324.831 L370.269,328.399 L370.169,324.511"/>
<path fill-rule="evenodd" d="M374.686,319.753 L377.963,321.893 L376.996,322.708 L374.686,319.753"/>
<path fill-rule="evenodd" d="M375.102,314.711 L388.446,313.083 L378.908,321.097 L375.102,314.711"/>
<path fill-rule="evenodd" d="M389.032,310.63 L391.059,310.893 L390.115,311.684 L389.032,310.63"/>
<path fill-rule="evenodd" d="M386.918,301.166 L402.502,301.319 L392.668,309.546 L386.918,301.166"/>
<path fill-rule="evenodd" d="M392.067,289.306 L414.944,290.905 L409.261,295.663 L392.067,289.306"/>
<path fill-rule="evenodd" d="M425.997,267.064 L458.885,254.066 L435.715,273.498 L425.997,267.064"/>
<path fill-rule="evenodd" d="M414.944,290.905 L435.715,273.498 L467.621,294.617 L414.944,290.905"/>
<path fill-rule="evenodd" d="M402.502,301.319 L409.261,295.663 L425.102,301.525 L402.502,301.319"/>
<path fill-rule="evenodd" d="M391.059,310.893 L392.668,309.546 L393.847,311.267 L391.059,310.893"/>
<path fill-rule="evenodd" d="M388.446,313.083 L390.115,311.684 L391.2,312.735 L388.446,313.083"/>
<path fill-rule="evenodd" d="M393.847,311.267 L397.974,311.835 L394.552,312.297 L393.847,311.267"/>
<path fill-rule="evenodd" d="M425.102,301.525 L469.549,301.888 L437.941,306.269 L425.102,301.525"/>
<path fill-rule="evenodd" d="M467.621,294.617 L504.271,297.224 L477.063,300.864 L467.621,294.617"/>
<path fill-rule="evenodd" d="M469.549,301.888 L477.063,300.864 L478.703,301.949 L469.549,301.888"/>
<path fill-rule="evenodd" d="M397.974,311.835 L437.941,306.269 L487.02,324.364 L397.974,311.835"/>
<path fill-rule="evenodd" d="M391.2,312.735 L394.552,312.297 L401.975,323.162 L391.2,312.735"/>
<path fill-rule="evenodd" d="M377.963,321.893 L378.908,321.097 L380.282,323.408 L377.963,321.893"/>
<path fill-rule="evenodd" d="M374.486,324.831 L376.996,322.708 L378.918,325.16 L374.486,324.831"/>
<path fill-rule="evenodd" d="M380.282,323.408 L383.46,325.493 L381.433,325.346 L380.282,323.408"/>
<path fill-rule="evenodd" d="M401.975,323.162 L406.01,327.108 L404.618,327.008 L401.975,323.162"/>
<path fill-rule="evenodd" d="M383.46,325.493 L404.618,327.008 L420.493,349.96 L383.46,325.493"/>
<path fill-rule="evenodd" d="M378.918,325.16 L381.433,325.346 L388.802,337.735 L378.918,325.16"/>
<path fill-rule="evenodd" d="M364.939,332.9 L370.269,328.399 L370.587,341.038 L364.939,332.9"/>
<path fill-rule="evenodd" d="M330.749,393.233 L352.615,352.847 L361.696,381.004 L330.749,393.233"/>
<path fill-rule="evenodd" d="M370.587,341.038 L390.399,369.669 L371.464,377.145 L370.587,341.038"/>
<path fill-rule="evenodd" d="M388.802,337.735 L408.387,362.568 L404.531,364.09 L388.802,337.735"/>
<path fill-rule="evenodd" d="M420.493,349.96 L427.902,354.866 L424.744,356.112 L420.493,349.96"/>
<path fill-rule="evenodd" d="M406.01,327.108 L484.117,332.659 L432.264,353.143 L406.01,327.108"/>
<path fill-rule="evenodd" d="M487.02,324.364 L500.372,326.24 L496.39,327.812 L487.02,324.364"/>
<path fill-rule="evenodd" d="M478.703,301.949 L560.909,302.311 L509.759,322.53 L478.703,301.949"/>
<path fill-rule="evenodd" d="M504.271,297.224 L609.469,283.13 L563.205,301.405 L504.271,297.224"/>
<path fill-rule="evenodd" d="M560.909,302.311 L563.205,301.405 L576.19,302.337 L560.909,302.311"/>
<path fill-rule="evenodd" d="M500.372,326.24 L509.759,322.53 L519.378,328.905 L500.372,326.24"/>
<path fill-rule="evenodd" d="M484.117,332.659 L496.39,327.812 L515.701,334.908 L484.117,332.659"/>
<path fill-rule="evenodd" d="M519.378,328.905 L609.983,341.573 L529.975,335.923 L519.378,328.905"/>
<path fill-rule="evenodd" d="M515.701,334.908 L529.975,335.923 L544.315,345.413 L515.701,334.908"/>
<path fill-rule="evenodd" d="M427.902,354.866 L432.264,353.143 L446.212,367.001 L427.902,354.866"/>
<path fill-rule="evenodd" d="M408.387,362.568 L424.744,356.112 L573.239,571.331 L408.387,362.568"/>
<path fill-rule="evenodd" d="M390.399,369.669 L404.531,364.09 L521.78,559.746 L390.399,369.669"/>
<path fill-rule="evenodd" d="M361.696,381.004 L371.464,377.145 L372.349,414.005 L361.696,381.004"/>
<path fill-rule="evenodd" d="M238.722,0 L279.86,0 L283.159,137.677 L238.722,0"/>
<path fill-rule="evenodd" d="M178.812,0 L186.303,0 L235.625,82.2939 L178.812,0"/>
<path fill-rule="evenodd" d="M122.538,0 L134.952,0 L222.689,126.956 L122.538,0"/>
<path fill-rule="evenodd" d="M22.6887,0 L75.7534,0 L182.726,105.974 L22.6887,0"/>
<path fill-rule="evenodd" d="M0,145.152 L0,71.5796 L250.117,237.173 L0,145.152"/>
<path fill-rule="evenodd" d="M0,261.149 L0,256.818 L64.2,265.738 L0,261.149"/>
<path fill-rule="evenodd" d="M0,299.646 L0,297.692 L29.0468,299.781 L0,299.646"/>
<path fill-rule="evenodd" d="M0,435.396 L0,365.31 L269.235,329.007 L0,435.396"/>
<path fill-rule="evenodd" d="M46.2164,600 L0,600 L0,523.883 L259.121,421.525 L46.2164,600"/>
<path fill-rule="evenodd" d="M170.578,600 L159.861,600 L224.512,500.71 L170.578,600"/>
<path fill-rule="evenodd" d="M231.542,600 L218.563,600 L285.016,477.567 L231.542,600"/>
<path fill-rule="evenodd" d="M493.601,0 L496.496,0 L481.718,27.2062 L493.601,0"/>
<path fill-rule="evenodd" d="M544.227,0 L550.543,0 L512.592,58.2844 L544.227,0"/>
<path fill-rule="evenodd" d="M642.857,99.8439 L642.857,181.368 L458.885,254.066 L642.857,99.8439"/>
<path fill-rule="evenodd" d="M642.857,269.941 L642.857,278.628 L609.469,283.13 L642.857,269.941"/>
<path fill-rule="evenodd" d="M642.857,302.649 L642.857,307.103 L576.19,302.337 L642.857,302.649"/>
<path fill-rule="evenodd" d="M642.857,343.938 L642.857,346.141 L609.983,341.573 L642.857,343.938"/>
<path fill-rule="evenodd" d="M642.857,381.667 L642.857,410.665 L544.315,345.413 L642.857,381.667"/>
<path fill-rule="evenodd" d="M642.857,497.192 L642.857,561.81 L446.212,367.001 L642.857,497.192"/>
<path fill-rule="evenodd" d="M595.855,600 L593.031,600 L573.239,571.331 L595.855,600"/>
<path fill-rule="evenodd" d="M549.599,600 L545.906,600 L521.78,559.746 L549.599,600"/>
<path fill-rule="evenodd" d="M432.382,600 L376.823,600 L372.349,414.005 L432.382,600"/>
<path fill-rule="evenodd" d="M362.39,0 L418.586,0 L367.423,209.242 L362.39,0"/>
<path fill-rule="evenodd" d="M294.238,600 L271.877,600 L292.242,516.713 L294.238,600"/>
</g>
</g>
</svg>
