<?xml version="1.0" encoding="UTF-8" standalone="no"?>
<svg width="208.844mm" height="211.667mm"
 viewBox="0 0 592 600"
 xmlns="http://www.w3.org/2000/svg" xmlns:xlink="http://www.w3.org/1999/xlink"  version="1.2" baseProfile="tiny">
<title>Qt Svg Document</title>
<desc>Generated with Qt</desc>
<defs>
</defs>
<g fill="none" stroke="black" vector-effect="non-scaling-stroke" stroke-width="1" fill-rule="evenodd" stroke-linecap="square" stroke-linejoin="bevel" >

<g fill="#000000" fill-opacity="1" stroke="none" transform="matrix(1,0,0,1,0,0)"
font-family="Helvetica" font-size="12pt" font-weight="400" font-style="normal" 
>
<path fill-rule="evenodd" d="M269.935,220.033 L291.463,260.261 L276.512,243.188 L269.935,220.033"/>
<path fill-rule="evenodd" d="M240.535,202.104 L276.512,243.188 L279.84,254.89 L240.535,202.104"/>
<path fill-rule="evenodd" d="M202.227,197.651 L288.017,286.294 L277.545,283.663 L202.227,197.651"/>
<path fill-rule="evenodd" d="M279.84,254.89 L306.734,291.006 L288.824,286.498 L279.84,254.89"/>
<path fill-rule="evenodd" d="M291.463,260.261 L321.681,294.768 L308.105,291.351 L291.463,260.261"/>
<path fill-rule="evenodd" d="M306.734,291.006 L308.105,291.351 L310.95,296.667 L306.734,291.006"/>
<path fill-rule="evenodd" d="M288.017,286.294 L288.824,286.498 L289.079,287.391 L288.017,286.294"/>
<path fill-rule="evenodd" d="M269.458,281.619 L277.545,283.663 L283.649,290.633 L269.458,281.619"/>
<path fill-rule="evenodd" d="M289.079,287.391 L305.884,304.754 L291.398,295.554 L289.079,287.391"/>
<path fill-rule="evenodd" d="M310.95,296.667 L326.921,318.115 L320.116,313.793 L310.95,296.667"/>
<path fill-rule="evenodd" d="M305.884,304.754 L320.116,313.793 L326.883,326.446 L305.884,304.754"/>
<path fill-rule="evenodd" d="M283.649,290.633 L291.398,295.554 L293.051,301.369 L283.649,290.633"/>
<path fill-rule="evenodd" d="M293.051,301.369 L317.188,328.937 L300.74,328.423 L293.051,301.369"/>
<path fill-rule="evenodd" d="M286.698,327.966 L300.74,328.423 L301.682,331.74 L286.698,327.966"/>
<path fill-rule="evenodd" d="M301.682,331.74 L302.628,331.977 L301.797,332.142 L301.682,331.74"/>
<path fill-rule="evenodd" d="M317.188,328.937 L317.88,328.961 L317.309,329.075 L317.188,328.937"/>
<path fill-rule="evenodd" d="M326.883,326.446 L327.473,327.052 L327.233,327.1 L326.883,326.446"/>
<path fill-rule="evenodd" d="M317.88,328.961 L327.233,327.1 L328.423,329.315 L317.88,328.961"/>
<path fill-rule="evenodd" d="M302.628,331.977 L317.309,329.075 L324.728,337.543 L302.628,331.977"/>
<path fill-rule="evenodd" d="M183.185,355.651 L301.797,332.142 L304.447,341.464 L183.185,355.651"/>
<path fill-rule="evenodd" d="M304.447,341.464 L319.57,339.694 L304.983,343.348 L304.447,341.464"/>
<path fill-rule="evenodd" d="M324.728,337.543 L326.379,337.971 L325.339,338.243 L324.728,337.543"/>
<path fill-rule="evenodd" d="M319.57,339.694 L325.339,338.243 L325.951,338.944 L319.57,339.694"/>
<path fill-rule="evenodd" d="M26.8431,413.027 L304.983,343.348 L308.897,357.122 L26.8431,413.027"/>
<path fill-rule="evenodd" d="M308.897,357.122 L317.126,355.491 L310.407,362.43 L308.897,357.122"/>
<path fill-rule="evenodd" d="M309.775,363.039 L310.407,362.43 L310.478,362.679 L309.775,363.039"/>
<path fill-rule="evenodd" d="M275.141,457.259 L299.223,418.491 L291.91,439.98 L275.141,457.259"/>
<path fill-rule="evenodd" d="M310.478,362.679 L319.893,357.755 L313.999,375.072 L310.478,362.679"/>
<path fill-rule="evenodd" d="M317.126,355.491 L322.576,349.872 L320.919,354.739 L317.126,355.491"/>
<path fill-rule="evenodd" d="M325.951,338.944 L326.314,338.902 L326.201,339.231 L325.951,338.944"/>
<path fill-rule="evenodd" d="M326.379,337.971 L326.66,337.899 L326.615,338.031 L326.379,337.971"/>
<path fill-rule="evenodd" d="M328.423,329.315 L329.543,329.361 L329.123,330.623 L328.423,329.315"/>
<path fill-rule="evenodd" d="M327.473,327.052 L330.548,326.441 L329.59,329.221 L327.473,327.052"/>
<path fill-rule="evenodd" d="M326.921,318.115 L332.234,321.49 L331.356,324.072 L326.921,318.115"/>
<path fill-rule="evenodd" d="M330.548,326.441 L331.356,324.072 L332.779,325.994 L330.548,326.441"/>
<path fill-rule="evenodd" d="M329.543,329.361 L329.59,329.221 L329.733,329.368 L329.543,329.361"/>
<path fill-rule="evenodd" d="M326.66,337.899 L329.123,330.623 L332.27,336.51 L326.66,337.899"/>
<path fill-rule="evenodd" d="M326.314,338.902 L326.615,338.031 L328.927,338.6 L326.314,338.902"/>
<path fill-rule="evenodd" d="M322.576,349.872 L326.201,339.231 L329.382,342.857 L322.576,349.872"/>
<path fill-rule="evenodd" d="M319.893,357.755 L320.919,354.739 L328.569,353.223 L319.893,357.755"/>
<path fill-rule="evenodd" d="M299.223,418.491 L313.999,375.072 L317.826,388.537 L299.223,418.491"/>
<path fill-rule="evenodd" d="M274.318,491.669 L291.91,439.98 L300.38,431.247 L274.318,491.669"/>
<path fill-rule="evenodd" d="M317.826,388.537 L321.01,383.412 L318.213,389.897 L317.826,388.537"/>
<path fill-rule="evenodd" d="M300.38,431.247 L318.213,389.897 L323.262,407.661 L300.38,431.247"/>
<path fill-rule="evenodd" d="M323.262,407.661 L323.908,406.994 L323.489,408.462 L323.262,407.661"/>
<path fill-rule="evenodd" d="M289.592,527.134 L323.489,408.462 L326.446,418.848 L289.592,527.134"/>
<path fill-rule="evenodd" d="M326.446,418.848 L329.43,410.079 L328.718,426.873 L326.446,418.848"/>
<path fill-rule="evenodd" d="M323.908,406.994 L330.545,383.758 L329.819,400.904 L323.908,406.994"/>
<path fill-rule="evenodd" d="M321.01,383.412 L331.599,358.859 L331.258,366.912 L321.01,383.412"/>
<path fill-rule="evenodd" d="M328.569,353.223 L331.912,351.476 L331.866,352.569 L328.569,353.223"/>
<path fill-rule="evenodd" d="M329.382,342.857 L332.4,339.757 L332.143,346.011 L329.382,342.857"/>
<path fill-rule="evenodd" d="M328.927,338.6 L332.474,338.185 L332.413,339.47 L328.927,338.6"/>
<path fill-rule="evenodd" d="M332.27,336.51 L332.553,336.439 L332.528,336.991 L332.27,336.51"/>
<path fill-rule="evenodd" d="M329.733,329.368 L332.845,329.454 L332.717,332.479 L329.733,329.368"/>
<path fill-rule="evenodd" d="M332.779,325.994 L333,325.95 L332.987,326.274 L332.779,325.994"/>
<path fill-rule="evenodd" d="M332.234,321.49 L333.317,318.309 L333.158,322.077 L332.234,321.49"/>
<path fill-rule="evenodd" d="M321.681,294.768 L334.174,297.914 L333.731,308.528 L321.681,294.768"/>
<path fill-rule="evenodd" d="M334.174,297.914 L334.215,297.127 L334.425,297.977 L334.174,297.914"/>
<path fill-rule="evenodd" d="M333.317,318.309 L333.731,308.528 L335.83,310.926 L333.317,318.309"/>
<path fill-rule="evenodd" d="M334.425,297.977 L339.778,299.323 L337.075,307.266 L334.425,297.977"/>
<path fill-rule="evenodd" d="M335.83,310.926 L337.075,307.266 L339.216,314.793 L335.83,310.926"/>
<path fill-rule="evenodd" d="M333,325.95 L333.158,322.077 L337.775,325.008 L333,325.95"/>
<path fill-rule="evenodd" d="M339.216,314.793 L346.618,323.252 L341.888,324.193 L339.216,314.793"/>
<path fill-rule="evenodd" d="M337.775,325.008 L341.888,324.193 L343.063,328.358 L337.775,325.008"/>
<path fill-rule="evenodd" d="M332.845,329.454 L332.987,326.274 L335.423,329.534 L332.845,329.454"/>
<path fill-rule="evenodd" d="M332.553,336.439 L332.717,332.479 L335.768,335.634 L332.553,336.439"/>
<path fill-rule="evenodd" d="M332.474,338.185 L332.528,336.991 L333.129,338.108 L332.474,338.185"/>
<path fill-rule="evenodd" d="M332.4,339.757 L332.413,339.47 L332.626,339.523 L332.4,339.757"/>
<path fill-rule="evenodd" d="M333.129,338.108 L334.101,337.994 L333.437,338.681 L333.129,338.108"/>
<path fill-rule="evenodd" d="M335.768,335.634 L336.59,335.429 L336.079,335.956 L335.768,335.634"/>
<path fill-rule="evenodd" d="M335.423,329.534 L342.1,329.749 L338.413,333.548 L335.423,329.534"/>
<path fill-rule="evenodd" d="M343.063,328.358 L343.306,328.513 L343.152,328.671 L343.063,328.358"/>
<path fill-rule="evenodd" d="M342.1,329.749 L343.152,328.671 L343.477,329.793 L342.1,329.749"/>
<path fill-rule="evenodd" d="M336.59,335.429 L338.413,333.548 L339.309,334.749 L336.59,335.429"/>
<path fill-rule="evenodd" d="M334.101,337.994 L336.079,335.956 L337.652,337.58 L334.101,337.994"/>
<path fill-rule="evenodd" d="M332.626,339.523 L333.437,338.681 L334.087,339.896 L332.626,339.523"/>
<path fill-rule="evenodd" d="M331.912,351.476 L332.143,346.011 L335.346,349.675 L331.912,351.476"/>
<path fill-rule="evenodd" d="M331.599,358.859 L331.866,352.569 L334.542,352.039 L331.599,358.859"/>
<path fill-rule="evenodd" d="M335.346,349.675 L335.633,349.525 L335.495,349.845 L335.346,349.675"/>
<path fill-rule="evenodd" d="M334.087,339.896 L339.22,341.189 L337.239,345.785 L334.087,339.896"/>
<path fill-rule="evenodd" d="M337.652,337.58 L340.924,337.208 L339.813,339.812 L337.652,337.58"/>
<path fill-rule="evenodd" d="M339.309,334.749 L342.322,333.995 L341.008,337.014 L339.309,334.749"/>
<path fill-rule="evenodd" d="M343.477,329.793 L344.127,329.813 L343.74,330.712 L343.477,329.793"/>
<path fill-rule="evenodd" d="M343.306,328.513 L345.802,325.93 L344.388,329.207 L343.306,328.513"/>
<path fill-rule="evenodd" d="M346.618,323.252 L346.992,323.178 L346.847,323.514 L346.618,323.252"/>
<path fill-rule="evenodd" d="M345.802,325.93 L346.847,323.514 L347.452,324.21 L345.802,325.93"/>
<path fill-rule="evenodd" d="M344.127,329.813 L344.388,329.207 L345.395,329.852 L344.127,329.813"/>
<path fill-rule="evenodd" d="M342.322,333.995 L343.74,330.712 L344.516,333.444 L342.322,333.995"/>
<path fill-rule="evenodd" d="M340.924,337.208 L341.008,337.014 L341.135,337.183 L340.924,337.208"/>
<path fill-rule="evenodd" d="M339.22,341.189 L339.813,339.812 L341.76,341.827 L339.22,341.189"/>
<path fill-rule="evenodd" d="M335.633,349.525 L337.239,345.785 L338.457,348.058 L335.633,349.525"/>
<path fill-rule="evenodd" d="M334.542,352.039 L335.495,349.845 L336.997,351.554 L334.542,352.039"/>
<path fill-rule="evenodd" d="M330.545,383.758 L331.258,366.912 L338.833,354.725 L330.545,383.758"/>
<path fill-rule="evenodd" d="M336.997,351.554 L339.883,350.993 L339.063,353.911 L336.997,351.554"/>
<path fill-rule="evenodd" d="M338.457,348.058 L341.142,346.656 L339.939,350.796 L338.457,348.058"/>
<path fill-rule="evenodd" d="M341.76,341.827 L342.472,342.006 L342.349,342.436 L341.76,341.827"/>
<path fill-rule="evenodd" d="M341.135,337.183 L343.945,336.844 L343.092,339.831 L341.135,337.183"/>
<path fill-rule="evenodd" d="M344.516,333.444 L344.95,333.335 L344.717,334.15 L344.516,333.444"/>
<path fill-rule="evenodd" d="M345.395,329.852 L345.941,329.869 L345.86,330.148 L345.395,329.852"/>
<path fill-rule="evenodd" d="M347.452,324.21 L347.621,324.036 L347.543,324.315 L347.452,324.21"/>
<path fill-rule="evenodd" d="M346.992,323.178 L349.536,317.271 L347.906,322.999 L346.992,323.178"/>
<path fill-rule="evenodd" d="M339.778,299.323 L432.392,27.1977 L353.665,302.819 L339.778,299.323"/>
<path fill-rule="evenodd" d="M349.536,317.271 L353.665,302.819 L355.563,303.296 L349.536,317.271"/>
<path fill-rule="evenodd" d="M347.621,324.036 L347.906,322.999 L348.819,322.819 L347.621,324.036"/>
<path fill-rule="evenodd" d="M345.941,329.869 L347.543,324.315 L352.613,330.086 L345.941,329.869"/>
<path fill-rule="evenodd" d="M344.95,333.335 L345.86,330.148 L349.208,332.271 L344.95,333.335"/>
<path fill-rule="evenodd" d="M343.945,336.844 L344.717,334.15 L345.434,336.668 L343.945,336.844"/>
<path fill-rule="evenodd" d="M342.472,342.006 L343.092,339.831 L345.227,342.7 L342.472,342.006"/>
<path fill-rule="evenodd" d="M341.142,346.656 L342.349,342.436 L344.654,344.818 L341.142,346.656"/>
<path fill-rule="evenodd" d="M339.883,350.993 L339.939,350.796 L340.028,350.964 L339.883,350.993"/>
<path fill-rule="evenodd" d="M338.833,354.725 L339.063,353.911 L339.225,354.095 L338.833,354.725"/>
<path fill-rule="evenodd" d="M340.028,350.964 L341.331,350.696 L340.548,351.957 L340.028,350.964"/>
<path fill-rule="evenodd" d="M344.654,344.818 L345.144,344.563 L344.856,345.027 L344.654,344.818"/>
<path fill-rule="evenodd" d="M345.227,342.7 L346.154,342.931 L345.811,343.484 L345.227,342.7"/>
<path fill-rule="evenodd" d="M345.434,336.668 L350.405,336.086 L346.88,341.761 L345.434,336.668"/>
<path fill-rule="evenodd" d="M349.208,332.271 L353.395,331.241 L351.764,333.894 L349.208,332.271"/>
<path fill-rule="evenodd" d="M352.613,330.086 L354.096,330.133 L353.496,331.08 L352.613,330.086"/>
<path fill-rule="evenodd" d="M353.395,331.241 L353.496,331.08 L353.594,331.192 L353.395,331.241"/>
<path fill-rule="evenodd" d="M350.405,336.086 L351.764,333.894 L354.447,335.606 L350.405,336.086"/>
<path fill-rule="evenodd" d="M346.154,342.931 L346.88,341.761 L347.288,343.211 L346.154,342.931"/>
<path fill-rule="evenodd" d="M345.144,344.563 L345.811,343.484 L346.205,344.013 L345.144,344.563"/>
<path fill-rule="evenodd" d="M347.288,343.211 L347.603,343.29 L347.348,343.423 L347.288,343.211"/>
<path fill-rule="evenodd" d="M346.205,344.013 L347.348,343.423 L348.337,346.875 L346.205,344.013"/>
<path fill-rule="evenodd" d="M341.331,350.696 L344.856,345.027 L348.864,349.191 L341.331,350.696"/>
<path fill-rule="evenodd" d="M348.337,346.875 L349.906,348.988 L349.001,349.164 L348.337,346.875"/>
<path fill-rule="evenodd" d="M348.864,349.191 L349.001,349.164 L349.067,349.398 L348.864,349.191"/>
<path fill-rule="evenodd" d="M339.225,354.095 L340.548,351.957 L345.513,361.265 L339.225,354.095"/>
<path fill-rule="evenodd" d="M329.43,410.079 L329.819,400.904 L334.03,396.563 L329.43,410.079"/>
<path fill-rule="evenodd" d="M345.513,361.265 L345.897,361.702 L345.838,361.876 L345.513,361.265"/>
<path fill-rule="evenodd" d="M349.067,349.398 L349.822,350.163 L349.522,351.043 L349.067,349.398"/>
<path fill-rule="evenodd" d="M349.906,348.988 L350.247,348.921 L350.124,349.282 L349.906,348.988"/>
<path fill-rule="evenodd" d="M347.603,343.29 L353.149,340.385 L351.798,344.354 L347.603,343.29"/>
<path fill-rule="evenodd" d="M354.447,335.606 L354.794,335.566 L354.721,335.78 L354.447,335.606"/>
<path fill-rule="evenodd" d="M353.594,331.192 L356.531,330.442 L355.523,333.411 L353.594,331.192"/>
<path fill-rule="evenodd" d="M354.096,330.133 L359.676,321.179 L356.61,330.211 L354.096,330.133"/>
<path fill-rule="evenodd" d="M348.819,322.819 L364.69,306.465 L359.863,320.628 L348.819,322.819"/>
<path fill-rule="evenodd" d="M355.563,303.296 L403.957,191.091 L364.964,305.662 L355.563,303.296"/>
<path fill-rule="evenodd" d="M364.69,306.465 L364.964,305.662 L365.369,305.764 L364.69,306.465"/>
<path fill-rule="evenodd" d="M359.676,321.179 L359.863,320.628 L360.042,320.592 L359.676,321.179"/>
<path fill-rule="evenodd" d="M365.369,305.764 L376.129,294.677 L368.712,306.606 L365.369,305.764"/>
<path fill-rule="evenodd" d="M360.042,320.592 L368.712,306.606 L395.985,313.471 L360.042,320.592"/>
<path fill-rule="evenodd" d="M356.531,330.442 L356.61,330.211 L357.351,330.234 L356.531,330.442"/>
<path fill-rule="evenodd" d="M354.794,335.566 L355.523,333.411 L357.17,335.295 L354.794,335.566"/>
<path fill-rule="evenodd" d="M353.149,340.385 L354.721,335.78 L357.996,337.853 L353.149,340.385"/>
<path fill-rule="evenodd" d="M357.17,335.295 L364.544,334.433 L358.967,337.346 L357.17,335.295"/>
<path fill-rule="evenodd" d="M357.351,330.234 L386.638,322.893 L371.692,330.699 L357.351,330.234"/>
<path fill-rule="evenodd" d="M395.985,313.471 L409.993,310.694 L401.851,314.947 L395.985,313.471"/>
<path fill-rule="evenodd" d="M386.638,322.893 L401.851,314.947 L410.081,317.02 L386.638,322.893"/>
<path fill-rule="evenodd" d="M364.544,334.433 L371.692,330.699 L391.118,331.324 L364.544,334.433"/>
<path fill-rule="evenodd" d="M357.996,337.853 L358.967,337.346 L361.18,339.874 L357.996,337.853"/>
<path fill-rule="evenodd" d="M350.247,348.921 L351.798,344.354 L361.275,346.74 L350.247,348.921"/>
<path fill-rule="evenodd" d="M361.18,339.874 L369.443,345.121 L366.317,345.74 L361.18,339.874"/>
<path fill-rule="evenodd" d="M361.275,346.74 L366.317,345.74 L368.864,348.649 L361.275,346.74"/>
<path fill-rule="evenodd" d="M349.822,350.163 L350.124,349.282 L353.968,354.438 L349.822,350.163"/>
<path fill-rule="evenodd" d="M345.897,361.702 L349.522,351.043 L355.749,372.964 L345.897,361.702"/>
<path fill-rule="evenodd" d="M334.03,396.563 L345.838,361.876 L353.615,376.376 L334.03,396.563"/>
<path fill-rule="evenodd" d="M355.749,372.964 L356.307,373.602 L356.016,373.902 L355.749,372.964"/>
<path fill-rule="evenodd" d="M353.968,354.438 L364.42,365.238 L363.057,366.643 L353.968,354.438"/>
<path fill-rule="evenodd" d="M368.864,348.649 L378.235,350.998 L374.392,354.961 L368.864,348.649"/>
<path fill-rule="evenodd" d="M369.443,345.121 L387.389,341.564 L378.415,350.813 L369.443,345.121"/>
<path fill-rule="evenodd" d="M391.118,331.324 L398.119,330.504 L397.136,331.517 L391.118,331.324"/>
<path fill-rule="evenodd" d="M410.081,317.02 L411.563,316.648 L410.983,317.246 L410.081,317.02"/>
<path fill-rule="evenodd" d="M409.993,310.694 L424.895,302.911 L419.081,308.892 L409.993,310.694"/>
<path fill-rule="evenodd" d="M411.563,316.648 L419.081,308.892 L531.334,286.644 L411.563,316.648"/>
<path fill-rule="evenodd" d="M398.119,330.504 L410.983,317.246 L442.86,325.269 L398.119,330.504"/>
<path fill-rule="evenodd" d="M387.389,341.564 L397.136,331.517 L432.371,332.648 L387.389,341.564"/>
<path fill-rule="evenodd" d="M442.86,325.269 L508.093,317.639 L454.642,328.233 L442.86,325.269"/>
<path fill-rule="evenodd" d="M432.371,332.648 L454.642,328.233 L477.998,334.116 L432.371,332.648"/>
<path fill-rule="evenodd" d="M378.235,350.998 L378.415,350.813 L379.074,351.24 L378.235,350.998"/>
<path fill-rule="evenodd" d="M364.42,365.238 L374.392,354.961 L563.706,571.151 L364.42,365.238"/>
<path fill-rule="evenodd" d="M356.307,373.602 L363.057,366.643 L436.039,464.653 L356.307,373.602"/>
<path fill-rule="evenodd" d="M353.615,376.376 L356.016,373.902 L360.238,388.762 L353.615,376.376"/>
<path fill-rule="evenodd" d="M152.174,0 L207.402,0 L269.935,220.033 L152.174,0"/>
<path fill-rule="evenodd" d="M63.555,0 L90.0416,0 L240.535,202.104 L63.555,0"/>
<path fill-rule="evenodd" d="M10.9377,0 L29.146,0 L202.227,197.651 L10.9377,0"/>
<path fill-rule="evenodd" d="M0,213.788 L0,110.478 L269.458,281.619 L0,213.788"/>
<path fill-rule="evenodd" d="M0,318.75 L0,255.734 L286.698,327.966 L0,318.75"/>
<path fill-rule="evenodd" d="M0,391.96 L0,377.082 L183.185,355.651 L0,391.96"/>
<path fill-rule="evenodd" d="M0,419.751 L0,418.347 L26.8431,413.027 L0,419.751"/>
<path fill-rule="evenodd" d="M79.7745,600 L0,600 L0,524.834 L309.775,363.039 L79.7745,600"/>
<path fill-rule="evenodd" d="M186.477,600 L136.647,600 L275.141,457.259 L186.477,600"/>
<path fill-rule="evenodd" d="M237.45,600 L227.596,600 L274.318,491.669 L237.45,600"/>
<path fill-rule="evenodd" d="M268.779,600 L264.793,600 L289.592,527.134 L268.779,600"/>
<path fill-rule="evenodd" d="M440.16,0 L441.648,0 L432.392,27.1977 L440.16,0"/>
<path fill-rule="evenodd" d="M468.99,0 L486.374,0 L403.957,191.091 L468.99,0"/>
<path fill-rule="evenodd" d="M559.167,0 L592.308,0 L592.308,71.9555 L376.129,294.677 L559.167,0"/>
<path fill-rule="evenodd" d="M592.308,130.364 L592.308,215.472 L424.895,302.911 L592.308,130.364"/>
<path fill-rule="evenodd" d="M592.308,271.37 L592.308,274.559 L531.334,286.644 L592.308,271.37"/>
<path fill-rule="evenodd" d="M592.308,300.947 L592.308,307.786 L508.093,317.639 L592.308,300.947"/>
<path fill-rule="evenodd" d="M592.308,337.79 L592.308,362.891 L477.998,334.116 L592.308,337.79"/>
<path fill-rule="evenodd" d="M592.308,404.963 L592.308,486.671 L379.074,351.24 L592.308,404.963"/>
<path fill-rule="evenodd" d="M591.626,600 L588.969,600 L563.706,571.151 L591.626,600"/>
<path fill-rule="evenodd" d="M554.56,600 L536.822,600 L436.039,464.653 L554.56,600"/>
<path fill-rule="evenodd" d="M473.291,600 L420.226,600 L360.238,388.762 L473.291,600"/>
<path fill-rule="evenodd" d="M249.835,0 L346.802,0 L334.215,297.127 L249.835,0"/>
<path fill-rule="evenodd" d="M377.921,600 L321.384,600 L328.718,426.873 L377.921,600"/>
</g>
</g>
</svg>
