<svg id="svgRoot" xmlns="http://www.w3.org/2000/svg" width="1403" height="994" viewBox="0 0 1403 994">
        <defs>
          <clipPath id="viewportClip"><rect id="clipRect" x="0" y="0" width="1403" height="994"/></clipPath>
        </defs>
        <rect id="bgRect" x="0" y="0" width="100%" height="100%" fill="#ffffff"/>
        <g id="viewportGroup" clip-path="url(#viewportClip)">
            <g id="sceneGroup" transform="matrix(-1.9110502951482542 -3.8583220842301813 -2.634233410982529 0.7833640133442472 685.4907356551704 457.4045354986087)">
              <g id="polyLayer"><g><clipPath id="_ec0"><polygon points="-52.16292050995171,-234.53627804305043 -25.847406835866536,-253.6273236444655 -10.999959960218348,-34.95527297387889"/></clipPath><path d="M-25.847406835866536,-253.6273236444655L-10.999959960218348,-34.95527297387889M-10.999959960218348,-34.95527297387889L-52.16292050995171,-234.53627804305043" fill="none" stroke="#000000" stroke-width="0.6" stroke-opacity="1" vector-effect="non-scaling-stroke" clip-path="url(#_ec0)"/></g><g><clipPath id="_ec1"><polygon points="-61.351367012654194,-227.8703602364753 -56.27370024724951,-231.55404161803017 -20.25903234541147,-67.91105096584215"/></clipPath><path d="M-56.27370024724951,-231.55404161803017L-20.25903234541147,-67.91105096584215M-20.25903234541147,-67.91105096584215L-61.351367012654194,-227.8703602364753" fill="none" stroke="#000000" stroke-width="0.6" stroke-opacity="1" vector-effect="non-scaling-stroke" clip-path="url(#_ec1)"/></g><g><clipPath id="_ec2"><polygon points="-68.85274194554788,-222.42835774734235 -63.71471870579444,-226.15582577954774 -20.984184655620993,-67.28275855241372"/></clipPath><path d="M-63.71471870579444,-226.15582577954774L-20.984184655620993,-67.28275855241372M-20.984184655620993,-67.28275855241372L-68.85274194554788,-222.42835774734235" fill="none" stroke="#000000" stroke-width="0.6" stroke-opacity="1" vector-effect="non-scaling-stroke" clip-path="url(#_ec2)"/></g><g><clipPath id="_ec3"><polygon points="-101.26013971271179,-198.91784922151444 -73.05496196254899,-219.37978438619757 -12.679345744811144,-33.428337963239755"/></clipPath><path d="M-73.05496196254899,-219.37978438619757L-12.679345744811144,-33.428337963239755M-12.679345744811144,-33.428337963239755L-101.26013971271179,-198.91784922151444" fill="none" stroke="#000000" stroke-width="0.6" stroke-opacity="1" vector-effect="non-scaling-stroke" clip-path="url(#_ec3)"/></g><g><clipPath id="_ec4"><polygon points="-158.65894953246607,-157.27688757025317 -43.19921912782593,-40.68300512134738 -164.39153972664457,-153.1180806335254"/></clipPath><path d="M-158.65894953246607,-157.27688757025317L-43.19921912782593,-40.68300512134738M-43.19921912782593,-40.68300512134738L-164.39153972664457,-153.1180806335254" fill="none" stroke="#000000" stroke-width="0.6" stroke-opacity="1" vector-effect="non-scaling-stroke" clip-path="url(#_ec4)"/></g><g><clipPath id="_ec5"><polygon points="-165.12476650464032,-128.30442430937413 -17.534042574014165,-8.397778794183978 -155.48285446691375,-80.8148772844241"/></clipPath><path d="M-165.12476650464032,-128.30442430937413L-17.534042574014165,-8.397778794183978M-17.534042574014165,-8.397778794183978L-155.48285446691375,-80.8148772844241" fill="none" stroke="#000000" stroke-width="0.6" stroke-opacity="1" vector-effect="non-scaling-stroke" clip-path="url(#_ec5)"/></g><g><clipPath id="_ec6"><polygon points="-153.57752700941094,-71.4305209931647 -22.87098464097653,-8.695231451969448 -145.7834302707275,-33.042064207783106"/></clipPath><path d="M-153.57752700941094,-71.4305209931647L-22.87098464097653,-8.695231451969448M-22.87098464097653,-8.695231451969448L-145.7834302707275,-33.042064207783106" fill="none" stroke="#000000" stroke-width="0.6" stroke-opacity="1" vector-effect="non-scaling-stroke" clip-path="url(#_ec6)"/></g><g><clipPath id="_ec7"><polygon points="-142.13237953067397,-15.05945400227322 -126.34309305973147,-13.42528053598835 -142.0961635799664,-14.881078687558546"/></clipPath><path d="M-142.13237953067397,-15.05945400227322L-126.34309305973147,-13.42528053598835M-126.34309305973147,-13.42528053598835L-142.0961635799664,-14.881078687558546" fill="none" stroke="#000000" stroke-width="0.6" stroke-opacity="1" vector-effect="non-scaling-stroke" clip-path="url(#_ec7)"/></g><g><clipPath id="_ec8"><polygon points="27.578554291668112,-292.3861133385315 4.680888842410241,-83.36202470985154 23.2045923497302,-289.21294682061466"/></clipPath><path d="M27.578554291668112,-292.3861133385315L4.680888842410241,-83.36202470985154M4.680888842410241,-83.36202470985154L23.2045923497302,-289.21294682061466" fill="none" stroke="#000000" stroke-width="0.6" stroke-opacity="1" vector-effect="non-scaling-stroke" clip-path="url(#_ec8)"/></g><g><clipPath id="_ec9"><polygon points="55.12838598177205,-312.3726163428422 60.20193977217241,-287.38371679987904 2.6225504495614587,-26.545287888438907 40.70491509659812,-301.90885934346034"/></clipPath><path d="M60.20193977217241,-287.38371679987904L2.6225504495614587,-26.545287888438907M2.6225504495614587,-26.545287888438907L40.70491509659812,-301.90885934346034" fill="none" stroke="#000000" stroke-width="0.6" stroke-opacity="1" vector-effect="non-scaling-stroke" clip-path="url(#_ec9)"/></g><g><clipPath id="_ec10"><polygon points="71.79540723299942,-230.28212574523786 5.768723599547229,-34.44371293333097 62.53514230453639,-275.8919368556236"/></clipPath><path d="M71.79540723299942,-230.28212574523786L5.768723599547229,-34.44371293333097M5.768723599547229,-34.44371293333097L62.53514230453639,-275.8919368556236" fill="none" stroke="#000000" stroke-width="0.6" stroke-opacity="1" vector-effect="non-scaling-stroke" clip-path="url(#_ec10)"/></g><g><clipPath id="_ec11"><polygon points="75.88536143263991,-210.1377735115966 65.80141186945912,-183.67131047405564 75.83961056570718,-210.36311138421837"/></clipPath><path d="M75.88536143263991,-210.1377735115966L65.80141186945912,-183.67131047405564M65.80141186945912,-183.67131047405564L75.83961056570718,-210.36311138421837" fill="none" stroke="#000000" stroke-width="0.6" stroke-opacity="1" vector-effect="non-scaling-stroke" clip-path="url(#_ec11)"/></g><g><clipPath id="_ec12"><polygon points="93.95328783964214,-121.14737021901237 5.120681611697364,-12.00555086141685 82.58894092614837,-177.1204681942613"/></clipPath><path d="M93.95328783964214,-121.14737021901237L5.120681611697364,-12.00555086141685M5.120681611697364,-12.00555086141685L82.58894092614837,-177.1204681942613" fill="none" stroke="#000000" stroke-width="0.6" stroke-opacity="1" vector-effect="non-scaling-stroke" clip-path="url(#_ec12)"/></g><g><clipPath id="_ec13"><polygon points="2.486073779732937,-5.227543787794451 95.70404329730196,-112.5243312086777 100.70226787466527,-87.90645249550289 23.39426764346321,-18.097992545066578"/></clipPath><path d="M2.486073779732937,-5.227543787794451L95.70404329730196,-112.5243312086777M100.70226787466527,-87.90645249550289L23.39426764346321,-18.097992545066578M23.39426764346321,-18.097992545066578L2.486073779732937,-5.227543787794451" fill="none" stroke="#000000" stroke-width="0.6" stroke-opacity="1" vector-effect="non-scaling-stroke" clip-path="url(#_ec13)"/></g><g><clipPath id="_ec14"><polygon points="104.71245166473818,-68.154995426401 41.78735108980618,-29.420215761823783 104.01550959284218,-71.58766139215749"/></clipPath><path d="M104.71245166473818,-68.154995426401L41.78735108980618,-29.420215761823783M41.78735108980618,-29.420215761823783L104.01550959284218,-71.58766139215749" fill="none" stroke="#000000" stroke-width="0.6" stroke-opacity="1" vector-effect="non-scaling-stroke" clip-path="url(#_ec14)"/></g><g><clipPath id="_ec15"><polygon points="-135.82696480550516,15.99676056710599 -12.88493780218414,4.234383827846614 -124.29146241828224,72.81285481594091"/></clipPath><path d="M-135.82696480550516,15.99676056710599L-12.88493780218414,4.234383827846614M-12.88493780218414,4.234383827846614L-124.29146241828224,72.81285481594091" fill="none" stroke="#000000" stroke-width="0.6" stroke-opacity="1" vector-effect="non-scaling-stroke" clip-path="url(#_ec15)"/></g><g><clipPath id="_ec16"><polygon points="-122.45201661166266,81.87272258817438 -8.366942344830022,4.565659642634273 -26.843159458457375,27.265972469799735 -117.00838142174292,108.68439317040462"/></clipPath><path d="M-122.45201661166266,81.87272258817438L-8.366942344830022,4.565659642634273M-8.366942344830022,4.565659642634273L-26.843159458457375,27.265972469799735M-26.843159458457375,27.265972469799735L-117.00838142174292,108.68439317040462" fill="none" stroke="#000000" stroke-width="0.6" stroke-opacity="1" vector-effect="non-scaling-stroke" clip-path="url(#_ec16)"/></g><g><clipPath id="_ec17"><polygon points="-113.11955315653177,127.83813488160376 -43.1507811434567,47.301898192039516 -112.23734967558815,132.1832734319143"/></clipPath><path d="M-113.11955315653177,127.83813488160376L-43.1507811434567,47.301898192039516M-43.1507811434567,47.301898192039516L-112.23734967558815,132.1832734319143" fill="none" stroke="#000000" stroke-width="0.6" stroke-opacity="1" vector-effect="non-scaling-stroke" clip-path="url(#_ec17)"/></g><g><clipPath id="_ec18"><polygon points="-97.2237478320094,206.13013666553888 -20.02472565772041,41.58906813908834 -92.18046462037724,230.96994378075956"/></clipPath><path d="M-97.2237478320094,206.13013666553888L-20.02472565772041,41.58906813908834M-20.02472565772041,41.58906813908834L-92.18046462037724,230.96994378075956" fill="none" stroke="#000000" stroke-width="0.6" stroke-opacity="1" vector-effect="non-scaling-stroke" clip-path="url(#_ec18)"/></g><g><clipPath id="_ec19"><polygon points="-91.46370103843583,234.50023711852555 -28.106847629878757,66.03290860193374 -88.99870124765619,246.641161348383"/></clipPath><path d="M-91.46370103843583,234.50023711852555L-28.106847629878757,66.03290860193374M-28.106847629878757,66.03290860193374L-88.99870124765619,246.641161348383" fill="none" stroke="#000000" stroke-width="0.6" stroke-opacity="1" vector-effect="non-scaling-stroke" clip-path="url(#_ec19)"/></g><g><clipPath id="_ec20"><polygon points="-75.16905008310677,314.75668311915 -75.70753754867474,312.10445753169915 -17.194397288158143,63.22679157501261 -72.25176282578637,312.6402865041458"/></clipPath><path d="M-75.70753754867474,312.10445753169915L-17.194397288158143,63.22679157501261M-17.194397288158143,63.22679157501261L-72.25176282578637,312.6402865041458" fill="none" stroke="#000000" stroke-width="0.6" stroke-opacity="1" vector-effect="non-scaling-stroke" clip-path="url(#_ec20)"/></g><g><clipPath id="_ec21"><polygon points="-41.16759368159724,290.08973712238685 -17.413958864708547,118.33344575654337 -35.80274815409065,286.197716929331"/></clipPath><path d="M-41.16759368159724,290.08973712238685L-17.413958864708547,118.33344575654337M-17.413958864708547,118.33344575654337L-35.80274815409065,286.197716929331" fill="none" stroke="#000000" stroke-width="0.6" stroke-opacity="1" vector-effect="non-scaling-stroke" clip-path="url(#_ec21)"/></g><g><clipPath id="_ec22"><polygon points="120.45501175718528,9.38222383860193 25.259944317295684,0.584903783468955 116.8889823625656,-8.181628638477195"/></clipPath><path d="M120.45501175718528,9.38222383860193L25.259944317295684,0.584903783468955M25.259944317295684,0.584903783468955L116.8889823625656,-8.181628638477195" fill="none" stroke="#000000" stroke-width="0.6" stroke-opacity="1" vector-effect="non-scaling-stroke" clip-path="url(#_ec22)"/></g><g><clipPath id="_ec23"><polygon points="122.63661140915065,20.127310379184564 40.344863174599595,3.8267362494880217 121.0223949849255,12.176770435796556"/></clipPath><path d="M122.63661140915065,20.127310379184564L40.344863174599595,3.8267362494880217M40.344863174599595,3.8267362494880217L121.0223949849255,12.176770435796556" fill="none" stroke="#000000" stroke-width="0.6" stroke-opacity="1" vector-effect="non-scaling-stroke" clip-path="url(#_ec23)"/></g><g><clipPath id="_ec24"><polygon points="132.87629495357396,70.56107614066059 32.79570640885504,18.023140234181483 131.86350681438802,65.57276575431379"/></clipPath><path d="M132.87629495357396,70.56107614066059L32.79570640885504,18.023140234181483M32.79570640885504,18.023140234181483L131.86350681438802,65.57276575431379" fill="none" stroke="#000000" stroke-width="0.6" stroke-opacity="1" vector-effect="non-scaling-stroke" clip-path="url(#_ec24)"/></g><g><clipPath id="_ec25"><polygon points="145.9112636936261,134.76252897780068 55.957255958281166,51.308514710450254 143.38920350353143,122.3405637566948"/></clipPath><path d="M145.9112636936261,134.76252897780068L55.957255958281166,51.308514710450254M55.957255958281166,51.308514710450254L143.38920350353143,122.3405637566948" fill="none" stroke="#000000" stroke-width="0.6" stroke-opacity="1" vector-effect="non-scaling-stroke" clip-path="url(#_ec25)"/></g><g><clipPath id="_ec26"><polygon points="104.08466319948639,184.71396927043705 14.772587883289816,17.858254487662634 148.26536059316575,152.66231642827105"/></clipPath><path d="M104.08466319948639,184.71396927043705L14.772587883289816,17.858254487662634M14.772587883289816,17.858254487662634L148.26536059316575,152.66231642827105" fill="none" stroke="#000000" stroke-width="0.6" stroke-opacity="1" vector-effect="non-scaling-stroke" clip-path="url(#_ec26)"/></g><g><clipPath id="_ec27"><polygon points="65.42106097371743,212.76314977851177 30.3683769069994,99.15476087338175 66.90561478986257,211.68615447631896"/></clipPath><path d="M65.42106097371743,212.76314977851177L30.3683769069994,99.15476087338175M30.3683769069994,99.15476087338175L66.90561478986257,211.68615447631896" fill="none" stroke="#000000" stroke-width="0.6" stroke-opacity="1" vector-effect="non-scaling-stroke" clip-path="url(#_ec27)"/></g><g><clipPath id="_ec28"><polygon points="53.97686463350851,221.0655404104548 -1.225118093419951,6.18188634521357 56.146660715709864,219.49142422696988"/></clipPath><path d="M53.97686463350851,221.0655404104548L-1.225118093419951,6.18188634521357M-1.225118093419951,6.18188634521357L56.146660715709864,219.49142422696988" fill="none" stroke="#000000" stroke-width="0.6" stroke-opacity="1" vector-effect="non-scaling-stroke" clip-path="url(#_ec28)"/></g><g><clipPath id="_ec29"><polygon points="43.387911365832224,228.74748012890632 18.90932950009301,110.06165417793818 44.80373903861861,227.7203433988529"/></clipPath><path d="M43.387911365832224,228.74748012890632L18.90932950009301,110.06165417793818M18.90932950009301,110.06165417793818L44.80373903861861,227.7203433988529" fill="none" stroke="#000000" stroke-width="0.6" stroke-opacity="1" vector-effect="non-scaling-stroke" clip-path="url(#_ec29)"/></g><g><clipPath id="_ec30"><polygon points="-28.0694756121223,280.58748029951084 -6.129670523350796,36.77397363928321 8.617701631869323,253.97213155783032"/></clipPath><path d="M-28.0694756121223,280.58748029951084L-6.129670523350796,36.77397363928321M-6.129670523350796,36.77397363928321L8.617701631869323,253.97213155783032" fill="none" stroke="#000000" stroke-width="0.6" stroke-opacity="1" vector-effect="non-scaling-stroke" clip-path="url(#_ec30)"/></g><polygon points="-7.625735974799755,-23.98702034271485 -2.809130673030726,-14.988482153921709 -3.343698593022749,-10.108614704810321" fill="#000000" fill-opacity="1" stroke="none"/><polygon points="-10.979966850774975,-34.85833522148631 -7.625735974799754,-23.98702034271485 -9.43489006049076,-27.366940662015764" fill="#000000" fill-opacity="1" stroke="none"/><polygon points="-6.555329377898337,-14.566920512222003 -3.796964939443087,-6.071407104249284 -4.123835487072538,-5.101892875758514" fill="#000000" fill-opacity="1" stroke="none"/><polygon points="-7.770648665695587,-19.297769596206898 -6.555329377898337,-14.566920512222003 -7.212156979909322,-16.589890219131316" fill="#000000" fill-opacity="1" stroke="none"/><polygon points="-4.233535154116651,-5.003474581241371 -4.161807320996404,-4.989266536254811 -4.199580348607902,-4.877229866117014" fill="#000000" fill-opacity="1" stroke="none"/><polygon points="-6.759421259351491,-14.394774782026714 -4.233535154116651,-5.00347458124137 -4.847581046948523,-5.125106467911383" fill="#000000" fill-opacity="1" stroke="none"/><polygon points="-4.841846144896858,-5.097300462216978 -4.296089309066804,-4.590979510983063 -4.569911473536888,-3.7788094135081582" fill="#000000" fill-opacity="1" stroke="none"/><polygon points="-10.999959960218199,-34.95527297386968 -10.979966850774973,-34.85833522148631 -10.997162101263282,-34.9140663233066" fill="#000000" fill-opacity="1" stroke="none"/><polygon points="-10.220690539055246,-28.834998593301396 -9.434890060490758,-27.36694066201576 -7.770648665695587,-19.297769596206894" fill="#000000" fill-opacity="1" stroke="none"/><polygon points="-10.715072213728657,-30.759468250165604 -10.220690539055246,-28.834998593301396 -10.637243762374421,-29.61321683059931" fill="#000000" fill-opacity="1" stroke="none"/><polygon points="-8.014263485854194,-19.06030583241155 -7.212156979909323,-16.58989021913132 -6.759421259351493,-14.394774782026722" fill="#000000" fill-opacity="1" stroke="none"/><polygon points="-10.564526255692796,-28.54223900936843 -8.014263485854194,-19.06030583241155 -10.42481537869396,-26.484588005112016" fill="#000000" fill-opacity="1" stroke="none"/><polygon points="-4.878397534091385,-5.131210681807256 -4.847581046948523,-5.125106467911385 -4.841846144896858,-5.097300462216976" fill="#000000" fill-opacity="1" stroke="none"/><polygon points="-6.843663492724418,-6.954468338469143 -4.878397534091385,-5.131210681807257 -6.5136888275345095,-5.455133645218384" fill="#000000" fill-opacity="1" stroke="none"/><polygon points="-5.112238859178304,-2.2218993772651228 -5.095348074651373,-2.2203384388524308 -5.099245524391335,-2.2087784099507015" fill="#000000" fill-opacity="1" stroke="none"/><polygon points="-5.999247319321611,-3.1176208532350054 -5.112238859178305,-2.2218993772651228 -5.816438623178122,-2.2869770212361993" fill="#000000" fill-opacity="1" stroke="none"/><polygon points="-5.806378908359558,-2.241267816794694 -5.19627335501838,-1.9209890602074127 -5.522766615754006,-0.9525938833241945" fill="#000000" fill-opacity="1" stroke="none"/><polygon points="-10.10489355319087,-21.772804071957932 -6.843663492724419,-6.954468338469145 -9.250357048585977,-9.187256442128943" fill="#000000" fill-opacity="1" stroke="none"/><polygon points="-8.753343805310795,-5.898770617009677 -6.5136888275345095,-5.455133645218384 -5.999247319321611,-3.1176208532350067" fill="#000000" fill-opacity="1" stroke="none"/><polygon points="-9.04722465463507,-6.195538235295407 -8.753343805310793,-5.898770617009677 -9.030806380446963,-5.953731161307907" fill="#000000" fill-opacity="1" stroke="none"/><polygon points="-5.909905220726439,-2.295614607144903 -5.816438623178122,-2.2869770212361993 -5.806378908359558,-2.241267816794694" fill="#000000" fill-opacity="1" stroke="none"/><polygon points="-8.888598073319885,-3.859298199040606 -5.909905220726439,-2.295614607144903 -8.800564796647864,-2.5627509004814693" fill="#000000" fill-opacity="1" stroke="none"/><polygon points="-6.9887844385842195,-1.072243266419402 -5.5332182573553625,-0.9215937968462645 -5.692236314787601,-0.4499383650993546" fill="#000000" fill-opacity="1" stroke="none"/><polygon points="-8.756986152475973,-1.9209279954175158 -6.988784438584219,-1.072243266419402 -8.71146792641134,-1.2505390780632655" fill="#000000" fill-opacity="1" stroke="none"/><polygon points="-8.709997944069169,-1.2288892916788365 -6.683867354831679,0.41719330661085796 -8.521428943760935,1.5483403785572267" fill="#000000" fill-opacity="1" stroke="none"/><polygon points="-15.687908600409898,-50.1171289908075 -10.997162101262672,-34.914066323304624 -10.715072213728083,-30.759468250163373" fill="#000000" fill-opacity="1" stroke="none"/><polygon points="-20.25903234541134,-67.9110509658444 -15.687908600409898,-50.1171289908075 -17.97259782604803,-57.52197883282301" fill="#000000" fill-opacity="1" stroke="none"/><polygon points="-11.070056511841434,-30.421811641813147 -10.637243762373954,-29.61321683059844 -10.56452625569227,-28.542239009366476" fill="#000000" fill-opacity="1" stroke="none"/><polygon points="-16.233161039943823,-49.6183480537095 -11.070056511841434,-30.421811641813143 -12.66356237080489,-33.398850952192554" fill="#000000" fill-opacity="1" stroke="none"/><polygon points="-12.650498193971726,-33.339490111403606 -10.424815378693497,-26.484588005110588 -10.10489355319043,-21.77280407195593" fill="#000000" fill-opacity="1" stroke="none"/><polygon points="-20.984184655621114,-67.28275855241553 -17.97259782604971,-57.52197883282846 -16.233161039945895,-49.6183480537172" fill="#000000" fill-opacity="1" stroke="none"/><polygon points="-12.679345744809506,-33.4283379632367 -12.663562370805154,-33.39885095219305 -12.650498193972211,-33.339490111405105" fill="#000000" fill-opacity="1" stroke="none"/><polygon points="-43.19921912782529,-40.683005121348444 -9.250357048585826,-9.187256442128804 -9.04722465463496,-6.195538235295299" fill="#000000" fill-opacity="1" stroke="none"/><polygon points="-15.209892032171195,-7.177701314823129 -9.030806380446862,-5.953731161307887 -8.88859807331981,-3.859298199040566" fill="#000000" fill-opacity="1" stroke="none"/><polygon points="-17.534042574014748,-8.397778794181924 -15.209892032171195,-7.177701314823129 -16.29743340003862,-7.393124477732582" fill="#000000" fill-opacity="1" stroke="none"/><polygon points="-10.40266863633104,-2.7108071035841195 -8.800564796647809,-2.562750900481464 -8.756986152475925,-1.920927995417492" fill="#000000" fill-opacity="1" stroke="none"/><polygon points="-10.723754390656982,-2.864918806029822 -10.40266863633104,-2.7108071035841195 -10.55092557780434,-2.7245080630940164" fill="#000000" fill-opacity="1" stroke="none"/><polygon points="-8.74032210980881,-1.2535254537292106 -8.711467926411302,-1.2505390780632615 -8.70999794406913,-1.2288892916788052" fill="#000000" fill-opacity="1" stroke="none"/><polygon points="-22.870984640983195,-8.695231451969779 -16.297433400035082,-7.393124477731881 -10.723754390655245,-2.8649188060289887" fill="#000000" fill-opacity="1" stroke="none"/><polygon points="-126.34309305973828,-13.42528053598916 -10.550925577803607,-2.7245080630939484 -8.740322109808798,-1.2535254537292095" fill="#000000" fill-opacity="1" stroke="none"/><polygon points="-2.809130673030636,-14.988482153921536 4.680888842410675,-83.36202470984682 -1.6642456624030588,-12.849570857593122" fill="#000000" fill-opacity="1" stroke="none"/><polygon points="-3.7806586480489903,-6.119772371891614 -3.3436985930227117,-10.108614704810208 -2.909875002991017,-8.702559777925547" fill="#000000" fill-opacity="1" stroke="none"/><polygon points="-1.7197783136049516,-12.232445483466526 -1.6642456624030586,-12.849570857593125 -1.5706613851080697,-12.674733676560194" fill="#000000" fill-opacity="1" stroke="none"/><polygon points="1.7061404348336078,-22.39389011759669 2.622550449561409,-26.545287888438263 2.2864695001824606,-24.11517485904205" fill="#000000" fill-opacity="1" stroke="none"/><polygon points="-3.7969649394433826,-6.071407104250195 -3.7806586480486972,-6.119772371894285 -3.7887339179217387,-6.046056301171542" fill="#000000" fill-opacity="1" stroke="none"/><polygon points="-4.091315595114478,-4.9753033427643345 -3.909965309759307,-4.9393809831925335 -3.9614207147436873,-4.469664139974851" fill="#000000" fill-opacity="1" stroke="none"/><polygon points="-4.161807320996865,-4.989266536254903 -4.123835487072756,-5.101892875759364 -4.091315595114478,-4.9753033427643345" fill="#000000" fill-opacity="1" stroke="none"/><polygon points="-4.064903714900855,-4.37649917420148 -3.9802317319571325,-4.297945510495694 -3.998622423671542,-4.1300638728075985" fill="#000000" fill-opacity="1" stroke="none"/><polygon points="-4.296089309067149,-4.590979510983383 -4.199580348608115,-4.877229866117808 -4.064903714900855,-4.376499174201479" fill="#000000" fill-opacity="1" stroke="none"/><polygon points="-4.232026769003861,-2.1405557984231622 -4.216719209774702,-2.13914117157932 -4.221928055389125,-2.0915915989045333" fill="#000000" fill-opacity="1" stroke="none"/><polygon points="-5.09534807465158,-2.2203384388524503 -4.569911473537029,-3.7788094135088404 -4.232026769003861,-2.1405557984231622" fill="#000000" fill-opacity="1" stroke="none"/><polygon points="-4.400651915063132,-1.503322569372261 -4.2925848999805964,-1.4465921085049789 -4.2977531578842045,-1.3994130456221896" fill="#000000" fill-opacity="1" stroke="none"/><polygon points="-5.196273355018535,-1.9209890602074942 -5.099245524391493,-2.2087784099508614 -4.400651915063132,-1.503322569372261" fill="#000000" fill-opacity="1" stroke="none"/><polygon points="-5.515541450035333,-0.9197642670860575 -4.6564137601728355,-0.8308455133787463 -5.395803338889273,-0.37569975824783797" fill="#000000" fill-opacity="1" stroke="none"/><polygon points="-5.533218257355441,-0.9215937968462726 -5.52276661575404,-0.9525938833243448 -5.515541450035333,-0.9197642670860575" fill="#000000" fill-opacity="1" stroke="none"/><polygon points="-5.801453899764732,-0.12599360040686536 -5.692236314787629,-0.44993836509936835 -5.45791013460643,-0.33746870218600056" fill="#000000" fill-opacity="1" stroke="none"/><polygon points="-2.9098750029914324,-8.702559777926895 -1.7197783136045044,-12.232445483471494 -2.2344169616041256,-6.513349396520249" fill="#000000" fill-opacity="1" stroke="none"/><polygon points="-3.3963824089094374,-4.837649080217439 -2.4101779947059927,-4.642299017718604 -2.9083915586171103,-3.3346813237348387" fill="#000000" fill-opacity="1" stroke="none"/><polygon points="-3.909965309759307,-4.939380983192533 -3.7887339179217387,-6.046056301171542 -3.3963824089094374,-4.837649080217439" fill="#000000" fill-opacity="1" stroke="none"/><polygon points="-3.8976182637662857,-4.221301615169117 -2.9171535819582113,-3.311684405172488 -3.363200451253014,-2.140984085299216" fill="#000000" fill-opacity="1" stroke="none"/><polygon points="-3.980231731957132,-4.297945510495693 -3.9614207147436873,-4.469664139974851 -3.8976182637662857,-4.221301615169117" fill="#000000" fill-opacity="1" stroke="none"/><polygon points="-3.4439354366060657,-2.0677254315750306 -3.3929092774802876,-2.0630099198884917 -3.4220771039946087,-1.9864556692459314" fill="#000000" fill-opacity="1" stroke="none"/><polygon points="-4.216719209774702,-2.1391411715793205 -3.9986224236715415,-4.1300638728075985 -3.4439354366060657,-2.06772543157503" fill="#000000" fill-opacity="1" stroke="none"/><polygon points="-4.064168094726031,-1.3266832665514277 -3.9490726657575563,-1.2662631955046577 -4.040144256553938,-1.2102022918117088" fill="#000000" fill-opacity="1" stroke="none"/><polygon points="-4.2925848999805964,-1.4465921085049789 -4.221928055389125,-2.091591598904533 -4.064168094726031,-1.3266832665514277" fill="#000000" fill-opacity="1" stroke="none"/><polygon points="-4.3386065471750905,-1.0264779757634805 -4.2977531578842045,-1.3994130456221896 -4.083782096925512,-1.183340163402107" fill="#000000" fill-opacity="1" stroke="none"/><polygon points="-1.5706613851088502,-12.674733676561655 1.706140434837888,-22.393890117616085 -0.7696715717334097,-11.178298537513422" fill="#000000" fill-opacity="1" stroke="none"/><polygon points="-2.4004994624518226,-4.667701417300007 -2.2344169616041256,-6.51334939652025 -1.994079306847306,-5.734396957437713" fill="#000000" fill-opacity="1" stroke="none"/><polygon points="-1.9401571376985025,-5.875921772465712 -0.7696715717334099,-11.17829853751342 -0.27325888306984836,-10.250884257854691" fill="#000000" fill-opacity="1" stroke="none"/><polygon points="0.7808622900976978,-13.228524767327436 2.2864695001841526,-24.115174859054285 5.768723599543985,-34.44371293333167" fill="#000000" fill-opacity="1" stroke="none"/><polygon points="0.6513270782069469,-12.67756440097142 0.7808622900976978,-13.228524767327434 0.7350579278029699,-12.897325460073347" fill="#000000" fill-opacity="1" stroke="none"/><polygon points="-2.410177994706008,-4.6422990177186065 -2.4004994624518172,-4.667701417300065 -2.4029147873893257,-4.64086030178627" fill="#000000" fill-opacity="1" stroke="none"/><polygon points="-2.8939290283313945,-3.2901380363277837 -2.576060359338544,-2.995238263598165 -2.6659564457932308,-2.5880030665600615" fill="#000000" fill-opacity="1" stroke="none"/><polygon points="-2.9171535819582184,-3.3116844051724943 -2.9083915586171147,-3.334681323734852 -2.8939290283313945,-3.2901380363277837" fill="#000000" fill-opacity="1" stroke="none"/><polygon points="-3.341959923051517,-2.0583015060014453 -3.0012048068748145,-2.026811094806312 -3.2540623533476705,-1.7161443944561934" fill="#000000" fill-opacity="1" stroke="none"/><polygon points="-3.3929092774802903,-2.063009919888492 -3.3632004512530154,-2.1409840852992215 -3.341959923051517,-2.0583015060014453" fill="#000000" fill-opacity="1" stroke="none"/><polygon points="-3.6190813417505354,-1.4693958263601765 -3.4220771039946096,-1.9864556692459354 -3.3307463896196206,-1.6468860605964761" fill="#000000" fill-opacity="1" stroke="none"/><polygon points="-1.994079306847316,-5.734396957437746 -1.9401571376984703,-5.8759217724658575 -1.9808578040506786,-5.691545071152187" fill="#000000" fill-opacity="1" stroke="none"/><polygon points="-2.533750418914574,-3.186905082530387 -2.4029147873893257,-4.64086030178627 -2.2207586731309163,-4.604778321425568" fill="#000000" fill-opacity="1" stroke="none"/><polygon points="-2.576060359338544,-2.995238263598165 -2.533750418914574,-3.1869050825303864 -2.5529288552285636,-2.9737782205982026" fill="#000000" fill-opacity="1" stroke="none"/><polygon points="-2.711178492739671,-2.3831442131328564 -2.6659564457932308,-2.5880030665600615 -2.6313047478562375,-2.4812789657383414" fill="#000000" fill-opacity="1" stroke="none"/><polygon points="-0.2732588830698759,-10.250884257854743 0.6513270782070362,-12.67756440097181 -0.027257646985261563,-9.791296772746778" fill="#000000" fill-opacity="1" stroke="none"/><polygon points="-1.60810403007125,-4.483422017308259 -1.588656827694849,-4.4795698623747136 -1.5986867780002005,-4.452899994125411" fill="#000000" fill-opacity="1" stroke="none"/><polygon points="-2.2207586731309163,-4.604778321425568 -1.9808578040506788,-5.691545071152186 -1.60810403007125,-4.483422017308259" fill="#000000" fill-opacity="1" stroke="none"/><polygon points="-2.593013454988771,-2.528324544457317 -2.5529288552285636,-2.9737782205982026 -2.3691914446303715,-2.8033175054889883" fill="#000000" fill-opacity="1" stroke="none"/><polygon points="-0.7547875982062777,-6.69684729751242 -0.027257646985261452,-9.791296772746778 0.22895290956495862,-9.31263590413827" fill="#000000" fill-opacity="1" stroke="none"/><polygon points="0.2453193822417603,-9.35615473092281 0.7350579278030044,-12.897325460073597 65.8014118694579,-183.6713104740549" fill="#000000" fill-opacity="1" stroke="none"/><polygon points="-1.5886568276948527,-4.479569862374714 -0.7547875982062819,-6.696847297512434 -1.289996226076251,-4.4204103551246305" fill="#000000" fill-opacity="1" stroke="none"/><polygon points="-2.090103608719266,-3.146211353427459 -1.5986867780002023,-4.452899994125416 -1.441422840548025,-3.9431957291734796" fill="#000000" fill-opacity="1" stroke="none"/><polygon points="0.2289529095649515,-9.312635904138284 0.24531938224176142,-9.356154730922846 0.23717613035790636,-9.297273016439535" fill="#000000" fill-opacity="1" stroke="none"/><polygon points="-1.3862584886359341,-4.01097194319018 -1.289996226076251,-4.420410355124631 -1.0859119123587129,-4.379984777155632" fill="#000000" fill-opacity="1" stroke="none"/><polygon points="-0.31124920828478864,-5.331753508269145 0.2371761303579063,-9.297273016439535 1.3000965506566655,-7.311490625220238" fill="#000000" fill-opacity="1" stroke="none"/><polygon points="-3.0012048068749015,-2.02681109480632 -2.7111784927396014,-2.3831442131331726 -2.794063770112773,-2.0076684433438454" fill="#000000" fill-opacity="1" stroke="none"/><polygon points="-3.29003631129571,-1.6719459476621563 -3.254062353347673,-1.7161443944562043 -3.2491704388766975,-1.6971017368383086" fill="#000000" fill-opacity="1" stroke="none"/><polygon points="-2.6313047478562983,-2.481278965738529 -2.5930134549887423,-2.5283245444576297 -2.6046376522915557,-2.3991467192653855" fill="#000000" fill-opacity="1" stroke="none"/><polygon points="-2.8018340856857047,-1.9724684016269458 -2.794063770112773,-2.0076684433438454 -2.75110106902574,-2.003698104942286" fill="#000000" fill-opacity="1" stroke="none"/><polygon points="-2.369191444630541,-2.803317505489146 -2.090103608718932,-3.146211353428347 -2.2578913618348113,-2.7000598638183124" fill="#000000" fill-opacity="1" stroke="none"/><polygon points="-2.6337204732081365,-2.075954032614223 -2.6046376522915557,-2.3991467192653855 -2.522025855634344,-2.144709844872132" fill="#000000" fill-opacity="1" stroke="none"/><polygon points="-1.4414228405481895,-3.943195729174014 -1.386258488635684,-4.010971943191246 -1.4191586207378146,-3.87103571603288" fill="#000000" fill-opacity="1" stroke="none"/><polygon points="-2.4500938653315565,-2.1889889921401613 -2.2578913618348113,-2.7000598638183124 -2.0034015216157894,-2.463959224266843" fill="#000000" fill-opacity="1" stroke="none"/><polygon points="-1.0859119123593284,-4.379984777155753 -0.31124920828459146,-5.331753508270573 -0.46002331262005836,-4.2560070547733915" fill="#000000" fill-opacity="1" stroke="none"/><polygon points="-1.7070897941200316,-2.646359719009172 -1.4191586207378146,-3.87103571603288 -1.1475665146355316,-2.9907852463426607" fill="#000000" fill-opacity="1" stroke="none"/><polygon points="1.3000965506560749,-7.3114906252213405 5.1206816117008565,-12.00555086142449 2.1624506032046513,-5.700412824997841" fill="#000000" fill-opacity="1" stroke="none"/><polygon points="-0.5873052134020165,-3.3356650774368837 -0.46002331262005836,-4.2560070547733915 0.5748057726202189,-4.0510252847003185" fill="#000000" fill-opacity="1" stroke="none"/><polygon points="1.719071871172061,-4.755400721530503 2.1624506032046513,-5.700412824997841 2.4330364313591173,-5.194895607903074" fill="#000000" fill-opacity="1" stroke="none"/><polygon points="-6.683867354831698,0.41719330661084153 -5.801453899764719,-0.12599360040690577 -6.134943669218248,0.8631535677494844" fill="#000000" fill-opacity="1" stroke="none"/><polygon points="-12.884937802176864,4.234383827846614 -8.521428943760935,1.548340378557207 -8.368391299799269,3.8022669771955195" fill="#000000" fill-opacity="1" stroke="none"/><polygon points="-4.656413760172888,-0.8308455133787518 -4.338606547175086,-1.0264779757635227 -4.3633598193069565,-0.8005147587094601" fill="#000000" fill-opacity="1" stroke="none"/><polygon points="-5.379060337854305,-0.2996231227691326 -4.680063952182705,0.03587454895220621 -5.172162205814686,0.6404779821361327" fill="#000000" fill-opacity="1" stroke="none"/><polygon points="-5.457910134606461,-0.33746870218601577 -5.39580333888928,-0.3756997582478683 -5.379060337854305,-0.2996231227691325" fill="#000000" fill-opacity="1" stroke="none"/><polygon points="-6.687611925863745,2.502394981021687 -6.134943669218248,0.8631535677494844 -5.664489636372826,1.2453629874559877" fill="#000000" fill-opacity="1" stroke="none"/><polygon points="-3.9490726657575923,-1.2662631955046768 -3.6190813417505154,-1.4693958263602314 -3.7385782141912225,-1.1557628061097645" fill="#000000" fill-opacity="1" stroke="none"/><polygon points="-4.021667175697034,-1.1206150920836926 -3.8663952152691867,-0.9638179071406111 -3.9644748817649176,-0.8433149330877895" fill="#000000" fill-opacity="1" stroke="none"/><polygon points="-4.083782096925537,-1.1833401634021323 -4.040144256553946,-1.2102022918117448 -4.021667175697034,-1.1206150920836926" fill="#000000" fill-opacity="1" stroke="none"/><polygon points="-4.419977462991176,-0.283673799633383 -4.3633598193069565,-0.8005147587094601 -4.027595452200299,-0.7657635227584615" fill="#000000" fill-opacity="1" stroke="none"/><polygon points="-3.3307463896196308,-1.6468860605965134 -3.290036311295637,-1.6719459476622447 -3.3257010577142334,-1.628127405391124" fill="#000000" fill-opacity="1" stroke="none"/><polygon points="-3.7635826590027373,-1.0901358203506795 -3.7385782141912225,-1.1557628061097645 -3.7186726807634978,-1.145313270844064" fill="#000000" fill-opacity="1" stroke="none"/><polygon points="-7.693009859897037,3.7376504165899505 -6.687611925863745,2.502394981021687 -7.084446724459688,3.6794266419937824" fill="#000000" fill-opacity="1" stroke="none"/><polygon points="-4.680063952182704,0.03587454895220654 -4.419977462991175,-0.28367379963338246 -4.466225889891704,0.13851051888658988" fill="#000000" fill-opacity="1" stroke="none"/><polygon points="-4.902859646695525,1.864131530314413 -4.892416471064,1.8726158450813133 -4.897852447506715,1.886883178400727" fill="#000000" fill-opacity="1" stroke="none"/><polygon points="-5.664489636372826,1.245362987455988 -5.172162205814686,0.6404779821361337 -4.902859646695525,1.864131530314413" fill="#000000" fill-opacity="1" stroke="none"/><polygon points="-3.8663952152691863,-0.9638179071406109 -3.7635826590027373,-1.090135820350679 -3.826904838075786,-0.9239396190118089" fill="#000000" fill-opacity="1" stroke="none"/><polygon points="-3.946754487752869,-0.7573965734772515 -3.892498688852517,-0.7517811590556934 -3.926948185874866,-0.661364568424087" fill="#000000" fill-opacity="1" stroke="none"/><polygon points="-4.027595452200298,-0.7657635227584614 -3.9644748817649176,-0.8433149330877888 -3.946754487752869,-0.7573965734772515" fill="#000000" fill-opacity="1" stroke="none"/><polygon points="-4.5608629416361985,1.0024162098503626 -4.466225889891704,0.13851051888658983 -4.267964156117887,0.2336703100329235" fill="#000000" fill-opacity="1" stroke="none"/><polygon points="-4.892416471064,1.8726158450813133 -4.5608629416361985,1.0024162098503628 -4.675494992081137,2.0488486474710816" fill="#000000" fill-opacity="1" stroke="none"/><polygon points="-5.066333043290247,2.3290795056343625 -4.897852447506715,1.886883178400727 -4.8350285770454455,2.172341483185012" fill="#000000" fill-opacity="1" stroke="none"/><polygon points="-3.2491704388767073,-1.697101736838346 -2.8018340856856927,-1.972468401626999 -3.041269533524278,-0.8878100408027807" fill="#000000" fill-opacity="1" stroke="none"/><polygon points="-3.1098874405327663,-0.8257276209479192 -3.060676732642053,-0.7998941495957849 -3.0797275752083455,-0.7135925770558442" fill="#000000" fill-opacity="1" stroke="none"/><polygon points="-3.7186726807634973,-1.145313270844064 -3.3257010577142334,-1.628127405391124 -3.1098874405327663,-0.8257276209479193" fill="#000000" fill-opacity="1" stroke="none"/><polygon points="-3.6294618248041046,-0.7245571382189215 -3.0896405299267355,-0.6686862387803935 -3.1779551212246537,-0.26861531904490593" fill="#000000" fill-opacity="1" stroke="none"/><polygon points="-3.892498688852517,-0.7517811590556934 -3.826904838075786,-0.9239396190118088 -3.6294618248041046,-0.7245571382189215" fill="#000000" fill-opacity="1" stroke="none"/><polygon points="-3.684601549402836,0.5136671745862994 -3.499851845331252,0.6023415895586586 -3.6073558802925065,0.8881972878820525" fill="#000000" fill-opacity="1" stroke="none"/><polygon points="-4.267964156117887,0.2336703100329236 -3.926948185874866,-0.661364568424087 -3.684601549402836,0.5136671745862993" fill="#000000" fill-opacity="1" stroke="none"/><polygon points="-4.677315921173429,2.0654712173491037 -4.675494992081137,2.0488486474710816 -4.665167400605744,2.057239058582878" fill="#000000" fill-opacity="1" stroke="none"/><polygon points="-2.7511010690258053,-2.0036981049422917 -2.6337204732081316,-2.075954032614273 -2.6411369501484865,-1.9935359234936012" fill="#000000" fill-opacity="1" stroke="none"/><polygon points="-3.0121389302941597,-0.7744139242506319 -2.98703962433072,-0.7612378853485914 -2.999941235989719,-0.7269322035980438" fill="#000000" fill-opacity="1" stroke="none"/><polygon points="-3.060676732642053,-0.7998941495957849 -3.041269533524278,-0.8878100408027805 -3.0121389302941597,-0.7744139242506319" fill="#000000" fill-opacity="1" stroke="none"/><polygon points="-3.06701986356862,-0.6663450251466966 -3.0243861978569315,-0.6619324884937758 -3.0485510534919515,-0.5976775822949318" fill="#000000" fill-opacity="1" stroke="none"/><polygon points="-3.0896405299267355,-0.6686862387803933 -3.0797275752083455,-0.713592577055844 -3.06701986356862,-0.6663450251466966" fill="#000000" fill-opacity="1" stroke="none"/><polygon points="-3.1859860033077925,-0.23223489386182283 -3.1779551212246537,-0.26861531904490593 -3.173859521220323,-0.264479488276991" fill="#000000" fill-opacity="1" stroke="none"/><polygon points="-2.522025855634357,-2.1447098448721715 -2.4500938653315334,-2.1889889921402235 -2.496413137118768,-2.0658249845069925" fill="#000000" fill-opacity="1" stroke="none"/><polygon points="-2.67810663416639,-1.5826978023683256 -2.6411369501484865,-1.9935359234936012 -2.5275472406318316,-1.9830386881172133" fill="#000000" fill-opacity="1" stroke="none"/><polygon points="-3.499851845331252,0.6023415895586585 -3.1859860033077925,-0.2322348938618224 -3.3826358380973245,0.6586018196851273" fill="#000000" fill-opacity="1" stroke="none"/><polygon points="-3.8355992973053996,1.4951017764573244 -3.6073558802925065,0.8881972878820524 -3.5255199024964465,1.284983779456741" fill="#000000" fill-opacity="1" stroke="none"/><polygon points="-2.98703962433072,-0.7612378853485914 -2.67810663416639,-1.5826978023683254 -2.762627479381389,-0.6434313150693282" fill="#000000" fill-opacity="1" stroke="none"/><polygon points="-2.9821195116751076,-0.6575579338111915 -2.7633933765389034,-0.6349200237903413 -2.818625919928632,-0.021129699258025214" fill="#000000" fill-opacity="1" stroke="none"/><polygon points="-3.0243861978569315,-0.6619324884937758 -2.999941235989719,-0.7269322035980439 -2.9821195116751076,-0.6575579338111915" fill="#000000" fill-opacity="1" stroke="none"/><polygon points="-2.878793425663576,0.03348501882371854 -2.8281430748097933,0.08463290417513056 -2.8373921157963715,0.18741600124721236" fill="#000000" fill-opacity="1" stroke="none"/><polygon points="-3.173859521220323,-0.2644794882769909 -3.048551053491952,-0.5976775822949312 -2.878793425663576,0.03348501882371857" fill="#000000" fill-opacity="1" stroke="none"/><polygon points="-3.5200967751120986,1.2813089249434952 -3.3826358380973245,0.6586018196851273 -2.9251709789607667,0.8781714745227299" fill="#000000" fill-opacity="1" stroke="none"/><polygon points="-2.003401521615822,-2.4639592242668726 -1.7070897941200167,-2.6463597190092325 -1.7953530207920874,-2.2709441158447303" fill="#000000" fill-opacity="1" stroke="none"/><polygon points="-2.4677391209323343,-1.977511603730993 -1.8771727082850562,-1.9229352282360064 -2.117763063591601,-0.89961694769609" fill="#000000" fill-opacity="1" stroke="none"/><polygon points="-2.527547240631831,-1.9830386881172133 -2.496413137118768,-2.0658249845069925 -2.4677391209323343,-1.977511603730993" fill="#000000" fill-opacity="1" stroke="none"/><polygon points="-2.7422444933904266,-0.6327311380704954 -2.193854272153495,-0.5759733643506554 -2.2422233915611405,-0.37024190832285186" fill="#000000" fill-opacity="1" stroke="none"/><polygon points="-2.7633933765389034,-0.6349200237903413 -2.762627479381389,-0.6434313150693282 -2.7422444933904266,-0.6327311380704954" fill="#000000" fill-opacity="1" stroke="none"/><polygon points="-2.7786054674558525,0.13465711563295568 -2.4557660151372667,0.4606677950411233 -2.6402928388403564,0.6730639186510637" fill="#000000" fill-opacity="1" stroke="none"/><polygon points="-2.8281430748097933,0.08463290417513056 -2.818625919928632,-0.021129699258025214 -2.7786054674558525,0.13465711563295565" fill="#000000" fill-opacity="1" stroke="none"/><polygon points="-2.897886737477845,0.8596829510476248 -2.8373921157963715,0.18741600124721236 -2.6937786768067338,0.7213739321387387" fill="#000000" fill-opacity="1" stroke="none"/><polygon points="-1.1475665146355456,-2.990785246342706 -0.5873052134020078,-3.335665077436945 -0.7936428360328021,-1.8436919497237418" fill="#000000" fill-opacity="1" stroke="none"/><polygon points="-1.3696873739940396,-1.8760366753055884 -0.7964953829072585,-1.8230659328686067 -0.8551831573507318,-1.3987100578780796" fill="#000000" fill-opacity="1" stroke="none"/><polygon points="-1.8771727082850564,-1.9229352282360064 -1.7953530207920876,-2.2709441158447303 -1.3696873739940396,-1.8760366753055884" fill="#000000" fill-opacity="1" stroke="none"/><polygon points="-2.0063809468260336,-0.556570085142938 -1.6078399400174166,-0.5153215372904636 -1.8882082565171165,-0.19260886922114384" fill="#000000" fill-opacity="1" stroke="none"/><polygon points="-2.193854272153495,-0.5759733643506553 -2.117763063591601,-0.89961694769609 -2.0063809468260336,-0.556570085142938" fill="#000000" fill-opacity="1" stroke="none"/><polygon points="-2.4308284120480748,0.4319638368740977 -2.2422233915611405,-0.370241908322852 -1.8931065257955388,-0.18697080866031962" fill="#000000" fill-opacity="1" stroke="none"/><polygon points="0.5748057726201437,-4.051025284700334 1.7190718711721056,-4.755400721530597 1.3193953342494396,-3.9035349517577997" fill="#000000" fill-opacity="1" stroke="none"/><polygon points="-0.7870083884431656,-1.8221892054403226 -0.4958294111212278,-1.7952803043205772 -0.7045730059696358,-1.5550099225708514" fill="#000000" fill-opacity="1" stroke="none"/><polygon points="-0.7964953829072585,-1.8230659328686065 -0.7936428360328021,-1.8436919497237418 -0.7870083884431656,-1.8221892054403226" fill="#000000" fill-opacity="1" stroke="none"/><polygon points="-0.8579887390877099,-1.378423633590522 -0.8551831573507318,-1.3987100578780796 -0.8469777785908339,-1.3910975922043747" fill="#000000" fill-opacity="1" stroke="none"/><polygon points="2.4330364313590893,-5.194895607903128 2.4860737797330703,-5.227543787794604 2.442442519923987,-5.177322848281882" fill="#000000" fill-opacity="1" stroke="none"/><polygon points="1.3001427460361574,-3.86250021650738 1.3193953342494396,-3.9035349517577997 1.3333855588762884,-3.900763729873303" fill="#000000" fill-opacity="1" stroke="none"/><polygon points="-2.4557660151372667,0.46066779504112343 -2.4308284120480748,0.43196383687409784 -2.4410667952579925,0.4755114042258001" fill="#000000" fill-opacity="1" stroke="none"/><polygon points="-2.665781802087629,0.7024025095394428 -2.6402928388403564,0.6730639186510637 -2.637652623009661,0.6833414340082067" fill="#000000" fill-opacity="1" stroke="none"/><polygon points="-1.6078399400174166,-0.5153215372904635 -0.8579887390877099,-1.3784236335905218 -0.9862517024063957,-0.45098785085516535" fill="#000000" fill-opacity="1" stroke="none"/><polygon points="-1.8849951106755176,-0.18271267015530762 -1.5889377514326768,-0.02729549295124134 -1.7902432684892213,0.10911444829992956" fill="#000000" fill-opacity="1" stroke="none"/><polygon points="-1.8931065257955386,-0.1869708086603195 -1.8882082565171165,-0.19260886922114367 -1.8849951106755176,-0.18271267015530762" fill="#000000" fill-opacity="1" stroke="none"/><polygon points="-2.4619347365244666,0.5642703478169007 -2.4410667952579925,0.4755114042258001 -2.3968472314867264,0.5201653333681933" fill="#000000" fill-opacity="1" stroke="none"/><polygon points="-0.49582941112122747,-1.7952803043205772 1.3001427460361574,-3.86250021650738 0.2959199831813193,-1.7221118827578152" fill="#000000" fill-opacity="1" stroke="none"/><polygon points="-0.5766074738647592,-1.1402639958352074 -0.310633001017956,-0.8935085925961216 -0.4676461989696978,-0.7871122979419645" fill="#000000" fill-opacity="1" stroke="none"/><polygon points="-0.8469777785908338,-1.3910975922043747 -0.7045730059696358,-1.555009922570851 -0.5766074738647592,-1.1402639958352074" fill="#000000" fill-opacity="1" stroke="none"/><polygon points="-0.9885859151885187,-0.4341097716135349 -0.9862517024063957,-0.45098785085516535 -0.9666692429589264,-0.4489610882340332" fill="#000000" fill-opacity="1" stroke="none"/><polygon points="3.338316797373409,-3.50362147710553 3.4953187113931055,-3.472522109393859 3.392321368493157,-3.4027283864028384" fill="#000000" fill-opacity="1" stroke="none"/><polygon points="1.3333855588762884,-3.900763729873303 2.442442519923987,-5.177322848281882 3.338316797373409,-3.50362147710553" fill="#000000" fill-opacity="1" stroke="none"/><polygon points="0.00867414780717013,-1.1098795597171058 0.29591998318131923,-1.722111882757815 0.838212487858482,-1.6719966734781189" fill="#000000" fill-opacity="1" stroke="none"/><polygon points="18.32952091124297,-13.524569764009906 23.3942676434638,-18.09799254506711 41.787351089807515,-29.420215761824863" fill="#000000" fill-opacity="1" stroke="none"/><polygon points="-7.0549253055942245,3.6766022046631406 -5.066333043290247,2.329079505634363 -5.523942322358874,3.530126674129461" fill="#000000" fill-opacity="1" stroke="none"/><polygon points="-4.835028577045445,2.172341483185012 -4.67731592117343,2.0654712173491045 -4.737545477370676,2.615283953522499" fill="#000000" fill-opacity="1" stroke="none"/><polygon points="-4.6651674006057435,2.057239058582878 -3.8355992973054,1.4951017764573253 -4.191675484073482,2.4419165361229176" fill="#000000" fill-opacity="1" stroke="none"/><polygon points="-4.796684034559441,3.1551373742386954 -4.737545477370676,2.615283953522499 -4.6547012037312765,2.9917107120229565" fill="#000000" fill-opacity="1" stroke="none"/><polygon points="-3.5255199024964465,1.2849837794567418 -3.520096775112098,1.2813089249434957 -3.523292254815354,1.295784658625657" fill="#000000" fill-opacity="1" stroke="none"/><polygon points="-4.202840760559091,2.4716052627639025 -4.191675484073483,2.4419165361229176 -4.18310023230352,2.448883299661984" fill="#000000" fill-opacity="1" stroke="none"/><polygon points="-2.9251709789607663,0.8781714745227303 -2.897886737477845,0.8596829510476257 -2.900611198473319,0.8899594455915774" fill="#000000" fill-opacity="1" stroke="none"/><polygon points="-3.6397867951117986,1.82351260477378 -3.523292254815354,1.295784658625657 -3.4576812463418785,1.613903444054539" fill="#000000" fill-opacity="1" stroke="none"/><polygon points="-2.6937786768067333,0.7213739321387393 -2.665781802087629,0.7024025095394437 -2.6910566173004273,0.7314946093676702" fill="#000000" fill-opacity="1" stroke="none"/><polygon points="-2.908916821613238,0.9822584926682625 -2.900611198473319,0.8899594455915774 -2.8498822407937423,0.9143078507324652" fill="#000000" fill-opacity="1" stroke="none"/><polygon points="-5.086073756710784,3.4882339613040134 -4.796684034559441,3.1551373742386954 -4.830494650484486,3.4637816417238776" fill="#000000" fill-opacity="1" stroke="none"/><polygon points="-4.6547012037312765,2.9917107120229565 -4.202840760559091,2.4716052627639025 -4.560098982828851,3.4215630819797416" fill="#000000" fill-opacity="1" stroke="none"/><polygon points="-4.18310023230352,2.448883299661984 -3.6397867951117986,1.8235126047737797 -3.839463821644968,2.7280626964533092" fill="#000000" fill-opacity="1" stroke="none"/><polygon points="-4.566476842105555,3.4385219562955527 -4.560098982828851,3.4215630819797416 -4.556575151884613,3.4375746202740722" fill="#000000" fill-opacity="1" stroke="none"/><polygon points="-3.4576812463418785,1.6139034440545388 -2.9089168216132375,0.9822584926682625 -3.115187066135385,3.2745063696717716" fill="#000000" fill-opacity="1" stroke="none"/><polygon points="-3.983993878505765,3.3827933805671617 -3.839463821644968,2.7280626964533092 -3.133702043188651,3.301442412561409" fill="#000000" fill-opacity="1" stroke="none"/><polygon points="-2.637652623009661,0.6833414340082076 -2.461934736524467,0.5642703478169019 -2.5605205800824256,0.983591794791644" fill="#000000" fill-opacity="1" stroke="none"/><polygon points="-2.611056388275831,1.0289372238008792 -2.575225040992988,1.0461352148555572 -2.589780069663455,1.1080430452558818" fill="#000000" fill-opacity="1" stroke="none"/><polygon points="-2.849882240793742,0.9143078507324655 -2.6910566173004273,0.7314946093676703 -2.611056388275831,1.0289372238008792" fill="#000000" fill-opacity="1" stroke="none"/><polygon points="-3.1174711963748556,3.2998895397182126 -3.115187066135385,3.2745063696717716 -3.1100973704099233,3.2991840550184457" fill="#000000" fill-opacity="1" stroke="none"/><polygon points="-1.5889377514326761,-0.02729549295124095 -0.9885859151885188,-0.4341097716135338 -1.081675302714383,0.23899512749826923" fill="#000000" fill-opacity="1" stroke="none"/><polygon points="-1.2957647373047183,1.6320636761348053 -1.2835649405744871,1.644383310529239 -1.2884110728536073,1.6547122986558858" fill="#000000" fill-opacity="1" stroke="none"/><polygon points="-2.396847231486726,0.5201653333681937 -1.7902432684892213,0.10911444829993033 -1.2957647373047183,1.632063676134805" fill="#000000" fill-opacity="1" stroke="none"/><polygon points="-2.540125896944134,1.0629817699296416 -1.2918788883582943,1.6621035589662245 -1.9990263482598052,3.169309160551083" fill="#000000" fill-opacity="1" stroke="none"/><polygon points="-2.5752250409929887,1.0461352148555572 -2.560520580082426,0.9835917947916442 -2.540125896944134,1.0629817699296418" fill="#000000" fill-opacity="1" stroke="none"/><polygon points="-3.1048161432942982,3.298678777982645 -2.589780069663455,1.1080430452558812 -2.0282880249626096,3.1956828407359557" fill="#000000" fill-opacity="1" stroke="none"/><polygon points="-0.3106330010179552,-0.8935085925961208 0.008674147807172794,-1.1098795597171063 -0.15889161722798983,-0.752731900967085" fill="#000000" fill-opacity="1" stroke="none"/><polygon points="-0.343410329509194,-0.38445448872052784 -0.3322224904373735,-0.38329655990658934 -0.3387563089545649,-0.3693704576050676" fill="#000000" fill-opacity="1" stroke="none"/><polygon points="-0.9666692429589251,-0.448961088234033 -0.4676461989696974,-0.7871122979419636 -0.343410329509194,-0.38445448872052784" fill="#000000" fill-opacity="1" stroke="none"/><polygon points="-1.2728924541105557,1.62163610108085 -1.081675302714383,0.23899512749826957 -0.7145982498890954,0.43169454058632195" fill="#000000" fill-opacity="1" stroke="none"/><polygon points="-1.283564940574487,1.6443833105292391 -1.2728924541105555,1.62163610108085 -1.2769606885929254,1.6510524355696539" fill="#000000" fill-opacity="1" stroke="none"/><polygon points="-1.2849280261354692,1.6654397680511586 -1.2793225236338486,1.668130244106074 -1.2807360106453114,1.678350797248957" fill="#000000" fill-opacity="1" stroke="none"/><polygon points="-1.2918788883582941,1.6621035589662247 -1.2884110728536071,1.654712298655886 -1.2849280261354692,1.6654397680511586" fill="#000000" fill-opacity="1" stroke="none"/><polygon points="-2.0106066073798567,3.193991185734312 -1.9990263482598054,3.169309160551083 -1.9931156160491548,3.192317749606818" fill="#000000" fill-opacity="1" stroke="none"/><polygon points="3.4953187113931077,-3.4725221093938603 18.32952091124297,-13.524569764009907 6.531544299992708,-2.871098256538204" fill="#000000" fill-opacity="1" stroke="none"/><polygon points="4.499847727619412,-1.3336117340517983 4.798337306577901,-1.3060272338267431 4.607063183157591,-1.1333083438747344" fill="#000000" fill-opacity="1" stroke="none"/><polygon points="0.8382124878584833,-1.6719966734781186 3.3923213684931586,-3.4027283864028393 4.499847727619411,-1.3336117340517988" fill="#000000" fill-opacity="1" stroke="none"/><polygon points="0.31108549092706217,-0.3167149043181785 3.3539737745434017,-0.001779374894084862 1.9839884329652424,1.2353056171408445" fill="#000000" fill-opacity="1" stroke="none"/><polygon points="-0.33222249043737356,-0.3832965599065893 -0.15889161722798986,-0.752731900967085 0.31108549092706184,-0.31671490431817856" fill="#000000" fill-opacity="1" stroke="none"/><polygon points="0.028814328492662855,0.82195366039195 1.5546806855917839,1.622966824251453 0.5545919092061311,2.5260383962027824" fill="#000000" fill-opacity="1" stroke="none"/><polygon points="-0.7145982498890953,0.43169454058632195 -0.3387563089545649,-0.3693704576050676 0.028814328492662855,0.82195366039195" fill="#000000" fill-opacity="1" stroke="none"/><polygon points="-1.2425899462710999,1.6857607990476215 0.5384549894092046,2.5406098961251486 0.04510292131638194,2.9861025745533487" fill="#000000" fill-opacity="1" stroke="none"/><polygon points="-1.2793225236338486,1.668130244106074 -1.2769606885929254,1.6510524355696539 -1.2425899462710996,1.6857607990476215" fill="#000000" fill-opacity="1" stroke="none"/><polygon points="-1.4833706073461774,3.1435483175463275 -1.2807360106453114,1.678350797248957 -0.8254463134344256,3.08060195494335" fill="#000000" fill-opacity="1" stroke="none"/><polygon points="22.858385885788028,0.36296709366706553 25.259944317302143,0.5849037834695991 24.396064838030725,0.6675547380718854" fill="#000000" fill-opacity="1" stroke="none"/><polygon points="4.798337306577903,-1.3060272338267427 6.531544299992708,-2.871098256538202 22.858385885788024,0.3629670936670659" fill="#000000" fill-opacity="1" stroke="none"/><polygon points="5.321744629026827,0.20188270470928682 16.822255409431936,1.3921726903047764 6.488089223836141,2.3808854919716396" fill="#000000" fill-opacity="1" stroke="none"/><polygon points="3.3539737745434035,-0.001779374894085084 4.6070631831575914,-1.1333083438747336 5.321744629026827,0.2018827047092866" fill="#000000" fill-opacity="1" stroke="none"/><polygon points="3.505965652551285,2.647306169374181 3.536404906248299,2.663285447504227 3.5244249547491844,2.664431619454416" fill="#000000" fill-opacity="1" stroke="none"/><polygon points="1.5546806855917847,1.6229668242514537 1.9839884329652433,1.2353056171408452 3.505965652551285,2.647306169374181" fill="#000000" fill-opacity="1" stroke="none"/><polygon points="0.5626744514677766,2.552234524374388 1.2498346333283505,2.882051166977381 0.681220997008495,2.9364528062906174" fill="#000000" fill-opacity="1" stroke="none"/><polygon points="0.5384549894092052,2.540609896125149 0.5545919092061293,2.526038396202785 0.5626744514677766,2.552234524374388" fill="#000000" fill-opacity="1" stroke="none"/><polygon points="0.031217050971463323,2.998641396162384 0.04510292131638193,2.9861025745533487 0.055243429592568116,2.996342692261767" fill="#000000" fill-opacity="1" stroke="none"/><polygon points="-8.36839129979932,3.8022669771947264 -7.693009859896319,3.737650416589068 -8.32043775912024,4.508523020070927" fill="#000000" fill-opacity="1" stroke="none"/><polygon points="-8.366942344833946,4.565659642633156 -8.32043775912024,4.508523020070927 -8.318774469789254,4.533019816854338" fill="#000000" fill-opacity="1" stroke="none"/><polygon points="-7.091954102319535,3.701693896436149 -7.0844467244594,3.679426641992928 -7.0549253055903485,3.676602204661942" fill="#000000" fill-opacity="1" stroke="none"/><polygon points="-8.318774469789018,4.5330198168578155 -7.091954102319582,3.7016938964362867 -8.160105517991111,6.86988388230919" fill="#000000" fill-opacity="1" stroke="none"/><polygon points="-8.246416720966398,7.125887183828976 -8.160105517991111,6.86988388230919 -8.150239854392426,7.015184613702203" fill="#000000" fill-opacity="1" stroke="none"/><polygon points="-5.837537197744474,4.353191796198292 -5.523942322358508,3.5301266741285007 -5.086073756709881,3.4882339613029743" fill="#000000" fill-opacity="1" stroke="none"/><polygon points="-21.741779363790915,22.659470077221243 -8.246416720966396,7.125887183828972 -9.86895288505071,11.938409782543884" fill="#000000" fill-opacity="1" stroke="none"/><polygon points="-8.150239854392426,7.015184613702202 -5.837537197744476,4.353191796198292 -7.953844569419526,9.90767919992604" fill="#000000" fill-opacity="1" stroke="none"/><polygon points="-8.128914553618888,10.367170120300475 -7.953844569419526,9.90767919992604 -7.934561997344673,10.191671431932411" fill="#000000" fill-opacity="1" stroke="none"/><polygon points="-4.935102359419799,4.418705674140778 -4.830494650484378,3.463781641722898 -4.566476842105171,3.43852195629453" fill="#000000" fill-opacity="1" stroke="none"/><polygon points="-6.680218758790446,9.059010265289329 -4.935102359419799,4.418705674140778 -5.30765497501546,7.819596962105644" fill="#000000" fill-opacity="1" stroke="none"/><polygon points="-4.556575151884825,3.437574620273106 -3.983993878505534,3.3827933805661163 -4.276754704088398,4.709019217453587" fill="#000000" fill-opacity="1" stroke="none"/><polygon points="-3.1337020431898375,3.3014424125604456 -3.1174711963747583,3.2998895397171255 -3.118707164398251,3.3136246525273085" fill="#000000" fill-opacity="1" stroke="none"/><polygon points="-4.877702838495919,7.43135387713297 -4.276754704088397,4.709019217453587 -3.8765762179444794,6.527345140817519" fill="#000000" fill-opacity="1" stroke="none"/><polygon points="-3.1100973704101413,3.299184055017388 -3.104816143294039,3.2986787779815416 -3.1076849455226365,3.3108808372038956" fill="#000000" fill-opacity="1" stroke="none"/><polygon points="-3.125141722809875,3.3851308597976284 -3.118707164398251,3.3136246525273085 -3.1099942712905158,3.3207032395648786" fill="#000000" fill-opacity="1" stroke="none"/><polygon points="-3.860485494660511,6.512815355949417 -3.1251417228098752,3.3851308597976284 -3.3664455749006614,6.0667015533761885" fill="#000000" fill-opacity="1" stroke="none"/><polygon points="-2.0282880249629103,3.1956828407348374 -2.0106066073792923,3.19399118573311 -2.022134531551901,3.218561664838021" fill="#000000" fill-opacity="1" stroke="none"/><polygon points="-3.1047864867781407,3.3249341827760412 -2.357056386836419,3.932410084018265 -2.7894289134957133,4.853963693562518" fill="#000000" fill-opacity="1" stroke="none"/><polygon points="-3.1099942712905158,3.3207032395648786 -3.1076849455226365,3.3108808372038956 -3.1047864867781407,3.3249341827760412" fill="#000000" fill-opacity="1" stroke="none"/><polygon points="-1.9931156160494432,3.1923177496056963 -1.4833706073460116,3.1435483175451298 -1.666142105718527,4.46512099346765" fill="#000000" fill-opacity="1" stroke="none"/><polygon points="-1.6828072109988526,4.480188120218327 -1.6696987040409756,4.490837821332134 -1.6731774559004733,4.515991761879563" fill="#000000" fill-opacity="1" stroke="none"/><polygon points="-2.3570563868364185,3.932410084018265 -2.0221345315519006,3.2185616648380213 -1.6828072109988526,4.480188120218327" fill="#000000" fill-opacity="1" stroke="none"/><polygon points="-3.3525180523889753,6.054125120218454 -2.7894289134957133,4.853963693562518 -2.6691662305963515,5.437064296746055" fill="#000000" fill-opacity="1" stroke="none"/><polygon points="-0.8254463134348111,3.0806019549421633 0.03121705097190297,2.998641396161064 -0.6518042674229162,3.6154037779050507" fill="#000000" fill-opacity="1" stroke="none"/><polygon points="-1.6568551086475167,4.501272301216573 -1.644214604041019,4.5115417847221675 -1.6523335831477632,4.518873153094349" fill="#000000" fill-opacity="1" stroke="none"/><polygon points="-1.6696987040409756,4.490837821332134 -1.666142105718527,4.46512099346765 -1.6568551086475167,4.501272301216573" fill="#000000" fill-opacity="1" stroke="none"/><polygon points="-1.6766073075187435,4.540792117632713 -1.6731774559004733,4.515991761879563 -1.6684808174952717,4.533453966967263" fill="#000000" fill-opacity="1" stroke="none"/><polygon points="-43.15078114345405,47.30189819203818 -26.843159458469017,27.26597246980964 -21.741779363794194,22.659470077225706" fill="#000000" fill-opacity="1" stroke="none"/><polygon points="-18.6427227842697,37.96184571609382 -9.868952885051042,11.938409782544866 -8.128914553619213,10.367170120301331" fill="#000000" fill-opacity="1" stroke="none"/><polygon points="-20.02472565771864,41.58906813908803 -18.642722784269704,37.96184571609382 -19.459386880050083,40.3841118593697" fill="#000000" fill-opacity="1" stroke="none"/><polygon points="-7.9345619973446375,10.191671431932928 -6.6802187587907085,9.05901026529003 -7.80787693419988,12.057479255945598" fill="#000000" fill-opacity="1" stroke="none"/><polygon points="-14.42749918006184,29.6592068600298 -7.807876934199881,12.057479255945598 -7.600706883206024,15.108663763812615" fill="#000000" fill-opacity="1" stroke="none"/><polygon points="-5.646776441585015,10.915307991739077 -5.307654975015504,7.819596962106053 -4.877702838496012,7.431353877133393" fill="#000000" fill-opacity="1" stroke="none"/><polygon points="-5.658771340790667,10.96964567577083 -5.646776441585015,10.915307991739079 -5.650888338913445,10.9528439402625" fill="#000000" fill-opacity="1" stroke="none"/><polygon points="-3.8765762179444296,6.527345140817743 -3.86048549466059,6.512815355949757 -3.8704481074557586,6.555189971433603" fill="#000000" fill-opacity="1" stroke="none"/><polygon points="-4.154544219883162,7.76355405945728 -3.8704481074557586,6.555189971433603 -3.780136614410866,6.9655461866404655" fill="#000000" fill-opacity="1" stroke="none"/><polygon points="-3.3683504477658475,6.087870097541638 -3.366445574900684,6.066701553376442 -3.3525180523891684,6.05412512021886" fill="#000000" fill-opacity="1" stroke="none"/><polygon points="-28.106847629880786,66.03290860193516 -19.45938688004608,40.38411185935782 -14.42749918005748,29.659206860018205" fill="#000000" fill-opacity="1" stroke="none"/><polygon points="-7.600706883206076,15.108663763811842 -5.658771340790466,10.969645675769922 -7.358829187666676,18.671019779500035" fill="#000000" fill-opacity="1" stroke="none"/><polygon points="-17.19439728815627,63.22679157501125 -7.358829187666675,18.671019779500035 -7.21544988557424,20.78269906516184" fill="#000000" fill-opacity="1" stroke="none"/><polygon points="-6.302178363529888,16.898223137547305 -5.6508883389133775,10.952843940261879 -4.154544219883084,7.763554059456947" fill="#000000" fill-opacity="1" stroke="none"/><polygon points="-7.215449885574321,20.782699065160642 -6.302178363529665,16.898223137545273 -7.028816270685481,23.53142452844171" fill="#000000" fill-opacity="1" stroke="none"/><polygon points="-3.7801366144108792,6.965546186640405 -3.3683504477658475,6.087870097541634 -3.5439147686361756,8.03888800962523" fill="#000000" fill-opacity="1" stroke="none"/><polygon points="-17.41395886470794,118.33344575654134 -7.028816270685482,23.531424528441704 -6.131230344704289,36.75100071088183" fill="#000000" fill-opacity="1" stroke="none"/><polygon points="-2.6691662305963195,5.43706429674621 -1.676607307518762,4.540792117632846 -2.1492136661881314,7.958084505375291" fill="#000000" fill-opacity="1" stroke="none"/><polygon points="-6.1208475726201375,36.675925614332705 -3.5439147686361756,8.038888009625229 -2.6942911893531476,11.899396839567636" fill="#000000" fill-opacity="1" stroke="none"/><polygon points="-6.131230344704319,36.7510007108814 -6.120847572619963,36.675925614330794 -6.129670523350912,36.77397363928357" fill="#000000" fill-opacity="1" stroke="none"/><polygon points="16.822255409424262,1.3921726903039828 24.396064838029176,0.6675547380702922 40.34486317459808,3.8267362494879897" fill="#000000" fill-opacity="1" stroke="none"/><polygon points="7.851848485775754,4.9287047609401515 32.7957064088572,18.023140234184854 8.66013874006249,6.438778820393894" fill="#000000" fill-opacity="1" stroke="none"/><polygon points="9.713061232893955,8.405882759365952 55.95725595828477,51.30851471045233 14.76381358590814,17.841862060813824" fill="#000000" fill-opacity="1" stroke="none"/><polygon points="3.536404906246409,2.6632854475032346 6.488089223837772,2.380885491970247 7.8518484857758235,4.928704760940188" fill="#000000" fill-opacity="1" stroke="none"/><polygon points="6.448593080930902,5.3773020592069365 8.660138740062596,6.438778820393946 9.713061232894189,8.40588275936617" fill="#000000" fill-opacity="1" stroke="none"/><polygon points="1.2498346333263983,2.882051166976444 3.5244249547480386,2.664431619453353 6.448593080930901,5.377302059206935" fill="#000000" fill-opacity="1" stroke="none"/><polygon points="14.725657129371125,17.810862736559205 14.763813585908679,17.841862060814265 14.772587883288745,17.858254487660066" fill="#000000" fill-opacity="1" stroke="none"/><polygon points="0.991368063575699,3.9416628064663968 14.725657129371125,17.810862736559205 2.1076665325258865,7.559670213639663" fill="#000000" fill-opacity="1" stroke="none"/><polygon points="0.0552434295914178,2.9963426922606056 0.6812209970037524,2.9364528062899593 0.9913680635756869,3.9416628064663755" fill="#000000" fill-opacity="1" stroke="none"/><polygon points="0.09898357323966422,5.927762535859401 2.1076665325258346,7.559670213639617 30.36837690700015,99.15476087338679" fill="#000000" fill-opacity="1" stroke="none"/><polygon points="-1.6442146040409527,4.511541784722222 -0.6518042674229043,3.6154037779050867 0.09898357323966411,5.927762535859403" fill="#000000" fill-opacity="1" stroke="none"/><polygon points="-1.6684808174952466,4.533453966967357 -1.6523335831477393,4.518873153094442 -1.225118093421396,6.181886345207298" fill="#000000" fill-opacity="1" stroke="none"/><polygon points="-2.694291189353161,11.899396839567583 -2.1492136661881367,7.958084505375261 18.909329500092017,110.06165417793989" fill="#000000" fill-opacity="1" stroke="none"/></g>
              <g id="lineLayer"/>
            </g>
            <g id="labelLayer"/>
            <g id="pointLayer"/>
          </g>
        </svg>